G04 #@! TF.GenerationSoftware,KiCad,Pcbnew,(5.1.4)-1*
G04 #@! TF.CreationDate,2021-10-31T22:39:57+11:00*
G04 #@! TF.ProjectId,x60,7836302e-6b69-4636-9164-5f7063625858,rev?*
G04 #@! TF.SameCoordinates,Original*
G04 #@! TF.FileFunction,Legend,Top*
G04 #@! TF.FilePolarity,Positive*
%FSLAX46Y46*%
G04 Gerber Fmt 4.6, Leading zero omitted, Abs format (unit mm)*
G04 Created by KiCad (PCBNEW (5.1.4)-1) date 2021-10-31 22:39:57*
%MOMM*%
%LPD*%
G04 APERTURE LIST*
%ADD10C,0.150000*%
G04 APERTURE END LIST*
D10*
X309468809Y-203619761D02*
X310516428Y-202286428D01*
X309468809Y-202286428D02*
X310516428Y-203619761D01*
X312135476Y-201619761D02*
X311754523Y-201619761D01*
X311564047Y-201715000D01*
X311468809Y-201810238D01*
X311278333Y-202095952D01*
X311183095Y-202476904D01*
X311183095Y-203238809D01*
X311278333Y-203429285D01*
X311373571Y-203524523D01*
X311564047Y-203619761D01*
X311945000Y-203619761D01*
X312135476Y-203524523D01*
X312230714Y-203429285D01*
X312325952Y-203238809D01*
X312325952Y-202762619D01*
X312230714Y-202572142D01*
X312135476Y-202476904D01*
X311945000Y-202381666D01*
X311564047Y-202381666D01*
X311373571Y-202476904D01*
X311278333Y-202572142D01*
X311183095Y-202762619D01*
X313564047Y-201619761D02*
X313754523Y-201619761D01*
X313945000Y-201715000D01*
X314040238Y-201810238D01*
X314135476Y-202000714D01*
X314230714Y-202381666D01*
X314230714Y-202857857D01*
X314135476Y-203238809D01*
X314040238Y-203429285D01*
X313945000Y-203524523D01*
X313754523Y-203619761D01*
X313564047Y-203619761D01*
X313373571Y-203524523D01*
X313278333Y-203429285D01*
X313183095Y-203238809D01*
X313087857Y-202857857D01*
X313087857Y-202381666D01*
X313183095Y-202000714D01*
X313278333Y-201810238D01*
X313373571Y-201715000D01*
X313564047Y-201619761D01*
X316611666Y-203619761D02*
X316611666Y-201619761D01*
X317373571Y-201619761D01*
X317564047Y-201715000D01*
X317659285Y-201810238D01*
X317754523Y-202000714D01*
X317754523Y-202286428D01*
X317659285Y-202476904D01*
X317564047Y-202572142D01*
X317373571Y-202667380D01*
X316611666Y-202667380D01*
X319754523Y-203429285D02*
X319659285Y-203524523D01*
X319373571Y-203619761D01*
X319183095Y-203619761D01*
X318897380Y-203524523D01*
X318706904Y-203334047D01*
X318611666Y-203143571D01*
X318516428Y-202762619D01*
X318516428Y-202476904D01*
X318611666Y-202095952D01*
X318706904Y-201905476D01*
X318897380Y-201715000D01*
X319183095Y-201619761D01*
X319373571Y-201619761D01*
X319659285Y-201715000D01*
X319754523Y-201810238D01*
X321278333Y-202572142D02*
X321564047Y-202667380D01*
X321659285Y-202762619D01*
X321754523Y-202953095D01*
X321754523Y-203238809D01*
X321659285Y-203429285D01*
X321564047Y-203524523D01*
X321373571Y-203619761D01*
X320611666Y-203619761D01*
X320611666Y-201619761D01*
X321278333Y-201619761D01*
X321468809Y-201715000D01*
X321564047Y-201810238D01*
X321659285Y-202000714D01*
X321659285Y-202191190D01*
X321564047Y-202381666D01*
X321468809Y-202476904D01*
X321278333Y-202572142D01*
X320611666Y-202572142D01*
X325278333Y-203619761D02*
X324611666Y-202667380D01*
X324135476Y-203619761D02*
X324135476Y-201619761D01*
X324897380Y-201619761D01*
X325087857Y-201715000D01*
X325183095Y-201810238D01*
X325278333Y-202000714D01*
X325278333Y-202286428D01*
X325183095Y-202476904D01*
X325087857Y-202572142D01*
X324897380Y-202667380D01*
X324135476Y-202667380D01*
X326897380Y-203524523D02*
X326706904Y-203619761D01*
X326325952Y-203619761D01*
X326135476Y-203524523D01*
X326040238Y-203334047D01*
X326040238Y-202572142D01*
X326135476Y-202381666D01*
X326325952Y-202286428D01*
X326706904Y-202286428D01*
X326897380Y-202381666D01*
X326992619Y-202572142D01*
X326992619Y-202762619D01*
X326040238Y-202953095D01*
X327659285Y-202286428D02*
X328135476Y-203619761D01*
X328611666Y-202286428D01*
X329373571Y-203429285D02*
X329468809Y-203524523D01*
X329373571Y-203619761D01*
X329278333Y-203524523D01*
X329373571Y-203429285D01*
X329373571Y-203619761D01*
X332230714Y-201619761D02*
X332421190Y-201619761D01*
X332611666Y-201715000D01*
X332706904Y-201810238D01*
X332802142Y-202000714D01*
X332897380Y-202381666D01*
X332897380Y-202857857D01*
X332802142Y-203238809D01*
X332706904Y-203429285D01*
X332611666Y-203524523D01*
X332421190Y-203619761D01*
X332230714Y-203619761D01*
X332040238Y-203524523D01*
X331945000Y-203429285D01*
X331849761Y-203238809D01*
X331754523Y-202857857D01*
X331754523Y-202381666D01*
X331849761Y-202000714D01*
X331945000Y-201810238D01*
X332040238Y-201715000D01*
X332230714Y-201619761D01*
X335278333Y-203619761D02*
X335278333Y-201619761D01*
X335278333Y-202381666D02*
X335468809Y-202286428D01*
X335849761Y-202286428D01*
X336040238Y-202381666D01*
X336135476Y-202476904D01*
X336230714Y-202667380D01*
X336230714Y-203238809D01*
X336135476Y-203429285D01*
X336040238Y-203524523D01*
X335849761Y-203619761D01*
X335468809Y-203619761D01*
X335278333Y-203524523D01*
X336897380Y-202286428D02*
X337373571Y-203619761D01*
X337849761Y-202286428D02*
X337373571Y-203619761D01*
X337183095Y-204095952D01*
X337087857Y-204191190D01*
X336897380Y-204286428D01*
X339945000Y-203619761D02*
X340992619Y-202286428D01*
X339945000Y-202286428D02*
X340992619Y-203619761D01*
X342611666Y-202286428D02*
X342611666Y-203619761D01*
X342135476Y-201524523D02*
X341659285Y-202953095D01*
X342897380Y-202953095D01*
X344611666Y-201619761D02*
X343659285Y-201619761D01*
X343564047Y-202572142D01*
X343659285Y-202476904D01*
X343849761Y-202381666D01*
X344325952Y-202381666D01*
X344516428Y-202476904D01*
X344611666Y-202572142D01*
X344706904Y-202762619D01*
X344706904Y-203238809D01*
X344611666Y-203429285D01*
X344516428Y-203524523D01*
X344325952Y-203619761D01*
X343849761Y-203619761D01*
X343659285Y-203524523D01*
X343564047Y-203429285D01*
X345468809Y-202286428D02*
X346897380Y-202286428D01*
X346040238Y-201429285D02*
X345468809Y-204000714D01*
X346706904Y-203143571D02*
X345278333Y-203143571D01*
X346135476Y-204000714D02*
X346706904Y-201429285D01*
X347945000Y-201619761D02*
X348135476Y-201619761D01*
X348325952Y-201715000D01*
X348421190Y-201810238D01*
X348516428Y-202000714D01*
X348611666Y-202381666D01*
X348611666Y-202857857D01*
X348516428Y-203238809D01*
X348421190Y-203429285D01*
X348325952Y-203524523D01*
X348135476Y-203619761D01*
X347945000Y-203619761D01*
X347754523Y-203524523D01*
X347659285Y-203429285D01*
X347564047Y-203238809D01*
X347468809Y-202857857D01*
X347468809Y-202381666D01*
X347564047Y-202000714D01*
X347659285Y-201810238D01*
X347754523Y-201715000D01*
X347945000Y-201619761D01*
X349373571Y-201810238D02*
X349468809Y-201715000D01*
X349659285Y-201619761D01*
X350135476Y-201619761D01*
X350325952Y-201715000D01*
X350421190Y-201810238D01*
X350516428Y-202000714D01*
X350516428Y-202191190D01*
X350421190Y-202476904D01*
X349278333Y-203619761D01*
X350516428Y-203619761D01*
X351659285Y-202476904D02*
X351468809Y-202381666D01*
X351373571Y-202286428D01*
X351278333Y-202095952D01*
X351278333Y-202000714D01*
X351373571Y-201810238D01*
X351468809Y-201715000D01*
X351659285Y-201619761D01*
X352040238Y-201619761D01*
X352230714Y-201715000D01*
X352325952Y-201810238D01*
X352421190Y-202000714D01*
X352421190Y-202095952D01*
X352325952Y-202286428D01*
X352230714Y-202381666D01*
X352040238Y-202476904D01*
X351659285Y-202476904D01*
X351468809Y-202572142D01*
X351373571Y-202667380D01*
X351278333Y-202857857D01*
X351278333Y-203238809D01*
X351373571Y-203429285D01*
X351468809Y-203524523D01*
X351659285Y-203619761D01*
X352040238Y-203619761D01*
X352230714Y-203524523D01*
X352325952Y-203429285D01*
X352421190Y-203238809D01*
X352421190Y-202857857D01*
X352325952Y-202667380D01*
X352230714Y-202572142D01*
X352040238Y-202476904D01*
X353087857Y-201619761D02*
X354325952Y-201619761D01*
X353659285Y-202381666D01*
X353945000Y-202381666D01*
X354135476Y-202476904D01*
X354230714Y-202572142D01*
X354325952Y-202762619D01*
X354325952Y-203238809D01*
X354230714Y-203429285D01*
X354135476Y-203524523D01*
X353945000Y-203619761D01*
X353373571Y-203619761D01*
X353183095Y-203524523D01*
X353087857Y-203429285D01*
M02*
