G04 #@! TF.GenerationSoftware,KiCad,Pcbnew,(5.1.4)-1*
G04 #@! TF.CreationDate,2021-10-31T22:39:57+11:00*
G04 #@! TF.ProjectId,x60,7836302e-6b69-4636-9164-5f7063625858,rev?*
G04 #@! TF.SameCoordinates,Original*
G04 #@! TF.FileFunction,Copper,L1,Top*
G04 #@! TF.FilePolarity,Positive*
%FSLAX46Y46*%
G04 Gerber Fmt 4.6, Leading zero omitted, Abs format (unit mm)*
G04 Created by KiCad (PCBNEW (5.1.4)-1) date 2021-10-31 22:39:57*
%MOMM*%
%LPD*%
G04 APERTURE LIST*
%ADD10C,0.300000*%
%ADD11C,2.250000*%
%ADD12O,1.000000X2.100000*%
%ADD13O,1.000000X1.600000*%
%ADD14C,0.800000*%
%ADD15C,0.381000*%
%ADD16C,0.254000*%
G04 APERTURE END LIST*
D10*
X309472321Y-277459821D02*
X310258035Y-276459821D01*
X309472321Y-276459821D02*
X310258035Y-277459821D01*
X311472321Y-275959821D02*
X311186607Y-275959821D01*
X311043750Y-276031250D01*
X310972321Y-276102678D01*
X310829464Y-276316964D01*
X310758035Y-276602678D01*
X310758035Y-277174107D01*
X310829464Y-277316964D01*
X310900892Y-277388392D01*
X311043750Y-277459821D01*
X311329464Y-277459821D01*
X311472321Y-277388392D01*
X311543750Y-277316964D01*
X311615178Y-277174107D01*
X311615178Y-276816964D01*
X311543750Y-276674107D01*
X311472321Y-276602678D01*
X311329464Y-276531250D01*
X311043750Y-276531250D01*
X310900892Y-276602678D01*
X310829464Y-276674107D01*
X310758035Y-276816964D01*
X312543750Y-275959821D02*
X312686607Y-275959821D01*
X312829464Y-276031250D01*
X312900892Y-276102678D01*
X312972321Y-276245535D01*
X313043750Y-276531250D01*
X313043750Y-276888392D01*
X312972321Y-277174107D01*
X312900892Y-277316964D01*
X312829464Y-277388392D01*
X312686607Y-277459821D01*
X312543750Y-277459821D01*
X312400892Y-277388392D01*
X312329464Y-277316964D01*
X312258035Y-277174107D01*
X312186607Y-276888392D01*
X312186607Y-276531250D01*
X312258035Y-276245535D01*
X312329464Y-276102678D01*
X312400892Y-276031250D01*
X312543750Y-275959821D01*
D11*
X81343750Y-113628750D03*
X74993750Y-116168750D03*
D12*
X83980000Y-114260000D03*
X92620000Y-114260000D03*
D13*
X83980000Y-110080000D03*
X92620000Y-110080000D03*
D11*
X202787500Y-189911250D03*
X196437500Y-192451250D03*
X214757500Y-189881250D03*
X208407500Y-192421250D03*
X88487500Y-151728750D03*
X82137500Y-154268750D03*
X124206250Y-170778750D03*
X117856250Y-173318750D03*
X257533750Y-170818750D03*
X251183750Y-173358750D03*
X345662500Y-189828750D03*
X339312500Y-192368750D03*
X321850000Y-189828750D03*
X315500000Y-192368750D03*
X298975000Y-189828750D03*
X292625000Y-192368750D03*
X274225000Y-189828750D03*
X267875000Y-192368750D03*
X131350000Y-189828750D03*
X125000000Y-192368750D03*
X107537500Y-189828750D03*
X101187500Y-192368750D03*
X83725000Y-189828750D03*
X77375000Y-192368750D03*
X83725000Y-151728750D03*
X77375000Y-154268750D03*
X343281250Y-132678750D03*
X336931250Y-135218750D03*
X348043750Y-113628750D03*
X341693750Y-116168750D03*
X328993750Y-113628750D03*
X322643750Y-116168750D03*
X348043750Y-170778750D03*
X341693750Y-173318750D03*
X338518750Y-113628750D03*
X332168750Y-116168750D03*
X343281250Y-189828750D03*
X336931250Y-192368750D03*
X321850000Y-170778750D03*
X315500000Y-173318750D03*
X336137500Y-151728750D03*
X329787500Y-154268750D03*
X319468750Y-132678750D03*
X313118750Y-135218750D03*
X309943750Y-113628750D03*
X303593750Y-116168750D03*
X319468750Y-189828750D03*
X313118750Y-192368750D03*
X331375000Y-170778750D03*
X325025000Y-173318750D03*
X305181250Y-151728750D03*
X298831250Y-154268750D03*
X290893750Y-113628750D03*
X284543750Y-116168750D03*
X300418750Y-132678750D03*
X294068750Y-135218750D03*
X295656250Y-189828750D03*
X289306250Y-192368750D03*
X295656250Y-170778750D03*
X289306250Y-173318750D03*
X286131250Y-151728750D03*
X279781250Y-154268750D03*
X271843750Y-113628750D03*
X265493750Y-116168750D03*
X281368750Y-132678750D03*
X275018750Y-135218750D03*
X276606250Y-170778750D03*
X270256250Y-173318750D03*
X267081250Y-151728750D03*
X260731250Y-154268750D03*
X252793750Y-113628750D03*
X246443750Y-116168750D03*
X262318750Y-132678750D03*
X255968750Y-135218750D03*
X248031250Y-151728750D03*
X241681250Y-154268750D03*
X243268750Y-132678750D03*
X236918750Y-135218750D03*
X233743750Y-113628750D03*
X227393750Y-116168750D03*
X238506250Y-170778750D03*
X232156250Y-173318750D03*
X228981250Y-151728750D03*
X222631250Y-154268750D03*
X224218750Y-132678750D03*
X217868750Y-135218750D03*
X214693750Y-113628750D03*
X208343750Y-116168750D03*
X219456250Y-170778750D03*
X213106250Y-173318750D03*
X209931250Y-151728750D03*
X203581250Y-154268750D03*
X205168750Y-132678750D03*
X198818750Y-135218750D03*
X195643750Y-113628750D03*
X189293750Y-116168750D03*
X176593750Y-113628750D03*
X170243750Y-116168750D03*
X200406250Y-170778750D03*
X194056250Y-173318750D03*
X190881250Y-151728750D03*
X184531250Y-154268750D03*
X186118750Y-132678750D03*
X179768750Y-135218750D03*
X133731250Y-189828750D03*
X127381250Y-192368750D03*
X181356250Y-170778750D03*
X175006250Y-173318750D03*
X171831250Y-151728750D03*
X165481250Y-154268750D03*
X167068750Y-132678750D03*
X160718750Y-135218750D03*
X157543750Y-113628750D03*
X151193750Y-116168750D03*
X162306250Y-170778750D03*
X155956250Y-173318750D03*
X152781250Y-151728750D03*
X146431250Y-154268750D03*
X138493750Y-113628750D03*
X132143750Y-116168750D03*
X148018750Y-132678750D03*
X141668750Y-135218750D03*
X109918750Y-189828750D03*
X103568750Y-192368750D03*
X143256250Y-170778750D03*
X136906250Y-173318750D03*
X133731250Y-151728750D03*
X127381250Y-154268750D03*
X119443750Y-113628750D03*
X113093750Y-116168750D03*
X128968750Y-132678750D03*
X122618750Y-135218750D03*
X114681250Y-151728750D03*
X108331250Y-154268750D03*
X100393750Y-113628750D03*
X94043750Y-116168750D03*
X109918750Y-132678750D03*
X103568750Y-135218750D03*
X86106250Y-189828750D03*
X79756250Y-192368750D03*
X93250000Y-170778750D03*
X86900000Y-173318750D03*
X86106250Y-132678750D03*
X79756250Y-135218750D03*
D14*
X85065000Y-126255000D03*
X85540000Y-119780000D03*
X98355000Y-126435000D03*
X170762500Y-201322500D03*
X115765000Y-187945000D03*
X115855000Y-180695000D03*
X114395000Y-174215000D03*
X115345500Y-163315000D03*
X193797500Y-190061250D03*
X170297500Y-180951250D03*
X168177500Y-195861250D03*
X168177500Y-188121250D03*
X189377500Y-198361250D03*
X156095000Y-182355000D03*
X165195000Y-182585000D03*
X98195000Y-130995000D03*
X124505000Y-183395000D03*
X164563963Y-197573260D03*
X184068750Y-200590000D03*
X122197500Y-181521250D03*
X122917500Y-180731250D03*
X99645006Y-203782122D03*
X162057500Y-180317000D03*
X194117500Y-183511250D03*
X213137500Y-180421250D03*
X190987500Y-192391250D03*
X191007500Y-193401250D03*
X191007500Y-194401253D03*
X196295000Y-199528250D03*
X195567999Y-200437999D03*
X194815000Y-201345000D03*
X88175000Y-118955000D03*
X140428073Y-183248000D03*
X124411645Y-145958798D03*
X86095000Y-143935000D03*
X88065000Y-117235000D03*
X89519001Y-117245000D03*
X88065000Y-117235000D03*
X141427990Y-183235000D03*
X125358994Y-145638588D03*
X87475000Y-143465000D03*
X161297500Y-187131250D03*
X165499692Y-184553442D03*
X189501468Y-180807282D03*
X88405000Y-120205000D03*
X88345000Y-128215000D03*
X86875000Y-118855000D03*
X86875000Y-122373250D03*
X90023000Y-118135000D03*
X90135000Y-122485000D03*
D15*
X85464999Y-119855001D02*
X85540000Y-119780000D01*
X85464999Y-125855001D02*
X85464999Y-119855001D01*
X85065000Y-126255000D02*
X85464999Y-125855001D01*
X98355000Y-127000685D02*
X98355000Y-126435000D01*
X98435000Y-127080685D02*
X98355000Y-127000685D01*
X98435000Y-130115000D02*
X98435000Y-127080685D01*
X98733990Y-130413990D02*
X98435000Y-130115000D01*
X111155000Y-150115000D02*
X111155000Y-135923328D01*
X111136010Y-150133990D02*
X111155000Y-150115000D01*
X111155000Y-135923328D02*
X109675663Y-134443991D01*
X109675663Y-134443991D02*
X105858604Y-134443990D01*
X105858604Y-134443990D02*
X101828604Y-130413990D01*
X101828604Y-130413990D02*
X98733990Y-130413990D01*
X111155000Y-151263328D02*
X115136010Y-155244338D01*
X111155000Y-150115000D02*
X111155000Y-151263328D01*
X170762500Y-201322500D02*
X168282500Y-201322500D01*
X168282500Y-201322500D02*
X166875000Y-199915000D01*
X166875000Y-199915000D02*
X165845000Y-198885000D01*
X165845000Y-198885000D02*
X117735000Y-198885000D01*
X117735000Y-198885000D02*
X117615000Y-198885000D01*
X117615000Y-198885000D02*
X115725000Y-196995000D01*
X115725000Y-196995000D02*
X115725000Y-187985000D01*
X115725000Y-187985000D02*
X115765000Y-187945000D01*
X115455001Y-180295001D02*
X115455001Y-180235001D01*
X115855000Y-180695000D02*
X115455001Y-180295001D01*
X115455001Y-180235001D02*
X114395000Y-179175000D01*
X114395000Y-179175000D02*
X114395000Y-174215000D01*
X115136010Y-162539825D02*
X115136010Y-160806010D01*
X115345500Y-162749315D02*
X115136010Y-162539825D01*
X115345500Y-163315000D02*
X115345500Y-162749315D01*
X115136010Y-155244338D02*
X115136010Y-160806010D01*
X115136010Y-160806010D02*
X115136010Y-160995000D01*
X193797500Y-189495565D02*
X193767500Y-189465565D01*
X193797500Y-190061250D02*
X193797500Y-189495565D01*
X169297500Y-180951250D02*
X170297500Y-180951250D01*
X168207500Y-182041250D02*
X169297500Y-180951250D01*
X168127500Y-187441250D02*
X168127500Y-182041250D01*
X168127500Y-182041250D02*
X168207500Y-182041250D01*
X168177500Y-187491250D02*
X168127500Y-187441250D01*
X188527500Y-180951250D02*
X170297500Y-180951250D01*
X193797500Y-190061250D02*
X193797500Y-186221250D01*
X193797500Y-186221250D02*
X188527500Y-180951250D01*
X168177500Y-188121250D02*
X168177500Y-187491250D01*
X168177500Y-195861250D02*
X168177500Y-188121250D01*
X193797500Y-191091250D02*
X193797500Y-190061250D01*
X189377500Y-197795565D02*
X189297500Y-197715565D01*
X189377500Y-198361250D02*
X189377500Y-197795565D01*
X189297500Y-197715565D02*
X189297500Y-191971250D01*
X189297500Y-191971250D02*
X189977500Y-191291250D01*
X189977500Y-191291250D02*
X193597500Y-191291250D01*
X193597500Y-191291250D02*
X193797500Y-191091250D01*
X114555000Y-168585000D02*
X117235000Y-171265000D01*
X110555000Y-136145000D02*
X110555000Y-151485000D01*
X164965000Y-182355000D02*
X165195000Y-182585000D01*
X156095000Y-182355000D02*
X164965000Y-182355000D01*
X110555000Y-151485000D02*
X114555000Y-155485000D01*
X109435000Y-135025000D02*
X110555000Y-136145000D01*
X124465000Y-174625000D02*
X124445000Y-174645000D01*
X105617942Y-135025000D02*
X109435000Y-135025000D01*
X98195000Y-130995000D02*
X101587942Y-130995000D01*
X117235000Y-171265000D02*
X121105000Y-171265000D01*
X101587942Y-130995000D02*
X105617942Y-135025000D01*
X121105000Y-171265000D02*
X124465000Y-174625000D01*
X124445000Y-174645000D02*
X124445000Y-182215000D01*
X114555000Y-155485000D02*
X114555000Y-168585000D01*
X124505000Y-183395000D02*
X124505000Y-182308250D01*
X124505000Y-182308250D02*
X124445000Y-182248250D01*
D16*
X168576250Y-200590000D02*
X184068750Y-200590000D01*
X165559510Y-197573260D02*
X168576250Y-200590000D01*
X164563963Y-197573260D02*
X165559510Y-197573260D01*
X74993750Y-130456250D02*
X79756250Y-135218750D01*
X74993750Y-116168750D02*
X74993750Y-130456250D01*
X74993750Y-151887500D02*
X77375000Y-154268750D01*
X74993750Y-130456250D02*
X74993750Y-151887500D01*
X77375000Y-154268750D02*
X82137500Y-154268750D01*
X76645000Y-173318750D02*
X86900000Y-173318750D01*
X74902999Y-171576749D02*
X76645000Y-173318750D01*
X74993750Y-151887500D02*
X74902999Y-151978251D01*
X74902999Y-151978251D02*
X74902999Y-171576749D01*
X74902999Y-171576749D02*
X74902999Y-191420499D01*
X74902999Y-191420499D02*
X75772500Y-192290000D01*
X75784010Y-192368750D02*
X77375000Y-192368750D01*
X75772500Y-192357240D02*
X75784010Y-192368750D01*
X75772500Y-192290000D02*
X75772500Y-192357240D01*
X77375000Y-192368750D02*
X79756250Y-192368750D01*
X86900000Y-173318750D02*
X86900000Y-177793750D01*
X86900000Y-177793750D02*
X90147500Y-181041250D01*
X90147500Y-181041250D02*
X90627500Y-181521250D01*
X122197500Y-181521250D02*
X122557500Y-181521250D01*
X90627500Y-181521250D02*
X122197500Y-181521250D01*
X94901250Y-135218750D02*
X103568750Y-135218750D01*
X94043750Y-116168750D02*
X94043750Y-134361250D01*
X94043750Y-134361250D02*
X94901250Y-135218750D01*
X95695000Y-154268750D02*
X108331250Y-154268750D01*
X94043750Y-134361250D02*
X94043750Y-152617500D01*
X94043750Y-152617500D02*
X95695000Y-154268750D01*
X98076250Y-173318750D02*
X117856250Y-173318750D01*
X94043750Y-152617500D02*
X94043750Y-169286250D01*
X94043750Y-169286250D02*
X98076250Y-173318750D01*
X117856250Y-173318750D02*
X117856250Y-178690000D01*
X117856250Y-178690000D02*
X119897500Y-180731250D01*
X119897500Y-180731250D02*
X122917500Y-180731250D01*
X122917500Y-180731250D02*
X122967500Y-180731250D01*
X115538750Y-135218750D02*
X122618750Y-135218750D01*
X114218749Y-133898749D02*
X115538750Y-135218750D01*
X113093750Y-116168750D02*
X114218749Y-117293749D01*
X114218749Y-117293749D02*
X114218749Y-133898749D01*
X114218749Y-133898749D02*
X114218749Y-148979999D01*
X114218749Y-148979999D02*
X114666250Y-149427500D01*
X122540000Y-149427500D02*
X127381250Y-154268750D01*
X114666250Y-149427500D02*
X122540000Y-149427500D01*
X130509375Y-166921875D02*
X136906250Y-173318750D01*
X103568750Y-187542500D02*
X103568750Y-192368750D01*
X103553750Y-187527500D02*
X103568750Y-187542500D01*
X104347500Y-186733750D02*
X103553750Y-187527500D01*
X128096250Y-186733750D02*
X104347500Y-186733750D01*
X130509375Y-166921875D02*
X130509375Y-184320625D01*
X130509375Y-184320625D02*
X128096250Y-186733750D01*
X99596510Y-192368750D02*
X99590260Y-192375000D01*
X101187500Y-192368750D02*
X99596510Y-192368750D01*
X99590260Y-192375000D02*
X97875000Y-192375000D01*
X97875000Y-192375000D02*
X97025000Y-193225000D01*
X97025000Y-193225000D02*
X97025000Y-202485000D01*
X97025000Y-202485000D02*
X98322122Y-203782122D01*
X98322122Y-203782122D02*
X99645006Y-203782122D01*
X130413750Y-166826250D02*
X130509375Y-166921875D01*
X125783750Y-166826250D02*
X130413750Y-166826250D01*
X122540000Y-163582500D02*
X125783750Y-166826250D01*
X122540000Y-149427500D02*
X122540000Y-163582500D01*
X134588750Y-135218750D02*
X141668750Y-135218750D01*
X133716250Y-134346250D02*
X134588750Y-135218750D01*
X133716250Y-119332240D02*
X133716250Y-134346250D01*
X132143750Y-116168750D02*
X132143750Y-117759740D01*
X132143750Y-117759740D02*
X133716250Y-119332240D01*
X146431250Y-150236250D02*
X146431250Y-154268750D01*
X145622500Y-149427500D02*
X146431250Y-150236250D01*
X133716250Y-134346250D02*
X133716250Y-148633750D01*
X133716250Y-148633750D02*
X134510000Y-149427500D01*
X142447500Y-149427500D02*
X145622500Y-149427500D01*
X134510000Y-149427500D02*
X142447500Y-149427500D01*
X155956250Y-170873750D02*
X155956250Y-173318750D01*
X154353750Y-169271250D02*
X155956250Y-170873750D01*
X145622500Y-169271250D02*
X154353750Y-169271250D01*
X142447500Y-149427500D02*
X142447500Y-166096250D01*
X142447500Y-166096250D02*
X145622500Y-169271250D01*
X155956250Y-179410000D02*
X155956250Y-173318750D01*
X162057500Y-180317000D02*
X156863250Y-180317000D01*
X156863250Y-180317000D02*
X155956250Y-179410000D01*
X172688750Y-135218750D02*
X179768750Y-135218750D01*
X170228750Y-132758750D02*
X172688750Y-135218750D01*
X170228750Y-125708750D02*
X170228750Y-132758750D01*
X170243750Y-116168750D02*
X170243750Y-125693750D01*
X170243750Y-125693750D02*
X170228750Y-125708750D01*
X174197500Y-152602500D02*
X175863750Y-154268750D01*
X172688750Y-135218750D02*
X174197500Y-136727500D01*
X174197500Y-136727500D02*
X174197500Y-152602500D01*
X181420000Y-154268750D02*
X184531250Y-154268750D01*
X175863750Y-154268750D02*
X181420000Y-154268750D01*
X194056250Y-170080000D02*
X194056250Y-173318750D01*
X192453750Y-168477500D02*
X194056250Y-170080000D01*
X183722500Y-168477500D02*
X192453750Y-168477500D01*
X181420000Y-154268750D02*
X181420000Y-166175000D01*
X181420000Y-166175000D02*
X183722500Y-168477500D01*
X194117500Y-173380000D02*
X194056250Y-173318750D01*
X194117500Y-183511250D02*
X194117500Y-173380000D01*
X190418749Y-132311249D02*
X193326250Y-135218750D01*
X189293750Y-116168750D02*
X190418749Y-117293749D01*
X190418749Y-117293749D02*
X190418749Y-132311249D01*
X196343750Y-135218750D02*
X198818750Y-135218750D01*
X193326250Y-135218750D02*
X196343750Y-135218750D01*
X196346749Y-150939249D02*
X199676250Y-154268750D01*
X196346749Y-137445499D02*
X196346749Y-150939249D01*
X196343750Y-135218750D02*
X196343750Y-137442500D01*
X196343750Y-137442500D02*
X196346749Y-137445499D01*
X201106250Y-154268750D02*
X203581250Y-154268750D01*
X199676250Y-154268750D02*
X201106250Y-154268750D01*
X205232500Y-173318750D02*
X213106250Y-173318750D01*
X201109249Y-169195499D02*
X205232500Y-173318750D01*
X201109249Y-156495499D02*
X201109249Y-169195499D01*
X201106250Y-154268750D02*
X201106250Y-156492500D01*
X201106250Y-156492500D02*
X201109249Y-156495499D01*
X213137500Y-173350000D02*
X213106250Y-173318750D01*
X213137500Y-180421250D02*
X213137500Y-173350000D01*
X209468749Y-133104999D02*
X211582500Y-135218750D01*
X208343750Y-116168750D02*
X209468749Y-117293749D01*
X209468749Y-117293749D02*
X209468749Y-133104999D01*
X214600000Y-135218750D02*
X217868750Y-135218750D01*
X211582500Y-135218750D02*
X214600000Y-135218750D01*
X214600000Y-135218750D02*
X214600000Y-150936250D01*
X214600000Y-150936250D02*
X217932500Y-154268750D01*
X220159249Y-156495499D02*
X220159249Y-166020499D01*
X219520000Y-155856250D02*
X220159249Y-156495499D01*
X219520000Y-154268750D02*
X219520000Y-155856250D01*
X219520000Y-154268750D02*
X222631250Y-154268750D01*
X217932500Y-154268750D02*
X219520000Y-154268750D01*
X220159249Y-166020499D02*
X223410000Y-169271250D01*
X228108750Y-169271250D02*
X232156250Y-173318750D01*
X223410000Y-169271250D02*
X228108750Y-169271250D01*
X223410000Y-169271250D02*
X223410000Y-185940000D01*
X214772500Y-185940000D02*
X208343750Y-192368750D01*
X223410000Y-185940000D02*
X214772500Y-185940000D01*
X208343750Y-192368750D02*
X196437500Y-192368750D01*
X232220000Y-135218750D02*
X236918750Y-135218750D01*
X228518749Y-131517499D02*
X232220000Y-135218750D01*
X227393750Y-116168750D02*
X228518749Y-117293749D01*
X228518749Y-117293749D02*
X228518749Y-131517499D01*
X232723251Y-152390751D02*
X234601250Y-154268750D01*
X232220000Y-135218750D02*
X232723251Y-135722001D01*
X232723251Y-135722001D02*
X232723251Y-152390751D01*
X238412500Y-160587500D02*
X238491250Y-160666250D01*
X238412500Y-154268750D02*
X238412500Y-160587500D01*
X238412500Y-154268750D02*
X241681250Y-154268750D01*
X234601250Y-154268750D02*
X238412500Y-154268750D01*
X238491250Y-160666250D02*
X238491250Y-167683750D01*
X238491250Y-167683750D02*
X241666250Y-170858750D01*
X251183750Y-171645000D02*
X251183750Y-173358750D01*
X250397500Y-170858750D02*
X251183750Y-171645000D01*
X238287151Y-196921599D02*
X238287151Y-174406599D01*
X237677500Y-197531250D02*
X238287151Y-196921599D01*
X195067500Y-197531250D02*
X237677500Y-197531250D01*
X193965499Y-196429249D02*
X195067500Y-197531250D01*
X241666250Y-170858750D02*
X241835000Y-170858750D01*
X190987500Y-192391250D02*
X193457500Y-192391250D01*
X238287151Y-174406599D02*
X241835000Y-170858750D01*
X193457500Y-192391250D02*
X193967500Y-192901250D01*
X193967500Y-192901250D02*
X193965499Y-192903251D01*
X241835000Y-170858750D02*
X250397500Y-170858750D01*
X193965499Y-192903251D02*
X193965499Y-196429249D01*
X247568749Y-131517499D02*
X251270000Y-135218750D01*
X246443750Y-116168750D02*
X247568749Y-117293749D01*
X247568749Y-117293749D02*
X247568749Y-131517499D01*
X253496749Y-137445499D02*
X253496749Y-150145499D01*
X253493750Y-137442500D02*
X253496749Y-137445499D01*
X253493750Y-135218750D02*
X253493750Y-137442500D01*
X253493750Y-135218750D02*
X255968750Y-135218750D01*
X251270000Y-135218750D02*
X253493750Y-135218750D01*
X258271250Y-151808750D02*
X260731250Y-154268750D01*
X270256250Y-170080000D02*
X270256250Y-173318750D01*
X269447500Y-169271250D02*
X270256250Y-170080000D01*
X259128750Y-169271250D02*
X269447500Y-169271250D01*
X255160000Y-151808750D02*
X255160000Y-165302500D01*
X255160000Y-165302500D02*
X259128750Y-169271250D01*
X270256250Y-179302500D02*
X269017500Y-180541250D01*
X270256250Y-173318750D02*
X270256250Y-179302500D01*
X269017500Y-180541250D02*
X240477500Y-180541250D01*
X240477500Y-180541250D02*
X239267500Y-181751250D01*
X239267500Y-181751250D02*
X238817500Y-182201250D01*
X238817500Y-182201250D02*
X238817500Y-197831250D01*
X191573185Y-193401250D02*
X191613185Y-193361250D01*
X191007500Y-193401250D02*
X191573185Y-193401250D01*
X191613185Y-193361250D02*
X192897500Y-193361250D01*
X193511489Y-196617306D02*
X195085433Y-198191250D01*
X192897500Y-193361250D02*
X193511489Y-193975239D01*
X193511489Y-193975239D02*
X193511489Y-196617306D01*
X195085433Y-198191250D02*
X196047500Y-198191250D01*
X196047500Y-198191250D02*
X238347500Y-198191250D01*
X238347500Y-198191250D02*
X239027500Y-197511250D01*
X253496749Y-150145499D02*
X253505499Y-150145499D01*
X255168750Y-151808750D02*
X258271250Y-151808750D01*
X253505499Y-150145499D02*
X255168750Y-151808750D01*
X267875000Y-192368750D02*
X289306250Y-192368750D01*
X289306250Y-190777760D02*
X289306250Y-173318750D01*
X289306250Y-192368750D02*
X289306250Y-190777760D01*
X279781250Y-155859740D02*
X279781250Y-154268750D01*
X279781250Y-162202760D02*
X279781250Y-155859740D01*
X289306250Y-171727760D02*
X279781250Y-162202760D01*
X289306250Y-173318750D02*
X289306250Y-171727760D01*
X275018750Y-136809740D02*
X275018750Y-135218750D01*
X275018750Y-147915260D02*
X275018750Y-136809740D01*
X279781250Y-152677760D02*
X275018750Y-147915260D01*
X279781250Y-154268750D02*
X279781250Y-152677760D01*
X265493750Y-125693750D02*
X265493750Y-116168750D01*
X275018750Y-135218750D02*
X265493750Y-125693750D01*
X266284010Y-192368750D02*
X267875000Y-192368750D01*
X266236510Y-192321250D02*
X266284010Y-192368750D01*
X240287500Y-192321250D02*
X266236510Y-192321250D01*
X238847500Y-198591250D02*
X239547500Y-197891250D01*
X238589567Y-198591250D02*
X238847500Y-198591250D01*
X238379567Y-198801250D02*
X238589567Y-198591250D01*
X239547500Y-193061250D02*
X240287500Y-192321250D01*
X191573185Y-194401253D02*
X191583188Y-194391250D01*
X239547500Y-197891250D02*
X239547500Y-193061250D01*
X191007500Y-194401253D02*
X191573185Y-194401253D01*
X191583188Y-194391250D02*
X192047500Y-194391250D01*
X192047500Y-194391250D02*
X192847500Y-195191250D01*
X193997500Y-198801250D02*
X238379567Y-198801250D01*
X192847500Y-195191250D02*
X192847500Y-197651250D01*
X192847500Y-197651250D02*
X193997500Y-198801250D01*
X284543750Y-125693750D02*
X294068750Y-135218750D01*
X284543750Y-116168750D02*
X284543750Y-125693750D01*
X297706251Y-153143751D02*
X298831250Y-154268750D01*
X295193749Y-150631249D02*
X297706251Y-153143751D01*
X295193749Y-136343749D02*
X295193749Y-150631249D01*
X294068750Y-135218750D02*
X295193749Y-136343749D01*
X314375001Y-172193751D02*
X315500000Y-173318750D01*
X299956249Y-157774999D02*
X314375001Y-172193751D01*
X299956249Y-155393749D02*
X299956249Y-157774999D01*
X298831250Y-154268750D02*
X299956249Y-155393749D01*
X313118750Y-190777760D02*
X313118750Y-192368750D01*
X313118750Y-184488816D02*
X313118750Y-190777760D01*
X315500000Y-182107566D02*
X313118750Y-184488816D01*
X315500000Y-173318750D02*
X315500000Y-182107566D01*
X313118750Y-192368750D02*
X311527760Y-192368750D01*
X315500000Y-173318750D02*
X325025000Y-173318750D01*
X303765000Y-192368750D02*
X292625000Y-192368750D01*
X303965000Y-192368750D02*
X303765000Y-192368750D01*
X311527760Y-192368750D02*
X303965000Y-192368750D01*
X303765000Y-196735000D02*
X303765000Y-192368750D01*
X196891999Y-200125249D02*
X238744751Y-200125249D01*
X196295000Y-199528250D02*
X196891999Y-200125249D01*
X238744751Y-200125249D02*
X241115000Y-197755000D01*
X241115000Y-197755000D02*
X302805000Y-197755000D01*
X302805000Y-197755000D02*
X303795000Y-196765000D01*
X303795000Y-196765000D02*
X303765000Y-196735000D01*
X305245000Y-135218750D02*
X313118750Y-135218750D01*
X303593750Y-116168750D02*
X303593750Y-133567500D01*
X303593750Y-133567500D02*
X305245000Y-135218750D01*
X313118750Y-135218750D02*
X313118750Y-148648750D01*
X318738750Y-154268750D02*
X329787500Y-154268750D01*
X313118750Y-148648750D02*
X318738750Y-154268750D01*
X329922999Y-154404249D02*
X329922999Y-163865499D01*
X329787500Y-154268750D02*
X329922999Y-154404249D01*
X329922999Y-163865499D02*
X335328750Y-169271250D01*
X335328750Y-169271250D02*
X335328750Y-182765000D01*
X325725000Y-192368750D02*
X315500000Y-192368750D01*
X335328750Y-182765000D02*
X326595000Y-191498750D01*
X326595000Y-191498750D02*
X325725000Y-192368750D01*
X325725000Y-197545000D02*
X325725000Y-192368750D01*
X196133684Y-200437999D02*
X196274944Y-200579259D01*
X195567999Y-200437999D02*
X196133684Y-200437999D01*
X196274944Y-200579259D02*
X238932807Y-200579259D01*
X238932807Y-200579259D02*
X241303056Y-198209010D01*
X241303056Y-198209010D02*
X325060990Y-198209010D01*
X325060990Y-198209010D02*
X325725000Y-197545000D01*
X322643750Y-116168750D02*
X332168750Y-116168750D01*
X335806251Y-134093751D02*
X336931250Y-135218750D01*
X333293749Y-131581249D02*
X335806251Y-134093751D01*
X332168750Y-116168750D02*
X333293749Y-117293749D01*
X333293749Y-117958817D02*
X333293749Y-118023749D01*
X335083816Y-116168750D02*
X333293749Y-117958817D01*
X341693750Y-116168750D02*
X335083816Y-116168750D01*
X333293749Y-117293749D02*
X333293749Y-118023749D01*
X333293749Y-118023749D02*
X333293749Y-131581249D01*
X342818749Y-172193751D02*
X341693750Y-173318750D01*
X336931250Y-135218750D02*
X336931250Y-137383684D01*
X336931250Y-137383684D02*
X340885000Y-141337434D01*
X340885000Y-141337434D02*
X340885000Y-141490000D01*
X340885000Y-141490000D02*
X343182849Y-143787849D01*
X343182849Y-143787849D02*
X343182849Y-171829651D01*
X343182849Y-171829651D02*
X342818749Y-172193751D01*
X343062151Y-174687151D02*
X343062151Y-186529651D01*
X341693750Y-173318750D02*
X343062151Y-174687151D01*
X339312500Y-190279302D02*
X339312500Y-192368750D01*
X343062151Y-186529651D02*
X339312500Y-190279302D01*
X339312500Y-192368750D02*
X336931250Y-192368750D01*
X335336510Y-192365000D02*
X335340260Y-192368750D01*
X330855000Y-192365000D02*
X335336510Y-192365000D01*
X328995000Y-197395000D02*
X328995000Y-194225000D01*
X238809132Y-201345000D02*
X241491112Y-198663020D01*
X194815000Y-201345000D02*
X238809132Y-201345000D01*
X241491112Y-198663020D02*
X325249047Y-198663020D01*
X335340260Y-192368750D02*
X336931250Y-192368750D01*
X325249047Y-198663020D02*
X325277067Y-198635000D01*
X328995000Y-194225000D02*
X330855000Y-192365000D01*
X325277067Y-198635000D02*
X327755000Y-198635000D01*
X327755000Y-198635000D02*
X328995000Y-197395000D01*
X87602001Y-119527999D02*
X87602001Y-129307999D01*
X88175000Y-118955000D02*
X87602001Y-119527999D01*
X140428073Y-182831927D02*
X140690990Y-182569010D01*
X140428073Y-183248000D02*
X140428073Y-182831927D01*
X140690990Y-182569010D02*
X140690990Y-182035000D01*
X140956943Y-179410990D02*
X140966944Y-179410990D01*
X140690990Y-182035000D02*
X140690990Y-179676943D01*
X140690990Y-179676943D02*
X140956943Y-179410990D01*
X140966944Y-179410990D02*
X141733967Y-178643967D01*
X143037151Y-177340783D02*
X143037151Y-177332849D01*
X141733967Y-178643967D02*
X143037151Y-177340783D01*
X143037151Y-177332849D02*
X143325000Y-177045000D01*
X143325000Y-177045000D02*
X143315000Y-177035000D01*
X143315000Y-177035000D02*
X143315000Y-173775000D01*
X143315000Y-173775000D02*
X143305000Y-173775000D01*
X141165000Y-171635000D02*
X141015000Y-171485000D01*
X143305000Y-173775000D02*
X141165000Y-171635000D01*
X134205000Y-164675000D02*
X134100000Y-164570000D01*
X134345000Y-164815000D02*
X134147023Y-164617024D01*
X134345000Y-164815000D02*
X134205000Y-164675000D01*
X135480000Y-165950000D02*
X134147023Y-164617024D01*
X135480000Y-165950000D02*
X134345000Y-164815000D01*
X141165000Y-171635000D02*
X135480000Y-165950000D01*
X134147023Y-164617024D02*
X134147023Y-155465000D01*
X134147023Y-155465000D02*
X134147023Y-155437023D01*
X133325000Y-154615000D02*
X133275000Y-154615000D01*
X133325000Y-154615000D02*
X133225000Y-154515000D01*
X134147023Y-155437023D02*
X133325000Y-154615000D01*
X133275000Y-154615000D02*
X124595000Y-145935000D01*
X124595000Y-145935000D02*
X124435443Y-145935000D01*
X124435443Y-145935000D02*
X124411645Y-145958798D01*
X87602001Y-129307999D02*
X87602001Y-135442001D01*
X87602001Y-135442001D02*
X87577999Y-135442001D01*
X87577999Y-135442001D02*
X86605000Y-136415000D01*
X86605000Y-136415000D02*
X86095000Y-136925000D01*
X86095000Y-136925000D02*
X86095000Y-143935000D01*
X89519001Y-117245000D02*
X88075000Y-117245000D01*
X88075000Y-117245000D02*
X88065000Y-117235000D01*
X89132001Y-117632000D02*
X89132001Y-129232001D01*
X89519001Y-117245000D02*
X89132001Y-117632000D01*
X141427990Y-182669315D02*
X141427990Y-183235000D01*
X141145000Y-182386325D02*
X141427990Y-182669315D01*
X141145000Y-179865000D02*
X141145000Y-182386325D01*
X141397067Y-171215000D02*
X143769010Y-173586943D01*
X141395000Y-171215000D02*
X141397067Y-171215000D01*
X141155000Y-179865000D02*
X141145000Y-179865000D01*
X143769010Y-173586943D02*
X143769010Y-176229010D01*
X143769010Y-176229010D02*
X143779009Y-176239009D01*
X143779009Y-176239009D02*
X143779009Y-177240991D01*
X143779009Y-177240991D02*
X141155000Y-179865000D01*
X141395000Y-171215000D02*
X141387066Y-171215000D01*
X134601033Y-164428967D02*
X134601033Y-155298967D01*
X141387066Y-171215000D02*
X134601033Y-164428967D01*
X125327066Y-145975000D02*
X125277066Y-145975000D01*
X134601033Y-155298967D02*
X134601032Y-155248966D01*
X134601032Y-155248966D02*
X125327066Y-145975000D01*
X125277066Y-145975000D02*
X125126033Y-145823967D01*
X125126033Y-145823967D02*
X125173615Y-145823967D01*
X125173615Y-145823967D02*
X125358994Y-145638588D01*
X89132001Y-129232001D02*
X89132001Y-135397999D01*
X87444249Y-143314249D02*
X87505000Y-143375000D01*
X89132001Y-135397999D02*
X87444249Y-137085751D01*
X87475000Y-142855000D02*
X87475000Y-143535000D01*
X87444249Y-142824249D02*
X87475000Y-142855000D01*
X87444249Y-142824249D02*
X87444249Y-143314249D01*
X87444249Y-137085751D02*
X87444249Y-142824249D01*
X162034740Y-186394010D02*
X163634740Y-186394010D01*
X161297500Y-187131250D02*
X162034740Y-186394010D01*
X163634740Y-186394010D02*
X165487500Y-184541250D01*
X165487500Y-184541250D02*
X165499692Y-184553442D01*
X155226250Y-135218750D02*
X160718750Y-135218750D01*
X152318749Y-132311249D02*
X155226250Y-135218750D01*
X151193750Y-116168750D02*
X152318749Y-117293749D01*
X152318749Y-117293749D02*
X152318749Y-132311249D01*
X155226250Y-135218750D02*
X155226250Y-151887500D01*
X155226250Y-151887500D02*
X157607500Y-154268750D01*
X162370000Y-154268750D02*
X165481250Y-154268750D01*
X157607500Y-154268750D02*
X162370000Y-154268750D01*
X169450000Y-167762500D02*
X175006250Y-173318750D01*
X127381250Y-192368750D02*
X125000000Y-192368750D01*
X189501468Y-180807282D02*
X189501468Y-174395218D01*
X189501468Y-174395218D02*
X188377500Y-173271250D01*
X188330000Y-173318750D02*
X175006250Y-173318750D01*
X188377500Y-173271250D02*
X188330000Y-173318750D01*
X169450000Y-179575000D02*
X169450000Y-167762500D01*
X165050000Y-183975000D02*
X169450000Y-179575000D01*
X133265000Y-183975000D02*
X165050000Y-183975000D01*
X128506249Y-188733751D02*
X133265000Y-183975000D01*
X127381250Y-192368750D02*
X128506249Y-191243751D01*
X128506249Y-191243751D02*
X128506249Y-188733751D01*
X165557500Y-167762500D02*
X169450000Y-167762500D01*
X162370000Y-164575000D02*
X165557500Y-167762500D01*
X162370000Y-154268750D02*
X162370000Y-164575000D01*
X88405000Y-120205000D02*
X88405000Y-128155000D01*
X88405000Y-128155000D02*
X88345000Y-128215000D01*
X86875000Y-118855000D02*
X86875000Y-122373250D01*
X90023000Y-118135000D02*
X90023000Y-122373000D01*
X90023000Y-122373000D02*
X90135000Y-122485000D01*
M02*
