G04 #@! TF.GenerationSoftware,KiCad,Pcbnew,(5.1.4)-1*
G04 #@! TF.CreationDate,2021-10-31T22:39:57+11:00*
G04 #@! TF.ProjectId,x60,7836302e-6b69-4636-9164-5f7063625858,rev?*
G04 #@! TF.SameCoordinates,Original*
G04 #@! TF.FileFunction,Paste,Bot*
G04 #@! TF.FilePolarity,Positive*
%FSLAX46Y46*%
G04 Gerber Fmt 4.6, Leading zero omitted, Abs format (unit mm)*
G04 Created by KiCad (PCBNEW (5.1.4)-1) date 2021-10-31 22:39:57*
%MOMM*%
%LPD*%
G04 APERTURE LIST*
%ADD10R,0.600000X1.450000*%
%ADD11R,0.300000X1.450000*%
%ADD12C,0.100000*%
%ADD13C,0.975000*%
%ADD14C,1.250000*%
%ADD15R,1.400000X1.200000*%
%ADD16R,1.200000X0.900000*%
%ADD17R,0.550000X1.500000*%
%ADD18R,1.500000X0.550000*%
%ADD19R,1.100000X1.800000*%
G04 APERTURE END LIST*
D10*
X91525000Y-115175000D03*
X85075000Y-115175000D03*
X90750000Y-115175000D03*
X85850000Y-115175000D03*
D11*
X86550000Y-115175000D03*
X90050000Y-115175000D03*
X87050000Y-115175000D03*
X89550000Y-115175000D03*
X87550000Y-115175000D03*
X89050000Y-115175000D03*
X88550000Y-115175000D03*
X88050000Y-115175000D03*
D12*
G36*
X90685142Y-123868674D02*
G01*
X90708803Y-123872184D01*
X90732007Y-123877996D01*
X90754529Y-123886054D01*
X90776153Y-123896282D01*
X90796670Y-123908579D01*
X90815883Y-123922829D01*
X90833607Y-123938893D01*
X90849671Y-123956617D01*
X90863921Y-123975830D01*
X90876218Y-123996347D01*
X90886446Y-124017971D01*
X90894504Y-124040493D01*
X90900316Y-124063697D01*
X90903826Y-124087358D01*
X90905000Y-124111250D01*
X90905000Y-124598750D01*
X90903826Y-124622642D01*
X90900316Y-124646303D01*
X90894504Y-124669507D01*
X90886446Y-124692029D01*
X90876218Y-124713653D01*
X90863921Y-124734170D01*
X90849671Y-124753383D01*
X90833607Y-124771107D01*
X90815883Y-124787171D01*
X90796670Y-124801421D01*
X90776153Y-124813718D01*
X90754529Y-124823946D01*
X90732007Y-124832004D01*
X90708803Y-124837816D01*
X90685142Y-124841326D01*
X90661250Y-124842500D01*
X89748750Y-124842500D01*
X89724858Y-124841326D01*
X89701197Y-124837816D01*
X89677993Y-124832004D01*
X89655471Y-124823946D01*
X89633847Y-124813718D01*
X89613330Y-124801421D01*
X89594117Y-124787171D01*
X89576393Y-124771107D01*
X89560329Y-124753383D01*
X89546079Y-124734170D01*
X89533782Y-124713653D01*
X89523554Y-124692029D01*
X89515496Y-124669507D01*
X89509684Y-124646303D01*
X89506174Y-124622642D01*
X89505000Y-124598750D01*
X89505000Y-124111250D01*
X89506174Y-124087358D01*
X89509684Y-124063697D01*
X89515496Y-124040493D01*
X89523554Y-124017971D01*
X89533782Y-123996347D01*
X89546079Y-123975830D01*
X89560329Y-123956617D01*
X89576393Y-123938893D01*
X89594117Y-123922829D01*
X89613330Y-123908579D01*
X89633847Y-123896282D01*
X89655471Y-123886054D01*
X89677993Y-123877996D01*
X89701197Y-123872184D01*
X89724858Y-123868674D01*
X89748750Y-123867500D01*
X90661250Y-123867500D01*
X90685142Y-123868674D01*
X90685142Y-123868674D01*
G37*
D13*
X90205000Y-124355000D03*
D12*
G36*
X90685142Y-125743674D02*
G01*
X90708803Y-125747184D01*
X90732007Y-125752996D01*
X90754529Y-125761054D01*
X90776153Y-125771282D01*
X90796670Y-125783579D01*
X90815883Y-125797829D01*
X90833607Y-125813893D01*
X90849671Y-125831617D01*
X90863921Y-125850830D01*
X90876218Y-125871347D01*
X90886446Y-125892971D01*
X90894504Y-125915493D01*
X90900316Y-125938697D01*
X90903826Y-125962358D01*
X90905000Y-125986250D01*
X90905000Y-126473750D01*
X90903826Y-126497642D01*
X90900316Y-126521303D01*
X90894504Y-126544507D01*
X90886446Y-126567029D01*
X90876218Y-126588653D01*
X90863921Y-126609170D01*
X90849671Y-126628383D01*
X90833607Y-126646107D01*
X90815883Y-126662171D01*
X90796670Y-126676421D01*
X90776153Y-126688718D01*
X90754529Y-126698946D01*
X90732007Y-126707004D01*
X90708803Y-126712816D01*
X90685142Y-126716326D01*
X90661250Y-126717500D01*
X89748750Y-126717500D01*
X89724858Y-126716326D01*
X89701197Y-126712816D01*
X89677993Y-126707004D01*
X89655471Y-126698946D01*
X89633847Y-126688718D01*
X89613330Y-126676421D01*
X89594117Y-126662171D01*
X89576393Y-126646107D01*
X89560329Y-126628383D01*
X89546079Y-126609170D01*
X89533782Y-126588653D01*
X89523554Y-126567029D01*
X89515496Y-126544507D01*
X89509684Y-126521303D01*
X89506174Y-126497642D01*
X89505000Y-126473750D01*
X89505000Y-125986250D01*
X89506174Y-125962358D01*
X89509684Y-125938697D01*
X89515496Y-125915493D01*
X89523554Y-125892971D01*
X89533782Y-125871347D01*
X89546079Y-125850830D01*
X89560329Y-125831617D01*
X89576393Y-125813893D01*
X89594117Y-125797829D01*
X89613330Y-125783579D01*
X89633847Y-125771282D01*
X89655471Y-125761054D01*
X89677993Y-125752996D01*
X89701197Y-125747184D01*
X89724858Y-125743674D01*
X89748750Y-125742500D01*
X90661250Y-125742500D01*
X90685142Y-125743674D01*
X90685142Y-125743674D01*
G37*
D13*
X90205000Y-126230000D03*
D12*
G36*
X87325142Y-123878674D02*
G01*
X87348803Y-123882184D01*
X87372007Y-123887996D01*
X87394529Y-123896054D01*
X87416153Y-123906282D01*
X87436670Y-123918579D01*
X87455883Y-123932829D01*
X87473607Y-123948893D01*
X87489671Y-123966617D01*
X87503921Y-123985830D01*
X87516218Y-124006347D01*
X87526446Y-124027971D01*
X87534504Y-124050493D01*
X87540316Y-124073697D01*
X87543826Y-124097358D01*
X87545000Y-124121250D01*
X87545000Y-124608750D01*
X87543826Y-124632642D01*
X87540316Y-124656303D01*
X87534504Y-124679507D01*
X87526446Y-124702029D01*
X87516218Y-124723653D01*
X87503921Y-124744170D01*
X87489671Y-124763383D01*
X87473607Y-124781107D01*
X87455883Y-124797171D01*
X87436670Y-124811421D01*
X87416153Y-124823718D01*
X87394529Y-124833946D01*
X87372007Y-124842004D01*
X87348803Y-124847816D01*
X87325142Y-124851326D01*
X87301250Y-124852500D01*
X86388750Y-124852500D01*
X86364858Y-124851326D01*
X86341197Y-124847816D01*
X86317993Y-124842004D01*
X86295471Y-124833946D01*
X86273847Y-124823718D01*
X86253330Y-124811421D01*
X86234117Y-124797171D01*
X86216393Y-124781107D01*
X86200329Y-124763383D01*
X86186079Y-124744170D01*
X86173782Y-124723653D01*
X86163554Y-124702029D01*
X86155496Y-124679507D01*
X86149684Y-124656303D01*
X86146174Y-124632642D01*
X86145000Y-124608750D01*
X86145000Y-124121250D01*
X86146174Y-124097358D01*
X86149684Y-124073697D01*
X86155496Y-124050493D01*
X86163554Y-124027971D01*
X86173782Y-124006347D01*
X86186079Y-123985830D01*
X86200329Y-123966617D01*
X86216393Y-123948893D01*
X86234117Y-123932829D01*
X86253330Y-123918579D01*
X86273847Y-123906282D01*
X86295471Y-123896054D01*
X86317993Y-123887996D01*
X86341197Y-123882184D01*
X86364858Y-123878674D01*
X86388750Y-123877500D01*
X87301250Y-123877500D01*
X87325142Y-123878674D01*
X87325142Y-123878674D01*
G37*
D13*
X86845000Y-124365000D03*
D12*
G36*
X87325142Y-125753674D02*
G01*
X87348803Y-125757184D01*
X87372007Y-125762996D01*
X87394529Y-125771054D01*
X87416153Y-125781282D01*
X87436670Y-125793579D01*
X87455883Y-125807829D01*
X87473607Y-125823893D01*
X87489671Y-125841617D01*
X87503921Y-125860830D01*
X87516218Y-125881347D01*
X87526446Y-125902971D01*
X87534504Y-125925493D01*
X87540316Y-125948697D01*
X87543826Y-125972358D01*
X87545000Y-125996250D01*
X87545000Y-126483750D01*
X87543826Y-126507642D01*
X87540316Y-126531303D01*
X87534504Y-126554507D01*
X87526446Y-126577029D01*
X87516218Y-126598653D01*
X87503921Y-126619170D01*
X87489671Y-126638383D01*
X87473607Y-126656107D01*
X87455883Y-126672171D01*
X87436670Y-126686421D01*
X87416153Y-126698718D01*
X87394529Y-126708946D01*
X87372007Y-126717004D01*
X87348803Y-126722816D01*
X87325142Y-126726326D01*
X87301250Y-126727500D01*
X86388750Y-126727500D01*
X86364858Y-126726326D01*
X86341197Y-126722816D01*
X86317993Y-126717004D01*
X86295471Y-126708946D01*
X86273847Y-126698718D01*
X86253330Y-126686421D01*
X86234117Y-126672171D01*
X86216393Y-126656107D01*
X86200329Y-126638383D01*
X86186079Y-126619170D01*
X86173782Y-126598653D01*
X86163554Y-126577029D01*
X86155496Y-126554507D01*
X86149684Y-126531303D01*
X86146174Y-126507642D01*
X86145000Y-126483750D01*
X86145000Y-125996250D01*
X86146174Y-125972358D01*
X86149684Y-125948697D01*
X86155496Y-125925493D01*
X86163554Y-125902971D01*
X86173782Y-125881347D01*
X86186079Y-125860830D01*
X86200329Y-125841617D01*
X86216393Y-125823893D01*
X86234117Y-125807829D01*
X86253330Y-125793579D01*
X86273847Y-125781282D01*
X86295471Y-125771054D01*
X86317993Y-125762996D01*
X86341197Y-125757184D01*
X86364858Y-125753674D01*
X86388750Y-125752500D01*
X87301250Y-125752500D01*
X87325142Y-125753674D01*
X87325142Y-125753674D01*
G37*
D13*
X86845000Y-126240000D03*
D12*
G36*
X93094504Y-127581204D02*
G01*
X93118773Y-127584804D01*
X93142571Y-127590765D01*
X93165671Y-127599030D01*
X93187849Y-127609520D01*
X93208893Y-127622133D01*
X93228598Y-127636747D01*
X93246777Y-127653223D01*
X93263253Y-127671402D01*
X93277867Y-127691107D01*
X93290480Y-127712151D01*
X93300970Y-127734329D01*
X93309235Y-127757429D01*
X93315196Y-127781227D01*
X93318796Y-127805496D01*
X93320000Y-127830000D01*
X93320000Y-128580000D01*
X93318796Y-128604504D01*
X93315196Y-128628773D01*
X93309235Y-128652571D01*
X93300970Y-128675671D01*
X93290480Y-128697849D01*
X93277867Y-128718893D01*
X93263253Y-128738598D01*
X93246777Y-128756777D01*
X93228598Y-128773253D01*
X93208893Y-128787867D01*
X93187849Y-128800480D01*
X93165671Y-128810970D01*
X93142571Y-128819235D01*
X93118773Y-128825196D01*
X93094504Y-128828796D01*
X93070000Y-128830000D01*
X91820000Y-128830000D01*
X91795496Y-128828796D01*
X91771227Y-128825196D01*
X91747429Y-128819235D01*
X91724329Y-128810970D01*
X91702151Y-128800480D01*
X91681107Y-128787867D01*
X91661402Y-128773253D01*
X91643223Y-128756777D01*
X91626747Y-128738598D01*
X91612133Y-128718893D01*
X91599520Y-128697849D01*
X91589030Y-128675671D01*
X91580765Y-128652571D01*
X91574804Y-128628773D01*
X91571204Y-128604504D01*
X91570000Y-128580000D01*
X91570000Y-127830000D01*
X91571204Y-127805496D01*
X91574804Y-127781227D01*
X91580765Y-127757429D01*
X91589030Y-127734329D01*
X91599520Y-127712151D01*
X91612133Y-127691107D01*
X91626747Y-127671402D01*
X91643223Y-127653223D01*
X91661402Y-127636747D01*
X91681107Y-127622133D01*
X91702151Y-127609520D01*
X91724329Y-127599030D01*
X91747429Y-127590765D01*
X91771227Y-127584804D01*
X91795496Y-127581204D01*
X91820000Y-127580000D01*
X93070000Y-127580000D01*
X93094504Y-127581204D01*
X93094504Y-127581204D01*
G37*
D14*
X92445000Y-128205000D03*
D12*
G36*
X93094504Y-130381204D02*
G01*
X93118773Y-130384804D01*
X93142571Y-130390765D01*
X93165671Y-130399030D01*
X93187849Y-130409520D01*
X93208893Y-130422133D01*
X93228598Y-130436747D01*
X93246777Y-130453223D01*
X93263253Y-130471402D01*
X93277867Y-130491107D01*
X93290480Y-130512151D01*
X93300970Y-130534329D01*
X93309235Y-130557429D01*
X93315196Y-130581227D01*
X93318796Y-130605496D01*
X93320000Y-130630000D01*
X93320000Y-131380000D01*
X93318796Y-131404504D01*
X93315196Y-131428773D01*
X93309235Y-131452571D01*
X93300970Y-131475671D01*
X93290480Y-131497849D01*
X93277867Y-131518893D01*
X93263253Y-131538598D01*
X93246777Y-131556777D01*
X93228598Y-131573253D01*
X93208893Y-131587867D01*
X93187849Y-131600480D01*
X93165671Y-131610970D01*
X93142571Y-131619235D01*
X93118773Y-131625196D01*
X93094504Y-131628796D01*
X93070000Y-131630000D01*
X91820000Y-131630000D01*
X91795496Y-131628796D01*
X91771227Y-131625196D01*
X91747429Y-131619235D01*
X91724329Y-131610970D01*
X91702151Y-131600480D01*
X91681107Y-131587867D01*
X91661402Y-131573253D01*
X91643223Y-131556777D01*
X91626747Y-131538598D01*
X91612133Y-131518893D01*
X91599520Y-131497849D01*
X91589030Y-131475671D01*
X91580765Y-131452571D01*
X91574804Y-131428773D01*
X91571204Y-131404504D01*
X91570000Y-131380000D01*
X91570000Y-130630000D01*
X91571204Y-130605496D01*
X91574804Y-130581227D01*
X91580765Y-130557429D01*
X91589030Y-130534329D01*
X91599520Y-130512151D01*
X91612133Y-130491107D01*
X91626747Y-130471402D01*
X91643223Y-130453223D01*
X91661402Y-130436747D01*
X91681107Y-130422133D01*
X91702151Y-130409520D01*
X91724329Y-130399030D01*
X91747429Y-130390765D01*
X91771227Y-130384804D01*
X91795496Y-130381204D01*
X91820000Y-130380000D01*
X93070000Y-130380000D01*
X93094504Y-130381204D01*
X93094504Y-130381204D01*
G37*
D14*
X92445000Y-131005000D03*
D12*
G36*
X178198892Y-183779924D02*
G01*
X178222553Y-183783434D01*
X178245757Y-183789246D01*
X178268279Y-183797304D01*
X178289903Y-183807532D01*
X178310420Y-183819829D01*
X178329633Y-183834079D01*
X178347357Y-183850143D01*
X178363421Y-183867867D01*
X178377671Y-183887080D01*
X178389968Y-183907597D01*
X178400196Y-183929221D01*
X178408254Y-183951743D01*
X178414066Y-183974947D01*
X178417576Y-183998608D01*
X178418750Y-184022500D01*
X178418750Y-184510000D01*
X178417576Y-184533892D01*
X178414066Y-184557553D01*
X178408254Y-184580757D01*
X178400196Y-184603279D01*
X178389968Y-184624903D01*
X178377671Y-184645420D01*
X178363421Y-184664633D01*
X178347357Y-184682357D01*
X178329633Y-184698421D01*
X178310420Y-184712671D01*
X178289903Y-184724968D01*
X178268279Y-184735196D01*
X178245757Y-184743254D01*
X178222553Y-184749066D01*
X178198892Y-184752576D01*
X178175000Y-184753750D01*
X177262500Y-184753750D01*
X177238608Y-184752576D01*
X177214947Y-184749066D01*
X177191743Y-184743254D01*
X177169221Y-184735196D01*
X177147597Y-184724968D01*
X177127080Y-184712671D01*
X177107867Y-184698421D01*
X177090143Y-184682357D01*
X177074079Y-184664633D01*
X177059829Y-184645420D01*
X177047532Y-184624903D01*
X177037304Y-184603279D01*
X177029246Y-184580757D01*
X177023434Y-184557553D01*
X177019924Y-184533892D01*
X177018750Y-184510000D01*
X177018750Y-184022500D01*
X177019924Y-183998608D01*
X177023434Y-183974947D01*
X177029246Y-183951743D01*
X177037304Y-183929221D01*
X177047532Y-183907597D01*
X177059829Y-183887080D01*
X177074079Y-183867867D01*
X177090143Y-183850143D01*
X177107867Y-183834079D01*
X177127080Y-183819829D01*
X177147597Y-183807532D01*
X177169221Y-183797304D01*
X177191743Y-183789246D01*
X177214947Y-183783434D01*
X177238608Y-183779924D01*
X177262500Y-183778750D01*
X178175000Y-183778750D01*
X178198892Y-183779924D01*
X178198892Y-183779924D01*
G37*
D13*
X177718750Y-184266250D03*
D12*
G36*
X178198892Y-181904924D02*
G01*
X178222553Y-181908434D01*
X178245757Y-181914246D01*
X178268279Y-181922304D01*
X178289903Y-181932532D01*
X178310420Y-181944829D01*
X178329633Y-181959079D01*
X178347357Y-181975143D01*
X178363421Y-181992867D01*
X178377671Y-182012080D01*
X178389968Y-182032597D01*
X178400196Y-182054221D01*
X178408254Y-182076743D01*
X178414066Y-182099947D01*
X178417576Y-182123608D01*
X178418750Y-182147500D01*
X178418750Y-182635000D01*
X178417576Y-182658892D01*
X178414066Y-182682553D01*
X178408254Y-182705757D01*
X178400196Y-182728279D01*
X178389968Y-182749903D01*
X178377671Y-182770420D01*
X178363421Y-182789633D01*
X178347357Y-182807357D01*
X178329633Y-182823421D01*
X178310420Y-182837671D01*
X178289903Y-182849968D01*
X178268279Y-182860196D01*
X178245757Y-182868254D01*
X178222553Y-182874066D01*
X178198892Y-182877576D01*
X178175000Y-182878750D01*
X177262500Y-182878750D01*
X177238608Y-182877576D01*
X177214947Y-182874066D01*
X177191743Y-182868254D01*
X177169221Y-182860196D01*
X177147597Y-182849968D01*
X177127080Y-182837671D01*
X177107867Y-182823421D01*
X177090143Y-182807357D01*
X177074079Y-182789633D01*
X177059829Y-182770420D01*
X177047532Y-182749903D01*
X177037304Y-182728279D01*
X177029246Y-182705757D01*
X177023434Y-182682553D01*
X177019924Y-182658892D01*
X177018750Y-182635000D01*
X177018750Y-182147500D01*
X177019924Y-182123608D01*
X177023434Y-182099947D01*
X177029246Y-182076743D01*
X177037304Y-182054221D01*
X177047532Y-182032597D01*
X177059829Y-182012080D01*
X177074079Y-181992867D01*
X177090143Y-181975143D01*
X177107867Y-181959079D01*
X177127080Y-181944829D01*
X177147597Y-181932532D01*
X177169221Y-181922304D01*
X177191743Y-181914246D01*
X177214947Y-181908434D01*
X177238608Y-181904924D01*
X177262500Y-181903750D01*
X178175000Y-181903750D01*
X178198892Y-181904924D01*
X178198892Y-181904924D01*
G37*
D13*
X177718750Y-182391250D03*
D15*
X183768750Y-182516250D03*
X181568750Y-182516250D03*
X181568750Y-184216250D03*
X183768750Y-184216250D03*
D12*
G36*
X186623892Y-181992424D02*
G01*
X186647553Y-181995934D01*
X186670757Y-182001746D01*
X186693279Y-182009804D01*
X186714903Y-182020032D01*
X186735420Y-182032329D01*
X186754633Y-182046579D01*
X186772357Y-182062643D01*
X186788421Y-182080367D01*
X186802671Y-182099580D01*
X186814968Y-182120097D01*
X186825196Y-182141721D01*
X186833254Y-182164243D01*
X186839066Y-182187447D01*
X186842576Y-182211108D01*
X186843750Y-182235000D01*
X186843750Y-182722500D01*
X186842576Y-182746392D01*
X186839066Y-182770053D01*
X186833254Y-182793257D01*
X186825196Y-182815779D01*
X186814968Y-182837403D01*
X186802671Y-182857920D01*
X186788421Y-182877133D01*
X186772357Y-182894857D01*
X186754633Y-182910921D01*
X186735420Y-182925171D01*
X186714903Y-182937468D01*
X186693279Y-182947696D01*
X186670757Y-182955754D01*
X186647553Y-182961566D01*
X186623892Y-182965076D01*
X186600000Y-182966250D01*
X185687500Y-182966250D01*
X185663608Y-182965076D01*
X185639947Y-182961566D01*
X185616743Y-182955754D01*
X185594221Y-182947696D01*
X185572597Y-182937468D01*
X185552080Y-182925171D01*
X185532867Y-182910921D01*
X185515143Y-182894857D01*
X185499079Y-182877133D01*
X185484829Y-182857920D01*
X185472532Y-182837403D01*
X185462304Y-182815779D01*
X185454246Y-182793257D01*
X185448434Y-182770053D01*
X185444924Y-182746392D01*
X185443750Y-182722500D01*
X185443750Y-182235000D01*
X185444924Y-182211108D01*
X185448434Y-182187447D01*
X185454246Y-182164243D01*
X185462304Y-182141721D01*
X185472532Y-182120097D01*
X185484829Y-182099580D01*
X185499079Y-182080367D01*
X185515143Y-182062643D01*
X185532867Y-182046579D01*
X185552080Y-182032329D01*
X185572597Y-182020032D01*
X185594221Y-182009804D01*
X185616743Y-182001746D01*
X185639947Y-181995934D01*
X185663608Y-181992424D01*
X185687500Y-181991250D01*
X186600000Y-181991250D01*
X186623892Y-181992424D01*
X186623892Y-181992424D01*
G37*
D13*
X186143750Y-182478750D03*
D12*
G36*
X186623892Y-183867424D02*
G01*
X186647553Y-183870934D01*
X186670757Y-183876746D01*
X186693279Y-183884804D01*
X186714903Y-183895032D01*
X186735420Y-183907329D01*
X186754633Y-183921579D01*
X186772357Y-183937643D01*
X186788421Y-183955367D01*
X186802671Y-183974580D01*
X186814968Y-183995097D01*
X186825196Y-184016721D01*
X186833254Y-184039243D01*
X186839066Y-184062447D01*
X186842576Y-184086108D01*
X186843750Y-184110000D01*
X186843750Y-184597500D01*
X186842576Y-184621392D01*
X186839066Y-184645053D01*
X186833254Y-184668257D01*
X186825196Y-184690779D01*
X186814968Y-184712403D01*
X186802671Y-184732920D01*
X186788421Y-184752133D01*
X186772357Y-184769857D01*
X186754633Y-184785921D01*
X186735420Y-184800171D01*
X186714903Y-184812468D01*
X186693279Y-184822696D01*
X186670757Y-184830754D01*
X186647553Y-184836566D01*
X186623892Y-184840076D01*
X186600000Y-184841250D01*
X185687500Y-184841250D01*
X185663608Y-184840076D01*
X185639947Y-184836566D01*
X185616743Y-184830754D01*
X185594221Y-184822696D01*
X185572597Y-184812468D01*
X185552080Y-184800171D01*
X185532867Y-184785921D01*
X185515143Y-184769857D01*
X185499079Y-184752133D01*
X185484829Y-184732920D01*
X185472532Y-184712403D01*
X185462304Y-184690779D01*
X185454246Y-184668257D01*
X185448434Y-184645053D01*
X185444924Y-184621392D01*
X185443750Y-184597500D01*
X185443750Y-184110000D01*
X185444924Y-184086108D01*
X185448434Y-184062447D01*
X185454246Y-184039243D01*
X185462304Y-184016721D01*
X185472532Y-183995097D01*
X185484829Y-183974580D01*
X185499079Y-183955367D01*
X185515143Y-183937643D01*
X185532867Y-183921579D01*
X185552080Y-183907329D01*
X185572597Y-183895032D01*
X185594221Y-183884804D01*
X185616743Y-183876746D01*
X185639947Y-183870934D01*
X185663608Y-183867424D01*
X185687500Y-183866250D01*
X186600000Y-183866250D01*
X186623892Y-183867424D01*
X186623892Y-183867424D01*
G37*
D13*
X186143750Y-184353750D03*
D16*
X352647500Y-192465000D03*
X352647500Y-195765000D03*
D17*
X177668750Y-198491250D03*
X178468750Y-198491250D03*
X179268750Y-198491250D03*
X180068750Y-198491250D03*
X180868750Y-198491250D03*
X181668750Y-198491250D03*
X182468750Y-198491250D03*
X183268750Y-198491250D03*
X184068750Y-198491250D03*
X184868750Y-198491250D03*
X185668750Y-198491250D03*
D18*
X187368750Y-196791250D03*
X187368750Y-195991250D03*
X187368750Y-195191250D03*
X187368750Y-194391250D03*
X187368750Y-193591250D03*
X187368750Y-192791250D03*
X187368750Y-191991250D03*
X187368750Y-191191250D03*
X187368750Y-190391250D03*
X187368750Y-189591250D03*
X187368750Y-188791250D03*
D17*
X185668750Y-187091250D03*
X184868750Y-187091250D03*
X184068750Y-187091250D03*
X183268750Y-187091250D03*
X182468750Y-187091250D03*
X181668750Y-187091250D03*
X180868750Y-187091250D03*
X180068750Y-187091250D03*
X179268750Y-187091250D03*
X178468750Y-187091250D03*
X177668750Y-187091250D03*
D18*
X175968750Y-188791250D03*
X175968750Y-189591250D03*
X175968750Y-190391250D03*
X175968750Y-191191250D03*
X175968750Y-191991250D03*
X175968750Y-192791250D03*
X175968750Y-193591250D03*
X175968750Y-194391250D03*
X175968750Y-195191250D03*
X175968750Y-195991250D03*
X175968750Y-196791250D03*
D19*
X166568750Y-189347500D03*
X162868750Y-195547500D03*
X162868750Y-189347500D03*
X166568750Y-195547500D03*
D12*
G36*
X192117642Y-198139924D02*
G01*
X192141303Y-198143434D01*
X192164507Y-198149246D01*
X192187029Y-198157304D01*
X192208653Y-198167532D01*
X192229170Y-198179829D01*
X192248383Y-198194079D01*
X192266107Y-198210143D01*
X192282171Y-198227867D01*
X192296421Y-198247080D01*
X192308718Y-198267597D01*
X192318946Y-198289221D01*
X192327004Y-198311743D01*
X192332816Y-198334947D01*
X192336326Y-198358608D01*
X192337500Y-198382500D01*
X192337500Y-198870000D01*
X192336326Y-198893892D01*
X192332816Y-198917553D01*
X192327004Y-198940757D01*
X192318946Y-198963279D01*
X192308718Y-198984903D01*
X192296421Y-199005420D01*
X192282171Y-199024633D01*
X192266107Y-199042357D01*
X192248383Y-199058421D01*
X192229170Y-199072671D01*
X192208653Y-199084968D01*
X192187029Y-199095196D01*
X192164507Y-199103254D01*
X192141303Y-199109066D01*
X192117642Y-199112576D01*
X192093750Y-199113750D01*
X191181250Y-199113750D01*
X191157358Y-199112576D01*
X191133697Y-199109066D01*
X191110493Y-199103254D01*
X191087971Y-199095196D01*
X191066347Y-199084968D01*
X191045830Y-199072671D01*
X191026617Y-199058421D01*
X191008893Y-199042357D01*
X190992829Y-199024633D01*
X190978579Y-199005420D01*
X190966282Y-198984903D01*
X190956054Y-198963279D01*
X190947996Y-198940757D01*
X190942184Y-198917553D01*
X190938674Y-198893892D01*
X190937500Y-198870000D01*
X190937500Y-198382500D01*
X190938674Y-198358608D01*
X190942184Y-198334947D01*
X190947996Y-198311743D01*
X190956054Y-198289221D01*
X190966282Y-198267597D01*
X190978579Y-198247080D01*
X190992829Y-198227867D01*
X191008893Y-198210143D01*
X191026617Y-198194079D01*
X191045830Y-198179829D01*
X191066347Y-198167532D01*
X191087971Y-198157304D01*
X191110493Y-198149246D01*
X191133697Y-198143434D01*
X191157358Y-198139924D01*
X191181250Y-198138750D01*
X192093750Y-198138750D01*
X192117642Y-198139924D01*
X192117642Y-198139924D01*
G37*
D13*
X191637500Y-198626250D03*
D12*
G36*
X192117642Y-200014924D02*
G01*
X192141303Y-200018434D01*
X192164507Y-200024246D01*
X192187029Y-200032304D01*
X192208653Y-200042532D01*
X192229170Y-200054829D01*
X192248383Y-200069079D01*
X192266107Y-200085143D01*
X192282171Y-200102867D01*
X192296421Y-200122080D01*
X192308718Y-200142597D01*
X192318946Y-200164221D01*
X192327004Y-200186743D01*
X192332816Y-200209947D01*
X192336326Y-200233608D01*
X192337500Y-200257500D01*
X192337500Y-200745000D01*
X192336326Y-200768892D01*
X192332816Y-200792553D01*
X192327004Y-200815757D01*
X192318946Y-200838279D01*
X192308718Y-200859903D01*
X192296421Y-200880420D01*
X192282171Y-200899633D01*
X192266107Y-200917357D01*
X192248383Y-200933421D01*
X192229170Y-200947671D01*
X192208653Y-200959968D01*
X192187029Y-200970196D01*
X192164507Y-200978254D01*
X192141303Y-200984066D01*
X192117642Y-200987576D01*
X192093750Y-200988750D01*
X191181250Y-200988750D01*
X191157358Y-200987576D01*
X191133697Y-200984066D01*
X191110493Y-200978254D01*
X191087971Y-200970196D01*
X191066347Y-200959968D01*
X191045830Y-200947671D01*
X191026617Y-200933421D01*
X191008893Y-200917357D01*
X190992829Y-200899633D01*
X190978579Y-200880420D01*
X190966282Y-200859903D01*
X190956054Y-200838279D01*
X190947996Y-200815757D01*
X190942184Y-200792553D01*
X190938674Y-200768892D01*
X190937500Y-200745000D01*
X190937500Y-200257500D01*
X190938674Y-200233608D01*
X190942184Y-200209947D01*
X190947996Y-200186743D01*
X190956054Y-200164221D01*
X190966282Y-200142597D01*
X190978579Y-200122080D01*
X190992829Y-200102867D01*
X191008893Y-200085143D01*
X191026617Y-200069079D01*
X191045830Y-200054829D01*
X191066347Y-200042532D01*
X191087971Y-200032304D01*
X191110493Y-200024246D01*
X191133697Y-200018434D01*
X191157358Y-200014924D01*
X191181250Y-200013750D01*
X192093750Y-200013750D01*
X192117642Y-200014924D01*
X192117642Y-200014924D01*
G37*
D13*
X191637500Y-200501250D03*
D12*
G36*
X170755142Y-184023674D02*
G01*
X170778803Y-184027184D01*
X170802007Y-184032996D01*
X170824529Y-184041054D01*
X170846153Y-184051282D01*
X170866670Y-184063579D01*
X170885883Y-184077829D01*
X170903607Y-184093893D01*
X170919671Y-184111617D01*
X170933921Y-184130830D01*
X170946218Y-184151347D01*
X170956446Y-184172971D01*
X170964504Y-184195493D01*
X170970316Y-184218697D01*
X170973826Y-184242358D01*
X170975000Y-184266250D01*
X170975000Y-184753750D01*
X170973826Y-184777642D01*
X170970316Y-184801303D01*
X170964504Y-184824507D01*
X170956446Y-184847029D01*
X170946218Y-184868653D01*
X170933921Y-184889170D01*
X170919671Y-184908383D01*
X170903607Y-184926107D01*
X170885883Y-184942171D01*
X170866670Y-184956421D01*
X170846153Y-184968718D01*
X170824529Y-184978946D01*
X170802007Y-184987004D01*
X170778803Y-184992816D01*
X170755142Y-184996326D01*
X170731250Y-184997500D01*
X169818750Y-184997500D01*
X169794858Y-184996326D01*
X169771197Y-184992816D01*
X169747993Y-184987004D01*
X169725471Y-184978946D01*
X169703847Y-184968718D01*
X169683330Y-184956421D01*
X169664117Y-184942171D01*
X169646393Y-184926107D01*
X169630329Y-184908383D01*
X169616079Y-184889170D01*
X169603782Y-184868653D01*
X169593554Y-184847029D01*
X169585496Y-184824507D01*
X169579684Y-184801303D01*
X169576174Y-184777642D01*
X169575000Y-184753750D01*
X169575000Y-184266250D01*
X169576174Y-184242358D01*
X169579684Y-184218697D01*
X169585496Y-184195493D01*
X169593554Y-184172971D01*
X169603782Y-184151347D01*
X169616079Y-184130830D01*
X169630329Y-184111617D01*
X169646393Y-184093893D01*
X169664117Y-184077829D01*
X169683330Y-184063579D01*
X169703847Y-184051282D01*
X169725471Y-184041054D01*
X169747993Y-184032996D01*
X169771197Y-184027184D01*
X169794858Y-184023674D01*
X169818750Y-184022500D01*
X170731250Y-184022500D01*
X170755142Y-184023674D01*
X170755142Y-184023674D01*
G37*
D13*
X170275000Y-184510000D03*
D12*
G36*
X170755142Y-182148674D02*
G01*
X170778803Y-182152184D01*
X170802007Y-182157996D01*
X170824529Y-182166054D01*
X170846153Y-182176282D01*
X170866670Y-182188579D01*
X170885883Y-182202829D01*
X170903607Y-182218893D01*
X170919671Y-182236617D01*
X170933921Y-182255830D01*
X170946218Y-182276347D01*
X170956446Y-182297971D01*
X170964504Y-182320493D01*
X170970316Y-182343697D01*
X170973826Y-182367358D01*
X170975000Y-182391250D01*
X170975000Y-182878750D01*
X170973826Y-182902642D01*
X170970316Y-182926303D01*
X170964504Y-182949507D01*
X170956446Y-182972029D01*
X170946218Y-182993653D01*
X170933921Y-183014170D01*
X170919671Y-183033383D01*
X170903607Y-183051107D01*
X170885883Y-183067171D01*
X170866670Y-183081421D01*
X170846153Y-183093718D01*
X170824529Y-183103946D01*
X170802007Y-183112004D01*
X170778803Y-183117816D01*
X170755142Y-183121326D01*
X170731250Y-183122500D01*
X169818750Y-183122500D01*
X169794858Y-183121326D01*
X169771197Y-183117816D01*
X169747993Y-183112004D01*
X169725471Y-183103946D01*
X169703847Y-183093718D01*
X169683330Y-183081421D01*
X169664117Y-183067171D01*
X169646393Y-183051107D01*
X169630329Y-183033383D01*
X169616079Y-183014170D01*
X169603782Y-182993653D01*
X169593554Y-182972029D01*
X169585496Y-182949507D01*
X169579684Y-182926303D01*
X169576174Y-182902642D01*
X169575000Y-182878750D01*
X169575000Y-182391250D01*
X169576174Y-182367358D01*
X169579684Y-182343697D01*
X169585496Y-182320493D01*
X169593554Y-182297971D01*
X169603782Y-182276347D01*
X169616079Y-182255830D01*
X169630329Y-182236617D01*
X169646393Y-182218893D01*
X169664117Y-182202829D01*
X169683330Y-182188579D01*
X169703847Y-182176282D01*
X169725471Y-182166054D01*
X169747993Y-182157996D01*
X169771197Y-182152184D01*
X169794858Y-182148674D01*
X169818750Y-182147500D01*
X170731250Y-182147500D01*
X170755142Y-182148674D01*
X170755142Y-182148674D01*
G37*
D13*
X170275000Y-182635000D03*
D12*
G36*
X144855142Y-190646174D02*
G01*
X144878803Y-190649684D01*
X144902007Y-190655496D01*
X144924529Y-190663554D01*
X144946153Y-190673782D01*
X144966670Y-190686079D01*
X144985883Y-190700329D01*
X145003607Y-190716393D01*
X145019671Y-190734117D01*
X145033921Y-190753330D01*
X145046218Y-190773847D01*
X145056446Y-190795471D01*
X145064504Y-190817993D01*
X145070316Y-190841197D01*
X145073826Y-190864858D01*
X145075000Y-190888750D01*
X145075000Y-191801250D01*
X145073826Y-191825142D01*
X145070316Y-191848803D01*
X145064504Y-191872007D01*
X145056446Y-191894529D01*
X145046218Y-191916153D01*
X145033921Y-191936670D01*
X145019671Y-191955883D01*
X145003607Y-191973607D01*
X144985883Y-191989671D01*
X144966670Y-192003921D01*
X144946153Y-192016218D01*
X144924529Y-192026446D01*
X144902007Y-192034504D01*
X144878803Y-192040316D01*
X144855142Y-192043826D01*
X144831250Y-192045000D01*
X144343750Y-192045000D01*
X144319858Y-192043826D01*
X144296197Y-192040316D01*
X144272993Y-192034504D01*
X144250471Y-192026446D01*
X144228847Y-192016218D01*
X144208330Y-192003921D01*
X144189117Y-191989671D01*
X144171393Y-191973607D01*
X144155329Y-191955883D01*
X144141079Y-191936670D01*
X144128782Y-191916153D01*
X144118554Y-191894529D01*
X144110496Y-191872007D01*
X144104684Y-191848803D01*
X144101174Y-191825142D01*
X144100000Y-191801250D01*
X144100000Y-190888750D01*
X144101174Y-190864858D01*
X144104684Y-190841197D01*
X144110496Y-190817993D01*
X144118554Y-190795471D01*
X144128782Y-190773847D01*
X144141079Y-190753330D01*
X144155329Y-190734117D01*
X144171393Y-190716393D01*
X144189117Y-190700329D01*
X144208330Y-190686079D01*
X144228847Y-190673782D01*
X144250471Y-190663554D01*
X144272993Y-190655496D01*
X144296197Y-190649684D01*
X144319858Y-190646174D01*
X144343750Y-190645000D01*
X144831250Y-190645000D01*
X144855142Y-190646174D01*
X144855142Y-190646174D01*
G37*
D13*
X144587500Y-191345000D03*
D12*
G36*
X146730142Y-190646174D02*
G01*
X146753803Y-190649684D01*
X146777007Y-190655496D01*
X146799529Y-190663554D01*
X146821153Y-190673782D01*
X146841670Y-190686079D01*
X146860883Y-190700329D01*
X146878607Y-190716393D01*
X146894671Y-190734117D01*
X146908921Y-190753330D01*
X146921218Y-190773847D01*
X146931446Y-190795471D01*
X146939504Y-190817993D01*
X146945316Y-190841197D01*
X146948826Y-190864858D01*
X146950000Y-190888750D01*
X146950000Y-191801250D01*
X146948826Y-191825142D01*
X146945316Y-191848803D01*
X146939504Y-191872007D01*
X146931446Y-191894529D01*
X146921218Y-191916153D01*
X146908921Y-191936670D01*
X146894671Y-191955883D01*
X146878607Y-191973607D01*
X146860883Y-191989671D01*
X146841670Y-192003921D01*
X146821153Y-192016218D01*
X146799529Y-192026446D01*
X146777007Y-192034504D01*
X146753803Y-192040316D01*
X146730142Y-192043826D01*
X146706250Y-192045000D01*
X146218750Y-192045000D01*
X146194858Y-192043826D01*
X146171197Y-192040316D01*
X146147993Y-192034504D01*
X146125471Y-192026446D01*
X146103847Y-192016218D01*
X146083330Y-192003921D01*
X146064117Y-191989671D01*
X146046393Y-191973607D01*
X146030329Y-191955883D01*
X146016079Y-191936670D01*
X146003782Y-191916153D01*
X145993554Y-191894529D01*
X145985496Y-191872007D01*
X145979684Y-191848803D01*
X145976174Y-191825142D01*
X145975000Y-191801250D01*
X145975000Y-190888750D01*
X145976174Y-190864858D01*
X145979684Y-190841197D01*
X145985496Y-190817993D01*
X145993554Y-190795471D01*
X146003782Y-190773847D01*
X146016079Y-190753330D01*
X146030329Y-190734117D01*
X146046393Y-190716393D01*
X146064117Y-190700329D01*
X146083330Y-190686079D01*
X146103847Y-190673782D01*
X146125471Y-190663554D01*
X146147993Y-190655496D01*
X146171197Y-190649684D01*
X146194858Y-190646174D01*
X146218750Y-190645000D01*
X146706250Y-190645000D01*
X146730142Y-190646174D01*
X146730142Y-190646174D01*
G37*
D13*
X146462500Y-191345000D03*
D12*
G36*
X144847642Y-193196174D02*
G01*
X144871303Y-193199684D01*
X144894507Y-193205496D01*
X144917029Y-193213554D01*
X144938653Y-193223782D01*
X144959170Y-193236079D01*
X144978383Y-193250329D01*
X144996107Y-193266393D01*
X145012171Y-193284117D01*
X145026421Y-193303330D01*
X145038718Y-193323847D01*
X145048946Y-193345471D01*
X145057004Y-193367993D01*
X145062816Y-193391197D01*
X145066326Y-193414858D01*
X145067500Y-193438750D01*
X145067500Y-194351250D01*
X145066326Y-194375142D01*
X145062816Y-194398803D01*
X145057004Y-194422007D01*
X145048946Y-194444529D01*
X145038718Y-194466153D01*
X145026421Y-194486670D01*
X145012171Y-194505883D01*
X144996107Y-194523607D01*
X144978383Y-194539671D01*
X144959170Y-194553921D01*
X144938653Y-194566218D01*
X144917029Y-194576446D01*
X144894507Y-194584504D01*
X144871303Y-194590316D01*
X144847642Y-194593826D01*
X144823750Y-194595000D01*
X144336250Y-194595000D01*
X144312358Y-194593826D01*
X144288697Y-194590316D01*
X144265493Y-194584504D01*
X144242971Y-194576446D01*
X144221347Y-194566218D01*
X144200830Y-194553921D01*
X144181617Y-194539671D01*
X144163893Y-194523607D01*
X144147829Y-194505883D01*
X144133579Y-194486670D01*
X144121282Y-194466153D01*
X144111054Y-194444529D01*
X144102996Y-194422007D01*
X144097184Y-194398803D01*
X144093674Y-194375142D01*
X144092500Y-194351250D01*
X144092500Y-193438750D01*
X144093674Y-193414858D01*
X144097184Y-193391197D01*
X144102996Y-193367993D01*
X144111054Y-193345471D01*
X144121282Y-193323847D01*
X144133579Y-193303330D01*
X144147829Y-193284117D01*
X144163893Y-193266393D01*
X144181617Y-193250329D01*
X144200830Y-193236079D01*
X144221347Y-193223782D01*
X144242971Y-193213554D01*
X144265493Y-193205496D01*
X144288697Y-193199684D01*
X144312358Y-193196174D01*
X144336250Y-193195000D01*
X144823750Y-193195000D01*
X144847642Y-193196174D01*
X144847642Y-193196174D01*
G37*
D13*
X144580000Y-193895000D03*
D12*
G36*
X146722642Y-193196174D02*
G01*
X146746303Y-193199684D01*
X146769507Y-193205496D01*
X146792029Y-193213554D01*
X146813653Y-193223782D01*
X146834170Y-193236079D01*
X146853383Y-193250329D01*
X146871107Y-193266393D01*
X146887171Y-193284117D01*
X146901421Y-193303330D01*
X146913718Y-193323847D01*
X146923946Y-193345471D01*
X146932004Y-193367993D01*
X146937816Y-193391197D01*
X146941326Y-193414858D01*
X146942500Y-193438750D01*
X146942500Y-194351250D01*
X146941326Y-194375142D01*
X146937816Y-194398803D01*
X146932004Y-194422007D01*
X146923946Y-194444529D01*
X146913718Y-194466153D01*
X146901421Y-194486670D01*
X146887171Y-194505883D01*
X146871107Y-194523607D01*
X146853383Y-194539671D01*
X146834170Y-194553921D01*
X146813653Y-194566218D01*
X146792029Y-194576446D01*
X146769507Y-194584504D01*
X146746303Y-194590316D01*
X146722642Y-194593826D01*
X146698750Y-194595000D01*
X146211250Y-194595000D01*
X146187358Y-194593826D01*
X146163697Y-194590316D01*
X146140493Y-194584504D01*
X146117971Y-194576446D01*
X146096347Y-194566218D01*
X146075830Y-194553921D01*
X146056617Y-194539671D01*
X146038893Y-194523607D01*
X146022829Y-194505883D01*
X146008579Y-194486670D01*
X145996282Y-194466153D01*
X145986054Y-194444529D01*
X145977996Y-194422007D01*
X145972184Y-194398803D01*
X145968674Y-194375142D01*
X145967500Y-194351250D01*
X145967500Y-193438750D01*
X145968674Y-193414858D01*
X145972184Y-193391197D01*
X145977996Y-193367993D01*
X145986054Y-193345471D01*
X145996282Y-193323847D01*
X146008579Y-193303330D01*
X146022829Y-193284117D01*
X146038893Y-193266393D01*
X146056617Y-193250329D01*
X146075830Y-193236079D01*
X146096347Y-193223782D01*
X146117971Y-193213554D01*
X146140493Y-193205496D01*
X146163697Y-193199684D01*
X146187358Y-193196174D01*
X146211250Y-193195000D01*
X146698750Y-193195000D01*
X146722642Y-193196174D01*
X146722642Y-193196174D01*
G37*
D13*
X146455000Y-193895000D03*
D16*
X353441250Y-174208750D03*
X353441250Y-177508750D03*
X353441250Y-117058750D03*
X353441250Y-120358750D03*
X351060000Y-136902500D03*
X351060000Y-140202500D03*
X319310000Y-117058750D03*
X319310000Y-120358750D03*
X328041250Y-192465000D03*
X328041250Y-195765000D03*
X347091250Y-155158750D03*
X347091250Y-158458750D03*
X324866250Y-136902500D03*
X324866250Y-140202500D03*
X315341250Y-117058750D03*
X315341250Y-120358750D03*
X305816250Y-192527500D03*
X305816250Y-195827500D03*
X308197500Y-174208750D03*
X308197500Y-177508750D03*
X310578750Y-155158750D03*
X310578750Y-158458750D03*
X305816250Y-136902500D03*
X305816250Y-140202500D03*
X296291250Y-117058750D03*
X296291250Y-120358750D03*
X280416250Y-192527500D03*
X280416250Y-195827500D03*
X302641250Y-174208750D03*
X302641250Y-177508750D03*
X291528750Y-155158750D03*
X291528750Y-158458750D03*
X286766250Y-136965000D03*
X286766250Y-140265000D03*
X277241250Y-117058750D03*
X277241250Y-120358750D03*
X281210000Y-174208750D03*
X281210000Y-177508750D03*
X272478750Y-155158750D03*
X272478750Y-158458750D03*
X267716250Y-136902500D03*
X267716250Y-140202500D03*
X258191250Y-117121250D03*
X258191250Y-120421250D03*
X262953750Y-175002500D03*
X262953750Y-178302500D03*
X253428750Y-155158750D03*
X253428750Y-158458750D03*
X248666250Y-136902500D03*
X248666250Y-140202500D03*
X239141250Y-117058750D03*
X239141250Y-120358750D03*
X221678750Y-192527500D03*
X221678750Y-195827500D03*
X243903750Y-175002500D03*
X243903750Y-178302500D03*
X234378750Y-155158750D03*
X234378750Y-158458750D03*
X229616250Y-136902500D03*
X229616250Y-140202500D03*
X220091250Y-117058750D03*
X220091250Y-120358750D03*
X225647500Y-175002500D03*
X225647500Y-178302500D03*
X215328750Y-155158750D03*
X215328750Y-158458750D03*
X210566250Y-136902500D03*
X210566250Y-140202500D03*
X201041250Y-117058750D03*
X201041250Y-120358750D03*
X205803750Y-175002500D03*
X205803750Y-178302500D03*
X196278750Y-155158750D03*
X196278750Y-158458750D03*
X191516250Y-136902500D03*
X191516250Y-140202500D03*
X181991250Y-117058750D03*
X181991250Y-120358750D03*
X139128750Y-192527500D03*
X139128750Y-195827500D03*
X186753750Y-175002500D03*
X186753750Y-178302500D03*
X177228750Y-155158750D03*
X177228750Y-158458750D03*
X172466250Y-136902500D03*
X172466250Y-140202500D03*
X162941250Y-117058750D03*
X162941250Y-120358750D03*
X167703750Y-175002500D03*
X167703750Y-178302500D03*
X158178750Y-155158750D03*
X158178750Y-158458750D03*
X153416250Y-136902500D03*
X153416250Y-140202500D03*
X143891250Y-117058750D03*
X143891250Y-120358750D03*
X115316250Y-192465000D03*
X115316250Y-195765000D03*
X148653750Y-175002500D03*
X148653750Y-178302500D03*
X139128750Y-155158750D03*
X139128750Y-158458750D03*
X134366250Y-136902500D03*
X134366250Y-140202500D03*
X124841250Y-117058750D03*
X124841250Y-120358750D03*
X129603750Y-175002500D03*
X129603750Y-178302500D03*
X120078750Y-155158750D03*
X120078750Y-158458750D03*
X115316250Y-136902500D03*
X115316250Y-140202500D03*
X105791250Y-117121250D03*
X105791250Y-120421250D03*
X93091250Y-192465000D03*
X93091250Y-195765000D03*
X108966250Y-175002500D03*
X108966250Y-178302500D03*
X98647500Y-155158750D03*
X98647500Y-158458750D03*
X95472500Y-136902500D03*
X95472500Y-140202500D03*
X71415000Y-116405000D03*
X71415000Y-119705000D03*
D12*
G36*
X173930142Y-200836174D02*
G01*
X173953803Y-200839684D01*
X173977007Y-200845496D01*
X173999529Y-200853554D01*
X174021153Y-200863782D01*
X174041670Y-200876079D01*
X174060883Y-200890329D01*
X174078607Y-200906393D01*
X174094671Y-200924117D01*
X174108921Y-200943330D01*
X174121218Y-200963847D01*
X174131446Y-200985471D01*
X174139504Y-201007993D01*
X174145316Y-201031197D01*
X174148826Y-201054858D01*
X174150000Y-201078750D01*
X174150000Y-201566250D01*
X174148826Y-201590142D01*
X174145316Y-201613803D01*
X174139504Y-201637007D01*
X174131446Y-201659529D01*
X174121218Y-201681153D01*
X174108921Y-201701670D01*
X174094671Y-201720883D01*
X174078607Y-201738607D01*
X174060883Y-201754671D01*
X174041670Y-201768921D01*
X174021153Y-201781218D01*
X173999529Y-201791446D01*
X173977007Y-201799504D01*
X173953803Y-201805316D01*
X173930142Y-201808826D01*
X173906250Y-201810000D01*
X172993750Y-201810000D01*
X172969858Y-201808826D01*
X172946197Y-201805316D01*
X172922993Y-201799504D01*
X172900471Y-201791446D01*
X172878847Y-201781218D01*
X172858330Y-201768921D01*
X172839117Y-201754671D01*
X172821393Y-201738607D01*
X172805329Y-201720883D01*
X172791079Y-201701670D01*
X172778782Y-201681153D01*
X172768554Y-201659529D01*
X172760496Y-201637007D01*
X172754684Y-201613803D01*
X172751174Y-201590142D01*
X172750000Y-201566250D01*
X172750000Y-201078750D01*
X172751174Y-201054858D01*
X172754684Y-201031197D01*
X172760496Y-201007993D01*
X172768554Y-200985471D01*
X172778782Y-200963847D01*
X172791079Y-200943330D01*
X172805329Y-200924117D01*
X172821393Y-200906393D01*
X172839117Y-200890329D01*
X172858330Y-200876079D01*
X172878847Y-200863782D01*
X172900471Y-200853554D01*
X172922993Y-200845496D01*
X172946197Y-200839684D01*
X172969858Y-200836174D01*
X172993750Y-200835000D01*
X173906250Y-200835000D01*
X173930142Y-200836174D01*
X173930142Y-200836174D01*
G37*
D13*
X173450000Y-201322500D03*
D12*
G36*
X173930142Y-198961174D02*
G01*
X173953803Y-198964684D01*
X173977007Y-198970496D01*
X173999529Y-198978554D01*
X174021153Y-198988782D01*
X174041670Y-199001079D01*
X174060883Y-199015329D01*
X174078607Y-199031393D01*
X174094671Y-199049117D01*
X174108921Y-199068330D01*
X174121218Y-199088847D01*
X174131446Y-199110471D01*
X174139504Y-199132993D01*
X174145316Y-199156197D01*
X174148826Y-199179858D01*
X174150000Y-199203750D01*
X174150000Y-199691250D01*
X174148826Y-199715142D01*
X174145316Y-199738803D01*
X174139504Y-199762007D01*
X174131446Y-199784529D01*
X174121218Y-199806153D01*
X174108921Y-199826670D01*
X174094671Y-199845883D01*
X174078607Y-199863607D01*
X174060883Y-199879671D01*
X174041670Y-199893921D01*
X174021153Y-199906218D01*
X173999529Y-199916446D01*
X173977007Y-199924504D01*
X173953803Y-199930316D01*
X173930142Y-199933826D01*
X173906250Y-199935000D01*
X172993750Y-199935000D01*
X172969858Y-199933826D01*
X172946197Y-199930316D01*
X172922993Y-199924504D01*
X172900471Y-199916446D01*
X172878847Y-199906218D01*
X172858330Y-199893921D01*
X172839117Y-199879671D01*
X172821393Y-199863607D01*
X172805329Y-199845883D01*
X172791079Y-199826670D01*
X172778782Y-199806153D01*
X172768554Y-199784529D01*
X172760496Y-199762007D01*
X172754684Y-199738803D01*
X172751174Y-199715142D01*
X172750000Y-199691250D01*
X172750000Y-199203750D01*
X172751174Y-199179858D01*
X172754684Y-199156197D01*
X172760496Y-199132993D01*
X172768554Y-199110471D01*
X172778782Y-199088847D01*
X172791079Y-199068330D01*
X172805329Y-199049117D01*
X172821393Y-199031393D01*
X172839117Y-199015329D01*
X172858330Y-199001079D01*
X172878847Y-198988782D01*
X172900471Y-198978554D01*
X172922993Y-198970496D01*
X172946197Y-198964684D01*
X172969858Y-198961174D01*
X172993750Y-198960000D01*
X173906250Y-198960000D01*
X173930142Y-198961174D01*
X173930142Y-198961174D01*
G37*
D13*
X173450000Y-199447500D03*
D12*
G36*
X192186392Y-187704924D02*
G01*
X192210053Y-187708434D01*
X192233257Y-187714246D01*
X192255779Y-187722304D01*
X192277403Y-187732532D01*
X192297920Y-187744829D01*
X192317133Y-187759079D01*
X192334857Y-187775143D01*
X192350921Y-187792867D01*
X192365171Y-187812080D01*
X192377468Y-187832597D01*
X192387696Y-187854221D01*
X192395754Y-187876743D01*
X192401566Y-187899947D01*
X192405076Y-187923608D01*
X192406250Y-187947500D01*
X192406250Y-188435000D01*
X192405076Y-188458892D01*
X192401566Y-188482553D01*
X192395754Y-188505757D01*
X192387696Y-188528279D01*
X192377468Y-188549903D01*
X192365171Y-188570420D01*
X192350921Y-188589633D01*
X192334857Y-188607357D01*
X192317133Y-188623421D01*
X192297920Y-188637671D01*
X192277403Y-188649968D01*
X192255779Y-188660196D01*
X192233257Y-188668254D01*
X192210053Y-188674066D01*
X192186392Y-188677576D01*
X192162500Y-188678750D01*
X191250000Y-188678750D01*
X191226108Y-188677576D01*
X191202447Y-188674066D01*
X191179243Y-188668254D01*
X191156721Y-188660196D01*
X191135097Y-188649968D01*
X191114580Y-188637671D01*
X191095367Y-188623421D01*
X191077643Y-188607357D01*
X191061579Y-188589633D01*
X191047329Y-188570420D01*
X191035032Y-188549903D01*
X191024804Y-188528279D01*
X191016746Y-188505757D01*
X191010934Y-188482553D01*
X191007424Y-188458892D01*
X191006250Y-188435000D01*
X191006250Y-187947500D01*
X191007424Y-187923608D01*
X191010934Y-187899947D01*
X191016746Y-187876743D01*
X191024804Y-187854221D01*
X191035032Y-187832597D01*
X191047329Y-187812080D01*
X191061579Y-187792867D01*
X191077643Y-187775143D01*
X191095367Y-187759079D01*
X191114580Y-187744829D01*
X191135097Y-187732532D01*
X191156721Y-187722304D01*
X191179243Y-187714246D01*
X191202447Y-187708434D01*
X191226108Y-187704924D01*
X191250000Y-187703750D01*
X192162500Y-187703750D01*
X192186392Y-187704924D01*
X192186392Y-187704924D01*
G37*
D13*
X191706250Y-188191250D03*
D12*
G36*
X192186392Y-189579924D02*
G01*
X192210053Y-189583434D01*
X192233257Y-189589246D01*
X192255779Y-189597304D01*
X192277403Y-189607532D01*
X192297920Y-189619829D01*
X192317133Y-189634079D01*
X192334857Y-189650143D01*
X192350921Y-189667867D01*
X192365171Y-189687080D01*
X192377468Y-189707597D01*
X192387696Y-189729221D01*
X192395754Y-189751743D01*
X192401566Y-189774947D01*
X192405076Y-189798608D01*
X192406250Y-189822500D01*
X192406250Y-190310000D01*
X192405076Y-190333892D01*
X192401566Y-190357553D01*
X192395754Y-190380757D01*
X192387696Y-190403279D01*
X192377468Y-190424903D01*
X192365171Y-190445420D01*
X192350921Y-190464633D01*
X192334857Y-190482357D01*
X192317133Y-190498421D01*
X192297920Y-190512671D01*
X192277403Y-190524968D01*
X192255779Y-190535196D01*
X192233257Y-190543254D01*
X192210053Y-190549066D01*
X192186392Y-190552576D01*
X192162500Y-190553750D01*
X191250000Y-190553750D01*
X191226108Y-190552576D01*
X191202447Y-190549066D01*
X191179243Y-190543254D01*
X191156721Y-190535196D01*
X191135097Y-190524968D01*
X191114580Y-190512671D01*
X191095367Y-190498421D01*
X191077643Y-190482357D01*
X191061579Y-190464633D01*
X191047329Y-190445420D01*
X191035032Y-190424903D01*
X191024804Y-190403279D01*
X191016746Y-190380757D01*
X191010934Y-190357553D01*
X191007424Y-190333892D01*
X191006250Y-190310000D01*
X191006250Y-189822500D01*
X191007424Y-189798608D01*
X191010934Y-189774947D01*
X191016746Y-189751743D01*
X191024804Y-189729221D01*
X191035032Y-189707597D01*
X191047329Y-189687080D01*
X191061579Y-189667867D01*
X191077643Y-189650143D01*
X191095367Y-189634079D01*
X191114580Y-189619829D01*
X191135097Y-189607532D01*
X191156721Y-189597304D01*
X191179243Y-189589246D01*
X191202447Y-189583434D01*
X191226108Y-189579924D01*
X191250000Y-189578750D01*
X192162500Y-189578750D01*
X192186392Y-189579924D01*
X192186392Y-189579924D01*
G37*
D13*
X191706250Y-190066250D03*
D12*
G36*
X171873892Y-190404924D02*
G01*
X171897553Y-190408434D01*
X171920757Y-190414246D01*
X171943279Y-190422304D01*
X171964903Y-190432532D01*
X171985420Y-190444829D01*
X172004633Y-190459079D01*
X172022357Y-190475143D01*
X172038421Y-190492867D01*
X172052671Y-190512080D01*
X172064968Y-190532597D01*
X172075196Y-190554221D01*
X172083254Y-190576743D01*
X172089066Y-190599947D01*
X172092576Y-190623608D01*
X172093750Y-190647500D01*
X172093750Y-191135000D01*
X172092576Y-191158892D01*
X172089066Y-191182553D01*
X172083254Y-191205757D01*
X172075196Y-191228279D01*
X172064968Y-191249903D01*
X172052671Y-191270420D01*
X172038421Y-191289633D01*
X172022357Y-191307357D01*
X172004633Y-191323421D01*
X171985420Y-191337671D01*
X171964903Y-191349968D01*
X171943279Y-191360196D01*
X171920757Y-191368254D01*
X171897553Y-191374066D01*
X171873892Y-191377576D01*
X171850000Y-191378750D01*
X170937500Y-191378750D01*
X170913608Y-191377576D01*
X170889947Y-191374066D01*
X170866743Y-191368254D01*
X170844221Y-191360196D01*
X170822597Y-191349968D01*
X170802080Y-191337671D01*
X170782867Y-191323421D01*
X170765143Y-191307357D01*
X170749079Y-191289633D01*
X170734829Y-191270420D01*
X170722532Y-191249903D01*
X170712304Y-191228279D01*
X170704246Y-191205757D01*
X170698434Y-191182553D01*
X170694924Y-191158892D01*
X170693750Y-191135000D01*
X170693750Y-190647500D01*
X170694924Y-190623608D01*
X170698434Y-190599947D01*
X170704246Y-190576743D01*
X170712304Y-190554221D01*
X170722532Y-190532597D01*
X170734829Y-190512080D01*
X170749079Y-190492867D01*
X170765143Y-190475143D01*
X170782867Y-190459079D01*
X170802080Y-190444829D01*
X170822597Y-190432532D01*
X170844221Y-190422304D01*
X170866743Y-190414246D01*
X170889947Y-190408434D01*
X170913608Y-190404924D01*
X170937500Y-190403750D01*
X171850000Y-190403750D01*
X171873892Y-190404924D01*
X171873892Y-190404924D01*
G37*
D13*
X171393750Y-190891250D03*
D12*
G36*
X171873892Y-188529924D02*
G01*
X171897553Y-188533434D01*
X171920757Y-188539246D01*
X171943279Y-188547304D01*
X171964903Y-188557532D01*
X171985420Y-188569829D01*
X172004633Y-188584079D01*
X172022357Y-188600143D01*
X172038421Y-188617867D01*
X172052671Y-188637080D01*
X172064968Y-188657597D01*
X172075196Y-188679221D01*
X172083254Y-188701743D01*
X172089066Y-188724947D01*
X172092576Y-188748608D01*
X172093750Y-188772500D01*
X172093750Y-189260000D01*
X172092576Y-189283892D01*
X172089066Y-189307553D01*
X172083254Y-189330757D01*
X172075196Y-189353279D01*
X172064968Y-189374903D01*
X172052671Y-189395420D01*
X172038421Y-189414633D01*
X172022357Y-189432357D01*
X172004633Y-189448421D01*
X171985420Y-189462671D01*
X171964903Y-189474968D01*
X171943279Y-189485196D01*
X171920757Y-189493254D01*
X171897553Y-189499066D01*
X171873892Y-189502576D01*
X171850000Y-189503750D01*
X170937500Y-189503750D01*
X170913608Y-189502576D01*
X170889947Y-189499066D01*
X170866743Y-189493254D01*
X170844221Y-189485196D01*
X170822597Y-189474968D01*
X170802080Y-189462671D01*
X170782867Y-189448421D01*
X170765143Y-189432357D01*
X170749079Y-189414633D01*
X170734829Y-189395420D01*
X170722532Y-189374903D01*
X170712304Y-189353279D01*
X170704246Y-189330757D01*
X170698434Y-189307553D01*
X170694924Y-189283892D01*
X170693750Y-189260000D01*
X170693750Y-188772500D01*
X170694924Y-188748608D01*
X170698434Y-188724947D01*
X170704246Y-188701743D01*
X170712304Y-188679221D01*
X170722532Y-188657597D01*
X170734829Y-188637080D01*
X170749079Y-188617867D01*
X170765143Y-188600143D01*
X170782867Y-188584079D01*
X170802080Y-188569829D01*
X170822597Y-188557532D01*
X170844221Y-188547304D01*
X170866743Y-188539246D01*
X170889947Y-188533434D01*
X170913608Y-188529924D01*
X170937500Y-188528750D01*
X171850000Y-188528750D01*
X171873892Y-188529924D01*
X171873892Y-188529924D01*
G37*
D13*
X171393750Y-189016250D03*
D12*
G36*
X189805142Y-201629924D02*
G01*
X189828803Y-201633434D01*
X189852007Y-201639246D01*
X189874529Y-201647304D01*
X189896153Y-201657532D01*
X189916670Y-201669829D01*
X189935883Y-201684079D01*
X189953607Y-201700143D01*
X189969671Y-201717867D01*
X189983921Y-201737080D01*
X189996218Y-201757597D01*
X190006446Y-201779221D01*
X190014504Y-201801743D01*
X190020316Y-201824947D01*
X190023826Y-201848608D01*
X190025000Y-201872500D01*
X190025000Y-202360000D01*
X190023826Y-202383892D01*
X190020316Y-202407553D01*
X190014504Y-202430757D01*
X190006446Y-202453279D01*
X189996218Y-202474903D01*
X189983921Y-202495420D01*
X189969671Y-202514633D01*
X189953607Y-202532357D01*
X189935883Y-202548421D01*
X189916670Y-202562671D01*
X189896153Y-202574968D01*
X189874529Y-202585196D01*
X189852007Y-202593254D01*
X189828803Y-202599066D01*
X189805142Y-202602576D01*
X189781250Y-202603750D01*
X188868750Y-202603750D01*
X188844858Y-202602576D01*
X188821197Y-202599066D01*
X188797993Y-202593254D01*
X188775471Y-202585196D01*
X188753847Y-202574968D01*
X188733330Y-202562671D01*
X188714117Y-202548421D01*
X188696393Y-202532357D01*
X188680329Y-202514633D01*
X188666079Y-202495420D01*
X188653782Y-202474903D01*
X188643554Y-202453279D01*
X188635496Y-202430757D01*
X188629684Y-202407553D01*
X188626174Y-202383892D01*
X188625000Y-202360000D01*
X188625000Y-201872500D01*
X188626174Y-201848608D01*
X188629684Y-201824947D01*
X188635496Y-201801743D01*
X188643554Y-201779221D01*
X188653782Y-201757597D01*
X188666079Y-201737080D01*
X188680329Y-201717867D01*
X188696393Y-201700143D01*
X188714117Y-201684079D01*
X188733330Y-201669829D01*
X188753847Y-201657532D01*
X188775471Y-201647304D01*
X188797993Y-201639246D01*
X188821197Y-201633434D01*
X188844858Y-201629924D01*
X188868750Y-201628750D01*
X189781250Y-201628750D01*
X189805142Y-201629924D01*
X189805142Y-201629924D01*
G37*
D13*
X189325000Y-202116250D03*
D12*
G36*
X189805142Y-199754924D02*
G01*
X189828803Y-199758434D01*
X189852007Y-199764246D01*
X189874529Y-199772304D01*
X189896153Y-199782532D01*
X189916670Y-199794829D01*
X189935883Y-199809079D01*
X189953607Y-199825143D01*
X189969671Y-199842867D01*
X189983921Y-199862080D01*
X189996218Y-199882597D01*
X190006446Y-199904221D01*
X190014504Y-199926743D01*
X190020316Y-199949947D01*
X190023826Y-199973608D01*
X190025000Y-199997500D01*
X190025000Y-200485000D01*
X190023826Y-200508892D01*
X190020316Y-200532553D01*
X190014504Y-200555757D01*
X190006446Y-200578279D01*
X189996218Y-200599903D01*
X189983921Y-200620420D01*
X189969671Y-200639633D01*
X189953607Y-200657357D01*
X189935883Y-200673421D01*
X189916670Y-200687671D01*
X189896153Y-200699968D01*
X189874529Y-200710196D01*
X189852007Y-200718254D01*
X189828803Y-200724066D01*
X189805142Y-200727576D01*
X189781250Y-200728750D01*
X188868750Y-200728750D01*
X188844858Y-200727576D01*
X188821197Y-200724066D01*
X188797993Y-200718254D01*
X188775471Y-200710196D01*
X188753847Y-200699968D01*
X188733330Y-200687671D01*
X188714117Y-200673421D01*
X188696393Y-200657357D01*
X188680329Y-200639633D01*
X188666079Y-200620420D01*
X188653782Y-200599903D01*
X188643554Y-200578279D01*
X188635496Y-200555757D01*
X188629684Y-200532553D01*
X188626174Y-200508892D01*
X188625000Y-200485000D01*
X188625000Y-199997500D01*
X188626174Y-199973608D01*
X188629684Y-199949947D01*
X188635496Y-199926743D01*
X188643554Y-199904221D01*
X188653782Y-199882597D01*
X188666079Y-199862080D01*
X188680329Y-199842867D01*
X188696393Y-199825143D01*
X188714117Y-199809079D01*
X188733330Y-199794829D01*
X188753847Y-199782532D01*
X188775471Y-199772304D01*
X188797993Y-199764246D01*
X188821197Y-199758434D01*
X188844858Y-199754924D01*
X188868750Y-199753750D01*
X189781250Y-199753750D01*
X189805142Y-199754924D01*
X189805142Y-199754924D01*
G37*
D13*
X189325000Y-200241250D03*
D12*
G36*
X173136392Y-182436174D02*
G01*
X173160053Y-182439684D01*
X173183257Y-182445496D01*
X173205779Y-182453554D01*
X173227403Y-182463782D01*
X173247920Y-182476079D01*
X173267133Y-182490329D01*
X173284857Y-182506393D01*
X173300921Y-182524117D01*
X173315171Y-182543330D01*
X173327468Y-182563847D01*
X173337696Y-182585471D01*
X173345754Y-182607993D01*
X173351566Y-182631197D01*
X173355076Y-182654858D01*
X173356250Y-182678750D01*
X173356250Y-183166250D01*
X173355076Y-183190142D01*
X173351566Y-183213803D01*
X173345754Y-183237007D01*
X173337696Y-183259529D01*
X173327468Y-183281153D01*
X173315171Y-183301670D01*
X173300921Y-183320883D01*
X173284857Y-183338607D01*
X173267133Y-183354671D01*
X173247920Y-183368921D01*
X173227403Y-183381218D01*
X173205779Y-183391446D01*
X173183257Y-183399504D01*
X173160053Y-183405316D01*
X173136392Y-183408826D01*
X173112500Y-183410000D01*
X172200000Y-183410000D01*
X172176108Y-183408826D01*
X172152447Y-183405316D01*
X172129243Y-183399504D01*
X172106721Y-183391446D01*
X172085097Y-183381218D01*
X172064580Y-183368921D01*
X172045367Y-183354671D01*
X172027643Y-183338607D01*
X172011579Y-183320883D01*
X171997329Y-183301670D01*
X171985032Y-183281153D01*
X171974804Y-183259529D01*
X171966746Y-183237007D01*
X171960934Y-183213803D01*
X171957424Y-183190142D01*
X171956250Y-183166250D01*
X171956250Y-182678750D01*
X171957424Y-182654858D01*
X171960934Y-182631197D01*
X171966746Y-182607993D01*
X171974804Y-182585471D01*
X171985032Y-182563847D01*
X171997329Y-182543330D01*
X172011579Y-182524117D01*
X172027643Y-182506393D01*
X172045367Y-182490329D01*
X172064580Y-182476079D01*
X172085097Y-182463782D01*
X172106721Y-182453554D01*
X172129243Y-182445496D01*
X172152447Y-182439684D01*
X172176108Y-182436174D01*
X172200000Y-182435000D01*
X173112500Y-182435000D01*
X173136392Y-182436174D01*
X173136392Y-182436174D01*
G37*
D13*
X172656250Y-182922500D03*
D12*
G36*
X173136392Y-184311174D02*
G01*
X173160053Y-184314684D01*
X173183257Y-184320496D01*
X173205779Y-184328554D01*
X173227403Y-184338782D01*
X173247920Y-184351079D01*
X173267133Y-184365329D01*
X173284857Y-184381393D01*
X173300921Y-184399117D01*
X173315171Y-184418330D01*
X173327468Y-184438847D01*
X173337696Y-184460471D01*
X173345754Y-184482993D01*
X173351566Y-184506197D01*
X173355076Y-184529858D01*
X173356250Y-184553750D01*
X173356250Y-185041250D01*
X173355076Y-185065142D01*
X173351566Y-185088803D01*
X173345754Y-185112007D01*
X173337696Y-185134529D01*
X173327468Y-185156153D01*
X173315171Y-185176670D01*
X173300921Y-185195883D01*
X173284857Y-185213607D01*
X173267133Y-185229671D01*
X173247920Y-185243921D01*
X173227403Y-185256218D01*
X173205779Y-185266446D01*
X173183257Y-185274504D01*
X173160053Y-185280316D01*
X173136392Y-185283826D01*
X173112500Y-185285000D01*
X172200000Y-185285000D01*
X172176108Y-185283826D01*
X172152447Y-185280316D01*
X172129243Y-185274504D01*
X172106721Y-185266446D01*
X172085097Y-185256218D01*
X172064580Y-185243921D01*
X172045367Y-185229671D01*
X172027643Y-185213607D01*
X172011579Y-185195883D01*
X171997329Y-185176670D01*
X171985032Y-185156153D01*
X171974804Y-185134529D01*
X171966746Y-185112007D01*
X171960934Y-185088803D01*
X171957424Y-185065142D01*
X171956250Y-185041250D01*
X171956250Y-184553750D01*
X171957424Y-184529858D01*
X171960934Y-184506197D01*
X171966746Y-184482993D01*
X171974804Y-184460471D01*
X171985032Y-184438847D01*
X171997329Y-184418330D01*
X172011579Y-184399117D01*
X172027643Y-184381393D01*
X172045367Y-184365329D01*
X172064580Y-184351079D01*
X172085097Y-184338782D01*
X172106721Y-184328554D01*
X172129243Y-184320496D01*
X172152447Y-184314684D01*
X172176108Y-184311174D01*
X172200000Y-184310000D01*
X173112500Y-184310000D01*
X173136392Y-184311174D01*
X173136392Y-184311174D01*
G37*
D13*
X172656250Y-184797500D03*
M02*
