G04 #@! TF.GenerationSoftware,KiCad,Pcbnew,(5.1.10)-1*
G04 #@! TF.CreationDate,2021-11-02T22:14:20+11:00*
G04 #@! TF.ProjectId,x60,7836302e-6b69-4636-9164-5f7063625858,rev?*
G04 #@! TF.SameCoordinates,Original*
G04 #@! TF.FileFunction,Copper,L2,Bot*
G04 #@! TF.FilePolarity,Positive*
%FSLAX46Y46*%
G04 Gerber Fmt 4.6, Leading zero omitted, Abs format (unit mm)*
G04 Created by KiCad (PCBNEW (5.1.10)-1) date 2021-11-02 22:14:20*
%MOMM*%
%LPD*%
G01*
G04 APERTURE LIST*
G04 #@! TA.AperFunction,ComponentPad*
%ADD10C,2.250000*%
G04 #@! TD*
G04 #@! TA.AperFunction,SMDPad,CuDef*
%ADD11R,0.600000X1.450000*%
G04 #@! TD*
G04 #@! TA.AperFunction,SMDPad,CuDef*
%ADD12R,0.300000X1.450000*%
G04 #@! TD*
G04 #@! TA.AperFunction,ComponentPad*
%ADD13O,1.000000X2.100000*%
G04 #@! TD*
G04 #@! TA.AperFunction,ComponentPad*
%ADD14O,1.000000X1.600000*%
G04 #@! TD*
G04 #@! TA.AperFunction,SMDPad,CuDef*
%ADD15R,0.900000X1.200000*%
G04 #@! TD*
G04 #@! TA.AperFunction,SMDPad,CuDef*
%ADD16R,1.200000X1.400000*%
G04 #@! TD*
G04 #@! TA.AperFunction,SMDPad,CuDef*
%ADD17R,1.500000X0.550000*%
G04 #@! TD*
G04 #@! TA.AperFunction,SMDPad,CuDef*
%ADD18R,0.550000X1.500000*%
G04 #@! TD*
G04 #@! TA.AperFunction,SMDPad,CuDef*
%ADD19R,1.800000X1.100000*%
G04 #@! TD*
G04 #@! TA.AperFunction,SMDPad,CuDef*
%ADD20R,1.200000X0.900000*%
G04 #@! TD*
G04 #@! TA.AperFunction,ViaPad*
%ADD21C,0.800000*%
G04 #@! TD*
G04 #@! TA.AperFunction,Conductor*
%ADD22C,0.254000*%
G04 #@! TD*
G04 #@! TA.AperFunction,Conductor*
%ADD23C,0.381000*%
G04 #@! TD*
G04 APERTURE END LIST*
D10*
X91434400Y-123499400D03*
X85084400Y-126039400D03*
X110410900Y-123508900D03*
X104060900Y-126048900D03*
D11*
X101500900Y-125311400D03*
X100700900Y-125311400D03*
X95800900Y-125311400D03*
X95000900Y-125311400D03*
X95000900Y-125311400D03*
X95800900Y-125311400D03*
X100700900Y-125311400D03*
X101500900Y-125311400D03*
D12*
X96500900Y-125311400D03*
X97000900Y-125311400D03*
X97500900Y-125311400D03*
X98500900Y-125311400D03*
X99000900Y-125311400D03*
X99500900Y-125311400D03*
X100000900Y-125311400D03*
X98000900Y-125311400D03*
D13*
X102570900Y-124396400D03*
X93930900Y-124396400D03*
D14*
X93930900Y-120216400D03*
X102570900Y-120216400D03*
D15*
X92014650Y-133351400D03*
X95314650Y-133351400D03*
D10*
X212804650Y-199708900D03*
X206454650Y-202248900D03*
X224710900Y-199708900D03*
X218360900Y-202248900D03*
G04 #@! TA.AperFunction,SMDPad,CuDef*
G36*
G01*
X100777150Y-136888900D02*
X99864650Y-136888900D01*
G75*
G02*
X99620900Y-136645150I0J243750D01*
G01*
X99620900Y-136157650D01*
G75*
G02*
X99864650Y-135913900I243750J0D01*
G01*
X100777150Y-135913900D01*
G75*
G02*
X101020900Y-136157650I0J-243750D01*
G01*
X101020900Y-136645150D01*
G75*
G02*
X100777150Y-136888900I-243750J0D01*
G01*
G37*
G04 #@! TD.AperFunction*
G04 #@! TA.AperFunction,SMDPad,CuDef*
G36*
G01*
X100777150Y-138763900D02*
X99864650Y-138763900D01*
G75*
G02*
X99620900Y-138520150I0J243750D01*
G01*
X99620900Y-138032650D01*
G75*
G02*
X99864650Y-137788900I243750J0D01*
G01*
X100777150Y-137788900D01*
G75*
G02*
X101020900Y-138032650I0J-243750D01*
G01*
X101020900Y-138520150D01*
G75*
G02*
X100777150Y-138763900I-243750J0D01*
G01*
G37*
G04 #@! TD.AperFunction*
G04 #@! TA.AperFunction,SMDPad,CuDef*
G36*
G01*
X97107150Y-136828900D02*
X96194650Y-136828900D01*
G75*
G02*
X95950900Y-136585150I0J243750D01*
G01*
X95950900Y-136097650D01*
G75*
G02*
X96194650Y-135853900I243750J0D01*
G01*
X97107150Y-135853900D01*
G75*
G02*
X97350900Y-136097650I0J-243750D01*
G01*
X97350900Y-136585150D01*
G75*
G02*
X97107150Y-136828900I-243750J0D01*
G01*
G37*
G04 #@! TD.AperFunction*
G04 #@! TA.AperFunction,SMDPad,CuDef*
G36*
G01*
X97107150Y-138703900D02*
X96194650Y-138703900D01*
G75*
G02*
X95950900Y-138460150I0J243750D01*
G01*
X95950900Y-137972650D01*
G75*
G02*
X96194650Y-137728900I243750J0D01*
G01*
X97107150Y-137728900D01*
G75*
G02*
X97350900Y-137972650I0J-243750D01*
G01*
X97350900Y-138460150D01*
G75*
G02*
X97107150Y-138703900I-243750J0D01*
G01*
G37*
G04 #@! TD.AperFunction*
X172404650Y-180658900D03*
X166054650Y-183198900D03*
G04 #@! TA.AperFunction,SMDPad,CuDef*
G36*
G01*
X106605900Y-138496400D02*
X105355900Y-138496400D01*
G75*
G02*
X105105900Y-138246400I0J250000D01*
G01*
X105105900Y-137496400D01*
G75*
G02*
X105355900Y-137246400I250000J0D01*
G01*
X106605900Y-137246400D01*
G75*
G02*
X106855900Y-137496400I0J-250000D01*
G01*
X106855900Y-138246400D01*
G75*
G02*
X106605900Y-138496400I-250000J0D01*
G01*
G37*
G04 #@! TD.AperFunction*
G04 #@! TA.AperFunction,SMDPad,CuDef*
G36*
G01*
X106605900Y-141296400D02*
X105355900Y-141296400D01*
G75*
G02*
X105105900Y-141046400I0J250000D01*
G01*
X105105900Y-140296400D01*
G75*
G02*
X105355900Y-140046400I250000J0D01*
G01*
X106605900Y-140046400D01*
G75*
G02*
X106855900Y-140296400I0J-250000D01*
G01*
X106855900Y-141046400D01*
G75*
G02*
X106605900Y-141296400I-250000J0D01*
G01*
G37*
G04 #@! TD.AperFunction*
G04 #@! TA.AperFunction,SMDPad,CuDef*
G36*
G01*
X167033400Y-192426400D02*
X167033400Y-193338900D01*
G75*
G02*
X166789650Y-193582650I-243750J0D01*
G01*
X166302150Y-193582650D01*
G75*
G02*
X166058400Y-193338900I0J243750D01*
G01*
X166058400Y-192426400D01*
G75*
G02*
X166302150Y-192182650I243750J0D01*
G01*
X166789650Y-192182650D01*
G75*
G02*
X167033400Y-192426400I0J-243750D01*
G01*
G37*
G04 #@! TD.AperFunction*
G04 #@! TA.AperFunction,SMDPad,CuDef*
G36*
G01*
X168908400Y-192426400D02*
X168908400Y-193338900D01*
G75*
G02*
X168664650Y-193582650I-243750J0D01*
G01*
X168177150Y-193582650D01*
G75*
G02*
X167933400Y-193338900I0J243750D01*
G01*
X167933400Y-192426400D01*
G75*
G02*
X168177150Y-192182650I243750J0D01*
G01*
X168664650Y-192182650D01*
G75*
G02*
X168908400Y-192426400I0J-243750D01*
G01*
G37*
G04 #@! TD.AperFunction*
G04 #@! TA.AperFunction,SMDPad,CuDef*
G36*
G01*
X170202150Y-195857650D02*
X171114650Y-195857650D01*
G75*
G02*
X171358400Y-196101400I0J-243750D01*
G01*
X171358400Y-196588900D01*
G75*
G02*
X171114650Y-196832650I-243750J0D01*
G01*
X170202150Y-196832650D01*
G75*
G02*
X169958400Y-196588900I0J243750D01*
G01*
X169958400Y-196101400D01*
G75*
G02*
X170202150Y-195857650I243750J0D01*
G01*
G37*
G04 #@! TD.AperFunction*
G04 #@! TA.AperFunction,SMDPad,CuDef*
G36*
G01*
X170202150Y-193982650D02*
X171114650Y-193982650D01*
G75*
G02*
X171358400Y-194226400I0J-243750D01*
G01*
X171358400Y-194713900D01*
G75*
G02*
X171114650Y-194957650I-243750J0D01*
G01*
X170202150Y-194957650D01*
G75*
G02*
X169958400Y-194713900I0J243750D01*
G01*
X169958400Y-194226400D01*
G75*
G02*
X170202150Y-193982650I243750J0D01*
G01*
G37*
G04 #@! TD.AperFunction*
X191373400Y-180658900D03*
X185023400Y-183198900D03*
X93742150Y-199708900D03*
X87392150Y-202248900D03*
D16*
X190389650Y-197338900D03*
X190389650Y-199538900D03*
X192089650Y-199538900D03*
X192089650Y-197338900D03*
D17*
X173833400Y-194438900D03*
X173833400Y-195238900D03*
X173833400Y-196038900D03*
X173833400Y-196838900D03*
X173833400Y-197638900D03*
X173833400Y-198438900D03*
X173833400Y-199238900D03*
X173833400Y-200038900D03*
X173833400Y-200838900D03*
X173833400Y-201638900D03*
X173833400Y-202438900D03*
D18*
X175533400Y-204138900D03*
X176333400Y-204138900D03*
X177133400Y-204138900D03*
X177933400Y-204138900D03*
X178733400Y-204138900D03*
X179533400Y-204138900D03*
X180333400Y-204138900D03*
X181133400Y-204138900D03*
X181933400Y-204138900D03*
X182733400Y-204138900D03*
X183533400Y-204138900D03*
D17*
X185233400Y-202438900D03*
X185233400Y-201638900D03*
X185233400Y-200838900D03*
X185233400Y-200038900D03*
X185233400Y-199238900D03*
X185233400Y-198438900D03*
X185233400Y-197638900D03*
X185233400Y-196838900D03*
X185233400Y-196038900D03*
X185233400Y-195238900D03*
X185233400Y-194438900D03*
D18*
X183533400Y-192738900D03*
X182733400Y-192738900D03*
X181933400Y-192738900D03*
X181133400Y-192738900D03*
X180333400Y-192738900D03*
X179533400Y-192738900D03*
X178733400Y-192738900D03*
X177933400Y-192738900D03*
X177133400Y-192738900D03*
X176333400Y-192738900D03*
X175533400Y-192738900D03*
D19*
X194395900Y-210607650D03*
X188195900Y-206907650D03*
X194395900Y-206907650D03*
X188195900Y-210607650D03*
G04 #@! TA.AperFunction,SMDPad,CuDef*
G36*
G01*
X164645900Y-205238900D02*
X165558400Y-205238900D01*
G75*
G02*
X165802150Y-205482650I0J-243750D01*
G01*
X165802150Y-205970150D01*
G75*
G02*
X165558400Y-206213900I-243750J0D01*
G01*
X164645900Y-206213900D01*
G75*
G02*
X164402150Y-205970150I0J243750D01*
G01*
X164402150Y-205482650D01*
G75*
G02*
X164645900Y-205238900I243750J0D01*
G01*
G37*
G04 #@! TD.AperFunction*
G04 #@! TA.AperFunction,SMDPad,CuDef*
G36*
G01*
X164645900Y-203363900D02*
X165558400Y-203363900D01*
G75*
G02*
X165802150Y-203607650I0J-243750D01*
G01*
X165802150Y-204095150D01*
G75*
G02*
X165558400Y-204338900I-243750J0D01*
G01*
X164645900Y-204338900D01*
G75*
G02*
X164402150Y-204095150I0J243750D01*
G01*
X164402150Y-203607650D01*
G75*
G02*
X164645900Y-203363900I243750J0D01*
G01*
G37*
G04 #@! TD.AperFunction*
G04 #@! TA.AperFunction,SMDPad,CuDef*
G36*
G01*
X188320900Y-191632650D02*
X188320900Y-192545150D01*
G75*
G02*
X188077150Y-192788900I-243750J0D01*
G01*
X187589650Y-192788900D01*
G75*
G02*
X187345900Y-192545150I0J243750D01*
G01*
X187345900Y-191632650D01*
G75*
G02*
X187589650Y-191388900I243750J0D01*
G01*
X188077150Y-191388900D01*
G75*
G02*
X188320900Y-191632650I0J-243750D01*
G01*
G37*
G04 #@! TD.AperFunction*
G04 #@! TA.AperFunction,SMDPad,CuDef*
G36*
G01*
X190195900Y-191632650D02*
X190195900Y-192545150D01*
G75*
G02*
X189952150Y-192788900I-243750J0D01*
G01*
X189464650Y-192788900D01*
G75*
G02*
X189220900Y-192545150I0J243750D01*
G01*
X189220900Y-191632650D01*
G75*
G02*
X189464650Y-191388900I243750J0D01*
G01*
X189952150Y-191388900D01*
G75*
G02*
X190195900Y-191632650I0J-243750D01*
G01*
G37*
G04 #@! TD.AperFunction*
G04 #@! TA.AperFunction,SMDPad,CuDef*
G36*
G01*
X91970900Y-138677650D02*
X91970900Y-137765150D01*
G75*
G02*
X92214650Y-137521400I243750J0D01*
G01*
X92702150Y-137521400D01*
G75*
G02*
X92945900Y-137765150I0J-243750D01*
G01*
X92945900Y-138677650D01*
G75*
G02*
X92702150Y-138921400I-243750J0D01*
G01*
X92214650Y-138921400D01*
G75*
G02*
X91970900Y-138677650I0J243750D01*
G01*
G37*
G04 #@! TD.AperFunction*
G04 #@! TA.AperFunction,SMDPad,CuDef*
G36*
G01*
X90095900Y-138677650D02*
X90095900Y-137765150D01*
G75*
G02*
X90339650Y-137521400I243750J0D01*
G01*
X90827150Y-137521400D01*
G75*
G02*
X91070900Y-137765150I0J-243750D01*
G01*
X91070900Y-138677650D01*
G75*
G02*
X90827150Y-138921400I-243750J0D01*
G01*
X90339650Y-138921400D01*
G75*
G02*
X90095900Y-138677650I0J243750D01*
G01*
G37*
G04 #@! TD.AperFunction*
G04 #@! TA.AperFunction,SMDPad,CuDef*
G36*
G01*
X91970900Y-140717650D02*
X91970900Y-139805150D01*
G75*
G02*
X92214650Y-139561400I243750J0D01*
G01*
X92702150Y-139561400D01*
G75*
G02*
X92945900Y-139805150I0J-243750D01*
G01*
X92945900Y-140717650D01*
G75*
G02*
X92702150Y-140961400I-243750J0D01*
G01*
X92214650Y-140961400D01*
G75*
G02*
X91970900Y-140717650I0J243750D01*
G01*
G37*
G04 #@! TD.AperFunction*
G04 #@! TA.AperFunction,SMDPad,CuDef*
G36*
G01*
X90095900Y-140717650D02*
X90095900Y-139805150D01*
G75*
G02*
X90339650Y-139561400I243750J0D01*
G01*
X90827150Y-139561400D01*
G75*
G02*
X91070900Y-139805150I0J-243750D01*
G01*
X91070900Y-140717650D01*
G75*
G02*
X90827150Y-140961400I-243750J0D01*
G01*
X90339650Y-140961400D01*
G75*
G02*
X90095900Y-140717650I0J243750D01*
G01*
G37*
G04 #@! TD.AperFunction*
D10*
X353298400Y-199708900D03*
X346948400Y-202248900D03*
X308054650Y-199708900D03*
X301704650Y-202248900D03*
X305673400Y-199708900D03*
X299323400Y-202248900D03*
X143748400Y-199708900D03*
X137398400Y-202248900D03*
X115173400Y-199708900D03*
X108823400Y-202248900D03*
X96123400Y-199708900D03*
X89773400Y-202248900D03*
X331867150Y-180658900D03*
X325517150Y-183198900D03*
X93742150Y-161608900D03*
X87392150Y-164148900D03*
X339010900Y-123508900D03*
X332660900Y-126048900D03*
X355679650Y-199708900D03*
X349329650Y-202248900D03*
X331867150Y-199708900D03*
X325517150Y-202248900D03*
X329485900Y-199708900D03*
X323135900Y-202248900D03*
X284242150Y-199708900D03*
X277892150Y-202248900D03*
X141367150Y-199708900D03*
X135017150Y-202248900D03*
X117554650Y-199708900D03*
X111204650Y-202248900D03*
X358060900Y-180658900D03*
X351710900Y-183198900D03*
X341392150Y-180658900D03*
X335042150Y-183198900D03*
X305673400Y-180658900D03*
X299323400Y-183198900D03*
X286623400Y-180658900D03*
X280273400Y-183198900D03*
X267573400Y-180658900D03*
X261223400Y-183198900D03*
X248523400Y-180658900D03*
X242173400Y-183198900D03*
X229473400Y-180658900D03*
X223123400Y-183198900D03*
X210423400Y-180658900D03*
X204073400Y-183198900D03*
X153273400Y-180658900D03*
X146923400Y-183198900D03*
X134223400Y-180658900D03*
X127873400Y-183198900D03*
X103267150Y-180658900D03*
X96917150Y-183198900D03*
X346154650Y-161608900D03*
X339804650Y-164148900D03*
X315198400Y-161608900D03*
X308848400Y-164148900D03*
X296148400Y-161608900D03*
X289798400Y-164148900D03*
X277098400Y-161608900D03*
X270748400Y-164148900D03*
X258048400Y-161608900D03*
X251698400Y-164148900D03*
X238998400Y-161608900D03*
X232648400Y-164148900D03*
X219948400Y-161608900D03*
X213598400Y-164148900D03*
X200898400Y-161608900D03*
X194548400Y-164148900D03*
X181848400Y-161608900D03*
X175498400Y-164148900D03*
X162798400Y-161608900D03*
X156448400Y-164148900D03*
X143748400Y-161608900D03*
X137398400Y-164148900D03*
X124698400Y-161608900D03*
X118348400Y-164148900D03*
X98504650Y-161608900D03*
X92154650Y-164148900D03*
X353298400Y-142558900D03*
X346948400Y-145098900D03*
X329485900Y-142558900D03*
X323135900Y-145098900D03*
X310435900Y-142558900D03*
X304085900Y-145098900D03*
X291385900Y-142558900D03*
X285035900Y-145098900D03*
X272335900Y-142558900D03*
X265985900Y-145098900D03*
X253285900Y-142558900D03*
X246935900Y-145098900D03*
X234235900Y-142558900D03*
X227885900Y-145098900D03*
X215185900Y-142558900D03*
X208835900Y-145098900D03*
X196135900Y-142558900D03*
X189785900Y-145098900D03*
X177085900Y-142558900D03*
X170735900Y-145098900D03*
X158035900Y-142558900D03*
X151685900Y-145098900D03*
X138985900Y-142558900D03*
X132635900Y-145098900D03*
X119935900Y-142558900D03*
X113585900Y-145098900D03*
X96123400Y-142558900D03*
X89773400Y-145098900D03*
X358060900Y-123508900D03*
X351710900Y-126048900D03*
X348535900Y-123508900D03*
X342185900Y-126048900D03*
X319960900Y-123508900D03*
X313610900Y-126048900D03*
X300910900Y-123508900D03*
X294560900Y-126048900D03*
X281860900Y-123508900D03*
X275510900Y-126048900D03*
X262810900Y-123508900D03*
X256460900Y-126048900D03*
X243760900Y-123508900D03*
X237410900Y-126048900D03*
X224710900Y-123508900D03*
X218360900Y-126048900D03*
X205660900Y-123508900D03*
X199310900Y-126048900D03*
X186610900Y-123508900D03*
X180260900Y-126048900D03*
X167560900Y-123508900D03*
X161210900Y-126048900D03*
X148510900Y-123508900D03*
X142160900Y-126048900D03*
X129460900Y-123508900D03*
X123110900Y-126048900D03*
D20*
X342902150Y-202345150D03*
X342902150Y-205645150D03*
X339727150Y-202282650D03*
X339727150Y-205582650D03*
X315120900Y-202345150D03*
X315120900Y-205645150D03*
X271464650Y-202345150D03*
X271464650Y-205645150D03*
X200820900Y-202345150D03*
X200820900Y-205645150D03*
X128589650Y-202345150D03*
X128589650Y-205645150D03*
X104777150Y-202345150D03*
X104777150Y-205645150D03*
X101602150Y-202345150D03*
X101602150Y-205645150D03*
X346870900Y-183295150D03*
X346870900Y-186595150D03*
X314327150Y-183295150D03*
X314327150Y-186595150D03*
X295277150Y-183295150D03*
X295277150Y-186595150D03*
X276227150Y-183295150D03*
X276227150Y-186595150D03*
X257177150Y-183357650D03*
X257177150Y-186657650D03*
X238127150Y-183295150D03*
X238127150Y-186595150D03*
X219077150Y-183295150D03*
X219077150Y-186595150D03*
X200027150Y-183295150D03*
X200027150Y-186595150D03*
X180977150Y-183295150D03*
X180977150Y-186595150D03*
X161927150Y-183295150D03*
X161927150Y-186595150D03*
X142877150Y-183295150D03*
X142877150Y-186595150D03*
X123827150Y-183295150D03*
X123827150Y-186595150D03*
X119858400Y-183295150D03*
X119858400Y-186595150D03*
X323852150Y-167420150D03*
X323852150Y-170720150D03*
X304802150Y-167420150D03*
X304802150Y-170720150D03*
X285752150Y-167420150D03*
X285752150Y-170720150D03*
X266702150Y-167420150D03*
X266702150Y-170720150D03*
X247652150Y-167420150D03*
X247652150Y-170720150D03*
X228602150Y-167420150D03*
X228602150Y-170720150D03*
X209552150Y-167420150D03*
X209552150Y-170720150D03*
X190502150Y-167420150D03*
X190502150Y-170720150D03*
X171452150Y-167420150D03*
X171452150Y-170720150D03*
X152402150Y-167420150D03*
X152402150Y-170720150D03*
X133352150Y-167420150D03*
X133352150Y-170720150D03*
X114302150Y-167420150D03*
X114302150Y-170720150D03*
X111045900Y-167420150D03*
X111045900Y-170720150D03*
X338058400Y-146782650D03*
X338058400Y-150082650D03*
X319008400Y-146782650D03*
X319008400Y-150082650D03*
X299958400Y-146782650D03*
X299958400Y-150082650D03*
X280908400Y-146782650D03*
X280908400Y-150082650D03*
X261858400Y-146782650D03*
X261858400Y-150082650D03*
X242808400Y-146782650D03*
X242808400Y-150082650D03*
X223758400Y-146782650D03*
X223758400Y-150082650D03*
X204708400Y-146782650D03*
X204708400Y-150082650D03*
X185658400Y-146782650D03*
X185658400Y-150082650D03*
X166608400Y-146782650D03*
X166608400Y-150082650D03*
X147558400Y-146782650D03*
X147558400Y-150082650D03*
X128508400Y-146782650D03*
X128508400Y-150082650D03*
X109458400Y-146782650D03*
X109458400Y-150082650D03*
X106283400Y-146782650D03*
X106283400Y-150082650D03*
X360364650Y-146720150D03*
X360364650Y-150020150D03*
X328533400Y-127732650D03*
X328533400Y-131032650D03*
X309483400Y-127795150D03*
X309483400Y-131095150D03*
X290433400Y-127732650D03*
X290433400Y-131032650D03*
X271383400Y-127732650D03*
X271383400Y-131032650D03*
X252333400Y-127795150D03*
X252333400Y-131095150D03*
X233283400Y-127732650D03*
X233283400Y-131032650D03*
X214233400Y-127732650D03*
X214233400Y-131032650D03*
X195183400Y-127795150D03*
X195183400Y-131095150D03*
X176133400Y-127732650D03*
X176133400Y-131032650D03*
X157083400Y-127732650D03*
X157083400Y-131032650D03*
X138033400Y-127732650D03*
X138033400Y-131032650D03*
X118983400Y-127732650D03*
X118983400Y-131032650D03*
X115889650Y-127795150D03*
X115889650Y-131095150D03*
G04 #@! TA.AperFunction,SMDPad,CuDef*
G36*
G01*
X171114650Y-202895150D02*
X170202150Y-202895150D01*
G75*
G02*
X169958400Y-202651400I0J243750D01*
G01*
X169958400Y-202163900D01*
G75*
G02*
X170202150Y-201920150I243750J0D01*
G01*
X171114650Y-201920150D01*
G75*
G02*
X171358400Y-202163900I0J-243750D01*
G01*
X171358400Y-202651400D01*
G75*
G02*
X171114650Y-202895150I-243750J0D01*
G01*
G37*
G04 #@! TD.AperFunction*
G04 #@! TA.AperFunction,SMDPad,CuDef*
G36*
G01*
X171114650Y-204770150D02*
X170202150Y-204770150D01*
G75*
G02*
X169958400Y-204526400I0J243750D01*
G01*
X169958400Y-204038900D01*
G75*
G02*
X170202150Y-203795150I243750J0D01*
G01*
X171114650Y-203795150D01*
G75*
G02*
X171358400Y-204038900I0J-243750D01*
G01*
X171358400Y-204526400D01*
G75*
G02*
X171114650Y-204770150I-243750J0D01*
G01*
G37*
G04 #@! TD.AperFunction*
G04 #@! TA.AperFunction,SMDPad,CuDef*
G36*
G01*
X193983400Y-190957650D02*
X193983400Y-190045150D01*
G75*
G02*
X194227150Y-189801400I243750J0D01*
G01*
X194714650Y-189801400D01*
G75*
G02*
X194958400Y-190045150I0J-243750D01*
G01*
X194958400Y-190957650D01*
G75*
G02*
X194714650Y-191201400I-243750J0D01*
G01*
X194227150Y-191201400D01*
G75*
G02*
X193983400Y-190957650I0J243750D01*
G01*
G37*
G04 #@! TD.AperFunction*
G04 #@! TA.AperFunction,SMDPad,CuDef*
G36*
G01*
X192108400Y-190957650D02*
X192108400Y-190045150D01*
G75*
G02*
X192352150Y-189801400I243750J0D01*
G01*
X192839650Y-189801400D01*
G75*
G02*
X193083400Y-190045150I0J-243750D01*
G01*
X193083400Y-190957650D01*
G75*
G02*
X192839650Y-191201400I-243750J0D01*
G01*
X192352150Y-191201400D01*
G75*
G02*
X192108400Y-190957650I0J243750D01*
G01*
G37*
G04 #@! TD.AperFunction*
G04 #@! TA.AperFunction,SMDPad,CuDef*
G36*
G01*
X190989650Y-194013900D02*
X190989650Y-194926400D01*
G75*
G02*
X190745900Y-195170150I-243750J0D01*
G01*
X190258400Y-195170150D01*
G75*
G02*
X190014650Y-194926400I0J243750D01*
G01*
X190014650Y-194013900D01*
G75*
G02*
X190258400Y-193770150I243750J0D01*
G01*
X190745900Y-193770150D01*
G75*
G02*
X190989650Y-194013900I0J-243750D01*
G01*
G37*
G04 #@! TD.AperFunction*
G04 #@! TA.AperFunction,SMDPad,CuDef*
G36*
G01*
X192864650Y-194013900D02*
X192864650Y-194926400D01*
G75*
G02*
X192620900Y-195170150I-243750J0D01*
G01*
X192133400Y-195170150D01*
G75*
G02*
X191889650Y-194926400I0J243750D01*
G01*
X191889650Y-194013900D01*
G75*
G02*
X192133400Y-193770150I243750J0D01*
G01*
X192620900Y-193770150D01*
G75*
G02*
X192864650Y-194013900I0J-243750D01*
G01*
G37*
G04 #@! TD.AperFunction*
G04 #@! TA.AperFunction,SMDPad,CuDef*
G36*
G01*
X191889650Y-202863900D02*
X191889650Y-201951400D01*
G75*
G02*
X192133400Y-201707650I243750J0D01*
G01*
X192620900Y-201707650D01*
G75*
G02*
X192864650Y-201951400I0J-243750D01*
G01*
X192864650Y-202863900D01*
G75*
G02*
X192620900Y-203107650I-243750J0D01*
G01*
X192133400Y-203107650D01*
G75*
G02*
X191889650Y-202863900I0J243750D01*
G01*
G37*
G04 #@! TD.AperFunction*
G04 #@! TA.AperFunction,SMDPad,CuDef*
G36*
G01*
X190014650Y-202863900D02*
X190014650Y-201951400D01*
G75*
G02*
X190258400Y-201707650I243750J0D01*
G01*
X190745900Y-201707650D01*
G75*
G02*
X190989650Y-201951400I0J-243750D01*
G01*
X190989650Y-202863900D01*
G75*
G02*
X190745900Y-203107650I-243750J0D01*
G01*
X190258400Y-203107650D01*
G75*
G02*
X190014650Y-202863900I0J243750D01*
G01*
G37*
G04 #@! TD.AperFunction*
G04 #@! TA.AperFunction,SMDPad,CuDef*
G36*
G01*
X183664650Y-207626400D02*
X183664650Y-206713900D01*
G75*
G02*
X183908400Y-206470150I243750J0D01*
G01*
X184395900Y-206470150D01*
G75*
G02*
X184639650Y-206713900I0J-243750D01*
G01*
X184639650Y-207626400D01*
G75*
G02*
X184395900Y-207870150I-243750J0D01*
G01*
X183908400Y-207870150D01*
G75*
G02*
X183664650Y-207626400I0J243750D01*
G01*
G37*
G04 #@! TD.AperFunction*
G04 #@! TA.AperFunction,SMDPad,CuDef*
G36*
G01*
X181789650Y-207626400D02*
X181789650Y-206713900D01*
G75*
G02*
X182033400Y-206470150I243750J0D01*
G01*
X182520900Y-206470150D01*
G75*
G02*
X182764650Y-206713900I0J-243750D01*
G01*
X182764650Y-207626400D01*
G75*
G02*
X182520900Y-207870150I-243750J0D01*
G01*
X182033400Y-207870150D01*
G75*
G02*
X181789650Y-207626400I0J243750D01*
G01*
G37*
G04 #@! TD.AperFunction*
D21*
X178595900Y-189707650D03*
X165102150Y-192882650D03*
X95630900Y-129711400D03*
X100410900Y-140181400D03*
X131764650Y-207170150D03*
X125414650Y-207170150D03*
X105570900Y-207963900D03*
X103983400Y-199232650D03*
X100014650Y-197645150D03*
X168277150Y-203201400D03*
X180260400Y-191295150D03*
X170658400Y-191295150D03*
X168277150Y-194470150D03*
X182564650Y-208757650D03*
X163514650Y-191295150D03*
X158752150Y-191295150D03*
X149227150Y-191295150D03*
X144464650Y-191295150D03*
X107952150Y-146051400D03*
X109539650Y-175420150D03*
X127002150Y-176213900D03*
X195250200Y-192869100D03*
X146052150Y-190501400D03*
X119858400Y-133351400D03*
X156370900Y-190501400D03*
X155577150Y-173038900D03*
X155577150Y-189707650D03*
X149227150Y-152401400D03*
X167483400Y-198438900D03*
X167483400Y-206376400D03*
X101037399Y-129941400D03*
X102680900Y-136471400D03*
X174627150Y-210853640D03*
X169070900Y-210345150D03*
X169084966Y-209331081D03*
X180977150Y-190501400D03*
X180066208Y-188002958D03*
X169070900Y-207170150D03*
X183358400Y-190501400D03*
X184945900Y-191295150D03*
X180977150Y-210345150D03*
X180116081Y-210853640D03*
X280195900Y-190501400D03*
X296070900Y-191295150D03*
X304008400Y-192088900D03*
X321470900Y-192882650D03*
X170658400Y-207963900D03*
X204789650Y-209551400D03*
X343695900Y-209551400D03*
X99220900Y-128611400D03*
X94620900Y-140191400D03*
X158400900Y-194181400D03*
X149680900Y-194101400D03*
X84139650Y-190501400D03*
X84139650Y-141288900D03*
X98010900Y-127461400D03*
X99464901Y-127484861D03*
X94630900Y-138541400D03*
X158270900Y-193011400D03*
X149710900Y-193018400D03*
X196852150Y-192088900D03*
X196852150Y-207170150D03*
X96638124Y-126778517D03*
X96650900Y-134631400D03*
X99910400Y-126589578D03*
X100340900Y-134101400D03*
D22*
X185233400Y-196838900D02*
X184164650Y-196838900D01*
X184164650Y-196838900D02*
X183358400Y-197645150D01*
X183358400Y-197645150D02*
X183358400Y-203995150D01*
X178595900Y-192876400D02*
X178733400Y-192738900D01*
X178595900Y-196057650D02*
X178595900Y-192876400D01*
X184164650Y-196838900D02*
X179377150Y-196838900D01*
X179377150Y-196838900D02*
X178595900Y-196057650D01*
X179377150Y-196838900D02*
X177020900Y-196838900D01*
X175420900Y-195238900D02*
X173833400Y-195238900D01*
X177020900Y-196838900D02*
X175420900Y-195238900D01*
X174837400Y-201638900D02*
X173833400Y-201638900D01*
X175420900Y-201055400D02*
X174837400Y-201638900D01*
X175420900Y-198438900D02*
X175420900Y-201055400D01*
X177020900Y-196838900D02*
X175420900Y-198438900D01*
X183533400Y-206551400D02*
X184152150Y-207170150D01*
X183533400Y-204138900D02*
X183533400Y-206551400D01*
X185208400Y-210607650D02*
X188195900Y-210607650D01*
X184152150Y-207170150D02*
X184152150Y-209551400D01*
X184152150Y-209551400D02*
X185208400Y-210607650D01*
X190389650Y-194582650D02*
X190502150Y-194470150D01*
X192089650Y-202120150D02*
X192377150Y-202407650D01*
X192089650Y-199538900D02*
X192089650Y-202120150D01*
X188133400Y-196838900D02*
X190502150Y-194470150D01*
X185233400Y-196838900D02*
X188133400Y-196838900D01*
X192089650Y-199438900D02*
X192089650Y-199538900D01*
X190389650Y-197738900D02*
X192089650Y-199438900D01*
X190389650Y-197338900D02*
X190389650Y-197738900D01*
X192943650Y-199538900D02*
X192089650Y-199538900D01*
X193191660Y-199290890D02*
X192943650Y-199538900D01*
X192857318Y-193443140D02*
X193191660Y-193777482D01*
X191529160Y-193443140D02*
X192857318Y-193443140D01*
X190502150Y-194470150D02*
X191529160Y-193443140D01*
X171764650Y-195238900D02*
X170658400Y-196345150D01*
X173833400Y-195238900D02*
X171764650Y-195238900D01*
X194470900Y-190501400D02*
X196852150Y-190501400D01*
X196852150Y-190501400D02*
X197645900Y-191295150D01*
X197645900Y-191295150D02*
X197645900Y-193676400D01*
X197645900Y-193676400D02*
X196852150Y-194470150D01*
X196852150Y-194470150D02*
X193191660Y-194470150D01*
X193191660Y-194470150D02*
X193191660Y-194778410D01*
X193191660Y-193777482D02*
X193191660Y-194778410D01*
X193191660Y-194778410D02*
X193191660Y-199290890D01*
X178733400Y-189845150D02*
X178595900Y-189707650D01*
X178733400Y-192738900D02*
X178733400Y-189845150D01*
X165102150Y-192882650D02*
X166545900Y-192882650D01*
X171427150Y-201638900D02*
X170658400Y-202407650D01*
X173833400Y-201638900D02*
X171427150Y-201638900D01*
X166545900Y-202407650D02*
X165102150Y-203851400D01*
X170658400Y-202407650D02*
X166545900Y-202407650D01*
X95000900Y-125311400D02*
X95102901Y-125413401D01*
X101500900Y-129077862D02*
X101500900Y-125311400D01*
X101764400Y-129341362D02*
X101500900Y-129077862D01*
X101764400Y-130290361D02*
X101764400Y-129341362D01*
X101386360Y-130668401D02*
X101764400Y-130290361D01*
X96587901Y-130668401D02*
X101386360Y-130668401D01*
X95630900Y-129711400D02*
X96587901Y-130668401D01*
X100260900Y-138216400D02*
X100320900Y-138276400D01*
X96650900Y-138216400D02*
X100260900Y-138216400D01*
X100320900Y-140091400D02*
X100410900Y-140181400D01*
X100320900Y-138276400D02*
X100320900Y-140091400D01*
X96650900Y-138216400D02*
X96650900Y-138991400D01*
X97840900Y-140181400D02*
X100410900Y-140181400D01*
X96650900Y-138991400D02*
X97840900Y-140181400D01*
X165102150Y-203851400D02*
X160989650Y-207963900D01*
X132558400Y-207963900D02*
X131764650Y-207170150D01*
X160989650Y-207963900D02*
X132558400Y-207963900D01*
X125414650Y-207170150D02*
X124620900Y-207170150D01*
X123827150Y-207963900D02*
X105570900Y-207963900D01*
X124620900Y-207170150D02*
X123827150Y-207963900D01*
X103983400Y-199232650D02*
X103189650Y-198438900D01*
X103189650Y-198438900D02*
X100808400Y-198438900D01*
X100808400Y-198438900D02*
X100014650Y-197645150D01*
X95230901Y-129311401D02*
X95630900Y-129711400D01*
X95230901Y-126350302D02*
X95230901Y-129311401D01*
X95000900Y-126120301D02*
X95230901Y-126350302D01*
X95000900Y-125311400D02*
X95000900Y-126120301D01*
X182733400Y-206713900D02*
X182277150Y-207170150D01*
X182733400Y-204138900D02*
X182733400Y-206713900D01*
X185233400Y-196038900D02*
X188118890Y-196038900D01*
X188118890Y-196038900D02*
X188893890Y-195263900D01*
X188914650Y-195263900D02*
X189687640Y-194490910D01*
X188893890Y-195263900D02*
X188914650Y-195263900D01*
X189687640Y-194490910D02*
X189687640Y-193697160D01*
X189708400Y-193676400D02*
X189708400Y-192088900D01*
X189687640Y-193697160D02*
X189708400Y-193676400D01*
X170689650Y-194438900D02*
X170658400Y-194470150D01*
X173833400Y-194438900D02*
X170689650Y-194438900D01*
X170658400Y-194470150D02*
X168277150Y-194470150D01*
X189708400Y-192088900D02*
X190566783Y-192088900D01*
X190566783Y-192088900D02*
X191249828Y-192771945D01*
X180333400Y-191368150D02*
X180260400Y-191295150D01*
X180333400Y-192738900D02*
X180333400Y-191368150D01*
X171452150Y-192882650D02*
X168420900Y-192882650D01*
X172672901Y-191661899D02*
X171452150Y-192882650D01*
X176025149Y-191661899D02*
X172672901Y-191661899D01*
X176333400Y-192738900D02*
X176333400Y-191970150D01*
X176333400Y-191970150D02*
X176025149Y-191661899D01*
X168277150Y-193026400D02*
X168420900Y-192882650D01*
X168277150Y-194470150D02*
X168277150Y-193026400D01*
X168420900Y-192882650D02*
X168420900Y-192232650D01*
X168420900Y-192232650D02*
X168277150Y-192088900D01*
X168277150Y-192088900D02*
X168277150Y-191295150D01*
X168277150Y-191295150D02*
X170658400Y-191295150D01*
X172502150Y-202438900D02*
X170658400Y-204282650D01*
X173833400Y-202438900D02*
X172502150Y-202438900D01*
X169358400Y-204282650D02*
X168277150Y-203201400D01*
X170658400Y-204282650D02*
X169358400Y-204282650D01*
X182277150Y-207170150D02*
X182277150Y-208470150D01*
X182277150Y-208470150D02*
X182564650Y-208757650D01*
X168277150Y-191295150D02*
X163514650Y-191295150D01*
X149227150Y-191295150D02*
X144464650Y-191295150D01*
X105980900Y-140671400D02*
X107334650Y-140671400D01*
X107952150Y-141288900D02*
X107952150Y-146051400D01*
X107334650Y-140671400D02*
X107952150Y-141288900D01*
X109539650Y-175420150D02*
X110333400Y-176213900D01*
X110333400Y-176213900D02*
X127002150Y-176213900D01*
X195153045Y-192771945D02*
X195250200Y-192869100D01*
X191249828Y-192771945D02*
X195153045Y-192771945D01*
X190389650Y-202295150D02*
X190502150Y-202407650D01*
X190389650Y-199538900D02*
X190389650Y-202295150D01*
X190389650Y-199438900D02*
X190389650Y-199538900D01*
X189389650Y-198438900D02*
X190389650Y-199438900D01*
X185233400Y-198438900D02*
X189389650Y-198438900D01*
X192233400Y-197195150D02*
X192089650Y-197338900D01*
X192089650Y-194757650D02*
X192377150Y-194470150D01*
X192089650Y-197338900D02*
X192089650Y-194757650D01*
X192089650Y-197238900D02*
X192089650Y-197338900D01*
X191162649Y-196311899D02*
X192089650Y-197238900D01*
X189528049Y-196311899D02*
X191162649Y-196311899D01*
X188201048Y-197638900D02*
X189528049Y-196311899D01*
X185233400Y-197638900D02*
X188201048Y-197638900D01*
X179533400Y-192738900D02*
X179533400Y-189851400D01*
X179533400Y-189851400D02*
X179677150Y-189707650D01*
X191802150Y-189707650D02*
X192595900Y-190501400D01*
X179677150Y-189707650D02*
X191802150Y-189707650D01*
X91360900Y-132697650D02*
X92014650Y-133351400D01*
X91360900Y-123508900D02*
X91360900Y-132697650D01*
X97633400Y-133351400D02*
X99220900Y-133351400D01*
X118983400Y-132638900D02*
X118983400Y-131032650D01*
X118270900Y-133351400D02*
X118983400Y-132638900D01*
X118270900Y-133351400D02*
X137320900Y-133351400D01*
X138033400Y-132638900D02*
X138033400Y-131032650D01*
X137320900Y-133351400D02*
X138033400Y-132638900D01*
X137320900Y-133351400D02*
X156370900Y-133351400D01*
X157083400Y-132638900D02*
X157083400Y-131032650D01*
X156370900Y-133351400D02*
X157083400Y-132638900D01*
X156370900Y-133351400D02*
X175420900Y-133351400D01*
X176133400Y-132638900D02*
X176133400Y-131032650D01*
X175420900Y-133351400D02*
X176133400Y-132638900D01*
X175420900Y-133351400D02*
X194470900Y-133351400D01*
X195183400Y-132638900D02*
X195183400Y-131095150D01*
X194470900Y-133351400D02*
X195183400Y-132638900D01*
X194470900Y-133351400D02*
X213520900Y-133351400D01*
X214233400Y-132638900D02*
X214233400Y-131032650D01*
X213520900Y-133351400D02*
X214233400Y-132638900D01*
X213520900Y-133351400D02*
X232570900Y-133351400D01*
X233283400Y-132638900D02*
X233283400Y-131032650D01*
X232570900Y-133351400D02*
X233283400Y-132638900D01*
X232570900Y-133351400D02*
X251620900Y-133351400D01*
X252333400Y-132638900D02*
X252333400Y-131095150D01*
X251620900Y-133351400D02*
X252333400Y-132638900D01*
X251620900Y-133351400D02*
X270670900Y-133351400D01*
X271383400Y-132638900D02*
X271383400Y-131032650D01*
X270670900Y-133351400D02*
X271383400Y-132638900D01*
X270670900Y-133351400D02*
X289720900Y-133351400D01*
X290433400Y-132638900D02*
X290433400Y-131032650D01*
X289720900Y-133351400D02*
X290433400Y-132638900D01*
X289720900Y-133351400D02*
X308770900Y-133351400D01*
X309483400Y-132638900D02*
X309483400Y-131095150D01*
X308770900Y-133351400D02*
X309483400Y-132638900D01*
X308770900Y-133351400D02*
X327820900Y-133351400D01*
X328533400Y-132638900D02*
X328533400Y-131032650D01*
X327820900Y-133351400D02*
X328533400Y-132638900D01*
X95314650Y-133351400D02*
X98427150Y-133351400D01*
X146052150Y-190501400D02*
X152710900Y-190501400D01*
X152710900Y-190501400D02*
X155040900Y-192831400D01*
X155040900Y-192831400D02*
X155040900Y-200271400D01*
X171585083Y-200838900D02*
X173833400Y-200838900D01*
X171149823Y-201274160D02*
X171585083Y-200838900D01*
X156043660Y-201274160D02*
X171149823Y-201274160D01*
X155040900Y-200271400D02*
X156043660Y-201274160D01*
X115889650Y-132367150D02*
X116873900Y-133351400D01*
X116873900Y-133351400D02*
X118270900Y-133351400D01*
X115889650Y-131095150D02*
X115889650Y-132367150D01*
X99220900Y-133351400D02*
X116873900Y-133351400D01*
X115889650Y-124620150D02*
X115889650Y-127795150D01*
X114778400Y-123508900D02*
X115889650Y-124620150D01*
X110410900Y-123508900D02*
X114778400Y-123508900D01*
X129460900Y-123508900D02*
X120175900Y-123508900D01*
X118983400Y-124701400D02*
X118983400Y-127732650D01*
X120175900Y-123508900D02*
X118983400Y-124701400D01*
X148510900Y-123508900D02*
X139225900Y-123508900D01*
X138033400Y-124701400D02*
X138033400Y-127732650D01*
X139225900Y-123508900D02*
X138033400Y-124701400D01*
X167560900Y-123508900D02*
X158275900Y-123508900D01*
X157083400Y-124701400D02*
X157083400Y-127732650D01*
X158275900Y-123508900D02*
X157083400Y-124701400D01*
X186610900Y-123508900D02*
X177325900Y-123508900D01*
X176133400Y-124701400D02*
X176133400Y-127732650D01*
X177325900Y-123508900D02*
X176133400Y-124701400D01*
X205660900Y-123508900D02*
X196375900Y-123508900D01*
X195183400Y-124701400D02*
X195183400Y-127795150D01*
X196375900Y-123508900D02*
X195183400Y-124701400D01*
X224710900Y-123508900D02*
X215425900Y-123508900D01*
X214233400Y-124701400D02*
X214233400Y-127732650D01*
X215425900Y-123508900D02*
X214233400Y-124701400D01*
X243760900Y-123508900D02*
X234475900Y-123508900D01*
X233283400Y-124701400D02*
X233283400Y-127732650D01*
X234475900Y-123508900D02*
X233283400Y-124701400D01*
X262810900Y-123508900D02*
X253525900Y-123508900D01*
X252333400Y-124701400D02*
X252333400Y-127795150D01*
X253525900Y-123508900D02*
X252333400Y-124701400D01*
X281860900Y-123508900D02*
X272575900Y-123508900D01*
X271383400Y-124701400D02*
X271383400Y-127732650D01*
X272575900Y-123508900D02*
X271383400Y-124701400D01*
X300910900Y-123508900D02*
X291625900Y-123508900D01*
X290433400Y-124701400D02*
X290433400Y-127732650D01*
X291625900Y-123508900D02*
X290433400Y-124701400D01*
X319960900Y-123508900D02*
X310675900Y-123508900D01*
X309483400Y-124701400D02*
X309483400Y-127795150D01*
X310675900Y-123508900D02*
X309483400Y-124701400D01*
X339010900Y-123508900D02*
X329725900Y-123508900D01*
X328533400Y-124701400D02*
X328533400Y-127732650D01*
X329725900Y-123508900D02*
X328533400Y-124701400D01*
X346944910Y-123508900D02*
X339010900Y-123508900D01*
X348535900Y-123508900D02*
X346944910Y-123508900D01*
X358060900Y-123508900D02*
X361634650Y-123508900D01*
X361634650Y-123508900D02*
X361952150Y-123826400D01*
X361952150Y-123826400D02*
X361952150Y-142082650D01*
X360364650Y-143670150D02*
X360364650Y-146720150D01*
X361952150Y-142082650D02*
X360364650Y-143670150D01*
X359508400Y-170720150D02*
X323852150Y-170720150D01*
X360364650Y-150020150D02*
X360364650Y-169863900D01*
X360364650Y-169863900D02*
X359508400Y-170720150D01*
X323852150Y-170720150D02*
X323852150Y-172245150D01*
X323852150Y-172245150D02*
X323058400Y-173038900D01*
X323058400Y-173038900D02*
X305595900Y-173038900D01*
X304802150Y-172245150D02*
X304802150Y-170720150D01*
X305595900Y-173038900D02*
X304802150Y-172245150D01*
X305595900Y-173038900D02*
X286545900Y-173038900D01*
X285752150Y-172245150D02*
X285752150Y-170720150D01*
X286545900Y-173038900D02*
X285752150Y-172245150D01*
X286545900Y-173038900D02*
X267495900Y-173038900D01*
X266702150Y-172245150D02*
X266702150Y-170720150D01*
X267495900Y-173038900D02*
X266702150Y-172245150D01*
X267495900Y-173038900D02*
X248445900Y-173038900D01*
X247652150Y-172245150D02*
X247652150Y-170720150D01*
X248445900Y-173038900D02*
X247652150Y-172245150D01*
X248445900Y-173038900D02*
X229395900Y-173038900D01*
X228602150Y-172245150D02*
X228602150Y-170720150D01*
X229395900Y-173038900D02*
X228602150Y-172245150D01*
X229395900Y-173038900D02*
X210345900Y-173038900D01*
X209552150Y-172245150D02*
X209552150Y-170720150D01*
X210345900Y-173038900D02*
X209552150Y-172245150D01*
X210345900Y-173038900D02*
X191295900Y-173038900D01*
X190502150Y-172245150D02*
X190502150Y-170720150D01*
X191295900Y-173038900D02*
X190502150Y-172245150D01*
X191295900Y-173038900D02*
X172245900Y-173038900D01*
X171452150Y-172245150D02*
X171452150Y-170720150D01*
X172245900Y-173038900D02*
X171452150Y-172245150D01*
X172245900Y-173038900D02*
X153195900Y-173038900D01*
X152402150Y-172245150D02*
X152402150Y-170720150D01*
X153195900Y-173038900D02*
X152402150Y-172245150D01*
X153195900Y-173038900D02*
X134145900Y-173038900D01*
X133352150Y-172245150D02*
X133352150Y-170720150D01*
X134145900Y-173038900D02*
X133352150Y-172245150D01*
X134145900Y-173038900D02*
X115095900Y-173038900D01*
X114302150Y-172245150D02*
X114302150Y-170720150D01*
X115095900Y-173038900D02*
X114302150Y-172245150D01*
X115095900Y-173038900D02*
X111920900Y-173038900D01*
X111045900Y-172163900D02*
X111045900Y-170720150D01*
X111920900Y-173038900D02*
X111045900Y-172163900D01*
X173833400Y-199238900D02*
X170652150Y-199238900D01*
X170652150Y-199238900D02*
X169864650Y-200026400D01*
X165102150Y-200026400D02*
X157164650Y-200026400D01*
X165102150Y-200026400D02*
X164308400Y-200026400D01*
X169864650Y-200026400D02*
X165102150Y-200026400D01*
X157164650Y-200026400D02*
X156370900Y-199232650D01*
X156370900Y-199232650D02*
X156370900Y-190501400D01*
X96123400Y-142558900D02*
X106047150Y-142558900D01*
X106283400Y-142795150D02*
X106283400Y-146782650D01*
X106047150Y-142558900D02*
X106283400Y-142795150D01*
X106283400Y-150786650D02*
X106364650Y-150867900D01*
X106283400Y-150082650D02*
X106283400Y-150786650D01*
X106364650Y-150867900D02*
X106364650Y-151607650D01*
X106364650Y-151607650D02*
X107158400Y-152401400D01*
X107158400Y-152401400D02*
X108745900Y-152401400D01*
X109458400Y-151688900D02*
X109458400Y-150082650D01*
X108745900Y-152401400D02*
X109458400Y-151688900D01*
X108745900Y-152401400D02*
X127795900Y-152401400D01*
X128508400Y-151688900D02*
X128508400Y-150082650D01*
X127795900Y-152401400D02*
X128508400Y-151688900D01*
X127795900Y-152401400D02*
X146845900Y-152401400D01*
X147558400Y-151688900D02*
X147558400Y-150082650D01*
X146845900Y-152401400D02*
X147558400Y-151688900D01*
X146845900Y-152401400D02*
X165895900Y-152401400D01*
X166608400Y-151688900D02*
X166608400Y-150082650D01*
X165895900Y-152401400D02*
X166608400Y-151688900D01*
X165895900Y-152401400D02*
X184945900Y-152401400D01*
X185658400Y-151688900D02*
X185658400Y-150082650D01*
X184945900Y-152401400D02*
X185658400Y-151688900D01*
X184945900Y-152401400D02*
X203995900Y-152401400D01*
X204708400Y-151688900D02*
X204708400Y-150082650D01*
X203995900Y-152401400D02*
X204708400Y-151688900D01*
X203995900Y-152401400D02*
X223045900Y-152401400D01*
X223758400Y-151688900D02*
X223758400Y-150082650D01*
X223045900Y-152401400D02*
X223758400Y-151688900D01*
X223045900Y-152401400D02*
X242095900Y-152401400D01*
X242808400Y-151688900D02*
X242808400Y-150082650D01*
X242095900Y-152401400D02*
X242808400Y-151688900D01*
X242095900Y-152401400D02*
X261145900Y-152401400D01*
X261858400Y-151688900D02*
X261858400Y-150082650D01*
X261145900Y-152401400D02*
X261858400Y-151688900D01*
X261145900Y-152401400D02*
X280195900Y-152401400D01*
X280908400Y-151688900D02*
X280908400Y-150082650D01*
X280195900Y-152401400D02*
X280908400Y-151688900D01*
X280195900Y-152401400D02*
X299245900Y-152401400D01*
X299958400Y-151688900D02*
X299958400Y-150082650D01*
X299245900Y-152401400D02*
X299958400Y-151688900D01*
X299245900Y-152401400D02*
X318295900Y-152401400D01*
X319008400Y-151688900D02*
X319008400Y-150082650D01*
X318295900Y-152401400D02*
X319008400Y-151688900D01*
X318295900Y-152401400D02*
X337345900Y-152401400D01*
X338058400Y-151688900D02*
X338058400Y-150082650D01*
X337345900Y-152401400D02*
X338058400Y-151688900D01*
X173833400Y-200038900D02*
X170645900Y-200038900D01*
X170645900Y-200038900D02*
X169864650Y-200820150D01*
X162381160Y-200480410D02*
X156031160Y-200480410D01*
X162720900Y-200820150D02*
X162381160Y-200480410D01*
X165102150Y-200820150D02*
X162720900Y-200820150D01*
X165102150Y-200820150D02*
X164308400Y-200820150D01*
X169864650Y-200820150D02*
X165102150Y-200820150D01*
X156031160Y-200480410D02*
X155577150Y-200026400D01*
X155577150Y-200026400D02*
X155577150Y-189707650D01*
X119935900Y-142558900D02*
X110650900Y-142558900D01*
X109458400Y-143751400D02*
X109458400Y-146782650D01*
X110650900Y-142558900D02*
X109458400Y-143751400D01*
X138985900Y-142558900D02*
X129700900Y-142558900D01*
X128508400Y-143751400D02*
X128508400Y-146782650D01*
X129700900Y-142558900D02*
X128508400Y-143751400D01*
X158035900Y-142558900D02*
X148750900Y-142558900D01*
X147558400Y-143751400D02*
X147558400Y-146782650D01*
X148750900Y-142558900D02*
X147558400Y-143751400D01*
X177085900Y-142558900D02*
X167800900Y-142558900D01*
X166608400Y-143751400D02*
X166608400Y-146782650D01*
X167800900Y-142558900D02*
X166608400Y-143751400D01*
X196135900Y-142558900D02*
X186850900Y-142558900D01*
X185658400Y-143751400D02*
X185658400Y-146782650D01*
X186850900Y-142558900D02*
X185658400Y-143751400D01*
X215185900Y-142558900D02*
X205900900Y-142558900D01*
X204708400Y-143751400D02*
X204708400Y-146782650D01*
X205900900Y-142558900D02*
X204708400Y-143751400D01*
X234235900Y-142558900D02*
X224950900Y-142558900D01*
X223758400Y-143751400D02*
X223758400Y-146782650D01*
X224950900Y-142558900D02*
X223758400Y-143751400D01*
X253285900Y-142558900D02*
X244000900Y-142558900D01*
X242808400Y-143751400D02*
X242808400Y-146782650D01*
X244000900Y-142558900D02*
X242808400Y-143751400D01*
X272335900Y-142558900D02*
X263050900Y-142558900D01*
X261858400Y-143751400D02*
X261858400Y-146782650D01*
X263050900Y-142558900D02*
X261858400Y-143751400D01*
X291385900Y-142558900D02*
X282100900Y-142558900D01*
X280908400Y-143751400D02*
X280908400Y-146782650D01*
X282100900Y-142558900D02*
X280908400Y-143751400D01*
X310435900Y-142558900D02*
X301150900Y-142558900D01*
X299958400Y-143751400D02*
X299958400Y-146782650D01*
X301150900Y-142558900D02*
X299958400Y-143751400D01*
X329485900Y-142558900D02*
X320200900Y-142558900D01*
X319008400Y-143751400D02*
X319008400Y-146782650D01*
X320200900Y-142558900D02*
X319008400Y-143751400D01*
X353298400Y-142558900D02*
X339250900Y-142558900D01*
X338058400Y-143751400D02*
X338058400Y-146782650D01*
X339250900Y-142558900D02*
X338058400Y-143751400D01*
X93742150Y-161608900D02*
X98504650Y-161608900D01*
X98504650Y-161608900D02*
X110809650Y-161608900D01*
X111045900Y-161845150D02*
X111045900Y-167420150D01*
X110809650Y-161608900D02*
X111045900Y-161845150D01*
X124698400Y-161608900D02*
X115413400Y-161608900D01*
X115413400Y-161608900D02*
X114302150Y-162720150D01*
X114302150Y-162720150D02*
X114302150Y-167420150D01*
X143748400Y-161608900D02*
X134463400Y-161608900D01*
X133352150Y-162720150D02*
X133352150Y-167420150D01*
X134463400Y-161608900D02*
X133352150Y-162720150D01*
X162798400Y-161608900D02*
X153513400Y-161608900D01*
X152402150Y-162720150D02*
X152402150Y-167420150D01*
X153513400Y-161608900D02*
X152402150Y-162720150D01*
X181848400Y-161608900D02*
X172563400Y-161608900D01*
X171452150Y-162720150D02*
X171452150Y-167420150D01*
X172563400Y-161608900D02*
X171452150Y-162720150D01*
X200898400Y-161608900D02*
X191613400Y-161608900D01*
X190502150Y-162720150D02*
X190502150Y-167420150D01*
X191613400Y-161608900D02*
X190502150Y-162720150D01*
X219948400Y-161608900D02*
X210663400Y-161608900D01*
X209552150Y-162720150D02*
X209552150Y-167420150D01*
X210663400Y-161608900D02*
X209552150Y-162720150D01*
X238998400Y-161608900D02*
X229713400Y-161608900D01*
X228602150Y-162720150D02*
X228602150Y-167420150D01*
X229713400Y-161608900D02*
X228602150Y-162720150D01*
X258048400Y-161608900D02*
X248763400Y-161608900D01*
X247652150Y-162720150D02*
X247652150Y-167420150D01*
X248763400Y-161608900D02*
X247652150Y-162720150D01*
X277098400Y-161608900D02*
X267813400Y-161608900D01*
X266702150Y-162720150D02*
X266702150Y-167420150D01*
X267813400Y-161608900D02*
X266702150Y-162720150D01*
X296148400Y-161608900D02*
X286863400Y-161608900D01*
X285752150Y-162720150D02*
X285752150Y-167420150D01*
X286863400Y-161608900D02*
X285752150Y-162720150D01*
X315198400Y-161608900D02*
X305913400Y-161608900D01*
X304802150Y-162720150D02*
X304802150Y-167420150D01*
X305913400Y-161608900D02*
X304802150Y-162720150D01*
X346154650Y-161608900D02*
X324963400Y-161608900D01*
X323852150Y-162720150D02*
X323852150Y-167420150D01*
X324963400Y-161608900D02*
X323852150Y-162720150D01*
X103267150Y-180658900D02*
X119540900Y-180658900D01*
X119858400Y-180976400D02*
X119858400Y-183295150D01*
X119540900Y-180658900D02*
X119858400Y-180976400D01*
X200027150Y-188108140D02*
X200027150Y-186595150D01*
X180977150Y-186595150D02*
X180977150Y-188120150D01*
X181770900Y-188913900D02*
X187765934Y-188913900D01*
X180977150Y-188120150D02*
X181770900Y-188913900D01*
X187765934Y-188913900D02*
X187771939Y-188907895D01*
X187771939Y-188907895D02*
X199227395Y-188907895D01*
X199227395Y-188907895D02*
X200027150Y-188108140D01*
X180977150Y-188120150D02*
X180183400Y-188913900D01*
X180183400Y-188913900D02*
X162720900Y-188913900D01*
X162720900Y-188913900D02*
X161927150Y-188120150D01*
X161927150Y-188120150D02*
X161927150Y-186595150D01*
X119858400Y-186595150D02*
X119858400Y-188120150D01*
X119858400Y-188120150D02*
X120652150Y-188913900D01*
X120652150Y-188913900D02*
X123033400Y-188913900D01*
X123827150Y-188120150D02*
X123827150Y-186595150D01*
X123033400Y-188913900D02*
X123827150Y-188120150D01*
X123033400Y-188913900D02*
X142083400Y-188913900D01*
X142877150Y-188120150D02*
X142877150Y-186595150D01*
X142083400Y-188913900D02*
X142877150Y-188120150D01*
X199227395Y-188907895D02*
X218277395Y-188907895D01*
X219077150Y-188108140D02*
X219077150Y-186595150D01*
X218277395Y-188907895D02*
X219077150Y-188108140D01*
X218277395Y-188907895D02*
X237327395Y-188907895D01*
X238127150Y-188108140D02*
X238127150Y-186595150D01*
X237327395Y-188907895D02*
X238127150Y-188108140D01*
X237327395Y-188907895D02*
X256377395Y-188907895D01*
X257177150Y-188108140D02*
X257177150Y-186657650D01*
X256377395Y-188907895D02*
X257177150Y-188108140D01*
X256377395Y-188907895D02*
X275427395Y-188907895D01*
X276227150Y-188108140D02*
X276227150Y-186595150D01*
X275427395Y-188907895D02*
X276227150Y-188108140D01*
X275427395Y-188907895D02*
X294477395Y-188907895D01*
X295277150Y-188108140D02*
X295277150Y-186595150D01*
X294477395Y-188907895D02*
X295277150Y-188108140D01*
X294477395Y-188907895D02*
X313527395Y-188907895D01*
X314327150Y-188108140D02*
X314327150Y-186595150D01*
X313527395Y-188907895D02*
X314327150Y-188108140D01*
X313527395Y-188907895D02*
X346071145Y-188907895D01*
X346870900Y-188108140D02*
X346870900Y-186595150D01*
X346071145Y-188907895D02*
X346870900Y-188108140D01*
X157164650Y-198438900D02*
X157164650Y-188913900D01*
X157164650Y-188913900D02*
X162720900Y-188913900D01*
X142083400Y-188913900D02*
X157164650Y-188913900D01*
X173833400Y-198438900D02*
X170658400Y-198438900D01*
X170658400Y-198438900D02*
X169864650Y-199232650D01*
X169864650Y-199232650D02*
X157958400Y-199232650D01*
X157958400Y-199232650D02*
X157164650Y-198438900D01*
X134223400Y-180658900D02*
X124938400Y-180658900D01*
X124938400Y-180658900D02*
X123827150Y-181770150D01*
X123827150Y-181770150D02*
X123827150Y-183295150D01*
X153273400Y-180658900D02*
X143988400Y-180658900D01*
X143988400Y-180658900D02*
X142877150Y-181770150D01*
X142877150Y-181770150D02*
X142877150Y-183295150D01*
X172404650Y-180658900D02*
X163038400Y-180658900D01*
X161927150Y-181770150D02*
X161927150Y-183295150D01*
X163038400Y-180658900D02*
X161927150Y-181770150D01*
X191373400Y-180658900D02*
X182088400Y-180658900D01*
X180977150Y-181770150D02*
X180977150Y-183295150D01*
X182088400Y-180658900D02*
X180977150Y-181770150D01*
X210423400Y-180658900D02*
X201138400Y-180658900D01*
X200027150Y-181770150D02*
X200027150Y-183295150D01*
X201138400Y-180658900D02*
X200027150Y-181770150D01*
X229473400Y-180658900D02*
X220188400Y-180658900D01*
X219077150Y-181770150D02*
X219077150Y-183295150D01*
X220188400Y-180658900D02*
X219077150Y-181770150D01*
X248523400Y-180658900D02*
X239238400Y-180658900D01*
X238127150Y-181770150D02*
X238127150Y-183295150D01*
X239238400Y-180658900D02*
X238127150Y-181770150D01*
X267573400Y-180658900D02*
X258288400Y-180658900D01*
X257177150Y-181770150D02*
X257177150Y-183357650D01*
X258288400Y-180658900D02*
X257177150Y-181770150D01*
X286623400Y-180658900D02*
X277338400Y-180658900D01*
X276227150Y-181770150D02*
X276227150Y-183295150D01*
X277338400Y-180658900D02*
X276227150Y-181770150D01*
X305673400Y-180658900D02*
X296388400Y-180658900D01*
X295277150Y-181770150D02*
X295277150Y-183295150D01*
X296388400Y-180658900D02*
X295277150Y-181770150D01*
X331867150Y-180658900D02*
X315438400Y-180658900D01*
X314327150Y-181770150D02*
X314327150Y-183295150D01*
X315438400Y-180658900D02*
X314327150Y-181770150D01*
X339801160Y-180658900D02*
X331867150Y-180658900D01*
X341392150Y-180658900D02*
X339801160Y-180658900D01*
X358060900Y-180658900D02*
X347982150Y-180658900D01*
X346870900Y-181770150D02*
X346870900Y-183295150D01*
X347982150Y-180658900D02*
X346870900Y-181770150D01*
X93742150Y-199708900D02*
X96123400Y-199708900D01*
X96123400Y-199708900D02*
X101284650Y-199708900D01*
X101602150Y-200026400D02*
X101602150Y-202345150D01*
X101284650Y-199708900D02*
X101602150Y-200026400D01*
X173833400Y-197638900D02*
X168283400Y-197638900D01*
X168283400Y-197638900D02*
X167483400Y-198438900D01*
X101602150Y-205645150D02*
X101602150Y-207963900D01*
X101602150Y-207963900D02*
X102395900Y-208757650D01*
X102395900Y-208757650D02*
X103983400Y-208757650D01*
X104777150Y-207963900D02*
X104777150Y-205645150D01*
X103983400Y-208757650D02*
X104777150Y-207963900D01*
X103983400Y-208757650D02*
X127795900Y-208757650D01*
X128589650Y-207963900D02*
X128589650Y-205645150D01*
X127795900Y-208757650D02*
X128589650Y-207963900D01*
X271464650Y-205645150D02*
X271464650Y-207170150D01*
X271464650Y-207170150D02*
X272258400Y-207963900D01*
X272258400Y-207963900D02*
X314327150Y-207963900D01*
X315120900Y-207170150D02*
X315120900Y-205645150D01*
X314327150Y-207963900D02*
X315120900Y-207170150D01*
X314327150Y-207963900D02*
X338933400Y-207963900D01*
X339727150Y-207170150D02*
X339727150Y-205582650D01*
X338933400Y-207963900D02*
X339727150Y-207170150D01*
X338933400Y-207963900D02*
X342108400Y-207963900D01*
X342902150Y-207170150D02*
X342902150Y-205645150D01*
X342108400Y-207963900D02*
X342902150Y-207170150D01*
X272258400Y-207963900D02*
X201614650Y-207963900D01*
X200820900Y-207170150D02*
X200820900Y-205645150D01*
X201614650Y-207963900D02*
X200820900Y-207170150D01*
X201614650Y-209551400D02*
X199585410Y-211580640D01*
X201614650Y-207963900D02*
X201614650Y-209551400D01*
X199585410Y-211580640D02*
X168277150Y-211580640D01*
X167567122Y-211580640D02*
X164744132Y-208757650D01*
X168277150Y-211580640D02*
X167567122Y-211580640D01*
X164744132Y-208757650D02*
X127795900Y-208757650D01*
X167567122Y-211580640D02*
X167567122Y-206460122D01*
X167567122Y-206460122D02*
X167483400Y-206376400D01*
X117554650Y-199708900D02*
X115173400Y-199708900D01*
X115173400Y-199708900D02*
X105888400Y-199708900D01*
X104777150Y-200820150D02*
X104777150Y-202345150D01*
X105888400Y-199708900D02*
X104777150Y-200820150D01*
X143748400Y-199708900D02*
X141367150Y-199708900D01*
X141367150Y-199708900D02*
X129700900Y-199708900D01*
X128589650Y-200820150D02*
X128589650Y-202345150D01*
X129700900Y-199708900D02*
X128589650Y-200820150D01*
X223119910Y-199708900D02*
X212804650Y-199708900D01*
X224710900Y-199708900D02*
X223119910Y-199708900D01*
X212804650Y-199708900D02*
X201932150Y-199708900D01*
X200820900Y-200820150D02*
X200820900Y-202345150D01*
X201932150Y-199708900D02*
X200820900Y-200820150D01*
X304082410Y-199708900D02*
X284242150Y-199708900D01*
X305673400Y-199708900D02*
X304082410Y-199708900D01*
X284242150Y-199708900D02*
X272575900Y-199708900D01*
X271464650Y-200820150D02*
X271464650Y-202345150D01*
X272575900Y-199708900D02*
X271464650Y-200820150D01*
X329485900Y-199708900D02*
X316232150Y-199708900D01*
X315120900Y-200820150D02*
X315120900Y-202345150D01*
X316232150Y-199708900D02*
X315120900Y-200820150D01*
X314009650Y-199708900D02*
X315120900Y-200820150D01*
X308054650Y-199708900D02*
X314009650Y-199708900D01*
X331867150Y-199708900D02*
X339409650Y-199708900D01*
X339727150Y-200026400D02*
X339727150Y-202282650D01*
X339409650Y-199708900D02*
X339727150Y-200026400D01*
X355679650Y-199708900D02*
X353298400Y-199708900D01*
X353298400Y-199708900D02*
X344013400Y-199708900D01*
X342902150Y-200820150D02*
X342902150Y-202345150D01*
X344013400Y-199708900D02*
X342902150Y-200820150D01*
D23*
X100700900Y-128301342D02*
X100700900Y-125311400D01*
X99600341Y-129401901D02*
X100700900Y-128301342D01*
X100497900Y-129401901D02*
X101037399Y-129941400D01*
X99600341Y-129401901D02*
X100497900Y-129401901D01*
X95800900Y-125311400D02*
X95800900Y-128141400D01*
X99600341Y-129401901D02*
X99805871Y-129196371D01*
X97061401Y-129401901D02*
X99600341Y-129401901D01*
X95800900Y-128141400D02*
X97061401Y-129401901D01*
X103140900Y-137871400D02*
X105980900Y-137871400D01*
X102680900Y-137411400D02*
X103140900Y-137871400D01*
X102680900Y-136471400D02*
X102680900Y-137411400D01*
D22*
X179533400Y-204138900D02*
X179533400Y-205947390D01*
X179533400Y-205947390D02*
X174627150Y-210853640D01*
X173531150Y-210345150D02*
X169070900Y-210345150D01*
X178733400Y-204138900D02*
X178733400Y-205142900D01*
X178733400Y-205142900D02*
X173531150Y-210345150D01*
X173745219Y-209331081D02*
X169084966Y-209331081D01*
X177933400Y-204138900D02*
X177933400Y-205142900D01*
X177933400Y-205142900D02*
X173745219Y-209331081D01*
X181133400Y-192738900D02*
X181133400Y-190657650D01*
X181133400Y-190657650D02*
X180977150Y-190501400D01*
X180066208Y-188002958D02*
X179272458Y-188002958D01*
X179272458Y-188002958D02*
X177802150Y-186532650D01*
X177802150Y-186532650D02*
X177802150Y-184151400D01*
X176849650Y-183198900D02*
X166054650Y-183198900D01*
X177802150Y-184151400D02*
X176849650Y-183198900D01*
X176333400Y-205142900D02*
X174306150Y-207170150D01*
X176333400Y-204138900D02*
X176333400Y-205142900D01*
X174306150Y-207170150D02*
X169070900Y-207170150D01*
X183358400Y-190501400D02*
X182564650Y-190501400D01*
X181933400Y-191132650D02*
X181933400Y-192738900D01*
X182564650Y-190501400D02*
X181933400Y-191132650D01*
X183173150Y-191295150D02*
X184945900Y-191295150D01*
X182733400Y-192738900D02*
X182733400Y-191734900D01*
X182733400Y-191734900D02*
X183173150Y-191295150D01*
X180977150Y-209779465D02*
X180977150Y-210345150D01*
X180977150Y-205299150D02*
X180977150Y-209779465D01*
X181133400Y-205142900D02*
X180977150Y-205299150D01*
X181133400Y-204138900D02*
X181133400Y-205142900D01*
X180116081Y-210130257D02*
X180116081Y-210853640D01*
X180333400Y-204138900D02*
X180333400Y-209912938D01*
X180333400Y-209912938D02*
X180116081Y-210130257D01*
X187156717Y-199238900D02*
X188914650Y-200996833D01*
X185233400Y-199238900D02*
X187156717Y-199238900D01*
X188914650Y-200996833D02*
X188914650Y-202327328D01*
X188914650Y-202327328D02*
X188914650Y-203995150D01*
X188914650Y-203995150D02*
X189708400Y-204788900D01*
X189708400Y-204788900D02*
X193677150Y-204788900D01*
X193677150Y-204788900D02*
X194470900Y-203995150D01*
X194470900Y-203995150D02*
X194470900Y-196851400D01*
X194470900Y-196851400D02*
X195264650Y-196057650D01*
X195264650Y-196057650D02*
X196058400Y-195263900D01*
X196058400Y-195263900D02*
X198439650Y-195263900D01*
X198439650Y-195263900D02*
X200027150Y-193676400D01*
X200027150Y-193676400D02*
X201614650Y-192088900D01*
X201614650Y-192088900D02*
X203202150Y-190501400D01*
X203202150Y-190501400D02*
X280195900Y-190501400D01*
X185233400Y-200038900D02*
X187314650Y-200038900D01*
X187314650Y-200038900D02*
X188095900Y-200820150D01*
X188095900Y-200820150D02*
X188095900Y-204763900D01*
X188095900Y-204763900D02*
X188914650Y-205582650D01*
X188914650Y-205582650D02*
X193677150Y-205582650D01*
X193677150Y-205582650D02*
X195264650Y-203995150D01*
X195264650Y-203995150D02*
X195264650Y-196851400D01*
X195264650Y-196851400D02*
X196058400Y-196057650D01*
X196058400Y-196057650D02*
X198439650Y-196057650D01*
X198439650Y-196057650D02*
X203202150Y-191295150D01*
X203202150Y-191295150D02*
X296070900Y-191295150D01*
X198439650Y-207963900D02*
X198439650Y-197645150D01*
X197645900Y-208757650D02*
X198439650Y-207963900D01*
X187327150Y-208757650D02*
X197645900Y-208757650D01*
X186533400Y-207963900D02*
X187327150Y-208757650D01*
X186533400Y-206376400D02*
X186533400Y-207963900D01*
X301627150Y-192088900D02*
X304008400Y-192088900D01*
X185233400Y-200838900D02*
X186514650Y-200838900D01*
X186514650Y-200838900D02*
X186533400Y-200820150D01*
X203995900Y-192088900D02*
X301627150Y-192088900D01*
X186533400Y-200820150D02*
X187327150Y-201613900D01*
X187327150Y-201613900D02*
X187327150Y-205582650D01*
X198439650Y-197645150D02*
X203995900Y-192088900D01*
X187327150Y-205582650D02*
X186533400Y-206376400D01*
X186237400Y-201638900D02*
X186533400Y-201934900D01*
X185233400Y-201638900D02*
X186237400Y-201638900D01*
X186533400Y-201934900D02*
X186533400Y-204788900D01*
X186533400Y-204788900D02*
X186533400Y-205582650D01*
X186533400Y-205582650D02*
X185739650Y-206376400D01*
X185739650Y-206376400D02*
X185739650Y-208757650D01*
X185739650Y-208757650D02*
X186533400Y-209551400D01*
X186533400Y-209551400D02*
X198439650Y-209551400D01*
X198439650Y-209551400D02*
X199233400Y-208757650D01*
X199233400Y-208757650D02*
X199233400Y-198438900D01*
X199233400Y-198438900D02*
X199233400Y-197645150D01*
X199233400Y-197645150D02*
X203995900Y-192882650D01*
X203995900Y-192882650D02*
X321470900Y-192882650D01*
X174312400Y-207963900D02*
X170658400Y-207963900D01*
X177133400Y-204138900D02*
X177133400Y-205142900D01*
X177133400Y-205142900D02*
X174312400Y-207963900D01*
X204789650Y-209551400D02*
X343695900Y-209551400D01*
X98737901Y-127158401D02*
X98500900Y-126921400D01*
X97661939Y-128188401D02*
X98359861Y-128188401D01*
X98737901Y-127810361D02*
X98737901Y-127158401D01*
X97283899Y-127810361D02*
X97661939Y-128188401D01*
X98359861Y-128188401D02*
X98737901Y-127810361D01*
X97283899Y-127112439D02*
X97283899Y-127810361D01*
X97500900Y-126895438D02*
X97283899Y-127112439D01*
X98500900Y-126921400D02*
X98500900Y-125311400D01*
X97500900Y-125311400D02*
X97500900Y-126895438D01*
X98797901Y-128188401D02*
X99220900Y-128611400D01*
X98359861Y-128188401D02*
X98797901Y-128188401D01*
X92650900Y-140191400D02*
X92580900Y-140121400D01*
X92528400Y-140191400D02*
X92458400Y-140261400D01*
X94620900Y-140191400D02*
X92528400Y-140191400D01*
X177133400Y-192738900D02*
X177133400Y-190626400D01*
X177133400Y-190626400D02*
X177008400Y-190501400D01*
X177008400Y-190501400D02*
X162720900Y-190501400D01*
X162080900Y-190501400D02*
X158400900Y-194181400D01*
X162720900Y-190501400D02*
X162080900Y-190501400D01*
X149680900Y-194101400D02*
X144095900Y-194101400D01*
X144095900Y-194101400D02*
X140495900Y-190501400D01*
X140495900Y-190501400D02*
X84139650Y-190501400D01*
X85167150Y-140261400D02*
X84139650Y-141288900D01*
X90583400Y-140261400D02*
X85167150Y-140261400D01*
X98000900Y-127451400D02*
X98010900Y-127461400D01*
X98000900Y-125311400D02*
X98000900Y-127451400D01*
X99464901Y-127243334D02*
X99464901Y-127484861D01*
X99000900Y-126779333D02*
X99464901Y-127243334D01*
X99000900Y-125311400D02*
X99000900Y-126779333D01*
X92555900Y-138541400D02*
X92520900Y-138506400D01*
X92778400Y-138541400D02*
X92458400Y-138221400D01*
X94630900Y-138541400D02*
X92778400Y-138541400D01*
X177933400Y-192738900D02*
X177933400Y-190632650D01*
X177933400Y-190632650D02*
X177008400Y-189707650D01*
X177008400Y-189707650D02*
X162720900Y-189707650D01*
X161574650Y-189707650D02*
X158270900Y-193011400D01*
X162720900Y-189707650D02*
X161574650Y-189707650D01*
X90583400Y-138221400D02*
X84680900Y-138221400D01*
X82552150Y-140350150D02*
X82876525Y-140025775D01*
X84933400Y-189707650D02*
X82552150Y-187326400D01*
X141289650Y-189707650D02*
X84933400Y-189707650D01*
X82552150Y-187326400D02*
X82552150Y-140350150D01*
X149710900Y-193018400D02*
X144600400Y-193018400D01*
X82876525Y-140025775D02*
X82820900Y-140081400D01*
X144600400Y-193018400D02*
X141289650Y-189707650D01*
X84680900Y-138221400D02*
X82876525Y-140025775D01*
X188006630Y-192768380D02*
X187327150Y-192088900D01*
X186237400Y-195238900D02*
X186262400Y-195263900D01*
X185233400Y-195238900D02*
X186237400Y-195238900D01*
X187833400Y-193692900D02*
X187833400Y-192088900D01*
X186262400Y-195263900D02*
X187833400Y-193692900D01*
X187833400Y-192088900D02*
X187833400Y-191582650D01*
X187833400Y-192088900D02*
X187833400Y-190788900D01*
X187833400Y-190788900D02*
X188120900Y-190501400D01*
X188120900Y-190501400D02*
X190502150Y-190501400D01*
X190502150Y-190501400D02*
X191295900Y-191295150D01*
X191295900Y-191295150D02*
X192089650Y-192088900D01*
X192089650Y-192088900D02*
X192883400Y-192088900D01*
X192883400Y-192088900D02*
X194470900Y-192088900D01*
X194470900Y-192088900D02*
X196852150Y-192088900D01*
X194658400Y-207170150D02*
X194395900Y-206907650D01*
X196852150Y-207170150D02*
X194658400Y-207170150D01*
X175533400Y-204613900D02*
X174564650Y-205582650D01*
X175533400Y-204138900D02*
X175533400Y-204613900D01*
X174564650Y-205582650D02*
X165102150Y-205582650D01*
X185708400Y-194438900D02*
X185739650Y-194470150D01*
X185233400Y-194438900D02*
X185708400Y-194438900D01*
X97000900Y-126415741D02*
X96638124Y-126778517D01*
X97000900Y-125311400D02*
X97000900Y-126415741D01*
X96650900Y-134631400D02*
X96650900Y-136341400D01*
X100000900Y-126499078D02*
X99910400Y-126589578D01*
X100000900Y-125311400D02*
X100000900Y-126499078D01*
X100340900Y-136381400D02*
X100320900Y-136401400D01*
X100340900Y-134101400D02*
X100340900Y-136381400D01*
M02*
