G04 #@! TF.GenerationSoftware,KiCad,Pcbnew,(5.1.10)-1*
G04 #@! TF.CreationDate,2021-11-02T22:14:20+11:00*
G04 #@! TF.ProjectId,x60,7836302e-6b69-4636-9164-5f7063625858,rev?*
G04 #@! TF.SameCoordinates,Original*
G04 #@! TF.FileFunction,Copper,L1,Top*
G04 #@! TF.FilePolarity,Positive*
%FSLAX46Y46*%
G04 Gerber Fmt 4.6, Leading zero omitted, Abs format (unit mm)*
G04 Created by KiCad (PCBNEW (5.1.10)-1) date 2021-11-02 22:14:20*
%MOMM*%
%LPD*%
G01*
G04 APERTURE LIST*
G04 #@! TA.AperFunction,ComponentPad*
%ADD10C,2.250000*%
G04 #@! TD*
G04 #@! TA.AperFunction,ComponentPad*
%ADD11O,1.000000X2.100000*%
G04 #@! TD*
G04 #@! TA.AperFunction,ComponentPad*
%ADD12O,1.000000X1.600000*%
G04 #@! TD*
G04 #@! TA.AperFunction,ViaPad*
%ADD13C,0.800000*%
G04 #@! TD*
G04 #@! TA.AperFunction,Conductor*
%ADD14C,0.254000*%
G04 #@! TD*
G04 #@! TA.AperFunction,Conductor*
%ADD15C,0.381000*%
G04 #@! TD*
G04 APERTURE END LIST*
D10*
X91434400Y-123499400D03*
X85084400Y-126039400D03*
X110410900Y-123508900D03*
X104060900Y-126048900D03*
D11*
X102570900Y-124396400D03*
X93930900Y-124396400D03*
D12*
X93930900Y-120216400D03*
X102570900Y-120216400D03*
D10*
X212804650Y-199708900D03*
X206454650Y-202248900D03*
X224710900Y-199708900D03*
X218360900Y-202248900D03*
X172404650Y-180658900D03*
X166054650Y-183198900D03*
X191373400Y-180658900D03*
X185023400Y-183198900D03*
X93742150Y-199708900D03*
X87392150Y-202248900D03*
X353298400Y-199708900D03*
X346948400Y-202248900D03*
X308054650Y-199708900D03*
X301704650Y-202248900D03*
X305673400Y-199708900D03*
X299323400Y-202248900D03*
X143748400Y-199708900D03*
X137398400Y-202248900D03*
X115173400Y-199708900D03*
X108823400Y-202248900D03*
X96123400Y-199708900D03*
X89773400Y-202248900D03*
X331867150Y-180658900D03*
X325517150Y-183198900D03*
X93742150Y-161608900D03*
X87392150Y-164148900D03*
X339010900Y-123508900D03*
X332660900Y-126048900D03*
X355679650Y-199708900D03*
X349329650Y-202248900D03*
X331867150Y-199708900D03*
X325517150Y-202248900D03*
X329485900Y-199708900D03*
X323135900Y-202248900D03*
X284242150Y-199708900D03*
X277892150Y-202248900D03*
X141367150Y-199708900D03*
X135017150Y-202248900D03*
X117554650Y-199708900D03*
X111204650Y-202248900D03*
X358060900Y-180658900D03*
X351710900Y-183198900D03*
X341392150Y-180658900D03*
X335042150Y-183198900D03*
X305673400Y-180658900D03*
X299323400Y-183198900D03*
X286623400Y-180658900D03*
X280273400Y-183198900D03*
X267573400Y-180658900D03*
X261223400Y-183198900D03*
X248523400Y-180658900D03*
X242173400Y-183198900D03*
X229473400Y-180658900D03*
X223123400Y-183198900D03*
X210423400Y-180658900D03*
X204073400Y-183198900D03*
X153273400Y-180658900D03*
X146923400Y-183198900D03*
X134223400Y-180658900D03*
X127873400Y-183198900D03*
X103267150Y-180658900D03*
X96917150Y-183198900D03*
X346154650Y-161608900D03*
X339804650Y-164148900D03*
X315198400Y-161608900D03*
X308848400Y-164148900D03*
X296148400Y-161608900D03*
X289798400Y-164148900D03*
X277098400Y-161608900D03*
X270748400Y-164148900D03*
X258048400Y-161608900D03*
X251698400Y-164148900D03*
X238998400Y-161608900D03*
X232648400Y-164148900D03*
X219948400Y-161608900D03*
X213598400Y-164148900D03*
X200898400Y-161608900D03*
X194548400Y-164148900D03*
X181848400Y-161608900D03*
X175498400Y-164148900D03*
X162798400Y-161608900D03*
X156448400Y-164148900D03*
X143748400Y-161608900D03*
X137398400Y-164148900D03*
X124698400Y-161608900D03*
X118348400Y-164148900D03*
X98504650Y-161608900D03*
X92154650Y-164148900D03*
X353298400Y-142558900D03*
X346948400Y-145098900D03*
X329485900Y-142558900D03*
X323135900Y-145098900D03*
X310435900Y-142558900D03*
X304085900Y-145098900D03*
X291385900Y-142558900D03*
X285035900Y-145098900D03*
X272335900Y-142558900D03*
X265985900Y-145098900D03*
X253285900Y-142558900D03*
X246935900Y-145098900D03*
X234235900Y-142558900D03*
X227885900Y-145098900D03*
X215185900Y-142558900D03*
X208835900Y-145098900D03*
X196135900Y-142558900D03*
X189785900Y-145098900D03*
X177085900Y-142558900D03*
X170735900Y-145098900D03*
X158035900Y-142558900D03*
X151685900Y-145098900D03*
X138985900Y-142558900D03*
X132635900Y-145098900D03*
X119935900Y-142558900D03*
X113585900Y-145098900D03*
X96123400Y-142558900D03*
X89773400Y-145098900D03*
X358060900Y-123508900D03*
X351710900Y-126048900D03*
X348535900Y-123508900D03*
X342185900Y-126048900D03*
X319960900Y-123508900D03*
X313610900Y-126048900D03*
X300910900Y-123508900D03*
X294560900Y-126048900D03*
X281860900Y-123508900D03*
X275510900Y-126048900D03*
X262810900Y-123508900D03*
X256460900Y-126048900D03*
X243760900Y-123508900D03*
X237410900Y-126048900D03*
X224710900Y-123508900D03*
X218360900Y-126048900D03*
X205660900Y-123508900D03*
X199310900Y-126048900D03*
X186610900Y-123508900D03*
X180260900Y-126048900D03*
X167560900Y-123508900D03*
X161210900Y-126048900D03*
X148510900Y-123508900D03*
X142160900Y-126048900D03*
X129460900Y-123508900D03*
X123110900Y-126048900D03*
D13*
X178595900Y-189707650D03*
X165102150Y-192882650D03*
X95630900Y-129711400D03*
X100410900Y-140181400D03*
X131764650Y-207170150D03*
X125414650Y-207170150D03*
X105570900Y-207963900D03*
X103983400Y-199232650D03*
X100014650Y-197645150D03*
X168277150Y-203201400D03*
X180260400Y-191295150D03*
X170658400Y-191295150D03*
X168277150Y-194470150D03*
X182564650Y-208757650D03*
X163514650Y-191295150D03*
X158752150Y-191295150D03*
X149227150Y-191295150D03*
X144464650Y-191295150D03*
X107952150Y-146051400D03*
X109539650Y-175420150D03*
X127002150Y-176213900D03*
X195250200Y-192869100D03*
X146052150Y-190501400D03*
X119858400Y-133351400D03*
X156370900Y-190501400D03*
X155577150Y-173038900D03*
X155577150Y-189707650D03*
X149227150Y-152401400D03*
X167483400Y-198438900D03*
X167483400Y-206376400D03*
X101037399Y-129941400D03*
X102680900Y-136471400D03*
X174627150Y-210853640D03*
X169070900Y-210345150D03*
X169084966Y-209331081D03*
X180977150Y-190501400D03*
X180066208Y-188002958D03*
X169070900Y-207170150D03*
X183358400Y-190501400D03*
X184945900Y-191295150D03*
X180977150Y-210345150D03*
X180116081Y-210853640D03*
X280195900Y-190501400D03*
X296070900Y-191295150D03*
X304008400Y-192088900D03*
X321470900Y-192882650D03*
X170658400Y-207963900D03*
X204789650Y-209551400D03*
X343695900Y-209551400D03*
X99220900Y-128611400D03*
X94620900Y-140191400D03*
X158400900Y-194181400D03*
X149680900Y-194101400D03*
X84139650Y-190501400D03*
X84139650Y-141288900D03*
X98010900Y-127461400D03*
X99464901Y-127484861D03*
X94630900Y-138541400D03*
X158270900Y-193011400D03*
X149710900Y-193018400D03*
X196852150Y-192088900D03*
X196852150Y-207170150D03*
X96638124Y-126778517D03*
X96650900Y-134631400D03*
X99910400Y-126589578D03*
X100340900Y-134101400D03*
D14*
X165102150Y-190501400D02*
X165895900Y-189707650D01*
X165895900Y-189707650D02*
X178595900Y-189707650D01*
X165102150Y-192088900D02*
X165102150Y-190501400D01*
X165102150Y-192088900D02*
X165102150Y-192882650D01*
X95630900Y-129711400D02*
X94550900Y-130791400D01*
X93893899Y-131448401D02*
X93893899Y-143444399D01*
X94550900Y-130791400D02*
X93893899Y-131448401D01*
X93893899Y-143444399D02*
X94960900Y-144511400D01*
X94960900Y-144511400D02*
X98680900Y-144511400D01*
X100410900Y-140181400D02*
X100410900Y-143541400D01*
X99440900Y-144511400D02*
X98680900Y-144511400D01*
X100410900Y-143541400D02*
X99751525Y-144200775D01*
X99751525Y-144200775D02*
X99440900Y-144511400D01*
X131764650Y-207170150D02*
X125414650Y-207170150D01*
X105570900Y-207963900D02*
X104777150Y-207963900D01*
X104777150Y-207963900D02*
X103983400Y-207170150D01*
X103983400Y-207170150D02*
X103983400Y-199232650D01*
X103189650Y-187326400D02*
X100014650Y-190501400D01*
X100014650Y-190501400D02*
X100014650Y-197645150D01*
X107158400Y-187326400D02*
X103189650Y-187326400D01*
X107952150Y-186532650D02*
X107158400Y-187326400D01*
X107952150Y-152401400D02*
X107952150Y-186532650D01*
X99751525Y-144200775D02*
X107952150Y-152401400D01*
X180260400Y-191295150D02*
X170658400Y-191295150D01*
X168277150Y-194470150D02*
X168277150Y-203201400D01*
X168277150Y-203201400D02*
X168277150Y-205582650D01*
X168277150Y-205582650D02*
X169070900Y-206376400D01*
X169070900Y-206376400D02*
X180977150Y-206376400D01*
X180977150Y-206376400D02*
X181770900Y-207170150D01*
X182564650Y-208757650D02*
X181770900Y-207963900D01*
X181770900Y-207963900D02*
X181770900Y-207170150D01*
X163514650Y-191295150D02*
X158752150Y-191295150D01*
X158752150Y-191295150D02*
X149227150Y-191295150D01*
X144464650Y-191295150D02*
X135733400Y-191295150D01*
X135733400Y-191295150D02*
X134939650Y-190501400D01*
X133352150Y-182563900D02*
X134939650Y-184151400D01*
X134939650Y-190501400D02*
X134939650Y-184151400D01*
X109539650Y-147638900D02*
X109539650Y-175420150D01*
X107952150Y-146051400D02*
X109539650Y-147638900D01*
X133352150Y-182563900D02*
X127002150Y-176213900D01*
X193251400Y-208757650D02*
X189282900Y-208757650D01*
X195250200Y-206758850D02*
X193251400Y-208757650D01*
X195250200Y-192869100D02*
X195250200Y-206758850D01*
X189282900Y-208757650D02*
X189708400Y-208757650D01*
X182564650Y-208757650D02*
X189282900Y-208757650D01*
X146052150Y-190501400D02*
X139702150Y-190501400D01*
X139702150Y-190501400D02*
X138908400Y-189707650D01*
X138908400Y-189707650D02*
X138908400Y-178595150D01*
X138908400Y-178595150D02*
X134939650Y-174626400D01*
X133396938Y-174626400D02*
X126036399Y-167265861D01*
X134939650Y-174626400D02*
X133396938Y-174626400D01*
X126036399Y-167265861D02*
X126036399Y-166111939D01*
X126036399Y-166111939D02*
X126230794Y-165917544D01*
X126230794Y-165917544D02*
X126230794Y-139723794D01*
X126230794Y-139723794D02*
X119858400Y-133351400D01*
X157015401Y-189856899D02*
X157015401Y-177156899D01*
X156370900Y-190501400D02*
X157015401Y-189856899D01*
X157015401Y-177156899D02*
X155577150Y-175718648D01*
X155577150Y-175718648D02*
X155577150Y-173038900D01*
X153054301Y-182588763D02*
X149227150Y-178761612D01*
X155577150Y-189707650D02*
X153054301Y-187184801D01*
X153054301Y-187184801D02*
X153054301Y-182588763D01*
X149227150Y-178761612D02*
X149227150Y-169863900D01*
X149227150Y-169863900D02*
X149227150Y-152401400D01*
X167483400Y-206376400D02*
X167483400Y-198438900D01*
D15*
X101037399Y-129941400D02*
X102680900Y-131584901D01*
X102680900Y-131584901D02*
X102680900Y-136471400D01*
D14*
X89773400Y-145098900D02*
X89773400Y-161767650D01*
X89891525Y-161885775D02*
X92154650Y-164148900D01*
X89655275Y-161885775D02*
X89891525Y-161885775D01*
X89655275Y-161885775D02*
X87392150Y-164148900D01*
X89773400Y-161767650D02*
X89655275Y-161885775D01*
X87392150Y-173673900D02*
X96917150Y-183198900D01*
X87392150Y-164148900D02*
X87392150Y-173673900D01*
X96917150Y-192723900D02*
X87392150Y-202248900D01*
X96917150Y-183198900D02*
X96917150Y-192723900D01*
X87392150Y-202248900D02*
X89773400Y-202248900D01*
X85092150Y-202248900D02*
X87392150Y-202248900D01*
X84139650Y-203201400D02*
X85092150Y-202248900D01*
X84139650Y-207963900D02*
X84139650Y-203201400D01*
X174061465Y-210853640D02*
X173776205Y-211138900D01*
X174627150Y-210853640D02*
X174061465Y-210853640D01*
X173776205Y-211138900D02*
X168277150Y-211138900D01*
X168277150Y-211138900D02*
X166689650Y-209551400D01*
X166689650Y-209551400D02*
X85727150Y-209551400D01*
X85727150Y-209551400D02*
X84139650Y-207963900D01*
X85439500Y-140765000D02*
X85439500Y-126394500D01*
X85439500Y-126394500D02*
X85084400Y-126039400D01*
X85439500Y-140765000D02*
X89773400Y-145098900D01*
X104060900Y-135573900D02*
X113585900Y-145098900D01*
X104060900Y-126048900D02*
X104060900Y-135573900D01*
X113585900Y-159386400D02*
X118348400Y-164148900D01*
X113585900Y-145098900D02*
X113585900Y-159386400D01*
X126748401Y-182073901D02*
X127873400Y-183198900D01*
X119837499Y-175162999D02*
X126748401Y-182073901D01*
X119837499Y-167228989D02*
X119837499Y-175162999D01*
X118348400Y-165739890D02*
X119837499Y-167228989D01*
X118348400Y-164148900D02*
X118348400Y-165739890D01*
X127873400Y-184789890D02*
X127873400Y-183198900D01*
X127795900Y-186325362D02*
X127873400Y-186247862D01*
X169070900Y-210345150D02*
X167483400Y-208757650D01*
X127873400Y-186247862D02*
X127873400Y-184789890D01*
X167483400Y-208757650D02*
X103983400Y-208757650D01*
X103983400Y-208757650D02*
X102395900Y-207170150D01*
X102395900Y-207170150D02*
X102395900Y-189707650D01*
X127795900Y-188120150D02*
X127795900Y-186325362D01*
X102395900Y-189707650D02*
X103189650Y-188913900D01*
X127002150Y-188913900D02*
X127795900Y-188120150D01*
X103189650Y-188913900D02*
X127002150Y-188913900D01*
X123110900Y-135573900D02*
X132635900Y-145098900D01*
X123110900Y-126048900D02*
X123110900Y-135573900D01*
X132635900Y-159386400D02*
X137398400Y-164148900D01*
X132635900Y-145098900D02*
X132635900Y-159386400D01*
X137398400Y-173673900D02*
X146923400Y-183198900D01*
X137398400Y-164148900D02*
X137398400Y-173673900D01*
X111204650Y-199310150D02*
X111204650Y-202248900D01*
X148048399Y-184323899D02*
X148048399Y-190886401D01*
X146923400Y-183198900D02*
X148048399Y-184323899D01*
X148048399Y-190886401D02*
X141289650Y-197645150D01*
X112714650Y-197645150D02*
X111127150Y-199232650D01*
X111127150Y-199232650D02*
X111204650Y-199310150D01*
X108823400Y-202248900D02*
X111204650Y-202248900D01*
X169084966Y-208765396D02*
X168283470Y-207963900D01*
X169084966Y-209331081D02*
X169084966Y-208765396D01*
X168283470Y-207963900D02*
X124620900Y-207963900D01*
X124620900Y-207963900D02*
X123033400Y-206376400D01*
X123033400Y-206376400D02*
X123033400Y-197645150D01*
X141289650Y-197645150D02*
X123033400Y-197645150D01*
X123033400Y-197645150D02*
X112714650Y-197645150D01*
X142160900Y-135573900D02*
X151685900Y-145098900D01*
X142160900Y-126048900D02*
X142160900Y-135573900D01*
X151685900Y-159386400D02*
X156448400Y-164148900D01*
X151685900Y-145098900D02*
X151685900Y-159386400D01*
X156448400Y-173592650D02*
X166054650Y-183198900D01*
X156448400Y-164148900D02*
X156448400Y-173592650D01*
X180977150Y-190501400D02*
X180066208Y-189590458D01*
X180066208Y-189590458D02*
X180066208Y-188002958D01*
X161210900Y-135573900D02*
X170735900Y-145098900D01*
X161210900Y-126048900D02*
X161210900Y-135573900D01*
X170735900Y-159386400D02*
X175498400Y-164148900D01*
X170735900Y-145098900D02*
X170735900Y-159386400D01*
X175498400Y-173673900D02*
X185023400Y-183198900D01*
X175498400Y-164148900D02*
X175498400Y-173673900D01*
X137398400Y-202248900D02*
X135017150Y-202248900D01*
X145203400Y-202248900D02*
X137398400Y-202248900D01*
X150814650Y-207170150D02*
X169070900Y-207170150D01*
X145893400Y-202248900D02*
X150814650Y-207170150D01*
X145203400Y-202248900D02*
X145893400Y-202248900D01*
X183432410Y-183198900D02*
X185023400Y-183198900D01*
X165707843Y-189253640D02*
X177377670Y-189253640D01*
X164308400Y-190653083D02*
X165707843Y-189253640D01*
X164308400Y-191577362D02*
X164308400Y-190653083D01*
X177377670Y-189253640D02*
X183432410Y-183198900D01*
X163796862Y-192088900D02*
X164308400Y-191577362D01*
X157569650Y-192088900D02*
X163796862Y-192088900D01*
X148930900Y-192291400D02*
X157367150Y-192291400D01*
X145970900Y-195251400D02*
X148930900Y-192291400D01*
X145970900Y-201481400D02*
X145970900Y-195251400D01*
X157367150Y-192291400D02*
X157569650Y-192088900D01*
X145203400Y-202248900D02*
X145970900Y-201481400D01*
X180260900Y-135573900D02*
X189785900Y-145098900D01*
X180260900Y-126048900D02*
X180260900Y-135573900D01*
X189785900Y-159386400D02*
X194548400Y-164148900D01*
X189785900Y-145098900D02*
X189785900Y-159386400D01*
X202948401Y-182073901D02*
X204073400Y-183198900D01*
X195673399Y-165273899D02*
X195673399Y-174798899D01*
X194548400Y-164148900D02*
X195673399Y-165273899D01*
X200939025Y-180064525D02*
X200939025Y-186414525D01*
X200939025Y-180064525D02*
X202948401Y-182073901D01*
X195673399Y-174798899D02*
X200939025Y-180064525D01*
X200939025Y-186414525D02*
X199233400Y-188120150D01*
X199233400Y-188120150D02*
X196852150Y-190501400D01*
X196852150Y-190501400D02*
X183358400Y-190501400D01*
X199310900Y-135573900D02*
X208835900Y-145098900D01*
X199310900Y-126048900D02*
X199310900Y-135573900D01*
X208835900Y-159386400D02*
X213598400Y-164148900D01*
X208835900Y-145098900D02*
X208835900Y-159386400D01*
X213598400Y-173673900D02*
X223123400Y-183198900D01*
X213598400Y-164148900D02*
X213598400Y-173673900D01*
X184945900Y-191295150D02*
X222252150Y-191295150D01*
X223123400Y-190423900D02*
X223123400Y-183198900D01*
X222252150Y-191295150D02*
X223123400Y-190423900D01*
X206454650Y-202248900D02*
X218360900Y-202248900D01*
X218360900Y-202248900D02*
X239079650Y-202248900D01*
X239079650Y-202248900D02*
X242095900Y-199232650D01*
X242173400Y-184789890D02*
X242173400Y-183198900D01*
X242173400Y-186247862D02*
X242173400Y-184789890D01*
X242095900Y-186325362D02*
X242173400Y-186247862D01*
X242095900Y-199232650D02*
X242095900Y-186325362D01*
X232648400Y-173673900D02*
X232648400Y-164148900D01*
X242173400Y-183198900D02*
X232648400Y-173673900D01*
X227885900Y-159386400D02*
X227885900Y-145098900D01*
X232648400Y-164148900D02*
X227885900Y-159386400D01*
X218360900Y-135573900D02*
X218360900Y-126048900D01*
X227885900Y-145098900D02*
X218360900Y-135573900D01*
X180977150Y-210345150D02*
X205583400Y-210345150D01*
X206454650Y-209473900D02*
X206454650Y-202248900D01*
X205583400Y-210345150D02*
X206454650Y-209473900D01*
X237410900Y-135573900D02*
X246935900Y-145098900D01*
X237410900Y-126048900D02*
X237410900Y-135573900D01*
X246935900Y-159386400D02*
X251698400Y-164148900D01*
X246935900Y-145098900D02*
X246935900Y-159386400D01*
X260098401Y-182073901D02*
X261223400Y-183198900D01*
X252823399Y-165273899D02*
X252823399Y-174798899D01*
X251698400Y-164148900D02*
X252823399Y-165273899D01*
X255707775Y-177683275D02*
X260098401Y-182073901D01*
X255589650Y-177801400D02*
X255707775Y-177683275D01*
X252823399Y-174798899D02*
X255707775Y-177683275D01*
X180116081Y-210853640D02*
X180516080Y-211253639D01*
X180516080Y-211253639D02*
X252299911Y-211253639D01*
X252299911Y-211253639D02*
X255589650Y-207963900D01*
X255589650Y-207963900D02*
X255589650Y-177801400D01*
X256460900Y-135573900D02*
X265985900Y-145098900D01*
X256460900Y-126048900D02*
X256460900Y-135573900D01*
X265985900Y-159386400D02*
X270748400Y-164148900D01*
X265985900Y-145098900D02*
X265985900Y-159386400D01*
X279148401Y-182073901D02*
X280273400Y-183198900D01*
X271873399Y-174798899D02*
X279148401Y-182073901D01*
X271873399Y-165273899D02*
X271873399Y-174798899D01*
X270748400Y-164148900D02*
X271873399Y-165273899D01*
X280273400Y-185022650D02*
X280273400Y-183198900D01*
X280989650Y-185738900D02*
X280273400Y-185022650D01*
X280195900Y-190501400D02*
X280989650Y-189707650D01*
X280989650Y-189707650D02*
X280989650Y-185738900D01*
X275510900Y-135573900D02*
X285035900Y-145098900D01*
X275510900Y-126048900D02*
X275510900Y-135573900D01*
X285035900Y-159386400D02*
X289798400Y-164148900D01*
X285035900Y-145098900D02*
X285035900Y-159386400D01*
X289798400Y-173673900D02*
X300039650Y-183915150D01*
X289798400Y-164148900D02*
X289798400Y-173673900D01*
X300039650Y-183915150D02*
X299323400Y-183198900D01*
X297732410Y-202248900D02*
X277892150Y-202248900D01*
X299323400Y-202248900D02*
X297732410Y-202248900D01*
X298217900Y-191295150D02*
X299323400Y-190189650D01*
X296070900Y-191295150D02*
X298217900Y-191295150D01*
X299323400Y-190189650D02*
X299323400Y-202248900D01*
X299323400Y-183198900D02*
X299323400Y-190189650D01*
X302960901Y-143973901D02*
X304085900Y-145098900D01*
X295685899Y-136698899D02*
X302960901Y-143973901D01*
X295685899Y-127173899D02*
X295685899Y-136698899D01*
X294560900Y-126048900D02*
X295685899Y-127173899D01*
X304085900Y-159386400D02*
X308848400Y-164148900D01*
X304085900Y-145098900D02*
X304085900Y-159386400D01*
X308848400Y-166530150D02*
X325517150Y-183198900D01*
X308848400Y-164148900D02*
X308848400Y-166530150D01*
X325517150Y-183198900D02*
X335042150Y-183198900D01*
X325517150Y-186247862D02*
X319676112Y-192088900D01*
X325517150Y-183198900D02*
X325517150Y-186247862D01*
X319676112Y-192088900D02*
X304008400Y-192088900D01*
X304008400Y-192088900D02*
X301627150Y-194470150D01*
X301704650Y-194547650D02*
X301704650Y-202248900D01*
X301627150Y-194470150D02*
X301704650Y-194547650D01*
X301704650Y-202248900D02*
X323135900Y-202248900D01*
X313610900Y-135573900D02*
X323135900Y-145098900D01*
X313610900Y-126048900D02*
X313610900Y-135573900D01*
X323135900Y-147480150D02*
X339804650Y-164148900D01*
X323135900Y-145098900D02*
X323135900Y-147480150D01*
X327108140Y-202248900D02*
X325517150Y-202248900D01*
X331476112Y-202248900D02*
X327108140Y-202248900D01*
X335609151Y-198115861D02*
X331476112Y-202248900D01*
X335609151Y-185161939D02*
X335609151Y-198115861D01*
X339804650Y-180966440D02*
X335609151Y-185161939D01*
X339804650Y-164148900D02*
X339804650Y-180966440D01*
X323852150Y-200583900D02*
X325517150Y-202248900D01*
X323852150Y-193676400D02*
X323852150Y-200583900D01*
X321470900Y-192882650D02*
X323058400Y-192882650D01*
X323058400Y-192882650D02*
X323852150Y-193676400D01*
X342185900Y-126048900D02*
X351710900Y-126048900D01*
X332660900Y-126048900D02*
X342185900Y-126048900D01*
X345823401Y-143973901D02*
X346948400Y-145098900D01*
X343310899Y-141461399D02*
X345823401Y-143973901D01*
X343310899Y-127173899D02*
X343310899Y-141461399D01*
X342185900Y-126048900D02*
X343310899Y-127173899D01*
X352835899Y-182073901D02*
X351710900Y-183198900D01*
X353199999Y-181709801D02*
X352835899Y-182073901D01*
X353199999Y-169415287D02*
X353199999Y-181709801D01*
X348073399Y-164288687D02*
X353199999Y-169415287D01*
X348073399Y-146223899D02*
X348073399Y-164288687D01*
X346948400Y-145098900D02*
X348073399Y-146223899D01*
X353079301Y-195107933D02*
X347367084Y-200820150D01*
X351710900Y-183198900D02*
X353079301Y-184567301D01*
X353079301Y-184567301D02*
X353079301Y-195107933D01*
X347367084Y-201830216D02*
X346948400Y-202248900D01*
X347367084Y-200820150D02*
X347367084Y-201830216D01*
X346948400Y-202248900D02*
X349329650Y-202248900D01*
X170658400Y-207963900D02*
X171452150Y-208757650D01*
X171452150Y-208757650D02*
X172245900Y-209551400D01*
X172245900Y-209551400D02*
X190502150Y-209551400D01*
X190502150Y-209551400D02*
X204789650Y-209551400D01*
X345357410Y-202248900D02*
X346948400Y-202248900D01*
X344476399Y-203129911D02*
X345357410Y-202248900D01*
X344476399Y-205365861D02*
X344476399Y-203129911D01*
X344489650Y-205379112D02*
X344476399Y-205365861D01*
X344489650Y-208757650D02*
X344489650Y-205379112D01*
X343695900Y-209551400D02*
X344489650Y-208757650D01*
X99220900Y-128611400D02*
X99220900Y-137351400D01*
X99220900Y-137351400D02*
X96460900Y-140111400D01*
X96380900Y-140191400D02*
X94620900Y-140191400D01*
X96460900Y-140111400D02*
X96380900Y-140191400D01*
X149760900Y-194181400D02*
X149680900Y-194101400D01*
X158400900Y-194181400D02*
X149760900Y-194181400D01*
X84139650Y-190501400D02*
X84139650Y-141288900D01*
X98034361Y-127484861D02*
X98010900Y-127461400D01*
X99464901Y-127484861D02*
X98034361Y-127484861D01*
X98010900Y-127461400D02*
X98010900Y-137031400D01*
X96500900Y-138541400D02*
X94630900Y-138541400D01*
X98010900Y-137031400D02*
X96500900Y-138541400D01*
X149717900Y-193011400D02*
X149710900Y-193018400D01*
X158270900Y-193011400D02*
X149717900Y-193011400D01*
X196852150Y-192088900D02*
X196852150Y-207170150D01*
X96638124Y-134618624D02*
X96650900Y-134631400D01*
X96638124Y-126778517D02*
X96638124Y-134618624D01*
X100310399Y-126989577D02*
X100310399Y-134070899D01*
X99910400Y-126589578D02*
X100310399Y-126989577D01*
X100310399Y-134070899D02*
X100340900Y-134101400D01*
M02*
