G04 #@! TF.GenerationSoftware,KiCad,Pcbnew,(5.1.10)-1*
G04 #@! TF.CreationDate,2021-11-03T16:41:44+11:00*
G04 #@! TF.ProjectId,x60,7836302e-6b69-4636-9164-5f7063625858,rev?*
G04 #@! TF.SameCoordinates,Original*
G04 #@! TF.FileFunction,Legend,Bot*
G04 #@! TF.FilePolarity,Positive*
%FSLAX46Y46*%
G04 Gerber Fmt 4.6, Leading zero omitted, Abs format (unit mm)*
G04 Created by KiCad (PCBNEW (5.1.10)-1) date 2021-11-03 16:41:44*
%MOMM*%
%LPD*%
G01*
G04 APERTURE LIST*
%ADD10C,0.120000*%
%ADD11C,0.150000*%
G04 APERTURE END LIST*
D10*
X93550900Y-117366400D02*
X102950900Y-117366400D01*
X102950900Y-123166400D02*
X102950900Y-121166400D01*
X102950900Y-119266400D02*
X102950900Y-117366400D01*
X93550900Y-123166400D02*
X93550900Y-121166400D01*
X93550900Y-119266400D02*
X93550900Y-117366400D01*
X95914650Y-132351400D02*
X92014650Y-132351400D01*
X95914650Y-134351400D02*
X92014650Y-134351400D01*
X95914650Y-132351400D02*
X95914650Y-134351400D01*
X99610900Y-137597478D02*
X99610900Y-137080322D01*
X101030900Y-137597478D02*
X101030900Y-137080322D01*
X95940900Y-137537478D02*
X95940900Y-137020322D01*
X97360900Y-137537478D02*
X97360900Y-137020322D01*
X105070900Y-139873464D02*
X105070900Y-138669336D01*
X106890900Y-139873464D02*
X106890900Y-138669336D01*
X167741978Y-193592650D02*
X167224822Y-193592650D01*
X167741978Y-192172650D02*
X167224822Y-192172650D01*
X171368400Y-195149072D02*
X171368400Y-195666228D01*
X169948400Y-195149072D02*
X169948400Y-195666228D01*
X192889650Y-196438900D02*
X192889650Y-200438900D01*
X189589650Y-196438900D02*
X192889650Y-196438900D01*
D11*
X174933400Y-193263900D02*
X174933400Y-191988900D01*
X174358400Y-203613900D02*
X174358400Y-202938900D01*
X184708400Y-203613900D02*
X184708400Y-202938900D01*
X184708400Y-193263900D02*
X184708400Y-193938900D01*
X174358400Y-193263900D02*
X174358400Y-193938900D01*
X184708400Y-193263900D02*
X184033400Y-193263900D01*
X184708400Y-203613900D02*
X184033400Y-203613900D01*
X174358400Y-203613900D02*
X175033400Y-203613900D01*
X174358400Y-193263900D02*
X174933400Y-193263900D01*
X193895900Y-206157650D02*
X188695900Y-206157650D01*
X188695900Y-206157650D02*
X188695900Y-211357650D01*
X188695900Y-211357650D02*
X193895900Y-211357650D01*
X193895900Y-211357650D02*
X193895900Y-206157650D01*
X192295900Y-208757650D02*
G75*
G03*
X192295900Y-208757650I-1000000J0D01*
G01*
D10*
X165812150Y-204530322D02*
X165812150Y-205047478D01*
X164392150Y-204530322D02*
X164392150Y-205047478D01*
X189029478Y-192798900D02*
X188512322Y-192798900D01*
X189029478Y-191378900D02*
X188512322Y-191378900D01*
X91262322Y-137511400D02*
X91779478Y-137511400D01*
X91262322Y-138931400D02*
X91779478Y-138931400D01*
X91262322Y-139551400D02*
X91779478Y-139551400D01*
X91262322Y-140971400D02*
X91779478Y-140971400D01*
X343902150Y-206245150D02*
X343902150Y-202345150D01*
X341902150Y-206245150D02*
X341902150Y-202345150D01*
X343902150Y-206245150D02*
X341902150Y-206245150D01*
X340727150Y-206182650D02*
X340727150Y-202282650D01*
X338727150Y-206182650D02*
X338727150Y-202282650D01*
X340727150Y-206182650D02*
X338727150Y-206182650D01*
X316120900Y-206245150D02*
X316120900Y-202345150D01*
X314120900Y-206245150D02*
X314120900Y-202345150D01*
X316120900Y-206245150D02*
X314120900Y-206245150D01*
X272464650Y-206245150D02*
X272464650Y-202345150D01*
X270464650Y-206245150D02*
X270464650Y-202345150D01*
X272464650Y-206245150D02*
X270464650Y-206245150D01*
X201820900Y-206245150D02*
X201820900Y-202345150D01*
X199820900Y-206245150D02*
X199820900Y-202345150D01*
X201820900Y-206245150D02*
X199820900Y-206245150D01*
X129589650Y-206245150D02*
X129589650Y-202345150D01*
X127589650Y-206245150D02*
X127589650Y-202345150D01*
X129589650Y-206245150D02*
X127589650Y-206245150D01*
X105777150Y-206245150D02*
X105777150Y-202345150D01*
X103777150Y-206245150D02*
X103777150Y-202345150D01*
X105777150Y-206245150D02*
X103777150Y-206245150D01*
X102602150Y-206245150D02*
X102602150Y-202345150D01*
X100602150Y-206245150D02*
X100602150Y-202345150D01*
X102602150Y-206245150D02*
X100602150Y-206245150D01*
X347870900Y-187195150D02*
X347870900Y-183295150D01*
X345870900Y-187195150D02*
X345870900Y-183295150D01*
X347870900Y-187195150D02*
X345870900Y-187195150D01*
X315327150Y-187195150D02*
X315327150Y-183295150D01*
X313327150Y-187195150D02*
X313327150Y-183295150D01*
X315327150Y-187195150D02*
X313327150Y-187195150D01*
X296277150Y-187195150D02*
X296277150Y-183295150D01*
X294277150Y-187195150D02*
X294277150Y-183295150D01*
X296277150Y-187195150D02*
X294277150Y-187195150D01*
X277227150Y-187195150D02*
X277227150Y-183295150D01*
X275227150Y-187195150D02*
X275227150Y-183295150D01*
X277227150Y-187195150D02*
X275227150Y-187195150D01*
X258177150Y-187257650D02*
X258177150Y-183357650D01*
X256177150Y-187257650D02*
X256177150Y-183357650D01*
X258177150Y-187257650D02*
X256177150Y-187257650D01*
X239127150Y-187195150D02*
X239127150Y-183295150D01*
X237127150Y-187195150D02*
X237127150Y-183295150D01*
X239127150Y-187195150D02*
X237127150Y-187195150D01*
X220077150Y-187195150D02*
X220077150Y-183295150D01*
X218077150Y-187195150D02*
X218077150Y-183295150D01*
X220077150Y-187195150D02*
X218077150Y-187195150D01*
X201027150Y-187195150D02*
X201027150Y-183295150D01*
X199027150Y-187195150D02*
X199027150Y-183295150D01*
X201027150Y-187195150D02*
X199027150Y-187195150D01*
X181977150Y-187195150D02*
X181977150Y-183295150D01*
X179977150Y-187195150D02*
X179977150Y-183295150D01*
X181977150Y-187195150D02*
X179977150Y-187195150D01*
X162927150Y-187195150D02*
X162927150Y-183295150D01*
X160927150Y-187195150D02*
X160927150Y-183295150D01*
X162927150Y-187195150D02*
X160927150Y-187195150D01*
X143877150Y-187195150D02*
X143877150Y-183295150D01*
X141877150Y-187195150D02*
X141877150Y-183295150D01*
X143877150Y-187195150D02*
X141877150Y-187195150D01*
X124827150Y-187195150D02*
X124827150Y-183295150D01*
X122827150Y-187195150D02*
X122827150Y-183295150D01*
X124827150Y-187195150D02*
X122827150Y-187195150D01*
X120858400Y-187195150D02*
X120858400Y-183295150D01*
X118858400Y-187195150D02*
X118858400Y-183295150D01*
X120858400Y-187195150D02*
X118858400Y-187195150D01*
X324852150Y-171320150D02*
X324852150Y-167420150D01*
X322852150Y-171320150D02*
X322852150Y-167420150D01*
X324852150Y-171320150D02*
X322852150Y-171320150D01*
X305802150Y-171320150D02*
X305802150Y-167420150D01*
X303802150Y-171320150D02*
X303802150Y-167420150D01*
X305802150Y-171320150D02*
X303802150Y-171320150D01*
X286752150Y-171320150D02*
X286752150Y-167420150D01*
X284752150Y-171320150D02*
X284752150Y-167420150D01*
X286752150Y-171320150D02*
X284752150Y-171320150D01*
X267702150Y-171320150D02*
X267702150Y-167420150D01*
X265702150Y-171320150D02*
X265702150Y-167420150D01*
X267702150Y-171320150D02*
X265702150Y-171320150D01*
X248652150Y-171320150D02*
X248652150Y-167420150D01*
X246652150Y-171320150D02*
X246652150Y-167420150D01*
X248652150Y-171320150D02*
X246652150Y-171320150D01*
X229602150Y-171320150D02*
X229602150Y-167420150D01*
X227602150Y-171320150D02*
X227602150Y-167420150D01*
X229602150Y-171320150D02*
X227602150Y-171320150D01*
X210552150Y-171320150D02*
X210552150Y-167420150D01*
X208552150Y-171320150D02*
X208552150Y-167420150D01*
X210552150Y-171320150D02*
X208552150Y-171320150D01*
X191502150Y-171320150D02*
X191502150Y-167420150D01*
X189502150Y-171320150D02*
X189502150Y-167420150D01*
X191502150Y-171320150D02*
X189502150Y-171320150D01*
X172452150Y-171320150D02*
X172452150Y-167420150D01*
X170452150Y-171320150D02*
X170452150Y-167420150D01*
X172452150Y-171320150D02*
X170452150Y-171320150D01*
X153402150Y-171320150D02*
X153402150Y-167420150D01*
X151402150Y-171320150D02*
X151402150Y-167420150D01*
X153402150Y-171320150D02*
X151402150Y-171320150D01*
X134352150Y-171320150D02*
X134352150Y-167420150D01*
X132352150Y-171320150D02*
X132352150Y-167420150D01*
X134352150Y-171320150D02*
X132352150Y-171320150D01*
X115302150Y-171320150D02*
X115302150Y-167420150D01*
X113302150Y-171320150D02*
X113302150Y-167420150D01*
X115302150Y-171320150D02*
X113302150Y-171320150D01*
X112045900Y-171320150D02*
X112045900Y-167420150D01*
X110045900Y-171320150D02*
X110045900Y-167420150D01*
X112045900Y-171320150D02*
X110045900Y-171320150D01*
X339058400Y-150682650D02*
X339058400Y-146782650D01*
X337058400Y-150682650D02*
X337058400Y-146782650D01*
X339058400Y-150682650D02*
X337058400Y-150682650D01*
X320008400Y-150682650D02*
X320008400Y-146782650D01*
X318008400Y-150682650D02*
X318008400Y-146782650D01*
X320008400Y-150682650D02*
X318008400Y-150682650D01*
X300958400Y-150682650D02*
X300958400Y-146782650D01*
X298958400Y-150682650D02*
X298958400Y-146782650D01*
X300958400Y-150682650D02*
X298958400Y-150682650D01*
X281908400Y-150682650D02*
X281908400Y-146782650D01*
X279908400Y-150682650D02*
X279908400Y-146782650D01*
X281908400Y-150682650D02*
X279908400Y-150682650D01*
X262858400Y-150682650D02*
X262858400Y-146782650D01*
X260858400Y-150682650D02*
X260858400Y-146782650D01*
X262858400Y-150682650D02*
X260858400Y-150682650D01*
X243808400Y-150682650D02*
X243808400Y-146782650D01*
X241808400Y-150682650D02*
X241808400Y-146782650D01*
X243808400Y-150682650D02*
X241808400Y-150682650D01*
X224758400Y-150682650D02*
X224758400Y-146782650D01*
X222758400Y-150682650D02*
X222758400Y-146782650D01*
X224758400Y-150682650D02*
X222758400Y-150682650D01*
X205708400Y-150682650D02*
X205708400Y-146782650D01*
X203708400Y-150682650D02*
X203708400Y-146782650D01*
X205708400Y-150682650D02*
X203708400Y-150682650D01*
X186658400Y-150682650D02*
X186658400Y-146782650D01*
X184658400Y-150682650D02*
X184658400Y-146782650D01*
X186658400Y-150682650D02*
X184658400Y-150682650D01*
X167608400Y-150682650D02*
X167608400Y-146782650D01*
X165608400Y-150682650D02*
X165608400Y-146782650D01*
X167608400Y-150682650D02*
X165608400Y-150682650D01*
X148558400Y-150682650D02*
X148558400Y-146782650D01*
X146558400Y-150682650D02*
X146558400Y-146782650D01*
X148558400Y-150682650D02*
X146558400Y-150682650D01*
X129508400Y-150682650D02*
X129508400Y-146782650D01*
X127508400Y-150682650D02*
X127508400Y-146782650D01*
X129508400Y-150682650D02*
X127508400Y-150682650D01*
X110458400Y-150682650D02*
X110458400Y-146782650D01*
X108458400Y-150682650D02*
X108458400Y-146782650D01*
X110458400Y-150682650D02*
X108458400Y-150682650D01*
X107283400Y-150682650D02*
X107283400Y-146782650D01*
X105283400Y-150682650D02*
X105283400Y-146782650D01*
X107283400Y-150682650D02*
X105283400Y-150682650D01*
X361364650Y-150620150D02*
X361364650Y-146720150D01*
X359364650Y-150620150D02*
X359364650Y-146720150D01*
X361364650Y-150620150D02*
X359364650Y-150620150D01*
X329533400Y-131632650D02*
X329533400Y-127732650D01*
X327533400Y-131632650D02*
X327533400Y-127732650D01*
X329533400Y-131632650D02*
X327533400Y-131632650D01*
X310483400Y-131695150D02*
X310483400Y-127795150D01*
X308483400Y-131695150D02*
X308483400Y-127795150D01*
X310483400Y-131695150D02*
X308483400Y-131695150D01*
X291433400Y-131632650D02*
X291433400Y-127732650D01*
X289433400Y-131632650D02*
X289433400Y-127732650D01*
X291433400Y-131632650D02*
X289433400Y-131632650D01*
X272383400Y-131632650D02*
X272383400Y-127732650D01*
X270383400Y-131632650D02*
X270383400Y-127732650D01*
X272383400Y-131632650D02*
X270383400Y-131632650D01*
X253333400Y-131695150D02*
X253333400Y-127795150D01*
X251333400Y-131695150D02*
X251333400Y-127795150D01*
X253333400Y-131695150D02*
X251333400Y-131695150D01*
X234283400Y-131632650D02*
X234283400Y-127732650D01*
X232283400Y-131632650D02*
X232283400Y-127732650D01*
X234283400Y-131632650D02*
X232283400Y-131632650D01*
X215233400Y-131632650D02*
X215233400Y-127732650D01*
X213233400Y-131632650D02*
X213233400Y-127732650D01*
X215233400Y-131632650D02*
X213233400Y-131632650D01*
X196183400Y-131695150D02*
X196183400Y-127795150D01*
X194183400Y-131695150D02*
X194183400Y-127795150D01*
X196183400Y-131695150D02*
X194183400Y-131695150D01*
X177133400Y-131632650D02*
X177133400Y-127732650D01*
X175133400Y-131632650D02*
X175133400Y-127732650D01*
X177133400Y-131632650D02*
X175133400Y-131632650D01*
X158083400Y-131632650D02*
X158083400Y-127732650D01*
X156083400Y-131632650D02*
X156083400Y-127732650D01*
X158083400Y-131632650D02*
X156083400Y-131632650D01*
X139033400Y-131632650D02*
X139033400Y-127732650D01*
X137033400Y-131632650D02*
X137033400Y-127732650D01*
X139033400Y-131632650D02*
X137033400Y-131632650D01*
X119983400Y-131632650D02*
X119983400Y-127732650D01*
X117983400Y-131632650D02*
X117983400Y-127732650D01*
X119983400Y-131632650D02*
X117983400Y-131632650D01*
X116889650Y-131695150D02*
X116889650Y-127795150D01*
X114889650Y-131695150D02*
X114889650Y-127795150D01*
X116889650Y-131695150D02*
X114889650Y-131695150D01*
X169948400Y-203603728D02*
X169948400Y-203086572D01*
X171368400Y-203603728D02*
X171368400Y-203086572D01*
X193274822Y-189791400D02*
X193791978Y-189791400D01*
X193274822Y-191211400D02*
X193791978Y-191211400D01*
X191698228Y-195180150D02*
X191181072Y-195180150D01*
X191698228Y-193760150D02*
X191181072Y-193760150D01*
X191181072Y-201697650D02*
X191698228Y-201697650D01*
X191181072Y-203117650D02*
X191698228Y-203117650D01*
X182956072Y-206460150D02*
X183473228Y-206460150D01*
X182956072Y-207880150D02*
X183473228Y-207880150D01*
D11*
X98584233Y-126363780D02*
X98584233Y-127078066D01*
X98631852Y-127220923D01*
X98727090Y-127316161D01*
X98869947Y-127363780D01*
X98965185Y-127363780D01*
X97584233Y-127363780D02*
X98155661Y-127363780D01*
X97869947Y-127363780D02*
X97869947Y-126363780D01*
X97965185Y-126506638D01*
X98060423Y-126601876D01*
X98155661Y-126649495D01*
X94402745Y-131803780D02*
X94402745Y-130803780D01*
X94164650Y-130803780D01*
X94021792Y-130851400D01*
X93926554Y-130946638D01*
X93878935Y-131041876D01*
X93831316Y-131232352D01*
X93831316Y-131375209D01*
X93878935Y-131565685D01*
X93926554Y-131660923D01*
X94021792Y-131756161D01*
X94164650Y-131803780D01*
X94402745Y-131803780D01*
X92878935Y-131803780D02*
X93450364Y-131803780D01*
X93164650Y-131803780D02*
X93164650Y-130803780D01*
X93259888Y-130946638D01*
X93355126Y-131041876D01*
X93450364Y-131089495D01*
X102423280Y-137172233D02*
X101947090Y-136838900D01*
X102423280Y-136600804D02*
X101423280Y-136600804D01*
X101423280Y-136981757D01*
X101470900Y-137076995D01*
X101518519Y-137124614D01*
X101613757Y-137172233D01*
X101756614Y-137172233D01*
X101851852Y-137124614D01*
X101899471Y-137076995D01*
X101947090Y-136981757D01*
X101947090Y-136600804D01*
X101423280Y-138029376D02*
X101423280Y-137838900D01*
X101470900Y-137743661D01*
X101518519Y-137696042D01*
X101661376Y-137600804D01*
X101851852Y-137553185D01*
X102232804Y-137553185D01*
X102328042Y-137600804D01*
X102375661Y-137648423D01*
X102423280Y-137743661D01*
X102423280Y-137934138D01*
X102375661Y-138029376D01*
X102328042Y-138076995D01*
X102232804Y-138124614D01*
X101994709Y-138124614D01*
X101899471Y-138076995D01*
X101851852Y-138029376D01*
X101804233Y-137934138D01*
X101804233Y-137743661D01*
X101851852Y-137648423D01*
X101899471Y-137600804D01*
X101994709Y-137553185D01*
X98753280Y-137112233D02*
X98277090Y-136778900D01*
X98753280Y-136540804D02*
X97753280Y-136540804D01*
X97753280Y-136921757D01*
X97800900Y-137016995D01*
X97848519Y-137064614D01*
X97943757Y-137112233D01*
X98086614Y-137112233D01*
X98181852Y-137064614D01*
X98229471Y-137016995D01*
X98277090Y-136921757D01*
X98277090Y-136540804D01*
X97753280Y-138016995D02*
X97753280Y-137540804D01*
X98229471Y-137493185D01*
X98181852Y-137540804D01*
X98134233Y-137636042D01*
X98134233Y-137874138D01*
X98181852Y-137969376D01*
X98229471Y-138016995D01*
X98324709Y-138064614D01*
X98562804Y-138064614D01*
X98658042Y-138016995D01*
X98705661Y-137969376D01*
X98753280Y-137874138D01*
X98753280Y-137636042D01*
X98705661Y-137540804D01*
X98658042Y-137493185D01*
X107729471Y-138938066D02*
X107729471Y-138604733D01*
X108253280Y-138604733D02*
X107253280Y-138604733D01*
X107253280Y-139080923D01*
X108253280Y-139985685D02*
X108253280Y-139414257D01*
X108253280Y-139699971D02*
X107253280Y-139699971D01*
X107396138Y-139604733D01*
X107491376Y-139509495D01*
X107538995Y-139414257D01*
X167650066Y-191589792D02*
X167697685Y-191637411D01*
X167840542Y-191685030D01*
X167935780Y-191685030D01*
X168078638Y-191637411D01*
X168173876Y-191542173D01*
X168221495Y-191446935D01*
X168269114Y-191256459D01*
X168269114Y-191113602D01*
X168221495Y-190923126D01*
X168173876Y-190827888D01*
X168078638Y-190732650D01*
X167935780Y-190685030D01*
X167840542Y-190685030D01*
X167697685Y-190732650D01*
X167650066Y-190780269D01*
X166792923Y-190685030D02*
X166983400Y-190685030D01*
X167078638Y-190732650D01*
X167126257Y-190780269D01*
X167221495Y-190923126D01*
X167269114Y-191113602D01*
X167269114Y-191494554D01*
X167221495Y-191589792D01*
X167173876Y-191637411D01*
X167078638Y-191685030D01*
X166888161Y-191685030D01*
X166792923Y-191637411D01*
X166745304Y-191589792D01*
X166697685Y-191494554D01*
X166697685Y-191256459D01*
X166745304Y-191161221D01*
X166792923Y-191113602D01*
X166888161Y-191065983D01*
X167078638Y-191065983D01*
X167173876Y-191113602D01*
X167221495Y-191161221D01*
X167269114Y-191256459D01*
X169365542Y-195240983D02*
X169413161Y-195193364D01*
X169460780Y-195050507D01*
X169460780Y-194955269D01*
X169413161Y-194812411D01*
X169317923Y-194717173D01*
X169222685Y-194669554D01*
X169032209Y-194621935D01*
X168889352Y-194621935D01*
X168698876Y-194669554D01*
X168603638Y-194717173D01*
X168508400Y-194812411D01*
X168460780Y-194955269D01*
X168460780Y-195050507D01*
X168508400Y-195193364D01*
X168556019Y-195240983D01*
X168794114Y-196098126D02*
X169460780Y-196098126D01*
X168413161Y-195860030D02*
X169127447Y-195621935D01*
X169127447Y-196240983D01*
X188765840Y-197962709D02*
X189242030Y-197962709D01*
X188242030Y-197629376D02*
X188765840Y-197962709D01*
X188242030Y-198296042D01*
X189242030Y-199153185D02*
X189242030Y-198581757D01*
X189242030Y-198867471D02*
X188242030Y-198867471D01*
X188384888Y-198772233D01*
X188480126Y-198676995D01*
X188527745Y-198581757D01*
X171535780Y-197676995D02*
X172345304Y-197676995D01*
X172440542Y-197724614D01*
X172488161Y-197772233D01*
X172535780Y-197867471D01*
X172535780Y-198057947D01*
X172488161Y-198153185D01*
X172440542Y-198200804D01*
X172345304Y-198248423D01*
X171535780Y-198248423D01*
X172535780Y-199248423D02*
X172535780Y-198676995D01*
X172535780Y-198962709D02*
X171535780Y-198962709D01*
X171678638Y-198867471D01*
X171773876Y-198772233D01*
X171821495Y-198676995D01*
X192629233Y-213226411D02*
X192486376Y-213274030D01*
X192248280Y-213274030D01*
X192153042Y-213226411D01*
X192105423Y-213178792D01*
X192057804Y-213083554D01*
X192057804Y-212988316D01*
X192105423Y-212893078D01*
X192153042Y-212845459D01*
X192248280Y-212797840D01*
X192438757Y-212750221D01*
X192533995Y-212702602D01*
X192581614Y-212654983D01*
X192629233Y-212559745D01*
X192629233Y-212464507D01*
X192581614Y-212369269D01*
X192533995Y-212321650D01*
X192438757Y-212274030D01*
X192200661Y-212274030D01*
X192057804Y-212321650D01*
X191724471Y-212274030D02*
X191486376Y-213274030D01*
X191295900Y-212559745D01*
X191105423Y-213274030D01*
X190867328Y-212274030D01*
X189962566Y-213274030D02*
X190533995Y-213274030D01*
X190248280Y-213274030D02*
X190248280Y-212274030D01*
X190343519Y-212416888D01*
X190438757Y-212512126D01*
X190533995Y-212559745D01*
X163904530Y-204622233D02*
X163428340Y-204288900D01*
X163904530Y-204050804D02*
X162904530Y-204050804D01*
X162904530Y-204431757D01*
X162952150Y-204526995D01*
X162999769Y-204574614D01*
X163095007Y-204622233D01*
X163237864Y-204622233D01*
X163333102Y-204574614D01*
X163380721Y-204526995D01*
X163428340Y-204431757D01*
X163428340Y-204050804D01*
X163237864Y-205479376D02*
X163904530Y-205479376D01*
X162856911Y-205241280D02*
X163571197Y-205003185D01*
X163571197Y-205622233D01*
X188937566Y-190891280D02*
X189270900Y-190415090D01*
X189508995Y-190891280D02*
X189508995Y-189891280D01*
X189128042Y-189891280D01*
X189032804Y-189938900D01*
X188985185Y-189986519D01*
X188937566Y-190081757D01*
X188937566Y-190224614D01*
X188985185Y-190319852D01*
X189032804Y-190367471D01*
X189128042Y-190415090D01*
X189508995Y-190415090D01*
X188604233Y-189891280D02*
X187985185Y-189891280D01*
X188318519Y-190272233D01*
X188175661Y-190272233D01*
X188080423Y-190319852D01*
X188032804Y-190367471D01*
X187985185Y-190462709D01*
X187985185Y-190700804D01*
X188032804Y-190796042D01*
X188080423Y-190843661D01*
X188175661Y-190891280D01*
X188461376Y-190891280D01*
X188556614Y-190843661D01*
X188604233Y-190796042D01*
X91687566Y-140323780D02*
X92020900Y-139847590D01*
X92258995Y-140323780D02*
X92258995Y-139323780D01*
X91878042Y-139323780D01*
X91782804Y-139371400D01*
X91735185Y-139419019D01*
X91687566Y-139514257D01*
X91687566Y-139657114D01*
X91735185Y-139752352D01*
X91782804Y-139799971D01*
X91878042Y-139847590D01*
X92258995Y-139847590D01*
X91306614Y-139419019D02*
X91258995Y-139371400D01*
X91163757Y-139323780D01*
X90925661Y-139323780D01*
X90830423Y-139371400D01*
X90782804Y-139419019D01*
X90735185Y-139514257D01*
X90735185Y-139609495D01*
X90782804Y-139752352D01*
X91354233Y-140323780D01*
X90735185Y-140323780D01*
X91687566Y-142363780D02*
X92020900Y-141887590D01*
X92258995Y-142363780D02*
X92258995Y-141363780D01*
X91878042Y-141363780D01*
X91782804Y-141411400D01*
X91735185Y-141459019D01*
X91687566Y-141554257D01*
X91687566Y-141697114D01*
X91735185Y-141792352D01*
X91782804Y-141839971D01*
X91878042Y-141887590D01*
X92258995Y-141887590D01*
X90735185Y-142363780D02*
X91306614Y-142363780D01*
X91020900Y-142363780D02*
X91020900Y-141363780D01*
X91116138Y-141506638D01*
X91211376Y-141601876D01*
X91306614Y-141649495D01*
X345354530Y-202780864D02*
X344354530Y-202780864D01*
X344354530Y-203018959D01*
X344402150Y-203161816D01*
X344497388Y-203257054D01*
X344592626Y-203304673D01*
X344783102Y-203352292D01*
X344925959Y-203352292D01*
X345116435Y-203304673D01*
X345211673Y-203257054D01*
X345306911Y-203161816D01*
X345354530Y-203018959D01*
X345354530Y-202780864D01*
X344354530Y-204209435D02*
X344354530Y-204018959D01*
X344402150Y-203923721D01*
X344449769Y-203876102D01*
X344592626Y-203780864D01*
X344783102Y-203733245D01*
X345164054Y-203733245D01*
X345259292Y-203780864D01*
X345306911Y-203828483D01*
X345354530Y-203923721D01*
X345354530Y-204114197D01*
X345306911Y-204209435D01*
X345259292Y-204257054D01*
X345164054Y-204304673D01*
X344925959Y-204304673D01*
X344830721Y-204257054D01*
X344783102Y-204209435D01*
X344735483Y-204114197D01*
X344735483Y-203923721D01*
X344783102Y-203828483D01*
X344830721Y-203780864D01*
X344925959Y-203733245D01*
X344354530Y-204638007D02*
X344354530Y-205257054D01*
X344735483Y-204923721D01*
X344735483Y-205066578D01*
X344783102Y-205161816D01*
X344830721Y-205209435D01*
X344925959Y-205257054D01*
X345164054Y-205257054D01*
X345259292Y-205209435D01*
X345306911Y-205161816D01*
X345354530Y-205066578D01*
X345354530Y-204780864D01*
X345306911Y-204685626D01*
X345259292Y-204638007D01*
X342179530Y-202718364D02*
X341179530Y-202718364D01*
X341179530Y-202956459D01*
X341227150Y-203099316D01*
X341322388Y-203194554D01*
X341417626Y-203242173D01*
X341608102Y-203289792D01*
X341750959Y-203289792D01*
X341941435Y-203242173D01*
X342036673Y-203194554D01*
X342131911Y-203099316D01*
X342179530Y-202956459D01*
X342179530Y-202718364D01*
X341179530Y-204146935D02*
X341179530Y-203956459D01*
X341227150Y-203861221D01*
X341274769Y-203813602D01*
X341417626Y-203718364D01*
X341608102Y-203670745D01*
X341989054Y-203670745D01*
X342084292Y-203718364D01*
X342131911Y-203765983D01*
X342179530Y-203861221D01*
X342179530Y-204051697D01*
X342131911Y-204146935D01*
X342084292Y-204194554D01*
X341989054Y-204242173D01*
X341750959Y-204242173D01*
X341655721Y-204194554D01*
X341608102Y-204146935D01*
X341560483Y-204051697D01*
X341560483Y-203861221D01*
X341608102Y-203765983D01*
X341655721Y-203718364D01*
X341750959Y-203670745D01*
X341274769Y-204623126D02*
X341227150Y-204670745D01*
X341179530Y-204765983D01*
X341179530Y-205004078D01*
X341227150Y-205099316D01*
X341274769Y-205146935D01*
X341370007Y-205194554D01*
X341465245Y-205194554D01*
X341608102Y-205146935D01*
X342179530Y-204575507D01*
X342179530Y-205194554D01*
X317573280Y-202780864D02*
X316573280Y-202780864D01*
X316573280Y-203018959D01*
X316620900Y-203161816D01*
X316716138Y-203257054D01*
X316811376Y-203304673D01*
X317001852Y-203352292D01*
X317144709Y-203352292D01*
X317335185Y-203304673D01*
X317430423Y-203257054D01*
X317525661Y-203161816D01*
X317573280Y-203018959D01*
X317573280Y-202780864D01*
X316573280Y-204209435D02*
X316573280Y-204018959D01*
X316620900Y-203923721D01*
X316668519Y-203876102D01*
X316811376Y-203780864D01*
X317001852Y-203733245D01*
X317382804Y-203733245D01*
X317478042Y-203780864D01*
X317525661Y-203828483D01*
X317573280Y-203923721D01*
X317573280Y-204114197D01*
X317525661Y-204209435D01*
X317478042Y-204257054D01*
X317382804Y-204304673D01*
X317144709Y-204304673D01*
X317049471Y-204257054D01*
X317001852Y-204209435D01*
X316954233Y-204114197D01*
X316954233Y-203923721D01*
X317001852Y-203828483D01*
X317049471Y-203780864D01*
X317144709Y-203733245D01*
X317573280Y-205257054D02*
X317573280Y-204685626D01*
X317573280Y-204971340D02*
X316573280Y-204971340D01*
X316716138Y-204876102D01*
X316811376Y-204780864D01*
X316858995Y-204685626D01*
X273917030Y-202780864D02*
X272917030Y-202780864D01*
X272917030Y-203018959D01*
X272964650Y-203161816D01*
X273059888Y-203257054D01*
X273155126Y-203304673D01*
X273345602Y-203352292D01*
X273488459Y-203352292D01*
X273678935Y-203304673D01*
X273774173Y-203257054D01*
X273869411Y-203161816D01*
X273917030Y-203018959D01*
X273917030Y-202780864D01*
X272917030Y-204209435D02*
X272917030Y-204018959D01*
X272964650Y-203923721D01*
X273012269Y-203876102D01*
X273155126Y-203780864D01*
X273345602Y-203733245D01*
X273726554Y-203733245D01*
X273821792Y-203780864D01*
X273869411Y-203828483D01*
X273917030Y-203923721D01*
X273917030Y-204114197D01*
X273869411Y-204209435D01*
X273821792Y-204257054D01*
X273726554Y-204304673D01*
X273488459Y-204304673D01*
X273393221Y-204257054D01*
X273345602Y-204209435D01*
X273297983Y-204114197D01*
X273297983Y-203923721D01*
X273345602Y-203828483D01*
X273393221Y-203780864D01*
X273488459Y-203733245D01*
X272917030Y-204923721D02*
X272917030Y-205018959D01*
X272964650Y-205114197D01*
X273012269Y-205161816D01*
X273107507Y-205209435D01*
X273297983Y-205257054D01*
X273536078Y-205257054D01*
X273726554Y-205209435D01*
X273821792Y-205161816D01*
X273869411Y-205114197D01*
X273917030Y-205018959D01*
X273917030Y-204923721D01*
X273869411Y-204828483D01*
X273821792Y-204780864D01*
X273726554Y-204733245D01*
X273536078Y-204685626D01*
X273297983Y-204685626D01*
X273107507Y-204733245D01*
X273012269Y-204780864D01*
X272964650Y-204828483D01*
X272917030Y-204923721D01*
X203273280Y-202780864D02*
X202273280Y-202780864D01*
X202273280Y-203018959D01*
X202320900Y-203161816D01*
X202416138Y-203257054D01*
X202511376Y-203304673D01*
X202701852Y-203352292D01*
X202844709Y-203352292D01*
X203035185Y-203304673D01*
X203130423Y-203257054D01*
X203225661Y-203161816D01*
X203273280Y-203018959D01*
X203273280Y-202780864D01*
X202273280Y-204257054D02*
X202273280Y-203780864D01*
X202749471Y-203733245D01*
X202701852Y-203780864D01*
X202654233Y-203876102D01*
X202654233Y-204114197D01*
X202701852Y-204209435D01*
X202749471Y-204257054D01*
X202844709Y-204304673D01*
X203082804Y-204304673D01*
X203178042Y-204257054D01*
X203225661Y-204209435D01*
X203273280Y-204114197D01*
X203273280Y-203876102D01*
X203225661Y-203780864D01*
X203178042Y-203733245D01*
X203273280Y-204780864D02*
X203273280Y-204971340D01*
X203225661Y-205066578D01*
X203178042Y-205114197D01*
X203035185Y-205209435D01*
X202844709Y-205257054D01*
X202463757Y-205257054D01*
X202368519Y-205209435D01*
X202320900Y-205161816D01*
X202273280Y-205066578D01*
X202273280Y-204876102D01*
X202320900Y-204780864D01*
X202368519Y-204733245D01*
X202463757Y-204685626D01*
X202701852Y-204685626D01*
X202797090Y-204733245D01*
X202844709Y-204780864D01*
X202892328Y-204876102D01*
X202892328Y-205066578D01*
X202844709Y-205161816D01*
X202797090Y-205209435D01*
X202701852Y-205257054D01*
X131042030Y-202780864D02*
X130042030Y-202780864D01*
X130042030Y-203018959D01*
X130089650Y-203161816D01*
X130184888Y-203257054D01*
X130280126Y-203304673D01*
X130470602Y-203352292D01*
X130613459Y-203352292D01*
X130803935Y-203304673D01*
X130899173Y-203257054D01*
X130994411Y-203161816D01*
X131042030Y-203018959D01*
X131042030Y-202780864D01*
X130042030Y-204257054D02*
X130042030Y-203780864D01*
X130518221Y-203733245D01*
X130470602Y-203780864D01*
X130422983Y-203876102D01*
X130422983Y-204114197D01*
X130470602Y-204209435D01*
X130518221Y-204257054D01*
X130613459Y-204304673D01*
X130851554Y-204304673D01*
X130946792Y-204257054D01*
X130994411Y-204209435D01*
X131042030Y-204114197D01*
X131042030Y-203876102D01*
X130994411Y-203780864D01*
X130946792Y-203733245D01*
X130470602Y-204876102D02*
X130422983Y-204780864D01*
X130375364Y-204733245D01*
X130280126Y-204685626D01*
X130232507Y-204685626D01*
X130137269Y-204733245D01*
X130089650Y-204780864D01*
X130042030Y-204876102D01*
X130042030Y-205066578D01*
X130089650Y-205161816D01*
X130137269Y-205209435D01*
X130232507Y-205257054D01*
X130280126Y-205257054D01*
X130375364Y-205209435D01*
X130422983Y-205161816D01*
X130470602Y-205066578D01*
X130470602Y-204876102D01*
X130518221Y-204780864D01*
X130565840Y-204733245D01*
X130661078Y-204685626D01*
X130851554Y-204685626D01*
X130946792Y-204733245D01*
X130994411Y-204780864D01*
X131042030Y-204876102D01*
X131042030Y-205066578D01*
X130994411Y-205161816D01*
X130946792Y-205209435D01*
X130851554Y-205257054D01*
X130661078Y-205257054D01*
X130565840Y-205209435D01*
X130518221Y-205161816D01*
X130470602Y-205066578D01*
X107229530Y-202780864D02*
X106229530Y-202780864D01*
X106229530Y-203018959D01*
X106277150Y-203161816D01*
X106372388Y-203257054D01*
X106467626Y-203304673D01*
X106658102Y-203352292D01*
X106800959Y-203352292D01*
X106991435Y-203304673D01*
X107086673Y-203257054D01*
X107181911Y-203161816D01*
X107229530Y-203018959D01*
X107229530Y-202780864D01*
X106229530Y-204257054D02*
X106229530Y-203780864D01*
X106705721Y-203733245D01*
X106658102Y-203780864D01*
X106610483Y-203876102D01*
X106610483Y-204114197D01*
X106658102Y-204209435D01*
X106705721Y-204257054D01*
X106800959Y-204304673D01*
X107039054Y-204304673D01*
X107134292Y-204257054D01*
X107181911Y-204209435D01*
X107229530Y-204114197D01*
X107229530Y-203876102D01*
X107181911Y-203780864D01*
X107134292Y-203733245D01*
X106229530Y-204638007D02*
X106229530Y-205304673D01*
X107229530Y-204876102D01*
X104054530Y-202780864D02*
X103054530Y-202780864D01*
X103054530Y-203018959D01*
X103102150Y-203161816D01*
X103197388Y-203257054D01*
X103292626Y-203304673D01*
X103483102Y-203352292D01*
X103625959Y-203352292D01*
X103816435Y-203304673D01*
X103911673Y-203257054D01*
X104006911Y-203161816D01*
X104054530Y-203018959D01*
X104054530Y-202780864D01*
X103054530Y-204257054D02*
X103054530Y-203780864D01*
X103530721Y-203733245D01*
X103483102Y-203780864D01*
X103435483Y-203876102D01*
X103435483Y-204114197D01*
X103483102Y-204209435D01*
X103530721Y-204257054D01*
X103625959Y-204304673D01*
X103864054Y-204304673D01*
X103959292Y-204257054D01*
X104006911Y-204209435D01*
X104054530Y-204114197D01*
X104054530Y-203876102D01*
X104006911Y-203780864D01*
X103959292Y-203733245D01*
X103054530Y-205161816D02*
X103054530Y-204971340D01*
X103102150Y-204876102D01*
X103149769Y-204828483D01*
X103292626Y-204733245D01*
X103483102Y-204685626D01*
X103864054Y-204685626D01*
X103959292Y-204733245D01*
X104006911Y-204780864D01*
X104054530Y-204876102D01*
X104054530Y-205066578D01*
X104006911Y-205161816D01*
X103959292Y-205209435D01*
X103864054Y-205257054D01*
X103625959Y-205257054D01*
X103530721Y-205209435D01*
X103483102Y-205161816D01*
X103435483Y-205066578D01*
X103435483Y-204876102D01*
X103483102Y-204780864D01*
X103530721Y-204733245D01*
X103625959Y-204685626D01*
X349323280Y-183730864D02*
X348323280Y-183730864D01*
X348323280Y-183968959D01*
X348370900Y-184111816D01*
X348466138Y-184207054D01*
X348561376Y-184254673D01*
X348751852Y-184302292D01*
X348894709Y-184302292D01*
X349085185Y-184254673D01*
X349180423Y-184207054D01*
X349275661Y-184111816D01*
X349323280Y-183968959D01*
X349323280Y-183730864D01*
X348323280Y-185207054D02*
X348323280Y-184730864D01*
X348799471Y-184683245D01*
X348751852Y-184730864D01*
X348704233Y-184826102D01*
X348704233Y-185064197D01*
X348751852Y-185159435D01*
X348799471Y-185207054D01*
X348894709Y-185254673D01*
X349132804Y-185254673D01*
X349228042Y-185207054D01*
X349275661Y-185159435D01*
X349323280Y-185064197D01*
X349323280Y-184826102D01*
X349275661Y-184730864D01*
X349228042Y-184683245D01*
X348323280Y-186159435D02*
X348323280Y-185683245D01*
X348799471Y-185635626D01*
X348751852Y-185683245D01*
X348704233Y-185778483D01*
X348704233Y-186016578D01*
X348751852Y-186111816D01*
X348799471Y-186159435D01*
X348894709Y-186207054D01*
X349132804Y-186207054D01*
X349228042Y-186159435D01*
X349275661Y-186111816D01*
X349323280Y-186016578D01*
X349323280Y-185778483D01*
X349275661Y-185683245D01*
X349228042Y-185635626D01*
X316779530Y-183730864D02*
X315779530Y-183730864D01*
X315779530Y-183968959D01*
X315827150Y-184111816D01*
X315922388Y-184207054D01*
X316017626Y-184254673D01*
X316208102Y-184302292D01*
X316350959Y-184302292D01*
X316541435Y-184254673D01*
X316636673Y-184207054D01*
X316731911Y-184111816D01*
X316779530Y-183968959D01*
X316779530Y-183730864D01*
X315779530Y-185207054D02*
X315779530Y-184730864D01*
X316255721Y-184683245D01*
X316208102Y-184730864D01*
X316160483Y-184826102D01*
X316160483Y-185064197D01*
X316208102Y-185159435D01*
X316255721Y-185207054D01*
X316350959Y-185254673D01*
X316589054Y-185254673D01*
X316684292Y-185207054D01*
X316731911Y-185159435D01*
X316779530Y-185064197D01*
X316779530Y-184826102D01*
X316731911Y-184730864D01*
X316684292Y-184683245D01*
X316112864Y-186111816D02*
X316779530Y-186111816D01*
X315731911Y-185873721D02*
X316446197Y-185635626D01*
X316446197Y-186254673D01*
X297729530Y-183730864D02*
X296729530Y-183730864D01*
X296729530Y-183968959D01*
X296777150Y-184111816D01*
X296872388Y-184207054D01*
X296967626Y-184254673D01*
X297158102Y-184302292D01*
X297300959Y-184302292D01*
X297491435Y-184254673D01*
X297586673Y-184207054D01*
X297681911Y-184111816D01*
X297729530Y-183968959D01*
X297729530Y-183730864D01*
X296729530Y-185207054D02*
X296729530Y-184730864D01*
X297205721Y-184683245D01*
X297158102Y-184730864D01*
X297110483Y-184826102D01*
X297110483Y-185064197D01*
X297158102Y-185159435D01*
X297205721Y-185207054D01*
X297300959Y-185254673D01*
X297539054Y-185254673D01*
X297634292Y-185207054D01*
X297681911Y-185159435D01*
X297729530Y-185064197D01*
X297729530Y-184826102D01*
X297681911Y-184730864D01*
X297634292Y-184683245D01*
X296729530Y-185588007D02*
X296729530Y-186207054D01*
X297110483Y-185873721D01*
X297110483Y-186016578D01*
X297158102Y-186111816D01*
X297205721Y-186159435D01*
X297300959Y-186207054D01*
X297539054Y-186207054D01*
X297634292Y-186159435D01*
X297681911Y-186111816D01*
X297729530Y-186016578D01*
X297729530Y-185730864D01*
X297681911Y-185635626D01*
X297634292Y-185588007D01*
X278679530Y-183730864D02*
X277679530Y-183730864D01*
X277679530Y-183968959D01*
X277727150Y-184111816D01*
X277822388Y-184207054D01*
X277917626Y-184254673D01*
X278108102Y-184302292D01*
X278250959Y-184302292D01*
X278441435Y-184254673D01*
X278536673Y-184207054D01*
X278631911Y-184111816D01*
X278679530Y-183968959D01*
X278679530Y-183730864D01*
X277679530Y-185207054D02*
X277679530Y-184730864D01*
X278155721Y-184683245D01*
X278108102Y-184730864D01*
X278060483Y-184826102D01*
X278060483Y-185064197D01*
X278108102Y-185159435D01*
X278155721Y-185207054D01*
X278250959Y-185254673D01*
X278489054Y-185254673D01*
X278584292Y-185207054D01*
X278631911Y-185159435D01*
X278679530Y-185064197D01*
X278679530Y-184826102D01*
X278631911Y-184730864D01*
X278584292Y-184683245D01*
X277774769Y-185635626D02*
X277727150Y-185683245D01*
X277679530Y-185778483D01*
X277679530Y-186016578D01*
X277727150Y-186111816D01*
X277774769Y-186159435D01*
X277870007Y-186207054D01*
X277965245Y-186207054D01*
X278108102Y-186159435D01*
X278679530Y-185588007D01*
X278679530Y-186207054D01*
X259629530Y-183793364D02*
X258629530Y-183793364D01*
X258629530Y-184031459D01*
X258677150Y-184174316D01*
X258772388Y-184269554D01*
X258867626Y-184317173D01*
X259058102Y-184364792D01*
X259200959Y-184364792D01*
X259391435Y-184317173D01*
X259486673Y-184269554D01*
X259581911Y-184174316D01*
X259629530Y-184031459D01*
X259629530Y-183793364D01*
X258629530Y-185269554D02*
X258629530Y-184793364D01*
X259105721Y-184745745D01*
X259058102Y-184793364D01*
X259010483Y-184888602D01*
X259010483Y-185126697D01*
X259058102Y-185221935D01*
X259105721Y-185269554D01*
X259200959Y-185317173D01*
X259439054Y-185317173D01*
X259534292Y-185269554D01*
X259581911Y-185221935D01*
X259629530Y-185126697D01*
X259629530Y-184888602D01*
X259581911Y-184793364D01*
X259534292Y-184745745D01*
X259629530Y-186269554D02*
X259629530Y-185698126D01*
X259629530Y-185983840D02*
X258629530Y-185983840D01*
X258772388Y-185888602D01*
X258867626Y-185793364D01*
X258915245Y-185698126D01*
X239674769Y-186159435D02*
X240674769Y-186159435D01*
X240674769Y-185921340D01*
X240627150Y-185778483D01*
X240531911Y-185683245D01*
X240436673Y-185635626D01*
X240246197Y-185588007D01*
X240103340Y-185588007D01*
X239912864Y-185635626D01*
X239817626Y-185683245D01*
X239722388Y-185778483D01*
X239674769Y-185921340D01*
X239674769Y-186159435D01*
X240674769Y-184683245D02*
X240674769Y-185159435D01*
X240198578Y-185207054D01*
X240246197Y-185159435D01*
X240293816Y-185064197D01*
X240293816Y-184826102D01*
X240246197Y-184730864D01*
X240198578Y-184683245D01*
X240103340Y-184635626D01*
X239865245Y-184635626D01*
X239770007Y-184683245D01*
X239722388Y-184730864D01*
X239674769Y-184826102D01*
X239674769Y-185064197D01*
X239722388Y-185159435D01*
X239770007Y-185207054D01*
X240674769Y-184016578D02*
X240674769Y-183921340D01*
X240627150Y-183826102D01*
X240579530Y-183778483D01*
X240484292Y-183730864D01*
X240293816Y-183683245D01*
X240055721Y-183683245D01*
X239865245Y-183730864D01*
X239770007Y-183778483D01*
X239722388Y-183826102D01*
X239674769Y-183921340D01*
X239674769Y-184016578D01*
X239722388Y-184111816D01*
X239770007Y-184159435D01*
X239865245Y-184207054D01*
X240055721Y-184254673D01*
X240293816Y-184254673D01*
X240484292Y-184207054D01*
X240579530Y-184159435D01*
X240627150Y-184111816D01*
X240674769Y-184016578D01*
X221529530Y-183730864D02*
X220529530Y-183730864D01*
X220529530Y-183968959D01*
X220577150Y-184111816D01*
X220672388Y-184207054D01*
X220767626Y-184254673D01*
X220958102Y-184302292D01*
X221100959Y-184302292D01*
X221291435Y-184254673D01*
X221386673Y-184207054D01*
X221481911Y-184111816D01*
X221529530Y-183968959D01*
X221529530Y-183730864D01*
X220862864Y-185159435D02*
X221529530Y-185159435D01*
X220481911Y-184921340D02*
X221196197Y-184683245D01*
X221196197Y-185302292D01*
X221529530Y-185730864D02*
X221529530Y-185921340D01*
X221481911Y-186016578D01*
X221434292Y-186064197D01*
X221291435Y-186159435D01*
X221100959Y-186207054D01*
X220720007Y-186207054D01*
X220624769Y-186159435D01*
X220577150Y-186111816D01*
X220529530Y-186016578D01*
X220529530Y-185826102D01*
X220577150Y-185730864D01*
X220624769Y-185683245D01*
X220720007Y-185635626D01*
X220958102Y-185635626D01*
X221053340Y-185683245D01*
X221100959Y-185730864D01*
X221148578Y-185826102D01*
X221148578Y-186016578D01*
X221100959Y-186111816D01*
X221053340Y-186159435D01*
X220958102Y-186207054D01*
X202479530Y-183730864D02*
X201479530Y-183730864D01*
X201479530Y-183968959D01*
X201527150Y-184111816D01*
X201622388Y-184207054D01*
X201717626Y-184254673D01*
X201908102Y-184302292D01*
X202050959Y-184302292D01*
X202241435Y-184254673D01*
X202336673Y-184207054D01*
X202431911Y-184111816D01*
X202479530Y-183968959D01*
X202479530Y-183730864D01*
X201812864Y-185159435D02*
X202479530Y-185159435D01*
X201431911Y-184921340D02*
X202146197Y-184683245D01*
X202146197Y-185302292D01*
X201908102Y-185826102D02*
X201860483Y-185730864D01*
X201812864Y-185683245D01*
X201717626Y-185635626D01*
X201670007Y-185635626D01*
X201574769Y-185683245D01*
X201527150Y-185730864D01*
X201479530Y-185826102D01*
X201479530Y-186016578D01*
X201527150Y-186111816D01*
X201574769Y-186159435D01*
X201670007Y-186207054D01*
X201717626Y-186207054D01*
X201812864Y-186159435D01*
X201860483Y-186111816D01*
X201908102Y-186016578D01*
X201908102Y-185826102D01*
X201955721Y-185730864D01*
X202003340Y-185683245D01*
X202098578Y-185635626D01*
X202289054Y-185635626D01*
X202384292Y-185683245D01*
X202431911Y-185730864D01*
X202479530Y-185826102D01*
X202479530Y-186016578D01*
X202431911Y-186111816D01*
X202384292Y-186159435D01*
X202289054Y-186207054D01*
X202098578Y-186207054D01*
X202003340Y-186159435D01*
X201955721Y-186111816D01*
X201908102Y-186016578D01*
X183429530Y-183730864D02*
X182429530Y-183730864D01*
X182429530Y-183968959D01*
X182477150Y-184111816D01*
X182572388Y-184207054D01*
X182667626Y-184254673D01*
X182858102Y-184302292D01*
X183000959Y-184302292D01*
X183191435Y-184254673D01*
X183286673Y-184207054D01*
X183381911Y-184111816D01*
X183429530Y-183968959D01*
X183429530Y-183730864D01*
X182762864Y-185159435D02*
X183429530Y-185159435D01*
X182381911Y-184921340D02*
X183096197Y-184683245D01*
X183096197Y-185302292D01*
X182429530Y-185588007D02*
X182429530Y-186254673D01*
X183429530Y-185826102D01*
X164379530Y-183730864D02*
X163379530Y-183730864D01*
X163379530Y-183968959D01*
X163427150Y-184111816D01*
X163522388Y-184207054D01*
X163617626Y-184254673D01*
X163808102Y-184302292D01*
X163950959Y-184302292D01*
X164141435Y-184254673D01*
X164236673Y-184207054D01*
X164331911Y-184111816D01*
X164379530Y-183968959D01*
X164379530Y-183730864D01*
X163712864Y-185159435D02*
X164379530Y-185159435D01*
X163331911Y-184921340D02*
X164046197Y-184683245D01*
X164046197Y-185302292D01*
X163379530Y-186111816D02*
X163379530Y-185921340D01*
X163427150Y-185826102D01*
X163474769Y-185778483D01*
X163617626Y-185683245D01*
X163808102Y-185635626D01*
X164189054Y-185635626D01*
X164284292Y-185683245D01*
X164331911Y-185730864D01*
X164379530Y-185826102D01*
X164379530Y-186016578D01*
X164331911Y-186111816D01*
X164284292Y-186159435D01*
X164189054Y-186207054D01*
X163950959Y-186207054D01*
X163855721Y-186159435D01*
X163808102Y-186111816D01*
X163760483Y-186016578D01*
X163760483Y-185826102D01*
X163808102Y-185730864D01*
X163855721Y-185683245D01*
X163950959Y-185635626D01*
X145329530Y-183730864D02*
X144329530Y-183730864D01*
X144329530Y-183968959D01*
X144377150Y-184111816D01*
X144472388Y-184207054D01*
X144567626Y-184254673D01*
X144758102Y-184302292D01*
X144900959Y-184302292D01*
X145091435Y-184254673D01*
X145186673Y-184207054D01*
X145281911Y-184111816D01*
X145329530Y-183968959D01*
X145329530Y-183730864D01*
X144662864Y-185159435D02*
X145329530Y-185159435D01*
X144281911Y-184921340D02*
X144996197Y-184683245D01*
X144996197Y-185302292D01*
X144329530Y-186159435D02*
X144329530Y-185683245D01*
X144805721Y-185635626D01*
X144758102Y-185683245D01*
X144710483Y-185778483D01*
X144710483Y-186016578D01*
X144758102Y-186111816D01*
X144805721Y-186159435D01*
X144900959Y-186207054D01*
X145139054Y-186207054D01*
X145234292Y-186159435D01*
X145281911Y-186111816D01*
X145329530Y-186016578D01*
X145329530Y-185778483D01*
X145281911Y-185683245D01*
X145234292Y-185635626D01*
X126279530Y-183730864D02*
X125279530Y-183730864D01*
X125279530Y-183968959D01*
X125327150Y-184111816D01*
X125422388Y-184207054D01*
X125517626Y-184254673D01*
X125708102Y-184302292D01*
X125850959Y-184302292D01*
X126041435Y-184254673D01*
X126136673Y-184207054D01*
X126231911Y-184111816D01*
X126279530Y-183968959D01*
X126279530Y-183730864D01*
X125612864Y-185159435D02*
X126279530Y-185159435D01*
X125231911Y-184921340D02*
X125946197Y-184683245D01*
X125946197Y-185302292D01*
X125612864Y-186111816D02*
X126279530Y-186111816D01*
X125231911Y-185873721D02*
X125946197Y-185635626D01*
X125946197Y-186254673D01*
X122310780Y-183730864D02*
X121310780Y-183730864D01*
X121310780Y-183968959D01*
X121358400Y-184111816D01*
X121453638Y-184207054D01*
X121548876Y-184254673D01*
X121739352Y-184302292D01*
X121882209Y-184302292D01*
X122072685Y-184254673D01*
X122167923Y-184207054D01*
X122263161Y-184111816D01*
X122310780Y-183968959D01*
X122310780Y-183730864D01*
X121644114Y-185159435D02*
X122310780Y-185159435D01*
X121263161Y-184921340D02*
X121977447Y-184683245D01*
X121977447Y-185302292D01*
X121310780Y-185588007D02*
X121310780Y-186207054D01*
X121691733Y-185873721D01*
X121691733Y-186016578D01*
X121739352Y-186111816D01*
X121786971Y-186159435D01*
X121882209Y-186207054D01*
X122120304Y-186207054D01*
X122215542Y-186159435D01*
X122263161Y-186111816D01*
X122310780Y-186016578D01*
X122310780Y-185730864D01*
X122263161Y-185635626D01*
X122215542Y-185588007D01*
X326304530Y-167855864D02*
X325304530Y-167855864D01*
X325304530Y-168093959D01*
X325352150Y-168236816D01*
X325447388Y-168332054D01*
X325542626Y-168379673D01*
X325733102Y-168427292D01*
X325875959Y-168427292D01*
X326066435Y-168379673D01*
X326161673Y-168332054D01*
X326256911Y-168236816D01*
X326304530Y-168093959D01*
X326304530Y-167855864D01*
X325637864Y-169284435D02*
X326304530Y-169284435D01*
X325256911Y-169046340D02*
X325971197Y-168808245D01*
X325971197Y-169427292D01*
X325399769Y-169760626D02*
X325352150Y-169808245D01*
X325304530Y-169903483D01*
X325304530Y-170141578D01*
X325352150Y-170236816D01*
X325399769Y-170284435D01*
X325495007Y-170332054D01*
X325590245Y-170332054D01*
X325733102Y-170284435D01*
X326304530Y-169713007D01*
X326304530Y-170332054D01*
X307254530Y-167855864D02*
X306254530Y-167855864D01*
X306254530Y-168093959D01*
X306302150Y-168236816D01*
X306397388Y-168332054D01*
X306492626Y-168379673D01*
X306683102Y-168427292D01*
X306825959Y-168427292D01*
X307016435Y-168379673D01*
X307111673Y-168332054D01*
X307206911Y-168236816D01*
X307254530Y-168093959D01*
X307254530Y-167855864D01*
X306587864Y-169284435D02*
X307254530Y-169284435D01*
X306206911Y-169046340D02*
X306921197Y-168808245D01*
X306921197Y-169427292D01*
X307254530Y-170332054D02*
X307254530Y-169760626D01*
X307254530Y-170046340D02*
X306254530Y-170046340D01*
X306397388Y-169951102D01*
X306492626Y-169855864D01*
X306540245Y-169760626D01*
X288204530Y-167855864D02*
X287204530Y-167855864D01*
X287204530Y-168093959D01*
X287252150Y-168236816D01*
X287347388Y-168332054D01*
X287442626Y-168379673D01*
X287633102Y-168427292D01*
X287775959Y-168427292D01*
X287966435Y-168379673D01*
X288061673Y-168332054D01*
X288156911Y-168236816D01*
X288204530Y-168093959D01*
X288204530Y-167855864D01*
X287537864Y-169284435D02*
X288204530Y-169284435D01*
X287156911Y-169046340D02*
X287871197Y-168808245D01*
X287871197Y-169427292D01*
X287204530Y-169998721D02*
X287204530Y-170093959D01*
X287252150Y-170189197D01*
X287299769Y-170236816D01*
X287395007Y-170284435D01*
X287585483Y-170332054D01*
X287823578Y-170332054D01*
X288014054Y-170284435D01*
X288109292Y-170236816D01*
X288156911Y-170189197D01*
X288204530Y-170093959D01*
X288204530Y-169998721D01*
X288156911Y-169903483D01*
X288109292Y-169855864D01*
X288014054Y-169808245D01*
X287823578Y-169760626D01*
X287585483Y-169760626D01*
X287395007Y-169808245D01*
X287299769Y-169855864D01*
X287252150Y-169903483D01*
X287204530Y-169998721D01*
X269154530Y-167855864D02*
X268154530Y-167855864D01*
X268154530Y-168093959D01*
X268202150Y-168236816D01*
X268297388Y-168332054D01*
X268392626Y-168379673D01*
X268583102Y-168427292D01*
X268725959Y-168427292D01*
X268916435Y-168379673D01*
X269011673Y-168332054D01*
X269106911Y-168236816D01*
X269154530Y-168093959D01*
X269154530Y-167855864D01*
X268154530Y-168760626D02*
X268154530Y-169379673D01*
X268535483Y-169046340D01*
X268535483Y-169189197D01*
X268583102Y-169284435D01*
X268630721Y-169332054D01*
X268725959Y-169379673D01*
X268964054Y-169379673D01*
X269059292Y-169332054D01*
X269106911Y-169284435D01*
X269154530Y-169189197D01*
X269154530Y-168903483D01*
X269106911Y-168808245D01*
X269059292Y-168760626D01*
X269154530Y-169855864D02*
X269154530Y-170046340D01*
X269106911Y-170141578D01*
X269059292Y-170189197D01*
X268916435Y-170284435D01*
X268725959Y-170332054D01*
X268345007Y-170332054D01*
X268249769Y-170284435D01*
X268202150Y-170236816D01*
X268154530Y-170141578D01*
X268154530Y-169951102D01*
X268202150Y-169855864D01*
X268249769Y-169808245D01*
X268345007Y-169760626D01*
X268583102Y-169760626D01*
X268678340Y-169808245D01*
X268725959Y-169855864D01*
X268773578Y-169951102D01*
X268773578Y-170141578D01*
X268725959Y-170236816D01*
X268678340Y-170284435D01*
X268583102Y-170332054D01*
X250104530Y-167855864D02*
X249104530Y-167855864D01*
X249104530Y-168093959D01*
X249152150Y-168236816D01*
X249247388Y-168332054D01*
X249342626Y-168379673D01*
X249533102Y-168427292D01*
X249675959Y-168427292D01*
X249866435Y-168379673D01*
X249961673Y-168332054D01*
X250056911Y-168236816D01*
X250104530Y-168093959D01*
X250104530Y-167855864D01*
X249104530Y-168760626D02*
X249104530Y-169379673D01*
X249485483Y-169046340D01*
X249485483Y-169189197D01*
X249533102Y-169284435D01*
X249580721Y-169332054D01*
X249675959Y-169379673D01*
X249914054Y-169379673D01*
X250009292Y-169332054D01*
X250056911Y-169284435D01*
X250104530Y-169189197D01*
X250104530Y-168903483D01*
X250056911Y-168808245D01*
X250009292Y-168760626D01*
X249533102Y-169951102D02*
X249485483Y-169855864D01*
X249437864Y-169808245D01*
X249342626Y-169760626D01*
X249295007Y-169760626D01*
X249199769Y-169808245D01*
X249152150Y-169855864D01*
X249104530Y-169951102D01*
X249104530Y-170141578D01*
X249152150Y-170236816D01*
X249199769Y-170284435D01*
X249295007Y-170332054D01*
X249342626Y-170332054D01*
X249437864Y-170284435D01*
X249485483Y-170236816D01*
X249533102Y-170141578D01*
X249533102Y-169951102D01*
X249580721Y-169855864D01*
X249628340Y-169808245D01*
X249723578Y-169760626D01*
X249914054Y-169760626D01*
X250009292Y-169808245D01*
X250056911Y-169855864D01*
X250104530Y-169951102D01*
X250104530Y-170141578D01*
X250056911Y-170236816D01*
X250009292Y-170284435D01*
X249914054Y-170332054D01*
X249723578Y-170332054D01*
X249628340Y-170284435D01*
X249580721Y-170236816D01*
X249533102Y-170141578D01*
X231054530Y-167855864D02*
X230054530Y-167855864D01*
X230054530Y-168093959D01*
X230102150Y-168236816D01*
X230197388Y-168332054D01*
X230292626Y-168379673D01*
X230483102Y-168427292D01*
X230625959Y-168427292D01*
X230816435Y-168379673D01*
X230911673Y-168332054D01*
X231006911Y-168236816D01*
X231054530Y-168093959D01*
X231054530Y-167855864D01*
X230054530Y-168760626D02*
X230054530Y-169379673D01*
X230435483Y-169046340D01*
X230435483Y-169189197D01*
X230483102Y-169284435D01*
X230530721Y-169332054D01*
X230625959Y-169379673D01*
X230864054Y-169379673D01*
X230959292Y-169332054D01*
X231006911Y-169284435D01*
X231054530Y-169189197D01*
X231054530Y-168903483D01*
X231006911Y-168808245D01*
X230959292Y-168760626D01*
X230054530Y-169713007D02*
X230054530Y-170379673D01*
X231054530Y-169951102D01*
X212004530Y-167855864D02*
X211004530Y-167855864D01*
X211004530Y-168093959D01*
X211052150Y-168236816D01*
X211147388Y-168332054D01*
X211242626Y-168379673D01*
X211433102Y-168427292D01*
X211575959Y-168427292D01*
X211766435Y-168379673D01*
X211861673Y-168332054D01*
X211956911Y-168236816D01*
X212004530Y-168093959D01*
X212004530Y-167855864D01*
X211004530Y-168760626D02*
X211004530Y-169379673D01*
X211385483Y-169046340D01*
X211385483Y-169189197D01*
X211433102Y-169284435D01*
X211480721Y-169332054D01*
X211575959Y-169379673D01*
X211814054Y-169379673D01*
X211909292Y-169332054D01*
X211956911Y-169284435D01*
X212004530Y-169189197D01*
X212004530Y-168903483D01*
X211956911Y-168808245D01*
X211909292Y-168760626D01*
X211004530Y-170236816D02*
X211004530Y-170046340D01*
X211052150Y-169951102D01*
X211099769Y-169903483D01*
X211242626Y-169808245D01*
X211433102Y-169760626D01*
X211814054Y-169760626D01*
X211909292Y-169808245D01*
X211956911Y-169855864D01*
X212004530Y-169951102D01*
X212004530Y-170141578D01*
X211956911Y-170236816D01*
X211909292Y-170284435D01*
X211814054Y-170332054D01*
X211575959Y-170332054D01*
X211480721Y-170284435D01*
X211433102Y-170236816D01*
X211385483Y-170141578D01*
X211385483Y-169951102D01*
X211433102Y-169855864D01*
X211480721Y-169808245D01*
X211575959Y-169760626D01*
X192954530Y-167855864D02*
X191954530Y-167855864D01*
X191954530Y-168093959D01*
X192002150Y-168236816D01*
X192097388Y-168332054D01*
X192192626Y-168379673D01*
X192383102Y-168427292D01*
X192525959Y-168427292D01*
X192716435Y-168379673D01*
X192811673Y-168332054D01*
X192906911Y-168236816D01*
X192954530Y-168093959D01*
X192954530Y-167855864D01*
X191954530Y-168760626D02*
X191954530Y-169379673D01*
X192335483Y-169046340D01*
X192335483Y-169189197D01*
X192383102Y-169284435D01*
X192430721Y-169332054D01*
X192525959Y-169379673D01*
X192764054Y-169379673D01*
X192859292Y-169332054D01*
X192906911Y-169284435D01*
X192954530Y-169189197D01*
X192954530Y-168903483D01*
X192906911Y-168808245D01*
X192859292Y-168760626D01*
X191954530Y-170284435D02*
X191954530Y-169808245D01*
X192430721Y-169760626D01*
X192383102Y-169808245D01*
X192335483Y-169903483D01*
X192335483Y-170141578D01*
X192383102Y-170236816D01*
X192430721Y-170284435D01*
X192525959Y-170332054D01*
X192764054Y-170332054D01*
X192859292Y-170284435D01*
X192906911Y-170236816D01*
X192954530Y-170141578D01*
X192954530Y-169903483D01*
X192906911Y-169808245D01*
X192859292Y-169760626D01*
X173904530Y-167855864D02*
X172904530Y-167855864D01*
X172904530Y-168093959D01*
X172952150Y-168236816D01*
X173047388Y-168332054D01*
X173142626Y-168379673D01*
X173333102Y-168427292D01*
X173475959Y-168427292D01*
X173666435Y-168379673D01*
X173761673Y-168332054D01*
X173856911Y-168236816D01*
X173904530Y-168093959D01*
X173904530Y-167855864D01*
X172904530Y-168760626D02*
X172904530Y-169379673D01*
X173285483Y-169046340D01*
X173285483Y-169189197D01*
X173333102Y-169284435D01*
X173380721Y-169332054D01*
X173475959Y-169379673D01*
X173714054Y-169379673D01*
X173809292Y-169332054D01*
X173856911Y-169284435D01*
X173904530Y-169189197D01*
X173904530Y-168903483D01*
X173856911Y-168808245D01*
X173809292Y-168760626D01*
X173237864Y-170236816D02*
X173904530Y-170236816D01*
X172856911Y-169998721D02*
X173571197Y-169760626D01*
X173571197Y-170379673D01*
X154854530Y-167855864D02*
X153854530Y-167855864D01*
X153854530Y-168093959D01*
X153902150Y-168236816D01*
X153997388Y-168332054D01*
X154092626Y-168379673D01*
X154283102Y-168427292D01*
X154425959Y-168427292D01*
X154616435Y-168379673D01*
X154711673Y-168332054D01*
X154806911Y-168236816D01*
X154854530Y-168093959D01*
X154854530Y-167855864D01*
X153854530Y-168760626D02*
X153854530Y-169379673D01*
X154235483Y-169046340D01*
X154235483Y-169189197D01*
X154283102Y-169284435D01*
X154330721Y-169332054D01*
X154425959Y-169379673D01*
X154664054Y-169379673D01*
X154759292Y-169332054D01*
X154806911Y-169284435D01*
X154854530Y-169189197D01*
X154854530Y-168903483D01*
X154806911Y-168808245D01*
X154759292Y-168760626D01*
X153854530Y-169713007D02*
X153854530Y-170332054D01*
X154235483Y-169998721D01*
X154235483Y-170141578D01*
X154283102Y-170236816D01*
X154330721Y-170284435D01*
X154425959Y-170332054D01*
X154664054Y-170332054D01*
X154759292Y-170284435D01*
X154806911Y-170236816D01*
X154854530Y-170141578D01*
X154854530Y-169855864D01*
X154806911Y-169760626D01*
X154759292Y-169713007D01*
X135804530Y-167855864D02*
X134804530Y-167855864D01*
X134804530Y-168093959D01*
X134852150Y-168236816D01*
X134947388Y-168332054D01*
X135042626Y-168379673D01*
X135233102Y-168427292D01*
X135375959Y-168427292D01*
X135566435Y-168379673D01*
X135661673Y-168332054D01*
X135756911Y-168236816D01*
X135804530Y-168093959D01*
X135804530Y-167855864D01*
X134804530Y-168760626D02*
X134804530Y-169379673D01*
X135185483Y-169046340D01*
X135185483Y-169189197D01*
X135233102Y-169284435D01*
X135280721Y-169332054D01*
X135375959Y-169379673D01*
X135614054Y-169379673D01*
X135709292Y-169332054D01*
X135756911Y-169284435D01*
X135804530Y-169189197D01*
X135804530Y-168903483D01*
X135756911Y-168808245D01*
X135709292Y-168760626D01*
X134899769Y-169760626D02*
X134852150Y-169808245D01*
X134804530Y-169903483D01*
X134804530Y-170141578D01*
X134852150Y-170236816D01*
X134899769Y-170284435D01*
X134995007Y-170332054D01*
X135090245Y-170332054D01*
X135233102Y-170284435D01*
X135804530Y-169713007D01*
X135804530Y-170332054D01*
X116754530Y-167855864D02*
X115754530Y-167855864D01*
X115754530Y-168093959D01*
X115802150Y-168236816D01*
X115897388Y-168332054D01*
X115992626Y-168379673D01*
X116183102Y-168427292D01*
X116325959Y-168427292D01*
X116516435Y-168379673D01*
X116611673Y-168332054D01*
X116706911Y-168236816D01*
X116754530Y-168093959D01*
X116754530Y-167855864D01*
X115754530Y-168760626D02*
X115754530Y-169379673D01*
X116135483Y-169046340D01*
X116135483Y-169189197D01*
X116183102Y-169284435D01*
X116230721Y-169332054D01*
X116325959Y-169379673D01*
X116564054Y-169379673D01*
X116659292Y-169332054D01*
X116706911Y-169284435D01*
X116754530Y-169189197D01*
X116754530Y-168903483D01*
X116706911Y-168808245D01*
X116659292Y-168760626D01*
X116754530Y-170332054D02*
X116754530Y-169760626D01*
X116754530Y-170046340D02*
X115754530Y-170046340D01*
X115897388Y-169951102D01*
X115992626Y-169855864D01*
X116040245Y-169760626D01*
X113498280Y-167855864D02*
X112498280Y-167855864D01*
X112498280Y-168093959D01*
X112545900Y-168236816D01*
X112641138Y-168332054D01*
X112736376Y-168379673D01*
X112926852Y-168427292D01*
X113069709Y-168427292D01*
X113260185Y-168379673D01*
X113355423Y-168332054D01*
X113450661Y-168236816D01*
X113498280Y-168093959D01*
X113498280Y-167855864D01*
X112498280Y-168760626D02*
X112498280Y-169379673D01*
X112879233Y-169046340D01*
X112879233Y-169189197D01*
X112926852Y-169284435D01*
X112974471Y-169332054D01*
X113069709Y-169379673D01*
X113307804Y-169379673D01*
X113403042Y-169332054D01*
X113450661Y-169284435D01*
X113498280Y-169189197D01*
X113498280Y-168903483D01*
X113450661Y-168808245D01*
X113403042Y-168760626D01*
X112498280Y-169998721D02*
X112498280Y-170093959D01*
X112545900Y-170189197D01*
X112593519Y-170236816D01*
X112688757Y-170284435D01*
X112879233Y-170332054D01*
X113117328Y-170332054D01*
X113307804Y-170284435D01*
X113403042Y-170236816D01*
X113450661Y-170189197D01*
X113498280Y-170093959D01*
X113498280Y-169998721D01*
X113450661Y-169903483D01*
X113403042Y-169855864D01*
X113307804Y-169808245D01*
X113117328Y-169760626D01*
X112879233Y-169760626D01*
X112688757Y-169808245D01*
X112593519Y-169855864D01*
X112545900Y-169903483D01*
X112498280Y-169998721D01*
X340510780Y-147218364D02*
X339510780Y-147218364D01*
X339510780Y-147456459D01*
X339558400Y-147599316D01*
X339653638Y-147694554D01*
X339748876Y-147742173D01*
X339939352Y-147789792D01*
X340082209Y-147789792D01*
X340272685Y-147742173D01*
X340367923Y-147694554D01*
X340463161Y-147599316D01*
X340510780Y-147456459D01*
X340510780Y-147218364D01*
X339606019Y-148170745D02*
X339558400Y-148218364D01*
X339510780Y-148313602D01*
X339510780Y-148551697D01*
X339558400Y-148646935D01*
X339606019Y-148694554D01*
X339701257Y-148742173D01*
X339796495Y-148742173D01*
X339939352Y-148694554D01*
X340510780Y-148123126D01*
X340510780Y-148742173D01*
X340510780Y-149218364D02*
X340510780Y-149408840D01*
X340463161Y-149504078D01*
X340415542Y-149551697D01*
X340272685Y-149646935D01*
X340082209Y-149694554D01*
X339701257Y-149694554D01*
X339606019Y-149646935D01*
X339558400Y-149599316D01*
X339510780Y-149504078D01*
X339510780Y-149313602D01*
X339558400Y-149218364D01*
X339606019Y-149170745D01*
X339701257Y-149123126D01*
X339939352Y-149123126D01*
X340034590Y-149170745D01*
X340082209Y-149218364D01*
X340129828Y-149313602D01*
X340129828Y-149504078D01*
X340082209Y-149599316D01*
X340034590Y-149646935D01*
X339939352Y-149694554D01*
X321460780Y-147218364D02*
X320460780Y-147218364D01*
X320460780Y-147456459D01*
X320508400Y-147599316D01*
X320603638Y-147694554D01*
X320698876Y-147742173D01*
X320889352Y-147789792D01*
X321032209Y-147789792D01*
X321222685Y-147742173D01*
X321317923Y-147694554D01*
X321413161Y-147599316D01*
X321460780Y-147456459D01*
X321460780Y-147218364D01*
X320556019Y-148170745D02*
X320508400Y-148218364D01*
X320460780Y-148313602D01*
X320460780Y-148551697D01*
X320508400Y-148646935D01*
X320556019Y-148694554D01*
X320651257Y-148742173D01*
X320746495Y-148742173D01*
X320889352Y-148694554D01*
X321460780Y-148123126D01*
X321460780Y-148742173D01*
X320889352Y-149313602D02*
X320841733Y-149218364D01*
X320794114Y-149170745D01*
X320698876Y-149123126D01*
X320651257Y-149123126D01*
X320556019Y-149170745D01*
X320508400Y-149218364D01*
X320460780Y-149313602D01*
X320460780Y-149504078D01*
X320508400Y-149599316D01*
X320556019Y-149646935D01*
X320651257Y-149694554D01*
X320698876Y-149694554D01*
X320794114Y-149646935D01*
X320841733Y-149599316D01*
X320889352Y-149504078D01*
X320889352Y-149313602D01*
X320936971Y-149218364D01*
X320984590Y-149170745D01*
X321079828Y-149123126D01*
X321270304Y-149123126D01*
X321365542Y-149170745D01*
X321413161Y-149218364D01*
X321460780Y-149313602D01*
X321460780Y-149504078D01*
X321413161Y-149599316D01*
X321365542Y-149646935D01*
X321270304Y-149694554D01*
X321079828Y-149694554D01*
X320984590Y-149646935D01*
X320936971Y-149599316D01*
X320889352Y-149504078D01*
X302410780Y-147218364D02*
X301410780Y-147218364D01*
X301410780Y-147456459D01*
X301458400Y-147599316D01*
X301553638Y-147694554D01*
X301648876Y-147742173D01*
X301839352Y-147789792D01*
X301982209Y-147789792D01*
X302172685Y-147742173D01*
X302267923Y-147694554D01*
X302363161Y-147599316D01*
X302410780Y-147456459D01*
X302410780Y-147218364D01*
X301506019Y-148170745D02*
X301458400Y-148218364D01*
X301410780Y-148313602D01*
X301410780Y-148551697D01*
X301458400Y-148646935D01*
X301506019Y-148694554D01*
X301601257Y-148742173D01*
X301696495Y-148742173D01*
X301839352Y-148694554D01*
X302410780Y-148123126D01*
X302410780Y-148742173D01*
X301410780Y-149075507D02*
X301410780Y-149742173D01*
X302410780Y-149313602D01*
X283360780Y-147218364D02*
X282360780Y-147218364D01*
X282360780Y-147456459D01*
X282408400Y-147599316D01*
X282503638Y-147694554D01*
X282598876Y-147742173D01*
X282789352Y-147789792D01*
X282932209Y-147789792D01*
X283122685Y-147742173D01*
X283217923Y-147694554D01*
X283313161Y-147599316D01*
X283360780Y-147456459D01*
X283360780Y-147218364D01*
X282456019Y-148170745D02*
X282408400Y-148218364D01*
X282360780Y-148313602D01*
X282360780Y-148551697D01*
X282408400Y-148646935D01*
X282456019Y-148694554D01*
X282551257Y-148742173D01*
X282646495Y-148742173D01*
X282789352Y-148694554D01*
X283360780Y-148123126D01*
X283360780Y-148742173D01*
X282360780Y-149599316D02*
X282360780Y-149408840D01*
X282408400Y-149313602D01*
X282456019Y-149265983D01*
X282598876Y-149170745D01*
X282789352Y-149123126D01*
X283170304Y-149123126D01*
X283265542Y-149170745D01*
X283313161Y-149218364D01*
X283360780Y-149313602D01*
X283360780Y-149504078D01*
X283313161Y-149599316D01*
X283265542Y-149646935D01*
X283170304Y-149694554D01*
X282932209Y-149694554D01*
X282836971Y-149646935D01*
X282789352Y-149599316D01*
X282741733Y-149504078D01*
X282741733Y-149313602D01*
X282789352Y-149218364D01*
X282836971Y-149170745D01*
X282932209Y-149123126D01*
X264310780Y-147218364D02*
X263310780Y-147218364D01*
X263310780Y-147456459D01*
X263358400Y-147599316D01*
X263453638Y-147694554D01*
X263548876Y-147742173D01*
X263739352Y-147789792D01*
X263882209Y-147789792D01*
X264072685Y-147742173D01*
X264167923Y-147694554D01*
X264263161Y-147599316D01*
X264310780Y-147456459D01*
X264310780Y-147218364D01*
X263406019Y-148170745D02*
X263358400Y-148218364D01*
X263310780Y-148313602D01*
X263310780Y-148551697D01*
X263358400Y-148646935D01*
X263406019Y-148694554D01*
X263501257Y-148742173D01*
X263596495Y-148742173D01*
X263739352Y-148694554D01*
X264310780Y-148123126D01*
X264310780Y-148742173D01*
X263310780Y-149646935D02*
X263310780Y-149170745D01*
X263786971Y-149123126D01*
X263739352Y-149170745D01*
X263691733Y-149265983D01*
X263691733Y-149504078D01*
X263739352Y-149599316D01*
X263786971Y-149646935D01*
X263882209Y-149694554D01*
X264120304Y-149694554D01*
X264215542Y-149646935D01*
X264263161Y-149599316D01*
X264310780Y-149504078D01*
X264310780Y-149265983D01*
X264263161Y-149170745D01*
X264215542Y-149123126D01*
X245260780Y-147218364D02*
X244260780Y-147218364D01*
X244260780Y-147456459D01*
X244308400Y-147599316D01*
X244403638Y-147694554D01*
X244498876Y-147742173D01*
X244689352Y-147789792D01*
X244832209Y-147789792D01*
X245022685Y-147742173D01*
X245117923Y-147694554D01*
X245213161Y-147599316D01*
X245260780Y-147456459D01*
X245260780Y-147218364D01*
X244356019Y-148170745D02*
X244308400Y-148218364D01*
X244260780Y-148313602D01*
X244260780Y-148551697D01*
X244308400Y-148646935D01*
X244356019Y-148694554D01*
X244451257Y-148742173D01*
X244546495Y-148742173D01*
X244689352Y-148694554D01*
X245260780Y-148123126D01*
X245260780Y-148742173D01*
X244594114Y-149599316D02*
X245260780Y-149599316D01*
X244213161Y-149361221D02*
X244927447Y-149123126D01*
X244927447Y-149742173D01*
X226210780Y-147218364D02*
X225210780Y-147218364D01*
X225210780Y-147456459D01*
X225258400Y-147599316D01*
X225353638Y-147694554D01*
X225448876Y-147742173D01*
X225639352Y-147789792D01*
X225782209Y-147789792D01*
X225972685Y-147742173D01*
X226067923Y-147694554D01*
X226163161Y-147599316D01*
X226210780Y-147456459D01*
X226210780Y-147218364D01*
X225306019Y-148170745D02*
X225258400Y-148218364D01*
X225210780Y-148313602D01*
X225210780Y-148551697D01*
X225258400Y-148646935D01*
X225306019Y-148694554D01*
X225401257Y-148742173D01*
X225496495Y-148742173D01*
X225639352Y-148694554D01*
X226210780Y-148123126D01*
X226210780Y-148742173D01*
X225210780Y-149075507D02*
X225210780Y-149694554D01*
X225591733Y-149361221D01*
X225591733Y-149504078D01*
X225639352Y-149599316D01*
X225686971Y-149646935D01*
X225782209Y-149694554D01*
X226020304Y-149694554D01*
X226115542Y-149646935D01*
X226163161Y-149599316D01*
X226210780Y-149504078D01*
X226210780Y-149218364D01*
X226163161Y-149123126D01*
X226115542Y-149075507D01*
X206256019Y-149646935D02*
X207256019Y-149646935D01*
X207256019Y-149408840D01*
X207208400Y-149265983D01*
X207113161Y-149170745D01*
X207017923Y-149123126D01*
X206827447Y-149075507D01*
X206684590Y-149075507D01*
X206494114Y-149123126D01*
X206398876Y-149170745D01*
X206303638Y-149265983D01*
X206256019Y-149408840D01*
X206256019Y-149646935D01*
X207160780Y-148694554D02*
X207208400Y-148646935D01*
X207256019Y-148551697D01*
X207256019Y-148313602D01*
X207208400Y-148218364D01*
X207160780Y-148170745D01*
X207065542Y-148123126D01*
X206970304Y-148123126D01*
X206827447Y-148170745D01*
X206256019Y-148742173D01*
X206256019Y-148123126D01*
X207160780Y-147742173D02*
X207208400Y-147694554D01*
X207256019Y-147599316D01*
X207256019Y-147361221D01*
X207208400Y-147265983D01*
X207160780Y-147218364D01*
X207065542Y-147170745D01*
X206970304Y-147170745D01*
X206827447Y-147218364D01*
X206256019Y-147789792D01*
X206256019Y-147170745D01*
X188110780Y-147218364D02*
X187110780Y-147218364D01*
X187110780Y-147456459D01*
X187158400Y-147599316D01*
X187253638Y-147694554D01*
X187348876Y-147742173D01*
X187539352Y-147789792D01*
X187682209Y-147789792D01*
X187872685Y-147742173D01*
X187967923Y-147694554D01*
X188063161Y-147599316D01*
X188110780Y-147456459D01*
X188110780Y-147218364D01*
X187206019Y-148170745D02*
X187158400Y-148218364D01*
X187110780Y-148313602D01*
X187110780Y-148551697D01*
X187158400Y-148646935D01*
X187206019Y-148694554D01*
X187301257Y-148742173D01*
X187396495Y-148742173D01*
X187539352Y-148694554D01*
X188110780Y-148123126D01*
X188110780Y-148742173D01*
X188110780Y-149694554D02*
X188110780Y-149123126D01*
X188110780Y-149408840D02*
X187110780Y-149408840D01*
X187253638Y-149313602D01*
X187348876Y-149218364D01*
X187396495Y-149123126D01*
X169060780Y-147218364D02*
X168060780Y-147218364D01*
X168060780Y-147456459D01*
X168108400Y-147599316D01*
X168203638Y-147694554D01*
X168298876Y-147742173D01*
X168489352Y-147789792D01*
X168632209Y-147789792D01*
X168822685Y-147742173D01*
X168917923Y-147694554D01*
X169013161Y-147599316D01*
X169060780Y-147456459D01*
X169060780Y-147218364D01*
X168156019Y-148170745D02*
X168108400Y-148218364D01*
X168060780Y-148313602D01*
X168060780Y-148551697D01*
X168108400Y-148646935D01*
X168156019Y-148694554D01*
X168251257Y-148742173D01*
X168346495Y-148742173D01*
X168489352Y-148694554D01*
X169060780Y-148123126D01*
X169060780Y-148742173D01*
X168060780Y-149361221D02*
X168060780Y-149456459D01*
X168108400Y-149551697D01*
X168156019Y-149599316D01*
X168251257Y-149646935D01*
X168441733Y-149694554D01*
X168679828Y-149694554D01*
X168870304Y-149646935D01*
X168965542Y-149599316D01*
X169013161Y-149551697D01*
X169060780Y-149456459D01*
X169060780Y-149361221D01*
X169013161Y-149265983D01*
X168965542Y-149218364D01*
X168870304Y-149170745D01*
X168679828Y-149123126D01*
X168441733Y-149123126D01*
X168251257Y-149170745D01*
X168156019Y-149218364D01*
X168108400Y-149265983D01*
X168060780Y-149361221D01*
X150010780Y-147218364D02*
X149010780Y-147218364D01*
X149010780Y-147456459D01*
X149058400Y-147599316D01*
X149153638Y-147694554D01*
X149248876Y-147742173D01*
X149439352Y-147789792D01*
X149582209Y-147789792D01*
X149772685Y-147742173D01*
X149867923Y-147694554D01*
X149963161Y-147599316D01*
X150010780Y-147456459D01*
X150010780Y-147218364D01*
X150010780Y-148742173D02*
X150010780Y-148170745D01*
X150010780Y-148456459D02*
X149010780Y-148456459D01*
X149153638Y-148361221D01*
X149248876Y-148265983D01*
X149296495Y-148170745D01*
X150010780Y-149218364D02*
X150010780Y-149408840D01*
X149963161Y-149504078D01*
X149915542Y-149551697D01*
X149772685Y-149646935D01*
X149582209Y-149694554D01*
X149201257Y-149694554D01*
X149106019Y-149646935D01*
X149058400Y-149599316D01*
X149010780Y-149504078D01*
X149010780Y-149313602D01*
X149058400Y-149218364D01*
X149106019Y-149170745D01*
X149201257Y-149123126D01*
X149439352Y-149123126D01*
X149534590Y-149170745D01*
X149582209Y-149218364D01*
X149629828Y-149313602D01*
X149629828Y-149504078D01*
X149582209Y-149599316D01*
X149534590Y-149646935D01*
X149439352Y-149694554D01*
X130960780Y-147218364D02*
X129960780Y-147218364D01*
X129960780Y-147456459D01*
X130008400Y-147599316D01*
X130103638Y-147694554D01*
X130198876Y-147742173D01*
X130389352Y-147789792D01*
X130532209Y-147789792D01*
X130722685Y-147742173D01*
X130817923Y-147694554D01*
X130913161Y-147599316D01*
X130960780Y-147456459D01*
X130960780Y-147218364D01*
X130960780Y-148742173D02*
X130960780Y-148170745D01*
X130960780Y-148456459D02*
X129960780Y-148456459D01*
X130103638Y-148361221D01*
X130198876Y-148265983D01*
X130246495Y-148170745D01*
X130389352Y-149313602D02*
X130341733Y-149218364D01*
X130294114Y-149170745D01*
X130198876Y-149123126D01*
X130151257Y-149123126D01*
X130056019Y-149170745D01*
X130008400Y-149218364D01*
X129960780Y-149313602D01*
X129960780Y-149504078D01*
X130008400Y-149599316D01*
X130056019Y-149646935D01*
X130151257Y-149694554D01*
X130198876Y-149694554D01*
X130294114Y-149646935D01*
X130341733Y-149599316D01*
X130389352Y-149504078D01*
X130389352Y-149313602D01*
X130436971Y-149218364D01*
X130484590Y-149170745D01*
X130579828Y-149123126D01*
X130770304Y-149123126D01*
X130865542Y-149170745D01*
X130913161Y-149218364D01*
X130960780Y-149313602D01*
X130960780Y-149504078D01*
X130913161Y-149599316D01*
X130865542Y-149646935D01*
X130770304Y-149694554D01*
X130579828Y-149694554D01*
X130484590Y-149646935D01*
X130436971Y-149599316D01*
X130389352Y-149504078D01*
X111910780Y-147218364D02*
X110910780Y-147218364D01*
X110910780Y-147456459D01*
X110958400Y-147599316D01*
X111053638Y-147694554D01*
X111148876Y-147742173D01*
X111339352Y-147789792D01*
X111482209Y-147789792D01*
X111672685Y-147742173D01*
X111767923Y-147694554D01*
X111863161Y-147599316D01*
X111910780Y-147456459D01*
X111910780Y-147218364D01*
X111910780Y-148742173D02*
X111910780Y-148170745D01*
X111910780Y-148456459D02*
X110910780Y-148456459D01*
X111053638Y-148361221D01*
X111148876Y-148265983D01*
X111196495Y-148170745D01*
X110910780Y-149075507D02*
X110910780Y-149742173D01*
X111910780Y-149313602D01*
X108735780Y-147218364D02*
X107735780Y-147218364D01*
X107735780Y-147456459D01*
X107783400Y-147599316D01*
X107878638Y-147694554D01*
X107973876Y-147742173D01*
X108164352Y-147789792D01*
X108307209Y-147789792D01*
X108497685Y-147742173D01*
X108592923Y-147694554D01*
X108688161Y-147599316D01*
X108735780Y-147456459D01*
X108735780Y-147218364D01*
X108735780Y-148742173D02*
X108735780Y-148170745D01*
X108735780Y-148456459D02*
X107735780Y-148456459D01*
X107878638Y-148361221D01*
X107973876Y-148265983D01*
X108021495Y-148170745D01*
X107735780Y-149599316D02*
X107735780Y-149408840D01*
X107783400Y-149313602D01*
X107831019Y-149265983D01*
X107973876Y-149170745D01*
X108164352Y-149123126D01*
X108545304Y-149123126D01*
X108640542Y-149170745D01*
X108688161Y-149218364D01*
X108735780Y-149313602D01*
X108735780Y-149504078D01*
X108688161Y-149599316D01*
X108640542Y-149646935D01*
X108545304Y-149694554D01*
X108307209Y-149694554D01*
X108211971Y-149646935D01*
X108164352Y-149599316D01*
X108116733Y-149504078D01*
X108116733Y-149313602D01*
X108164352Y-149218364D01*
X108211971Y-149170745D01*
X108307209Y-149123126D01*
X362817030Y-147155864D02*
X361817030Y-147155864D01*
X361817030Y-147393959D01*
X361864650Y-147536816D01*
X361959888Y-147632054D01*
X362055126Y-147679673D01*
X362245602Y-147727292D01*
X362388459Y-147727292D01*
X362578935Y-147679673D01*
X362674173Y-147632054D01*
X362769411Y-147536816D01*
X362817030Y-147393959D01*
X362817030Y-147155864D01*
X362817030Y-148679673D02*
X362817030Y-148108245D01*
X362817030Y-148393959D02*
X361817030Y-148393959D01*
X361959888Y-148298721D01*
X362055126Y-148203483D01*
X362102745Y-148108245D01*
X361817030Y-149584435D02*
X361817030Y-149108245D01*
X362293221Y-149060626D01*
X362245602Y-149108245D01*
X362197983Y-149203483D01*
X362197983Y-149441578D01*
X362245602Y-149536816D01*
X362293221Y-149584435D01*
X362388459Y-149632054D01*
X362626554Y-149632054D01*
X362721792Y-149584435D01*
X362769411Y-149536816D01*
X362817030Y-149441578D01*
X362817030Y-149203483D01*
X362769411Y-149108245D01*
X362721792Y-149060626D01*
X330985780Y-128168364D02*
X329985780Y-128168364D01*
X329985780Y-128406459D01*
X330033400Y-128549316D01*
X330128638Y-128644554D01*
X330223876Y-128692173D01*
X330414352Y-128739792D01*
X330557209Y-128739792D01*
X330747685Y-128692173D01*
X330842923Y-128644554D01*
X330938161Y-128549316D01*
X330985780Y-128406459D01*
X330985780Y-128168364D01*
X330985780Y-129692173D02*
X330985780Y-129120745D01*
X330985780Y-129406459D02*
X329985780Y-129406459D01*
X330128638Y-129311221D01*
X330223876Y-129215983D01*
X330271495Y-129120745D01*
X330319114Y-130549316D02*
X330985780Y-130549316D01*
X329938161Y-130311221D02*
X330652447Y-130073126D01*
X330652447Y-130692173D01*
X311935780Y-128230864D02*
X310935780Y-128230864D01*
X310935780Y-128468959D01*
X310983400Y-128611816D01*
X311078638Y-128707054D01*
X311173876Y-128754673D01*
X311364352Y-128802292D01*
X311507209Y-128802292D01*
X311697685Y-128754673D01*
X311792923Y-128707054D01*
X311888161Y-128611816D01*
X311935780Y-128468959D01*
X311935780Y-128230864D01*
X311935780Y-129754673D02*
X311935780Y-129183245D01*
X311935780Y-129468959D02*
X310935780Y-129468959D01*
X311078638Y-129373721D01*
X311173876Y-129278483D01*
X311221495Y-129183245D01*
X310935780Y-130088007D02*
X310935780Y-130707054D01*
X311316733Y-130373721D01*
X311316733Y-130516578D01*
X311364352Y-130611816D01*
X311411971Y-130659435D01*
X311507209Y-130707054D01*
X311745304Y-130707054D01*
X311840542Y-130659435D01*
X311888161Y-130611816D01*
X311935780Y-130516578D01*
X311935780Y-130230864D01*
X311888161Y-130135626D01*
X311840542Y-130088007D01*
X292885780Y-128168364D02*
X291885780Y-128168364D01*
X291885780Y-128406459D01*
X291933400Y-128549316D01*
X292028638Y-128644554D01*
X292123876Y-128692173D01*
X292314352Y-128739792D01*
X292457209Y-128739792D01*
X292647685Y-128692173D01*
X292742923Y-128644554D01*
X292838161Y-128549316D01*
X292885780Y-128406459D01*
X292885780Y-128168364D01*
X292885780Y-129692173D02*
X292885780Y-129120745D01*
X292885780Y-129406459D02*
X291885780Y-129406459D01*
X292028638Y-129311221D01*
X292123876Y-129215983D01*
X292171495Y-129120745D01*
X291981019Y-130073126D02*
X291933400Y-130120745D01*
X291885780Y-130215983D01*
X291885780Y-130454078D01*
X291933400Y-130549316D01*
X291981019Y-130596935D01*
X292076257Y-130644554D01*
X292171495Y-130644554D01*
X292314352Y-130596935D01*
X292885780Y-130025507D01*
X292885780Y-130644554D01*
X273835780Y-128168364D02*
X272835780Y-128168364D01*
X272835780Y-128406459D01*
X272883400Y-128549316D01*
X272978638Y-128644554D01*
X273073876Y-128692173D01*
X273264352Y-128739792D01*
X273407209Y-128739792D01*
X273597685Y-128692173D01*
X273692923Y-128644554D01*
X273788161Y-128549316D01*
X273835780Y-128406459D01*
X273835780Y-128168364D01*
X273835780Y-129692173D02*
X273835780Y-129120745D01*
X273835780Y-129406459D02*
X272835780Y-129406459D01*
X272978638Y-129311221D01*
X273073876Y-129215983D01*
X273121495Y-129120745D01*
X273835780Y-130644554D02*
X273835780Y-130073126D01*
X273835780Y-130358840D02*
X272835780Y-130358840D01*
X272978638Y-130263602D01*
X273073876Y-130168364D01*
X273121495Y-130073126D01*
X254785780Y-128230864D02*
X253785780Y-128230864D01*
X253785780Y-128468959D01*
X253833400Y-128611816D01*
X253928638Y-128707054D01*
X254023876Y-128754673D01*
X254214352Y-128802292D01*
X254357209Y-128802292D01*
X254547685Y-128754673D01*
X254642923Y-128707054D01*
X254738161Y-128611816D01*
X254785780Y-128468959D01*
X254785780Y-128230864D01*
X254785780Y-129754673D02*
X254785780Y-129183245D01*
X254785780Y-129468959D02*
X253785780Y-129468959D01*
X253928638Y-129373721D01*
X254023876Y-129278483D01*
X254071495Y-129183245D01*
X253785780Y-130373721D02*
X253785780Y-130468959D01*
X253833400Y-130564197D01*
X253881019Y-130611816D01*
X253976257Y-130659435D01*
X254166733Y-130707054D01*
X254404828Y-130707054D01*
X254595304Y-130659435D01*
X254690542Y-130611816D01*
X254738161Y-130564197D01*
X254785780Y-130468959D01*
X254785780Y-130373721D01*
X254738161Y-130278483D01*
X254690542Y-130230864D01*
X254595304Y-130183245D01*
X254404828Y-130135626D01*
X254166733Y-130135626D01*
X253976257Y-130183245D01*
X253881019Y-130230864D01*
X253833400Y-130278483D01*
X253785780Y-130373721D01*
X235735780Y-128644554D02*
X234735780Y-128644554D01*
X234735780Y-128882650D01*
X234783400Y-129025507D01*
X234878638Y-129120745D01*
X234973876Y-129168364D01*
X235164352Y-129215983D01*
X235307209Y-129215983D01*
X235497685Y-129168364D01*
X235592923Y-129120745D01*
X235688161Y-129025507D01*
X235735780Y-128882650D01*
X235735780Y-128644554D01*
X235735780Y-129692173D02*
X235735780Y-129882650D01*
X235688161Y-129977888D01*
X235640542Y-130025507D01*
X235497685Y-130120745D01*
X235307209Y-130168364D01*
X234926257Y-130168364D01*
X234831019Y-130120745D01*
X234783400Y-130073126D01*
X234735780Y-129977888D01*
X234735780Y-129787411D01*
X234783400Y-129692173D01*
X234831019Y-129644554D01*
X234926257Y-129596935D01*
X235164352Y-129596935D01*
X235259590Y-129644554D01*
X235307209Y-129692173D01*
X235354828Y-129787411D01*
X235354828Y-129977888D01*
X235307209Y-130073126D01*
X235259590Y-130120745D01*
X235164352Y-130168364D01*
X216685780Y-128644554D02*
X215685780Y-128644554D01*
X215685780Y-128882650D01*
X215733400Y-129025507D01*
X215828638Y-129120745D01*
X215923876Y-129168364D01*
X216114352Y-129215983D01*
X216257209Y-129215983D01*
X216447685Y-129168364D01*
X216542923Y-129120745D01*
X216638161Y-129025507D01*
X216685780Y-128882650D01*
X216685780Y-128644554D01*
X216114352Y-129787411D02*
X216066733Y-129692173D01*
X216019114Y-129644554D01*
X215923876Y-129596935D01*
X215876257Y-129596935D01*
X215781019Y-129644554D01*
X215733400Y-129692173D01*
X215685780Y-129787411D01*
X215685780Y-129977888D01*
X215733400Y-130073126D01*
X215781019Y-130120745D01*
X215876257Y-130168364D01*
X215923876Y-130168364D01*
X216019114Y-130120745D01*
X216066733Y-130073126D01*
X216114352Y-129977888D01*
X216114352Y-129787411D01*
X216161971Y-129692173D01*
X216209590Y-129644554D01*
X216304828Y-129596935D01*
X216495304Y-129596935D01*
X216590542Y-129644554D01*
X216638161Y-129692173D01*
X216685780Y-129787411D01*
X216685780Y-129977888D01*
X216638161Y-130073126D01*
X216590542Y-130120745D01*
X216495304Y-130168364D01*
X216304828Y-130168364D01*
X216209590Y-130120745D01*
X216161971Y-130073126D01*
X216114352Y-129977888D01*
X196731019Y-130183245D02*
X197731019Y-130183245D01*
X197731019Y-129945150D01*
X197683400Y-129802292D01*
X197588161Y-129707054D01*
X197492923Y-129659435D01*
X197302447Y-129611816D01*
X197159590Y-129611816D01*
X196969114Y-129659435D01*
X196873876Y-129707054D01*
X196778638Y-129802292D01*
X196731019Y-129945150D01*
X196731019Y-130183245D01*
X197731019Y-129278483D02*
X197731019Y-128611816D01*
X196731019Y-129040388D01*
X178585780Y-128644554D02*
X177585780Y-128644554D01*
X177585780Y-128882650D01*
X177633400Y-129025507D01*
X177728638Y-129120745D01*
X177823876Y-129168364D01*
X178014352Y-129215983D01*
X178157209Y-129215983D01*
X178347685Y-129168364D01*
X178442923Y-129120745D01*
X178538161Y-129025507D01*
X178585780Y-128882650D01*
X178585780Y-128644554D01*
X177585780Y-130073126D02*
X177585780Y-129882650D01*
X177633400Y-129787411D01*
X177681019Y-129739792D01*
X177823876Y-129644554D01*
X178014352Y-129596935D01*
X178395304Y-129596935D01*
X178490542Y-129644554D01*
X178538161Y-129692173D01*
X178585780Y-129787411D01*
X178585780Y-129977888D01*
X178538161Y-130073126D01*
X178490542Y-130120745D01*
X178395304Y-130168364D01*
X178157209Y-130168364D01*
X178061971Y-130120745D01*
X178014352Y-130073126D01*
X177966733Y-129977888D01*
X177966733Y-129787411D01*
X178014352Y-129692173D01*
X178061971Y-129644554D01*
X178157209Y-129596935D01*
X158631019Y-130120745D02*
X159631019Y-130120745D01*
X159631019Y-129882650D01*
X159583400Y-129739792D01*
X159488161Y-129644554D01*
X159392923Y-129596935D01*
X159202447Y-129549316D01*
X159059590Y-129549316D01*
X158869114Y-129596935D01*
X158773876Y-129644554D01*
X158678638Y-129739792D01*
X158631019Y-129882650D01*
X158631019Y-130120745D01*
X159631019Y-128644554D02*
X159631019Y-129120745D01*
X159154828Y-129168364D01*
X159202447Y-129120745D01*
X159250066Y-129025507D01*
X159250066Y-128787411D01*
X159202447Y-128692173D01*
X159154828Y-128644554D01*
X159059590Y-128596935D01*
X158821495Y-128596935D01*
X158726257Y-128644554D01*
X158678638Y-128692173D01*
X158631019Y-128787411D01*
X158631019Y-129025507D01*
X158678638Y-129120745D01*
X158726257Y-129168364D01*
X140485780Y-128644554D02*
X139485780Y-128644554D01*
X139485780Y-128882650D01*
X139533400Y-129025507D01*
X139628638Y-129120745D01*
X139723876Y-129168364D01*
X139914352Y-129215983D01*
X140057209Y-129215983D01*
X140247685Y-129168364D01*
X140342923Y-129120745D01*
X140438161Y-129025507D01*
X140485780Y-128882650D01*
X140485780Y-128644554D01*
X139819114Y-130073126D02*
X140485780Y-130073126D01*
X139438161Y-129835030D02*
X140152447Y-129596935D01*
X140152447Y-130215983D01*
X120531019Y-130120745D02*
X121531019Y-130120745D01*
X121531019Y-129882650D01*
X121483400Y-129739792D01*
X121388161Y-129644554D01*
X121292923Y-129596935D01*
X121102447Y-129549316D01*
X120959590Y-129549316D01*
X120769114Y-129596935D01*
X120673876Y-129644554D01*
X120578638Y-129739792D01*
X120531019Y-129882650D01*
X120531019Y-130120745D01*
X121531019Y-129215983D02*
X121531019Y-128596935D01*
X121150066Y-128930269D01*
X121150066Y-128787411D01*
X121102447Y-128692173D01*
X121054828Y-128644554D01*
X120959590Y-128596935D01*
X120721495Y-128596935D01*
X120626257Y-128644554D01*
X120578638Y-128692173D01*
X120531019Y-128787411D01*
X120531019Y-129073126D01*
X120578638Y-129168364D01*
X120626257Y-129215983D01*
X118342030Y-128707054D02*
X117342030Y-128707054D01*
X117342030Y-128945150D01*
X117389650Y-129088007D01*
X117484888Y-129183245D01*
X117580126Y-129230864D01*
X117770602Y-129278483D01*
X117913459Y-129278483D01*
X118103935Y-129230864D01*
X118199173Y-129183245D01*
X118294411Y-129088007D01*
X118342030Y-128945150D01*
X118342030Y-128707054D01*
X117437269Y-129659435D02*
X117389650Y-129707054D01*
X117342030Y-129802292D01*
X117342030Y-130040388D01*
X117389650Y-130135626D01*
X117437269Y-130183245D01*
X117532507Y-130230864D01*
X117627745Y-130230864D01*
X117770602Y-130183245D01*
X118342030Y-129611816D01*
X118342030Y-130230864D01*
X172665542Y-203178483D02*
X172713161Y-203130864D01*
X172760780Y-202988007D01*
X172760780Y-202892769D01*
X172713161Y-202749911D01*
X172617923Y-202654673D01*
X172522685Y-202607054D01*
X172332209Y-202559435D01*
X172189352Y-202559435D01*
X171998876Y-202607054D01*
X171903638Y-202654673D01*
X171808400Y-202749911D01*
X171760780Y-202892769D01*
X171760780Y-202988007D01*
X171808400Y-203130864D01*
X171856019Y-203178483D01*
X171760780Y-203511816D02*
X171760780Y-204178483D01*
X172760780Y-203749911D01*
X193700066Y-192508542D02*
X193747685Y-192556161D01*
X193890542Y-192603780D01*
X193985780Y-192603780D01*
X194128638Y-192556161D01*
X194223876Y-192460923D01*
X194271495Y-192365685D01*
X194319114Y-192175209D01*
X194319114Y-192032352D01*
X194271495Y-191841876D01*
X194223876Y-191746638D01*
X194128638Y-191651400D01*
X193985780Y-191603780D01*
X193890542Y-191603780D01*
X193747685Y-191651400D01*
X193700066Y-191699019D01*
X192795304Y-191603780D02*
X193271495Y-191603780D01*
X193319114Y-192079971D01*
X193271495Y-192032352D01*
X193176257Y-191984733D01*
X192938161Y-191984733D01*
X192842923Y-192032352D01*
X192795304Y-192079971D01*
X192747685Y-192175209D01*
X192747685Y-192413304D01*
X192795304Y-192508542D01*
X192842923Y-192556161D01*
X192938161Y-192603780D01*
X193176257Y-192603780D01*
X193271495Y-192556161D01*
X193319114Y-192508542D01*
X191606316Y-193177292D02*
X191653935Y-193224911D01*
X191796792Y-193272530D01*
X191892030Y-193272530D01*
X192034888Y-193224911D01*
X192130126Y-193129673D01*
X192177745Y-193034435D01*
X192225364Y-192843959D01*
X192225364Y-192701102D01*
X192177745Y-192510626D01*
X192130126Y-192415388D01*
X192034888Y-192320150D01*
X191892030Y-192272530D01*
X191796792Y-192272530D01*
X191653935Y-192320150D01*
X191606316Y-192367769D01*
X191272983Y-192272530D02*
X190653935Y-192272530D01*
X190987269Y-192653483D01*
X190844411Y-192653483D01*
X190749173Y-192701102D01*
X190701554Y-192748721D01*
X190653935Y-192843959D01*
X190653935Y-193082054D01*
X190701554Y-193177292D01*
X190749173Y-193224911D01*
X190844411Y-193272530D01*
X191130126Y-193272530D01*
X191225364Y-193224911D01*
X191272983Y-193177292D01*
X191606316Y-204414792D02*
X191653935Y-204462411D01*
X191796792Y-204510030D01*
X191892030Y-204510030D01*
X192034888Y-204462411D01*
X192130126Y-204367173D01*
X192177745Y-204271935D01*
X192225364Y-204081459D01*
X192225364Y-203938602D01*
X192177745Y-203748126D01*
X192130126Y-203652888D01*
X192034888Y-203557650D01*
X191892030Y-203510030D01*
X191796792Y-203510030D01*
X191653935Y-203557650D01*
X191606316Y-203605269D01*
X191225364Y-203605269D02*
X191177745Y-203557650D01*
X191082507Y-203510030D01*
X190844411Y-203510030D01*
X190749173Y-203557650D01*
X190701554Y-203605269D01*
X190653935Y-203700507D01*
X190653935Y-203795745D01*
X190701554Y-203938602D01*
X191272983Y-204510030D01*
X190653935Y-204510030D01*
X183381316Y-209177292D02*
X183428935Y-209224911D01*
X183571792Y-209272530D01*
X183667030Y-209272530D01*
X183809888Y-209224911D01*
X183905126Y-209129673D01*
X183952745Y-209034435D01*
X184000364Y-208843959D01*
X184000364Y-208701102D01*
X183952745Y-208510626D01*
X183905126Y-208415388D01*
X183809888Y-208320150D01*
X183667030Y-208272530D01*
X183571792Y-208272530D01*
X183428935Y-208320150D01*
X183381316Y-208367769D01*
X182428935Y-209272530D02*
X183000364Y-209272530D01*
X182714650Y-209272530D02*
X182714650Y-208272530D01*
X182809888Y-208415388D01*
X182905126Y-208510626D01*
X183000364Y-208558245D01*
M02*
