M48
; DRILL file {KiCad (5.1.10)-1} date 11/03/21 16:41:28
; FORMAT={-:-/ absolute / inch / decimal}
; #@! TF.CreationDate,2021-11-03T16:41:28+11:00
; #@! TF.GenerationSoftware,Kicad,Pcbnew,(5.1.10)-1
; #@! TF.FileFunction,NonPlated,1,2,NPTH
FMAT,2
INCH
T1C0.0256
T2C0.0689
T3C0.1200
T4C0.1570
%
G90
G05
T1
X3.7544Y-4.8766
X3.9819Y-4.8766
T2
X3.2998Y-5.0622
X3.3906Y-6.5626
X3.3906Y-8.0626
X3.4844Y-5.8126
X3.4844Y-8.0626
X3.5781Y-6.5626
X3.6998Y-5.0622
X3.7656Y-7.3126
X3.7906Y-6.5626
X3.7906Y-8.0626
X3.8844Y-5.8126
X3.8844Y-8.0626
X3.9781Y-6.5626
X4.0469Y-5.0626
X4.1656Y-7.3126
X4.2344Y-8.0626
X4.3281Y-8.0626
X4.4219Y-5.8126
X4.4469Y-5.0626
X4.6094Y-6.5626
X4.6344Y-8.0626
X4.7281Y-8.0626
X4.7969Y-5.0626
X4.8219Y-5.8126
X4.9844Y-7.3126
X5.0094Y-6.5626
X5.1719Y-5.8126
X5.1969Y-5.0626
X5.2656Y-8.0626
X5.3594Y-6.5626
X5.3594Y-8.0626
X5.3844Y-7.3126
X5.5469Y-5.0626
X5.5719Y-5.8126
X5.6656Y-8.0626
X5.7344Y-7.3126
X5.7594Y-6.5626
X5.7594Y-8.0626
X5.9219Y-5.8126
X5.9469Y-5.0626
X6.1094Y-6.5626
X6.1344Y-7.3126
X6.2969Y-5.0626
X6.3219Y-5.8126
X6.4876Y-7.3126
X6.5094Y-6.5626
X6.6719Y-5.8126
X6.6969Y-5.0626
X6.8594Y-6.5626
X6.8876Y-7.3126
X7.0469Y-5.0626
X7.0719Y-5.8126
X7.2344Y-7.3126
X7.2594Y-6.5626
X7.4219Y-5.8126
X7.4469Y-5.0626
X7.6094Y-6.5626
X7.6344Y-7.3126
X7.7969Y-5.0626
X7.8219Y-5.8126
X7.9844Y-7.3126
X8.0094Y-6.5626
X8.0781Y-8.0626
X8.1719Y-5.8126
X8.1969Y-5.0626
X8.3594Y-6.5626
X8.3844Y-7.3126
X8.4781Y-8.0626
X8.5469Y-5.0626
X8.5469Y-8.0626
X8.5719Y-5.8126
X8.7344Y-7.3126
X8.7594Y-6.5626
X8.9219Y-5.8126
X8.9469Y-5.0626
X8.9469Y-8.0626
X9.1094Y-6.5626
X9.1344Y-7.3126
X9.2969Y-5.0626
X9.3219Y-5.8126
X9.4844Y-7.3126
X9.5094Y-6.5626
X9.6719Y-5.8126
X9.6969Y-5.0626
X9.8594Y-6.5626
X9.8844Y-7.3126
X10.0469Y-5.0626
X10.0719Y-5.8126
X10.2344Y-7.3126
X10.2594Y-6.5626
X10.4219Y-5.8126
X10.4469Y-5.0626
X10.6094Y-6.5626
X10.6344Y-7.3126
X10.7969Y-5.0626
X10.8219Y-5.8126
X10.8906Y-8.0626
X10.9844Y-7.3126
X11.0094Y-6.5626
X11.1719Y-5.8126
X11.1969Y-5.0626
X11.2906Y-8.0626
X11.3594Y-6.5626
X11.3844Y-7.3126
X11.5469Y-5.0626
X11.5719Y-5.8126
X11.7344Y-7.3126
X11.7344Y-8.0626
X11.7594Y-6.5626
X11.8281Y-8.0626
X11.9219Y-5.8126
X11.9469Y-5.0626
X12.1094Y-6.5626
X12.1344Y-7.3126
X12.1344Y-8.0626
X12.2281Y-8.0626
X12.2969Y-5.0626
X12.3219Y-5.8126
X12.5094Y-6.5626
X12.6719Y-5.8126
X12.6719Y-8.0626
X12.6969Y-5.0626
X12.7656Y-7.3126
X12.7656Y-8.0626
X13.0469Y-5.0626
X13.0719Y-5.8126
X13.0719Y-8.0626
X13.1406Y-7.3126
X13.1656Y-7.3126
X13.1656Y-8.0626
X13.3281Y-6.5626
X13.4219Y-5.0626
X13.4469Y-5.0626
X13.5406Y-7.3126
X13.6094Y-5.8126
X13.6094Y-8.0626
X13.7031Y-8.0626
X13.7281Y-6.5626
X13.7969Y-5.0626
X13.7969Y-7.3126
X13.8219Y-5.0626
X14.0094Y-5.8126
X14.0094Y-8.0626
X14.1031Y-8.0626
X14.1969Y-5.0626
X14.1969Y-7.3126
T3
X3.4969Y-7.0376
X4.4344Y-7.0376
X6.3096Y-8.3376
X6.4969Y-8.3376
X10.2466Y-8.3376
X10.9969Y-8.3376
X12.8719Y-7.0376
X13.0594Y-6.2876
X13.1531Y-4.7876
X13.8094Y-7.0376
X13.9969Y-6.2876
X14.0906Y-4.7876
T4
X3.4969Y-7.6376
X3.4998Y-5.0622
X3.5906Y-6.5626
X3.5906Y-8.0626
X3.6844Y-5.8126
X3.6844Y-8.0626
X3.7781Y-6.5626
X3.9656Y-7.3126
X4.2469Y-5.0626
X4.4344Y-7.6376
X4.4344Y-8.0626
X4.5281Y-8.0626
X4.6219Y-5.8126
X4.8094Y-6.5626
X4.9969Y-5.0626
X5.1844Y-7.3126
X5.3719Y-5.8126
X5.4656Y-8.0626
X5.5594Y-6.5626
X5.5594Y-8.0626
X5.7469Y-5.0626
X5.9344Y-7.3126
X6.1219Y-5.8126
X6.3094Y-6.5626
X6.3096Y-7.7376
X6.4969Y-5.0626
X6.4969Y-7.7376
X6.6876Y-7.3126
X6.8719Y-5.8126
X7.0594Y-6.5626
X7.2469Y-5.0626
X7.4344Y-7.3126
X7.6219Y-5.8126
X7.8094Y-6.5626
X7.9969Y-5.0626
X8.1844Y-7.3126
X8.2781Y-8.0626
X8.3719Y-5.8126
X8.5594Y-6.5626
X8.7469Y-5.0626
X8.7469Y-8.0626
X8.9344Y-7.3126
X9.1219Y-5.8126
X9.3094Y-6.5626
X9.4969Y-5.0626
X9.6844Y-7.3126
X9.8719Y-5.8126
X10.0594Y-6.5626
X10.2466Y-7.7376
X10.2469Y-5.0626
X10.4344Y-7.3126
X10.6219Y-5.8126
X10.8094Y-6.5626
X10.9969Y-5.0626
X10.9969Y-7.7376
X11.0906Y-8.0626
X11.1844Y-7.3126
X11.3719Y-5.8126
X11.5594Y-6.5626
X11.7469Y-5.0626
X11.9344Y-7.3126
X11.9344Y-8.0626
X12.0281Y-8.0626
X12.1219Y-5.8126
X12.3094Y-6.5626
X12.4969Y-5.0626
X12.8719Y-5.8126
X12.8719Y-7.6376
X12.8719Y-8.0626
X12.9656Y-7.3126
X12.9656Y-8.0626
X13.0594Y-6.8876
X13.1531Y-5.3876
X13.2469Y-5.0626
X13.3406Y-7.3126
X13.5281Y-6.5626
X13.6219Y-5.0626
X13.8094Y-5.8126
X13.8094Y-7.6376
X13.8094Y-8.0626
X13.9031Y-8.0626
X13.9969Y-5.0626
X13.9969Y-6.8876
X13.9969Y-7.3126
X14.0906Y-5.3876
T0
M30
