M48
; DRILL file {KiCad (5.1.10)-1} date 11/03/21 16:41:28
; FORMAT={-:-/ absolute / inch / decimal}
; #@! TF.CreationDate,2021-11-03T16:41:28+11:00
; #@! TF.GenerationSoftware,Kicad,Pcbnew,(5.1.10)-1
; #@! TF.FileFunction,Plated,1,2,PTH
FMAT,2
INCH
T1C0.0157
T2C0.0236
T3C0.0579
%
G90
G05
T1
X3.3126Y-5.5626
X3.3126Y-7.5001
X3.7252Y-5.5193
X3.7256Y-5.4544
X3.765Y-5.1067
X3.8047Y-4.9913
X3.8052Y-5.3004
X3.8587Y-5.0182
X3.9063Y-5.0634
X3.9159Y-5.0191
X3.9335Y-4.9838
X3.9376Y-7.7813
X3.9504Y-5.2796
X3.9532Y-5.519
X3.9779Y-5.1158
X4.0426Y-5.3729
X4.0938Y-7.8438
X4.1563Y-8.1876
X4.2501Y-5.7501
X4.3126Y-6.9063
X4.7188Y-5.2501
X4.9376Y-8.1563
X5.0001Y-6.9376
X5.1876Y-8.1563
X5.6876Y-7.5313
X5.7501Y-7.5001
X5.8751Y-6.0001
X5.8751Y-7.5313
X5.8929Y-7.6418
X5.8941Y-7.5991
X6.1251Y-6.8126
X6.1251Y-7.4688
X6.1563Y-7.5001
X6.2311Y-7.5989
X6.2363Y-7.6449
X6.2501Y-7.5313
X6.4376Y-7.5313
X6.5001Y-7.5938
X6.5938Y-7.8126
X6.5938Y-8.1251
X6.6251Y-7.6563
X6.6251Y-8.0001
X6.6563Y-8.1563
X6.6563Y-8.2813
X6.6569Y-8.2414
X6.7188Y-7.5313
X6.7188Y-8.1876
X6.8751Y-8.3013
X7.0313Y-7.4688
X7.0892Y-7.4017
X7.0912Y-8.3013
X7.0969Y-7.5313
X7.1251Y-7.5001
X7.1251Y-8.2813
X7.1876Y-8.2188
X7.2188Y-7.5001
X7.2813Y-7.5313
X7.687Y-7.5933
X7.7501Y-7.5626
X7.7501Y-8.1563
X8.0626Y-8.2501
X11.0313Y-7.5001
X11.6563Y-7.5313
X11.9688Y-7.5626
X12.6563Y-7.5938
X13.5313Y-8.2501
T3
X3.3498Y-4.9622
X3.4406Y-6.4626
X3.4406Y-7.9626
X3.5344Y-5.7126
X3.5344Y-7.9626
X3.5998Y-4.8622
X3.6281Y-6.4626
X3.6906Y-6.3626
X3.6906Y-7.8626
X3.7844Y-5.6126
X3.7844Y-7.8626
X3.8156Y-7.2126
X3.8781Y-6.3626
X4.0656Y-7.1126
X4.0969Y-4.9626
X4.2844Y-7.9626
X4.3469Y-4.8626
X4.3781Y-7.9626
X4.4719Y-5.7126
X4.5344Y-7.8626
X4.6281Y-7.8626
X4.6594Y-6.4626
X4.7219Y-5.6126
X4.8469Y-4.9626
X4.9094Y-6.3626
X5.0344Y-7.2126
X5.0969Y-4.8626
X5.2219Y-5.7126
X5.2844Y-7.1126
X5.3156Y-7.9626
X5.4094Y-6.4626
X5.4094Y-7.9626
X5.4719Y-5.6126
X5.5656Y-7.8626
X5.5969Y-4.9626
X5.6594Y-6.3626
X5.6594Y-7.8626
X5.7844Y-7.2126
X5.8469Y-4.8626
X5.9719Y-5.7126
X6.0344Y-7.1126
X6.1594Y-6.4626
X6.2219Y-5.6126
X6.3469Y-4.9626
X6.4094Y-6.3626
X6.5376Y-7.2126
X6.5969Y-4.8626
X6.7219Y-5.7126
X6.7876Y-7.1126
X6.9094Y-6.4626
X6.9719Y-5.6126
X7.0969Y-4.9626
X7.1594Y-6.3626
X7.2844Y-7.2126
X7.3469Y-4.8626
X7.4719Y-5.7126
X7.5344Y-7.1126
X7.6594Y-6.4626
X7.7219Y-5.6126
X7.8469Y-4.9626
X7.9094Y-6.3626
X8.0344Y-7.2126
X8.0969Y-4.8626
X8.1281Y-7.9626
X8.2219Y-5.7126
X8.2844Y-7.1126
X8.3781Y-7.8626
X8.4094Y-6.4626
X8.4719Y-5.6126
X8.5969Y-4.9626
X8.5969Y-7.9626
X8.6594Y-6.3626
X8.7844Y-7.2126
X8.8469Y-4.8626
X8.8469Y-7.8626
X8.9719Y-5.7126
X9.0344Y-7.1126
X9.1594Y-6.4626
X9.2219Y-5.6126
X9.3469Y-4.9626
X9.4094Y-6.3626
X9.5344Y-7.2126
X9.5969Y-4.8626
X9.7219Y-5.7126
X9.7844Y-7.1126
X9.9094Y-6.4626
X9.9719Y-5.6126
X10.0969Y-4.9626
X10.1594Y-6.3626
X10.2844Y-7.2126
X10.3469Y-4.8626
X10.4719Y-5.7126
X10.5344Y-7.1126
X10.6594Y-6.4626
X10.7219Y-5.6126
X10.8469Y-4.9626
X10.9094Y-6.3626
X10.9406Y-7.9626
X11.0344Y-7.2126
X11.0969Y-4.8626
X11.1906Y-7.8626
X11.2219Y-5.7126
X11.2844Y-7.1126
X11.4094Y-6.4626
X11.4719Y-5.6126
X11.5969Y-4.9626
X11.6594Y-6.3626
X11.7844Y-7.2126
X11.7844Y-7.9626
X11.8469Y-4.8626
X11.8781Y-7.9626
X11.9719Y-5.7126
X12.0344Y-7.1126
X12.0344Y-7.8626
X12.1281Y-7.8626
X12.1594Y-6.4626
X12.2219Y-5.6126
X12.3469Y-4.9626
X12.4094Y-6.3626
X12.5969Y-4.8626
X12.7219Y-5.7126
X12.7219Y-7.9626
X12.8156Y-7.2126
X12.8156Y-7.9626
X12.9719Y-5.6126
X12.9719Y-7.8626
X13.0656Y-7.1126
X13.0656Y-7.8626
X13.0969Y-4.9626
X13.1906Y-7.2126
X13.3469Y-4.8626
X13.3781Y-6.4626
X13.4406Y-7.1126
X13.4719Y-4.9626
X13.6281Y-6.3626
X13.6594Y-5.7126
X13.6594Y-7.9626
X13.7219Y-4.8626
X13.7531Y-7.9626
X13.8469Y-4.9626
X13.8469Y-7.2126
X13.9094Y-5.6126
X13.9094Y-7.8626
X14.0031Y-7.8626
X14.0969Y-4.8626
X14.0969Y-7.1126
T2
G00X3.6981Y-4.7211
M15
G01X3.6981Y-4.7447
M16
G05
G00X3.6981Y-4.8758
M15
G01X3.6981Y-4.9191
M16
G05
G00X4.0382Y-4.7211
M15
G01X4.0382Y-4.7447
M16
G05
G00X4.0382Y-4.8758
M15
G01X4.0382Y-4.9191
M16
G05
T0
M30
