G04 #@! TF.GenerationSoftware,KiCad,Pcbnew,(5.1.10)-1*
G04 #@! TF.CreationDate,2021-11-03T16:41:44+11:00*
G04 #@! TF.ProjectId,x60,7836302e-6b69-4636-9164-5f7063625858,rev?*
G04 #@! TF.SameCoordinates,Original*
G04 #@! TF.FileFunction,Paste,Bot*
G04 #@! TF.FilePolarity,Positive*
%FSLAX46Y46*%
G04 Gerber Fmt 4.6, Leading zero omitted, Abs format (unit mm)*
G04 Created by KiCad (PCBNEW (5.1.10)-1) date 2021-11-03 16:41:44*
%MOMM*%
%LPD*%
G01*
G04 APERTURE LIST*
%ADD10R,0.600000X1.450000*%
%ADD11R,0.300000X1.450000*%
%ADD12R,0.900000X1.200000*%
%ADD13R,1.200000X1.400000*%
%ADD14R,1.500000X0.550000*%
%ADD15R,0.550000X1.500000*%
%ADD16R,1.800000X1.100000*%
%ADD17R,1.200000X0.900000*%
G04 APERTURE END LIST*
D10*
X101500900Y-125311400D03*
X100700900Y-125311400D03*
X95800900Y-125311400D03*
X95000900Y-125311400D03*
X95000900Y-125311400D03*
X95800900Y-125311400D03*
X100700900Y-125311400D03*
X101500900Y-125311400D03*
D11*
X96500900Y-125311400D03*
X97000900Y-125311400D03*
X97500900Y-125311400D03*
X98500900Y-125311400D03*
X99000900Y-125311400D03*
X99500900Y-125311400D03*
X100000900Y-125311400D03*
X98000900Y-125311400D03*
D12*
X92014650Y-133351400D03*
X95314650Y-133351400D03*
G36*
G01*
X100777150Y-136888900D02*
X99864650Y-136888900D01*
G75*
G02*
X99620900Y-136645150I0J243750D01*
G01*
X99620900Y-136157650D01*
G75*
G02*
X99864650Y-135913900I243750J0D01*
G01*
X100777150Y-135913900D01*
G75*
G02*
X101020900Y-136157650I0J-243750D01*
G01*
X101020900Y-136645150D01*
G75*
G02*
X100777150Y-136888900I-243750J0D01*
G01*
G37*
G36*
G01*
X100777150Y-138763900D02*
X99864650Y-138763900D01*
G75*
G02*
X99620900Y-138520150I0J243750D01*
G01*
X99620900Y-138032650D01*
G75*
G02*
X99864650Y-137788900I243750J0D01*
G01*
X100777150Y-137788900D01*
G75*
G02*
X101020900Y-138032650I0J-243750D01*
G01*
X101020900Y-138520150D01*
G75*
G02*
X100777150Y-138763900I-243750J0D01*
G01*
G37*
G36*
G01*
X97107150Y-136828900D02*
X96194650Y-136828900D01*
G75*
G02*
X95950900Y-136585150I0J243750D01*
G01*
X95950900Y-136097650D01*
G75*
G02*
X96194650Y-135853900I243750J0D01*
G01*
X97107150Y-135853900D01*
G75*
G02*
X97350900Y-136097650I0J-243750D01*
G01*
X97350900Y-136585150D01*
G75*
G02*
X97107150Y-136828900I-243750J0D01*
G01*
G37*
G36*
G01*
X97107150Y-138703900D02*
X96194650Y-138703900D01*
G75*
G02*
X95950900Y-138460150I0J243750D01*
G01*
X95950900Y-137972650D01*
G75*
G02*
X96194650Y-137728900I243750J0D01*
G01*
X97107150Y-137728900D01*
G75*
G02*
X97350900Y-137972650I0J-243750D01*
G01*
X97350900Y-138460150D01*
G75*
G02*
X97107150Y-138703900I-243750J0D01*
G01*
G37*
G36*
G01*
X106605900Y-138496400D02*
X105355900Y-138496400D01*
G75*
G02*
X105105900Y-138246400I0J250000D01*
G01*
X105105900Y-137496400D01*
G75*
G02*
X105355900Y-137246400I250000J0D01*
G01*
X106605900Y-137246400D01*
G75*
G02*
X106855900Y-137496400I0J-250000D01*
G01*
X106855900Y-138246400D01*
G75*
G02*
X106605900Y-138496400I-250000J0D01*
G01*
G37*
G36*
G01*
X106605900Y-141296400D02*
X105355900Y-141296400D01*
G75*
G02*
X105105900Y-141046400I0J250000D01*
G01*
X105105900Y-140296400D01*
G75*
G02*
X105355900Y-140046400I250000J0D01*
G01*
X106605900Y-140046400D01*
G75*
G02*
X106855900Y-140296400I0J-250000D01*
G01*
X106855900Y-141046400D01*
G75*
G02*
X106605900Y-141296400I-250000J0D01*
G01*
G37*
G36*
G01*
X167033400Y-192426400D02*
X167033400Y-193338900D01*
G75*
G02*
X166789650Y-193582650I-243750J0D01*
G01*
X166302150Y-193582650D01*
G75*
G02*
X166058400Y-193338900I0J243750D01*
G01*
X166058400Y-192426400D01*
G75*
G02*
X166302150Y-192182650I243750J0D01*
G01*
X166789650Y-192182650D01*
G75*
G02*
X167033400Y-192426400I0J-243750D01*
G01*
G37*
G36*
G01*
X168908400Y-192426400D02*
X168908400Y-193338900D01*
G75*
G02*
X168664650Y-193582650I-243750J0D01*
G01*
X168177150Y-193582650D01*
G75*
G02*
X167933400Y-193338900I0J243750D01*
G01*
X167933400Y-192426400D01*
G75*
G02*
X168177150Y-192182650I243750J0D01*
G01*
X168664650Y-192182650D01*
G75*
G02*
X168908400Y-192426400I0J-243750D01*
G01*
G37*
G36*
G01*
X170202150Y-195857650D02*
X171114650Y-195857650D01*
G75*
G02*
X171358400Y-196101400I0J-243750D01*
G01*
X171358400Y-196588900D01*
G75*
G02*
X171114650Y-196832650I-243750J0D01*
G01*
X170202150Y-196832650D01*
G75*
G02*
X169958400Y-196588900I0J243750D01*
G01*
X169958400Y-196101400D01*
G75*
G02*
X170202150Y-195857650I243750J0D01*
G01*
G37*
G36*
G01*
X170202150Y-193982650D02*
X171114650Y-193982650D01*
G75*
G02*
X171358400Y-194226400I0J-243750D01*
G01*
X171358400Y-194713900D01*
G75*
G02*
X171114650Y-194957650I-243750J0D01*
G01*
X170202150Y-194957650D01*
G75*
G02*
X169958400Y-194713900I0J243750D01*
G01*
X169958400Y-194226400D01*
G75*
G02*
X170202150Y-193982650I243750J0D01*
G01*
G37*
D13*
X190389650Y-197338900D03*
X190389650Y-199538900D03*
X192089650Y-199538900D03*
X192089650Y-197338900D03*
D14*
X173833400Y-194438900D03*
X173833400Y-195238900D03*
X173833400Y-196038900D03*
X173833400Y-196838900D03*
X173833400Y-197638900D03*
X173833400Y-198438900D03*
X173833400Y-199238900D03*
X173833400Y-200038900D03*
X173833400Y-200838900D03*
X173833400Y-201638900D03*
X173833400Y-202438900D03*
D15*
X175533400Y-204138900D03*
X176333400Y-204138900D03*
X177133400Y-204138900D03*
X177933400Y-204138900D03*
X178733400Y-204138900D03*
X179533400Y-204138900D03*
X180333400Y-204138900D03*
X181133400Y-204138900D03*
X181933400Y-204138900D03*
X182733400Y-204138900D03*
X183533400Y-204138900D03*
D14*
X185233400Y-202438900D03*
X185233400Y-201638900D03*
X185233400Y-200838900D03*
X185233400Y-200038900D03*
X185233400Y-199238900D03*
X185233400Y-198438900D03*
X185233400Y-197638900D03*
X185233400Y-196838900D03*
X185233400Y-196038900D03*
X185233400Y-195238900D03*
X185233400Y-194438900D03*
D15*
X183533400Y-192738900D03*
X182733400Y-192738900D03*
X181933400Y-192738900D03*
X181133400Y-192738900D03*
X180333400Y-192738900D03*
X179533400Y-192738900D03*
X178733400Y-192738900D03*
X177933400Y-192738900D03*
X177133400Y-192738900D03*
X176333400Y-192738900D03*
X175533400Y-192738900D03*
D16*
X194395900Y-210607650D03*
X188195900Y-206907650D03*
X194395900Y-206907650D03*
X188195900Y-210607650D03*
G36*
G01*
X164645900Y-205238900D02*
X165558400Y-205238900D01*
G75*
G02*
X165802150Y-205482650I0J-243750D01*
G01*
X165802150Y-205970150D01*
G75*
G02*
X165558400Y-206213900I-243750J0D01*
G01*
X164645900Y-206213900D01*
G75*
G02*
X164402150Y-205970150I0J243750D01*
G01*
X164402150Y-205482650D01*
G75*
G02*
X164645900Y-205238900I243750J0D01*
G01*
G37*
G36*
G01*
X164645900Y-203363900D02*
X165558400Y-203363900D01*
G75*
G02*
X165802150Y-203607650I0J-243750D01*
G01*
X165802150Y-204095150D01*
G75*
G02*
X165558400Y-204338900I-243750J0D01*
G01*
X164645900Y-204338900D01*
G75*
G02*
X164402150Y-204095150I0J243750D01*
G01*
X164402150Y-203607650D01*
G75*
G02*
X164645900Y-203363900I243750J0D01*
G01*
G37*
G36*
G01*
X188320900Y-191632650D02*
X188320900Y-192545150D01*
G75*
G02*
X188077150Y-192788900I-243750J0D01*
G01*
X187589650Y-192788900D01*
G75*
G02*
X187345900Y-192545150I0J243750D01*
G01*
X187345900Y-191632650D01*
G75*
G02*
X187589650Y-191388900I243750J0D01*
G01*
X188077150Y-191388900D01*
G75*
G02*
X188320900Y-191632650I0J-243750D01*
G01*
G37*
G36*
G01*
X190195900Y-191632650D02*
X190195900Y-192545150D01*
G75*
G02*
X189952150Y-192788900I-243750J0D01*
G01*
X189464650Y-192788900D01*
G75*
G02*
X189220900Y-192545150I0J243750D01*
G01*
X189220900Y-191632650D01*
G75*
G02*
X189464650Y-191388900I243750J0D01*
G01*
X189952150Y-191388900D01*
G75*
G02*
X190195900Y-191632650I0J-243750D01*
G01*
G37*
G36*
G01*
X91970900Y-138677650D02*
X91970900Y-137765150D01*
G75*
G02*
X92214650Y-137521400I243750J0D01*
G01*
X92702150Y-137521400D01*
G75*
G02*
X92945900Y-137765150I0J-243750D01*
G01*
X92945900Y-138677650D01*
G75*
G02*
X92702150Y-138921400I-243750J0D01*
G01*
X92214650Y-138921400D01*
G75*
G02*
X91970900Y-138677650I0J243750D01*
G01*
G37*
G36*
G01*
X90095900Y-138677650D02*
X90095900Y-137765150D01*
G75*
G02*
X90339650Y-137521400I243750J0D01*
G01*
X90827150Y-137521400D01*
G75*
G02*
X91070900Y-137765150I0J-243750D01*
G01*
X91070900Y-138677650D01*
G75*
G02*
X90827150Y-138921400I-243750J0D01*
G01*
X90339650Y-138921400D01*
G75*
G02*
X90095900Y-138677650I0J243750D01*
G01*
G37*
G36*
G01*
X91970900Y-140717650D02*
X91970900Y-139805150D01*
G75*
G02*
X92214650Y-139561400I243750J0D01*
G01*
X92702150Y-139561400D01*
G75*
G02*
X92945900Y-139805150I0J-243750D01*
G01*
X92945900Y-140717650D01*
G75*
G02*
X92702150Y-140961400I-243750J0D01*
G01*
X92214650Y-140961400D01*
G75*
G02*
X91970900Y-140717650I0J243750D01*
G01*
G37*
G36*
G01*
X90095900Y-140717650D02*
X90095900Y-139805150D01*
G75*
G02*
X90339650Y-139561400I243750J0D01*
G01*
X90827150Y-139561400D01*
G75*
G02*
X91070900Y-139805150I0J-243750D01*
G01*
X91070900Y-140717650D01*
G75*
G02*
X90827150Y-140961400I-243750J0D01*
G01*
X90339650Y-140961400D01*
G75*
G02*
X90095900Y-140717650I0J243750D01*
G01*
G37*
D17*
X342902150Y-202345150D03*
X342902150Y-205645150D03*
X339727150Y-202282650D03*
X339727150Y-205582650D03*
X315120900Y-202345150D03*
X315120900Y-205645150D03*
X271464650Y-202345150D03*
X271464650Y-205645150D03*
X200820900Y-202345150D03*
X200820900Y-205645150D03*
X128589650Y-202345150D03*
X128589650Y-205645150D03*
X104777150Y-202345150D03*
X104777150Y-205645150D03*
X101602150Y-202345150D03*
X101602150Y-205645150D03*
X346870900Y-183295150D03*
X346870900Y-186595150D03*
X314327150Y-183295150D03*
X314327150Y-186595150D03*
X295277150Y-183295150D03*
X295277150Y-186595150D03*
X276227150Y-183295150D03*
X276227150Y-186595150D03*
X257177150Y-183357650D03*
X257177150Y-186657650D03*
X238127150Y-183295150D03*
X238127150Y-186595150D03*
X219077150Y-183295150D03*
X219077150Y-186595150D03*
X200027150Y-183295150D03*
X200027150Y-186595150D03*
X180977150Y-183295150D03*
X180977150Y-186595150D03*
X161927150Y-183295150D03*
X161927150Y-186595150D03*
X142877150Y-183295150D03*
X142877150Y-186595150D03*
X123827150Y-183295150D03*
X123827150Y-186595150D03*
X119858400Y-183295150D03*
X119858400Y-186595150D03*
X323852150Y-167420150D03*
X323852150Y-170720150D03*
X304802150Y-167420150D03*
X304802150Y-170720150D03*
X285752150Y-167420150D03*
X285752150Y-170720150D03*
X266702150Y-167420150D03*
X266702150Y-170720150D03*
X247652150Y-167420150D03*
X247652150Y-170720150D03*
X228602150Y-167420150D03*
X228602150Y-170720150D03*
X209552150Y-167420150D03*
X209552150Y-170720150D03*
X190502150Y-167420150D03*
X190502150Y-170720150D03*
X171452150Y-167420150D03*
X171452150Y-170720150D03*
X152402150Y-167420150D03*
X152402150Y-170720150D03*
X133352150Y-167420150D03*
X133352150Y-170720150D03*
X114302150Y-167420150D03*
X114302150Y-170720150D03*
X111045900Y-167420150D03*
X111045900Y-170720150D03*
X338058400Y-146782650D03*
X338058400Y-150082650D03*
X319008400Y-146782650D03*
X319008400Y-150082650D03*
X299958400Y-146782650D03*
X299958400Y-150082650D03*
X280908400Y-146782650D03*
X280908400Y-150082650D03*
X261858400Y-146782650D03*
X261858400Y-150082650D03*
X242808400Y-146782650D03*
X242808400Y-150082650D03*
X223758400Y-146782650D03*
X223758400Y-150082650D03*
X204708400Y-146782650D03*
X204708400Y-150082650D03*
X185658400Y-146782650D03*
X185658400Y-150082650D03*
X166608400Y-146782650D03*
X166608400Y-150082650D03*
X147558400Y-146782650D03*
X147558400Y-150082650D03*
X128508400Y-146782650D03*
X128508400Y-150082650D03*
X109458400Y-146782650D03*
X109458400Y-150082650D03*
X106283400Y-146782650D03*
X106283400Y-150082650D03*
X360364650Y-146720150D03*
X360364650Y-150020150D03*
X328533400Y-127732650D03*
X328533400Y-131032650D03*
X309483400Y-127795150D03*
X309483400Y-131095150D03*
X290433400Y-127732650D03*
X290433400Y-131032650D03*
X271383400Y-127732650D03*
X271383400Y-131032650D03*
X252333400Y-127795150D03*
X252333400Y-131095150D03*
X233283400Y-127732650D03*
X233283400Y-131032650D03*
X214233400Y-127732650D03*
X214233400Y-131032650D03*
X195183400Y-127795150D03*
X195183400Y-131095150D03*
X176133400Y-127732650D03*
X176133400Y-131032650D03*
X157083400Y-127732650D03*
X157083400Y-131032650D03*
X138033400Y-127732650D03*
X138033400Y-131032650D03*
X118983400Y-127732650D03*
X118983400Y-131032650D03*
X115889650Y-127795150D03*
X115889650Y-131095150D03*
G36*
G01*
X171114650Y-202895150D02*
X170202150Y-202895150D01*
G75*
G02*
X169958400Y-202651400I0J243750D01*
G01*
X169958400Y-202163900D01*
G75*
G02*
X170202150Y-201920150I243750J0D01*
G01*
X171114650Y-201920150D01*
G75*
G02*
X171358400Y-202163900I0J-243750D01*
G01*
X171358400Y-202651400D01*
G75*
G02*
X171114650Y-202895150I-243750J0D01*
G01*
G37*
G36*
G01*
X171114650Y-204770150D02*
X170202150Y-204770150D01*
G75*
G02*
X169958400Y-204526400I0J243750D01*
G01*
X169958400Y-204038900D01*
G75*
G02*
X170202150Y-203795150I243750J0D01*
G01*
X171114650Y-203795150D01*
G75*
G02*
X171358400Y-204038900I0J-243750D01*
G01*
X171358400Y-204526400D01*
G75*
G02*
X171114650Y-204770150I-243750J0D01*
G01*
G37*
G36*
G01*
X193983400Y-190957650D02*
X193983400Y-190045150D01*
G75*
G02*
X194227150Y-189801400I243750J0D01*
G01*
X194714650Y-189801400D01*
G75*
G02*
X194958400Y-190045150I0J-243750D01*
G01*
X194958400Y-190957650D01*
G75*
G02*
X194714650Y-191201400I-243750J0D01*
G01*
X194227150Y-191201400D01*
G75*
G02*
X193983400Y-190957650I0J243750D01*
G01*
G37*
G36*
G01*
X192108400Y-190957650D02*
X192108400Y-190045150D01*
G75*
G02*
X192352150Y-189801400I243750J0D01*
G01*
X192839650Y-189801400D01*
G75*
G02*
X193083400Y-190045150I0J-243750D01*
G01*
X193083400Y-190957650D01*
G75*
G02*
X192839650Y-191201400I-243750J0D01*
G01*
X192352150Y-191201400D01*
G75*
G02*
X192108400Y-190957650I0J243750D01*
G01*
G37*
G36*
G01*
X190989650Y-194013900D02*
X190989650Y-194926400D01*
G75*
G02*
X190745900Y-195170150I-243750J0D01*
G01*
X190258400Y-195170150D01*
G75*
G02*
X190014650Y-194926400I0J243750D01*
G01*
X190014650Y-194013900D01*
G75*
G02*
X190258400Y-193770150I243750J0D01*
G01*
X190745900Y-193770150D01*
G75*
G02*
X190989650Y-194013900I0J-243750D01*
G01*
G37*
G36*
G01*
X192864650Y-194013900D02*
X192864650Y-194926400D01*
G75*
G02*
X192620900Y-195170150I-243750J0D01*
G01*
X192133400Y-195170150D01*
G75*
G02*
X191889650Y-194926400I0J243750D01*
G01*
X191889650Y-194013900D01*
G75*
G02*
X192133400Y-193770150I243750J0D01*
G01*
X192620900Y-193770150D01*
G75*
G02*
X192864650Y-194013900I0J-243750D01*
G01*
G37*
G36*
G01*
X191889650Y-202863900D02*
X191889650Y-201951400D01*
G75*
G02*
X192133400Y-201707650I243750J0D01*
G01*
X192620900Y-201707650D01*
G75*
G02*
X192864650Y-201951400I0J-243750D01*
G01*
X192864650Y-202863900D01*
G75*
G02*
X192620900Y-203107650I-243750J0D01*
G01*
X192133400Y-203107650D01*
G75*
G02*
X191889650Y-202863900I0J243750D01*
G01*
G37*
G36*
G01*
X190014650Y-202863900D02*
X190014650Y-201951400D01*
G75*
G02*
X190258400Y-201707650I243750J0D01*
G01*
X190745900Y-201707650D01*
G75*
G02*
X190989650Y-201951400I0J-243750D01*
G01*
X190989650Y-202863900D01*
G75*
G02*
X190745900Y-203107650I-243750J0D01*
G01*
X190258400Y-203107650D01*
G75*
G02*
X190014650Y-202863900I0J243750D01*
G01*
G37*
G36*
G01*
X183664650Y-207626400D02*
X183664650Y-206713900D01*
G75*
G02*
X183908400Y-206470150I243750J0D01*
G01*
X184395900Y-206470150D01*
G75*
G02*
X184639650Y-206713900I0J-243750D01*
G01*
X184639650Y-207626400D01*
G75*
G02*
X184395900Y-207870150I-243750J0D01*
G01*
X183908400Y-207870150D01*
G75*
G02*
X183664650Y-207626400I0J243750D01*
G01*
G37*
G36*
G01*
X181789650Y-207626400D02*
X181789650Y-206713900D01*
G75*
G02*
X182033400Y-206470150I243750J0D01*
G01*
X182520900Y-206470150D01*
G75*
G02*
X182764650Y-206713900I0J-243750D01*
G01*
X182764650Y-207626400D01*
G75*
G02*
X182520900Y-207870150I-243750J0D01*
G01*
X182033400Y-207870150D01*
G75*
G02*
X181789650Y-207626400I0J243750D01*
G01*
G37*
M02*
