G04 #@! TF.GenerationSoftware,KiCad,Pcbnew,(5.1.10)-1*
G04 #@! TF.CreationDate,2021-11-02T22:14:20+11:00*
G04 #@! TF.ProjectId,x60,7836302e-6b69-4636-9164-5f7063625858,rev?*
G04 #@! TF.SameCoordinates,Original*
G04 #@! TF.FileFunction,Soldermask,Bot*
G04 #@! TF.FilePolarity,Negative*
%FSLAX46Y46*%
G04 Gerber Fmt 4.6, Leading zero omitted, Abs format (unit mm)*
G04 Created by KiCad (PCBNEW (5.1.10)-1) date 2021-11-02 22:14:20*
%MOMM*%
%LPD*%
G01*
G04 APERTURE LIST*
%ADD10C,2.250000*%
%ADD11C,3.987800*%
%ADD12C,1.750000*%
%ADD13R,0.600000X1.450000*%
%ADD14R,0.300000X1.450000*%
%ADD15O,1.000000X2.100000*%
%ADD16C,0.650000*%
%ADD17O,1.000000X1.600000*%
%ADD18R,0.900000X1.200000*%
%ADD19C,3.048000*%
%ADD20R,1.200000X1.400000*%
%ADD21R,1.500000X0.550000*%
%ADD22R,0.550000X1.500000*%
%ADD23R,1.800000X1.100000*%
%ADD24R,1.200000X0.900000*%
G04 APERTURE END LIST*
D10*
X91434400Y-123499400D03*
D11*
X88894400Y-128579400D03*
D10*
X85084400Y-126039400D03*
D12*
X83814400Y-128579400D03*
X93974400Y-128579400D03*
D10*
X110410900Y-123508900D03*
D11*
X107870900Y-128588900D03*
D10*
X104060900Y-126048900D03*
D12*
X102790900Y-128588900D03*
X112950900Y-128588900D03*
D13*
X101500900Y-125311400D03*
X100700900Y-125311400D03*
X95800900Y-125311400D03*
X95000900Y-125311400D03*
X95000900Y-125311400D03*
X95800900Y-125311400D03*
X100700900Y-125311400D03*
X101500900Y-125311400D03*
D14*
X96500900Y-125311400D03*
X97000900Y-125311400D03*
X97500900Y-125311400D03*
X98500900Y-125311400D03*
X99000900Y-125311400D03*
X99500900Y-125311400D03*
X100000900Y-125311400D03*
X98000900Y-125311400D03*
D15*
X102570900Y-124396400D03*
X93930900Y-124396400D03*
D16*
X95360900Y-123866400D03*
D17*
X93930900Y-120216400D03*
D16*
X101140900Y-123866400D03*
D17*
X102570900Y-120216400D03*
D18*
X92014650Y-133351400D03*
X95314650Y-133351400D03*
D10*
X212804650Y-199708900D03*
D11*
X210264650Y-204788900D03*
D10*
X206454650Y-202248900D03*
D12*
X205184650Y-204788900D03*
X215344650Y-204788900D03*
D19*
X160264750Y-211773900D03*
X260264550Y-211773900D03*
D11*
X160264750Y-196533900D03*
X260264550Y-196533900D03*
D10*
X224710900Y-199708900D03*
D11*
X222170900Y-204788900D03*
D10*
X218360900Y-202248900D03*
D12*
X217090900Y-204788900D03*
X227250900Y-204788900D03*
D19*
X165020900Y-211773900D03*
X279320900Y-211773900D03*
D11*
X165020900Y-196533900D03*
X279320900Y-196533900D03*
G36*
G01*
X100777150Y-136888900D02*
X99864650Y-136888900D01*
G75*
G02*
X99620900Y-136645150I0J243750D01*
G01*
X99620900Y-136157650D01*
G75*
G02*
X99864650Y-135913900I243750J0D01*
G01*
X100777150Y-135913900D01*
G75*
G02*
X101020900Y-136157650I0J-243750D01*
G01*
X101020900Y-136645150D01*
G75*
G02*
X100777150Y-136888900I-243750J0D01*
G01*
G37*
G36*
G01*
X100777150Y-138763900D02*
X99864650Y-138763900D01*
G75*
G02*
X99620900Y-138520150I0J243750D01*
G01*
X99620900Y-138032650D01*
G75*
G02*
X99864650Y-137788900I243750J0D01*
G01*
X100777150Y-137788900D01*
G75*
G02*
X101020900Y-138032650I0J-243750D01*
G01*
X101020900Y-138520150D01*
G75*
G02*
X100777150Y-138763900I-243750J0D01*
G01*
G37*
G36*
G01*
X97107150Y-136828900D02*
X96194650Y-136828900D01*
G75*
G02*
X95950900Y-136585150I0J243750D01*
G01*
X95950900Y-136097650D01*
G75*
G02*
X96194650Y-135853900I243750J0D01*
G01*
X97107150Y-135853900D01*
G75*
G02*
X97350900Y-136097650I0J-243750D01*
G01*
X97350900Y-136585150D01*
G75*
G02*
X97107150Y-136828900I-243750J0D01*
G01*
G37*
G36*
G01*
X97107150Y-138703900D02*
X96194650Y-138703900D01*
G75*
G02*
X95950900Y-138460150I0J243750D01*
G01*
X95950900Y-137972650D01*
G75*
G02*
X96194650Y-137728900I243750J0D01*
G01*
X97107150Y-137728900D01*
G75*
G02*
X97350900Y-137972650I0J-243750D01*
G01*
X97350900Y-138460150D01*
G75*
G02*
X97107150Y-138703900I-243750J0D01*
G01*
G37*
D10*
X172404650Y-180658900D03*
D11*
X169864650Y-185738900D03*
D10*
X166054650Y-183198900D03*
D12*
X164784650Y-185738900D03*
X174944650Y-185738900D03*
G36*
G01*
X106605900Y-138496400D02*
X105355900Y-138496400D01*
G75*
G02*
X105105900Y-138246400I0J250000D01*
G01*
X105105900Y-137496400D01*
G75*
G02*
X105355900Y-137246400I250000J0D01*
G01*
X106605900Y-137246400D01*
G75*
G02*
X106855900Y-137496400I0J-250000D01*
G01*
X106855900Y-138246400D01*
G75*
G02*
X106605900Y-138496400I-250000J0D01*
G01*
G37*
G36*
G01*
X106605900Y-141296400D02*
X105355900Y-141296400D01*
G75*
G02*
X105105900Y-141046400I0J250000D01*
G01*
X105105900Y-140296400D01*
G75*
G02*
X105355900Y-140046400I250000J0D01*
G01*
X106605900Y-140046400D01*
G75*
G02*
X106855900Y-140296400I0J-250000D01*
G01*
X106855900Y-141046400D01*
G75*
G02*
X106605900Y-141296400I-250000J0D01*
G01*
G37*
G36*
G01*
X167033400Y-192426400D02*
X167033400Y-193338900D01*
G75*
G02*
X166789650Y-193582650I-243750J0D01*
G01*
X166302150Y-193582650D01*
G75*
G02*
X166058400Y-193338900I0J243750D01*
G01*
X166058400Y-192426400D01*
G75*
G02*
X166302150Y-192182650I243750J0D01*
G01*
X166789650Y-192182650D01*
G75*
G02*
X167033400Y-192426400I0J-243750D01*
G01*
G37*
G36*
G01*
X168908400Y-192426400D02*
X168908400Y-193338900D01*
G75*
G02*
X168664650Y-193582650I-243750J0D01*
G01*
X168177150Y-193582650D01*
G75*
G02*
X167933400Y-193338900I0J243750D01*
G01*
X167933400Y-192426400D01*
G75*
G02*
X168177150Y-192182650I243750J0D01*
G01*
X168664650Y-192182650D01*
G75*
G02*
X168908400Y-192426400I0J-243750D01*
G01*
G37*
G36*
G01*
X170202150Y-195857650D02*
X171114650Y-195857650D01*
G75*
G02*
X171358400Y-196101400I0J-243750D01*
G01*
X171358400Y-196588900D01*
G75*
G02*
X171114650Y-196832650I-243750J0D01*
G01*
X170202150Y-196832650D01*
G75*
G02*
X169958400Y-196588900I0J243750D01*
G01*
X169958400Y-196101400D01*
G75*
G02*
X170202150Y-195857650I243750J0D01*
G01*
G37*
G36*
G01*
X170202150Y-193982650D02*
X171114650Y-193982650D01*
G75*
G02*
X171358400Y-194226400I0J-243750D01*
G01*
X171358400Y-194713900D01*
G75*
G02*
X171114650Y-194957650I-243750J0D01*
G01*
X170202150Y-194957650D01*
G75*
G02*
X169958400Y-194713900I0J243750D01*
G01*
X169958400Y-194226400D01*
G75*
G02*
X170202150Y-193982650I243750J0D01*
G01*
G37*
D10*
X191373400Y-180658900D03*
D11*
X188833400Y-185738900D03*
D10*
X185023400Y-183198900D03*
D12*
X183753400Y-185738900D03*
X193913400Y-185738900D03*
D10*
X93742150Y-199708900D03*
D11*
X91202150Y-204788900D03*
D10*
X87392150Y-202248900D03*
D12*
X86122150Y-204788900D03*
X96282150Y-204788900D03*
D20*
X190389650Y-197338900D03*
X190389650Y-199538900D03*
X192089650Y-199538900D03*
X192089650Y-197338900D03*
D21*
X173833400Y-194438900D03*
X173833400Y-195238900D03*
X173833400Y-196038900D03*
X173833400Y-196838900D03*
X173833400Y-197638900D03*
X173833400Y-198438900D03*
X173833400Y-199238900D03*
X173833400Y-200038900D03*
X173833400Y-200838900D03*
X173833400Y-201638900D03*
X173833400Y-202438900D03*
D22*
X175533400Y-204138900D03*
X176333400Y-204138900D03*
X177133400Y-204138900D03*
X177933400Y-204138900D03*
X178733400Y-204138900D03*
X179533400Y-204138900D03*
X180333400Y-204138900D03*
X181133400Y-204138900D03*
X181933400Y-204138900D03*
X182733400Y-204138900D03*
X183533400Y-204138900D03*
D21*
X185233400Y-202438900D03*
X185233400Y-201638900D03*
X185233400Y-200838900D03*
X185233400Y-200038900D03*
X185233400Y-199238900D03*
X185233400Y-198438900D03*
X185233400Y-197638900D03*
X185233400Y-196838900D03*
X185233400Y-196038900D03*
X185233400Y-195238900D03*
X185233400Y-194438900D03*
D22*
X183533400Y-192738900D03*
X182733400Y-192738900D03*
X181933400Y-192738900D03*
X181133400Y-192738900D03*
X180333400Y-192738900D03*
X179533400Y-192738900D03*
X178733400Y-192738900D03*
X177933400Y-192738900D03*
X177133400Y-192738900D03*
X176333400Y-192738900D03*
X175533400Y-192738900D03*
D23*
X194395900Y-210607650D03*
X188195900Y-206907650D03*
X194395900Y-206907650D03*
X188195900Y-210607650D03*
G36*
G01*
X164645900Y-205238900D02*
X165558400Y-205238900D01*
G75*
G02*
X165802150Y-205482650I0J-243750D01*
G01*
X165802150Y-205970150D01*
G75*
G02*
X165558400Y-206213900I-243750J0D01*
G01*
X164645900Y-206213900D01*
G75*
G02*
X164402150Y-205970150I0J243750D01*
G01*
X164402150Y-205482650D01*
G75*
G02*
X164645900Y-205238900I243750J0D01*
G01*
G37*
G36*
G01*
X164645900Y-203363900D02*
X165558400Y-203363900D01*
G75*
G02*
X165802150Y-203607650I0J-243750D01*
G01*
X165802150Y-204095150D01*
G75*
G02*
X165558400Y-204338900I-243750J0D01*
G01*
X164645900Y-204338900D01*
G75*
G02*
X164402150Y-204095150I0J243750D01*
G01*
X164402150Y-203607650D01*
G75*
G02*
X164645900Y-203363900I243750J0D01*
G01*
G37*
G36*
G01*
X188320900Y-191632650D02*
X188320900Y-192545150D01*
G75*
G02*
X188077150Y-192788900I-243750J0D01*
G01*
X187589650Y-192788900D01*
G75*
G02*
X187345900Y-192545150I0J243750D01*
G01*
X187345900Y-191632650D01*
G75*
G02*
X187589650Y-191388900I243750J0D01*
G01*
X188077150Y-191388900D01*
G75*
G02*
X188320900Y-191632650I0J-243750D01*
G01*
G37*
G36*
G01*
X190195900Y-191632650D02*
X190195900Y-192545150D01*
G75*
G02*
X189952150Y-192788900I-243750J0D01*
G01*
X189464650Y-192788900D01*
G75*
G02*
X189220900Y-192545150I0J243750D01*
G01*
X189220900Y-191632650D01*
G75*
G02*
X189464650Y-191388900I243750J0D01*
G01*
X189952150Y-191388900D01*
G75*
G02*
X190195900Y-191632650I0J-243750D01*
G01*
G37*
G36*
G01*
X91970900Y-138677650D02*
X91970900Y-137765150D01*
G75*
G02*
X92214650Y-137521400I243750J0D01*
G01*
X92702150Y-137521400D01*
G75*
G02*
X92945900Y-137765150I0J-243750D01*
G01*
X92945900Y-138677650D01*
G75*
G02*
X92702150Y-138921400I-243750J0D01*
G01*
X92214650Y-138921400D01*
G75*
G02*
X91970900Y-138677650I0J243750D01*
G01*
G37*
G36*
G01*
X90095900Y-138677650D02*
X90095900Y-137765150D01*
G75*
G02*
X90339650Y-137521400I243750J0D01*
G01*
X90827150Y-137521400D01*
G75*
G02*
X91070900Y-137765150I0J-243750D01*
G01*
X91070900Y-138677650D01*
G75*
G02*
X90827150Y-138921400I-243750J0D01*
G01*
X90339650Y-138921400D01*
G75*
G02*
X90095900Y-138677650I0J243750D01*
G01*
G37*
G36*
G01*
X91970900Y-140717650D02*
X91970900Y-139805150D01*
G75*
G02*
X92214650Y-139561400I243750J0D01*
G01*
X92702150Y-139561400D01*
G75*
G02*
X92945900Y-139805150I0J-243750D01*
G01*
X92945900Y-140717650D01*
G75*
G02*
X92702150Y-140961400I-243750J0D01*
G01*
X92214650Y-140961400D01*
G75*
G02*
X91970900Y-140717650I0J243750D01*
G01*
G37*
G36*
G01*
X90095900Y-140717650D02*
X90095900Y-139805150D01*
G75*
G02*
X90339650Y-139561400I243750J0D01*
G01*
X90827150Y-139561400D01*
G75*
G02*
X91070900Y-139805150I0J-243750D01*
G01*
X91070900Y-140717650D01*
G75*
G02*
X90827150Y-140961400I-243750J0D01*
G01*
X90339650Y-140961400D01*
G75*
G02*
X90095900Y-140717650I0J243750D01*
G01*
G37*
D10*
X353298400Y-199708900D03*
D11*
X350758400Y-204788900D03*
D10*
X346948400Y-202248900D03*
D12*
X345678400Y-204788900D03*
X355838400Y-204788900D03*
D10*
X308054650Y-199708900D03*
D11*
X305514650Y-204788900D03*
D10*
X301704650Y-202248900D03*
D12*
X300434650Y-204788900D03*
X310594650Y-204788900D03*
D10*
X305673400Y-199708900D03*
D11*
X303133400Y-204788900D03*
D10*
X299323400Y-202248900D03*
D12*
X298053400Y-204788900D03*
X308213400Y-204788900D03*
D10*
X143748400Y-199708900D03*
D11*
X141208400Y-204788900D03*
D10*
X137398400Y-202248900D03*
D12*
X136128400Y-204788900D03*
X146288400Y-204788900D03*
D10*
X115173400Y-199708900D03*
D11*
X112633400Y-204788900D03*
D10*
X108823400Y-202248900D03*
D12*
X107553400Y-204788900D03*
X117713400Y-204788900D03*
D10*
X96123400Y-199708900D03*
D11*
X93583400Y-204788900D03*
D10*
X89773400Y-202248900D03*
D12*
X88503400Y-204788900D03*
X98663400Y-204788900D03*
D10*
X331867150Y-180658900D03*
D11*
X329327150Y-185738900D03*
D10*
X325517150Y-183198900D03*
D12*
X324247150Y-185738900D03*
X334407150Y-185738900D03*
D10*
X93742150Y-161608900D03*
D11*
X91202150Y-166688900D03*
D10*
X87392150Y-164148900D03*
D12*
X86122150Y-166688900D03*
X96282150Y-166688900D03*
D10*
X339010900Y-123508900D03*
D11*
X336470900Y-128588900D03*
D10*
X332660900Y-126048900D03*
D12*
X331390900Y-128588900D03*
X341550900Y-128588900D03*
D10*
X355679650Y-199708900D03*
D11*
X353139650Y-204788900D03*
D10*
X349329650Y-202248900D03*
D12*
X348059650Y-204788900D03*
X358219650Y-204788900D03*
D10*
X331867150Y-199708900D03*
D11*
X329327150Y-204788900D03*
D10*
X325517150Y-202248900D03*
D12*
X324247150Y-204788900D03*
X334407150Y-204788900D03*
D10*
X329485900Y-199708900D03*
D11*
X326945900Y-204788900D03*
D10*
X323135900Y-202248900D03*
D12*
X321865900Y-204788900D03*
X332025900Y-204788900D03*
D10*
X284242150Y-199708900D03*
D11*
X281702150Y-204788900D03*
D10*
X277892150Y-202248900D03*
D12*
X276622150Y-204788900D03*
X286782150Y-204788900D03*
D10*
X141367150Y-199708900D03*
D11*
X138827150Y-204788900D03*
D10*
X135017150Y-202248900D03*
D12*
X133747150Y-204788900D03*
X143907150Y-204788900D03*
D10*
X117554650Y-199708900D03*
D11*
X115014650Y-204788900D03*
D10*
X111204650Y-202248900D03*
D12*
X109934650Y-204788900D03*
X120094650Y-204788900D03*
D10*
X358060900Y-180658900D03*
D11*
X355520900Y-185738900D03*
D10*
X351710900Y-183198900D03*
D12*
X350440900Y-185738900D03*
X360600900Y-185738900D03*
D10*
X341392150Y-180658900D03*
D11*
X338852150Y-185738900D03*
D10*
X335042150Y-183198900D03*
D12*
X333772150Y-185738900D03*
X343932150Y-185738900D03*
D19*
X326945900Y-178753900D03*
X350758400Y-178753900D03*
D11*
X326945900Y-193993900D03*
X350758400Y-193993900D03*
D10*
X305673400Y-180658900D03*
D11*
X303133400Y-185738900D03*
D10*
X299323400Y-183198900D03*
D12*
X298053400Y-185738900D03*
X308213400Y-185738900D03*
D10*
X286623400Y-180658900D03*
D11*
X284083400Y-185738900D03*
D10*
X280273400Y-183198900D03*
D12*
X279003400Y-185738900D03*
X289163400Y-185738900D03*
D10*
X267573400Y-180658900D03*
D11*
X265033400Y-185738900D03*
D10*
X261223400Y-183198900D03*
D12*
X259953400Y-185738900D03*
X270113400Y-185738900D03*
D10*
X248523400Y-180658900D03*
D11*
X245983400Y-185738900D03*
D10*
X242173400Y-183198900D03*
D12*
X240903400Y-185738900D03*
X251063400Y-185738900D03*
D10*
X229473400Y-180658900D03*
D11*
X226933400Y-185738900D03*
D10*
X223123400Y-183198900D03*
D12*
X221853400Y-185738900D03*
X232013400Y-185738900D03*
D10*
X210423400Y-180658900D03*
D11*
X207883400Y-185738900D03*
D10*
X204073400Y-183198900D03*
D12*
X202803400Y-185738900D03*
X212963400Y-185738900D03*
D10*
X153273400Y-180658900D03*
D11*
X150733400Y-185738900D03*
D10*
X146923400Y-183198900D03*
D12*
X145653400Y-185738900D03*
X155813400Y-185738900D03*
D10*
X134223400Y-180658900D03*
D11*
X131683400Y-185738900D03*
D10*
X127873400Y-183198900D03*
D12*
X126603400Y-185738900D03*
X136763400Y-185738900D03*
D10*
X103267150Y-180658900D03*
D11*
X100727150Y-185738900D03*
D10*
X96917150Y-183198900D03*
D12*
X95647150Y-185738900D03*
X105807150Y-185738900D03*
D19*
X88820900Y-178753900D03*
X112633400Y-178753900D03*
D11*
X88820900Y-193993900D03*
X112633400Y-193993900D03*
D10*
X346154650Y-161608900D03*
D11*
X343614650Y-166688900D03*
D10*
X339804650Y-164148900D03*
D12*
X338534650Y-166688900D03*
X348694650Y-166688900D03*
D19*
X331708400Y-159703900D03*
X355520900Y-159703900D03*
D11*
X331708400Y-174943900D03*
X355520900Y-174943900D03*
D10*
X315198400Y-161608900D03*
D11*
X312658400Y-166688900D03*
D10*
X308848400Y-164148900D03*
D12*
X307578400Y-166688900D03*
X317738400Y-166688900D03*
D10*
X296148400Y-161608900D03*
D11*
X293608400Y-166688900D03*
D10*
X289798400Y-164148900D03*
D12*
X288528400Y-166688900D03*
X298688400Y-166688900D03*
D10*
X277098400Y-161608900D03*
D11*
X274558400Y-166688900D03*
D10*
X270748400Y-164148900D03*
D12*
X269478400Y-166688900D03*
X279638400Y-166688900D03*
D10*
X258048400Y-161608900D03*
D11*
X255508400Y-166688900D03*
D10*
X251698400Y-164148900D03*
D12*
X250428400Y-166688900D03*
X260588400Y-166688900D03*
D10*
X238998400Y-161608900D03*
D11*
X236458400Y-166688900D03*
D10*
X232648400Y-164148900D03*
D12*
X231378400Y-166688900D03*
X241538400Y-166688900D03*
D10*
X219948400Y-161608900D03*
D11*
X217408400Y-166688900D03*
D10*
X213598400Y-164148900D03*
D12*
X212328400Y-166688900D03*
X222488400Y-166688900D03*
D10*
X200898400Y-161608900D03*
D11*
X198358400Y-166688900D03*
D10*
X194548400Y-164148900D03*
D12*
X193278400Y-166688900D03*
X203438400Y-166688900D03*
D10*
X181848400Y-161608900D03*
D11*
X179308400Y-166688900D03*
D10*
X175498400Y-164148900D03*
D12*
X174228400Y-166688900D03*
X184388400Y-166688900D03*
D10*
X162798400Y-161608900D03*
D11*
X160258400Y-166688900D03*
D10*
X156448400Y-164148900D03*
D12*
X155178400Y-166688900D03*
X165338400Y-166688900D03*
D10*
X143748400Y-161608900D03*
D11*
X141208400Y-166688900D03*
D10*
X137398400Y-164148900D03*
D12*
X136128400Y-166688900D03*
X146288400Y-166688900D03*
D10*
X124698400Y-161608900D03*
D11*
X122158400Y-166688900D03*
D10*
X118348400Y-164148900D03*
D12*
X117078400Y-166688900D03*
X127238400Y-166688900D03*
D10*
X98504650Y-161608900D03*
D11*
X95964650Y-166688900D03*
D10*
X92154650Y-164148900D03*
D12*
X90884650Y-166688900D03*
X101044650Y-166688900D03*
D10*
X353298400Y-142558900D03*
D11*
X350758400Y-147638900D03*
D10*
X346948400Y-145098900D03*
D12*
X345678400Y-147638900D03*
X355838400Y-147638900D03*
D10*
X329485900Y-142558900D03*
D11*
X326945900Y-147638900D03*
D10*
X323135900Y-145098900D03*
D12*
X321865900Y-147638900D03*
X332025900Y-147638900D03*
D10*
X310435900Y-142558900D03*
D11*
X307895900Y-147638900D03*
D10*
X304085900Y-145098900D03*
D12*
X302815900Y-147638900D03*
X312975900Y-147638900D03*
D10*
X291385900Y-142558900D03*
D11*
X288845900Y-147638900D03*
D10*
X285035900Y-145098900D03*
D12*
X283765900Y-147638900D03*
X293925900Y-147638900D03*
D10*
X272335900Y-142558900D03*
D11*
X269795900Y-147638900D03*
D10*
X265985900Y-145098900D03*
D12*
X264715900Y-147638900D03*
X274875900Y-147638900D03*
D10*
X253285900Y-142558900D03*
D11*
X250745900Y-147638900D03*
D10*
X246935900Y-145098900D03*
D12*
X245665900Y-147638900D03*
X255825900Y-147638900D03*
D10*
X234235900Y-142558900D03*
D11*
X231695900Y-147638900D03*
D10*
X227885900Y-145098900D03*
D12*
X226615900Y-147638900D03*
X236775900Y-147638900D03*
D10*
X215185900Y-142558900D03*
D11*
X212645900Y-147638900D03*
D10*
X208835900Y-145098900D03*
D12*
X207565900Y-147638900D03*
X217725900Y-147638900D03*
D10*
X196135900Y-142558900D03*
D11*
X193595900Y-147638900D03*
D10*
X189785900Y-145098900D03*
D12*
X188515900Y-147638900D03*
X198675900Y-147638900D03*
D10*
X177085900Y-142558900D03*
D11*
X174545900Y-147638900D03*
D10*
X170735900Y-145098900D03*
D12*
X169465900Y-147638900D03*
X179625900Y-147638900D03*
D10*
X158035900Y-142558900D03*
D11*
X155495900Y-147638900D03*
D10*
X151685900Y-145098900D03*
D12*
X150415900Y-147638900D03*
X160575900Y-147638900D03*
D10*
X138985900Y-142558900D03*
D11*
X136445900Y-147638900D03*
D10*
X132635900Y-145098900D03*
D12*
X131365900Y-147638900D03*
X141525900Y-147638900D03*
D10*
X119935900Y-142558900D03*
D11*
X117395900Y-147638900D03*
D10*
X113585900Y-145098900D03*
D12*
X112315900Y-147638900D03*
X122475900Y-147638900D03*
D10*
X96123400Y-142558900D03*
D11*
X93583400Y-147638900D03*
D10*
X89773400Y-145098900D03*
D12*
X88503400Y-147638900D03*
X98663400Y-147638900D03*
D10*
X358060900Y-123508900D03*
D11*
X355520900Y-128588900D03*
D10*
X351710900Y-126048900D03*
D12*
X350440900Y-128588900D03*
X360600900Y-128588900D03*
D10*
X348535900Y-123508900D03*
D11*
X345995900Y-128588900D03*
D10*
X342185900Y-126048900D03*
D12*
X340915900Y-128588900D03*
X351075900Y-128588900D03*
D19*
X334089650Y-121603900D03*
X357902150Y-121603900D03*
D11*
X334089650Y-136843900D03*
X357902150Y-136843900D03*
D10*
X319960900Y-123508900D03*
D11*
X317420900Y-128588900D03*
D10*
X313610900Y-126048900D03*
D12*
X312340900Y-128588900D03*
X322500900Y-128588900D03*
D10*
X300910900Y-123508900D03*
D11*
X298370900Y-128588900D03*
D10*
X294560900Y-126048900D03*
D12*
X293290900Y-128588900D03*
X303450900Y-128588900D03*
D10*
X281860900Y-123508900D03*
D11*
X279320900Y-128588900D03*
D10*
X275510900Y-126048900D03*
D12*
X274240900Y-128588900D03*
X284400900Y-128588900D03*
D10*
X262810900Y-123508900D03*
D11*
X260270900Y-128588900D03*
D10*
X256460900Y-126048900D03*
D12*
X255190900Y-128588900D03*
X265350900Y-128588900D03*
D10*
X243760900Y-123508900D03*
D11*
X241220900Y-128588900D03*
D10*
X237410900Y-126048900D03*
D12*
X236140900Y-128588900D03*
X246300900Y-128588900D03*
D10*
X224710900Y-123508900D03*
D11*
X222170900Y-128588900D03*
D10*
X218360900Y-126048900D03*
D12*
X217090900Y-128588900D03*
X227250900Y-128588900D03*
D10*
X205660900Y-123508900D03*
D11*
X203120900Y-128588900D03*
D10*
X199310900Y-126048900D03*
D12*
X198040900Y-128588900D03*
X208200900Y-128588900D03*
D10*
X186610900Y-123508900D03*
D11*
X184070900Y-128588900D03*
D10*
X180260900Y-126048900D03*
D12*
X178990900Y-128588900D03*
X189150900Y-128588900D03*
D10*
X167560900Y-123508900D03*
D11*
X165020900Y-128588900D03*
D10*
X161210900Y-126048900D03*
D12*
X159940900Y-128588900D03*
X170100900Y-128588900D03*
D10*
X148510900Y-123508900D03*
D11*
X145970900Y-128588900D03*
D10*
X142160900Y-126048900D03*
D12*
X140890900Y-128588900D03*
X151050900Y-128588900D03*
D10*
X129460900Y-123508900D03*
D11*
X126920900Y-128588900D03*
D10*
X123110900Y-126048900D03*
D12*
X121840900Y-128588900D03*
X132000900Y-128588900D03*
D24*
X342902150Y-202345150D03*
X342902150Y-205645150D03*
X339727150Y-202282650D03*
X339727150Y-205582650D03*
X315120900Y-202345150D03*
X315120900Y-205645150D03*
X271464650Y-202345150D03*
X271464650Y-205645150D03*
X200820900Y-202345150D03*
X200820900Y-205645150D03*
X128589650Y-202345150D03*
X128589650Y-205645150D03*
X104777150Y-202345150D03*
X104777150Y-205645150D03*
X101602150Y-202345150D03*
X101602150Y-205645150D03*
X346870900Y-183295150D03*
X346870900Y-186595150D03*
X314327150Y-183295150D03*
X314327150Y-186595150D03*
X295277150Y-183295150D03*
X295277150Y-186595150D03*
X276227150Y-183295150D03*
X276227150Y-186595150D03*
X257177150Y-183357650D03*
X257177150Y-186657650D03*
X238127150Y-183295150D03*
X238127150Y-186595150D03*
X219077150Y-183295150D03*
X219077150Y-186595150D03*
X200027150Y-183295150D03*
X200027150Y-186595150D03*
X180977150Y-183295150D03*
X180977150Y-186595150D03*
X161927150Y-183295150D03*
X161927150Y-186595150D03*
X142877150Y-183295150D03*
X142877150Y-186595150D03*
X123827150Y-183295150D03*
X123827150Y-186595150D03*
X119858400Y-183295150D03*
X119858400Y-186595150D03*
X323852150Y-167420150D03*
X323852150Y-170720150D03*
X304802150Y-167420150D03*
X304802150Y-170720150D03*
X285752150Y-167420150D03*
X285752150Y-170720150D03*
X266702150Y-167420150D03*
X266702150Y-170720150D03*
X247652150Y-167420150D03*
X247652150Y-170720150D03*
X228602150Y-167420150D03*
X228602150Y-170720150D03*
X209552150Y-167420150D03*
X209552150Y-170720150D03*
X190502150Y-167420150D03*
X190502150Y-170720150D03*
X171452150Y-167420150D03*
X171452150Y-170720150D03*
X152402150Y-167420150D03*
X152402150Y-170720150D03*
X133352150Y-167420150D03*
X133352150Y-170720150D03*
X114302150Y-167420150D03*
X114302150Y-170720150D03*
X111045900Y-167420150D03*
X111045900Y-170720150D03*
X338058400Y-146782650D03*
X338058400Y-150082650D03*
X319008400Y-146782650D03*
X319008400Y-150082650D03*
X299958400Y-146782650D03*
X299958400Y-150082650D03*
X280908400Y-146782650D03*
X280908400Y-150082650D03*
X261858400Y-146782650D03*
X261858400Y-150082650D03*
X242808400Y-146782650D03*
X242808400Y-150082650D03*
X223758400Y-146782650D03*
X223758400Y-150082650D03*
X204708400Y-146782650D03*
X204708400Y-150082650D03*
X185658400Y-146782650D03*
X185658400Y-150082650D03*
X166608400Y-146782650D03*
X166608400Y-150082650D03*
X147558400Y-146782650D03*
X147558400Y-150082650D03*
X128508400Y-146782650D03*
X128508400Y-150082650D03*
X109458400Y-146782650D03*
X109458400Y-150082650D03*
X106283400Y-146782650D03*
X106283400Y-150082650D03*
X360364650Y-146720150D03*
X360364650Y-150020150D03*
X328533400Y-127732650D03*
X328533400Y-131032650D03*
X309483400Y-127795150D03*
X309483400Y-131095150D03*
X290433400Y-127732650D03*
X290433400Y-131032650D03*
X271383400Y-127732650D03*
X271383400Y-131032650D03*
X252333400Y-127795150D03*
X252333400Y-131095150D03*
X233283400Y-127732650D03*
X233283400Y-131032650D03*
X214233400Y-127732650D03*
X214233400Y-131032650D03*
X195183400Y-127795150D03*
X195183400Y-131095150D03*
X176133400Y-127732650D03*
X176133400Y-131032650D03*
X157083400Y-127732650D03*
X157083400Y-131032650D03*
X138033400Y-127732650D03*
X138033400Y-131032650D03*
X118983400Y-127732650D03*
X118983400Y-131032650D03*
X115889650Y-127795150D03*
X115889650Y-131095150D03*
G36*
G01*
X171114650Y-202895150D02*
X170202150Y-202895150D01*
G75*
G02*
X169958400Y-202651400I0J243750D01*
G01*
X169958400Y-202163900D01*
G75*
G02*
X170202150Y-201920150I243750J0D01*
G01*
X171114650Y-201920150D01*
G75*
G02*
X171358400Y-202163900I0J-243750D01*
G01*
X171358400Y-202651400D01*
G75*
G02*
X171114650Y-202895150I-243750J0D01*
G01*
G37*
G36*
G01*
X171114650Y-204770150D02*
X170202150Y-204770150D01*
G75*
G02*
X169958400Y-204526400I0J243750D01*
G01*
X169958400Y-204038900D01*
G75*
G02*
X170202150Y-203795150I243750J0D01*
G01*
X171114650Y-203795150D01*
G75*
G02*
X171358400Y-204038900I0J-243750D01*
G01*
X171358400Y-204526400D01*
G75*
G02*
X171114650Y-204770150I-243750J0D01*
G01*
G37*
G36*
G01*
X193983400Y-190957650D02*
X193983400Y-190045150D01*
G75*
G02*
X194227150Y-189801400I243750J0D01*
G01*
X194714650Y-189801400D01*
G75*
G02*
X194958400Y-190045150I0J-243750D01*
G01*
X194958400Y-190957650D01*
G75*
G02*
X194714650Y-191201400I-243750J0D01*
G01*
X194227150Y-191201400D01*
G75*
G02*
X193983400Y-190957650I0J243750D01*
G01*
G37*
G36*
G01*
X192108400Y-190957650D02*
X192108400Y-190045150D01*
G75*
G02*
X192352150Y-189801400I243750J0D01*
G01*
X192839650Y-189801400D01*
G75*
G02*
X193083400Y-190045150I0J-243750D01*
G01*
X193083400Y-190957650D01*
G75*
G02*
X192839650Y-191201400I-243750J0D01*
G01*
X192352150Y-191201400D01*
G75*
G02*
X192108400Y-190957650I0J243750D01*
G01*
G37*
G36*
G01*
X190989650Y-194013900D02*
X190989650Y-194926400D01*
G75*
G02*
X190745900Y-195170150I-243750J0D01*
G01*
X190258400Y-195170150D01*
G75*
G02*
X190014650Y-194926400I0J243750D01*
G01*
X190014650Y-194013900D01*
G75*
G02*
X190258400Y-193770150I243750J0D01*
G01*
X190745900Y-193770150D01*
G75*
G02*
X190989650Y-194013900I0J-243750D01*
G01*
G37*
G36*
G01*
X192864650Y-194013900D02*
X192864650Y-194926400D01*
G75*
G02*
X192620900Y-195170150I-243750J0D01*
G01*
X192133400Y-195170150D01*
G75*
G02*
X191889650Y-194926400I0J243750D01*
G01*
X191889650Y-194013900D01*
G75*
G02*
X192133400Y-193770150I243750J0D01*
G01*
X192620900Y-193770150D01*
G75*
G02*
X192864650Y-194013900I0J-243750D01*
G01*
G37*
G36*
G01*
X191889650Y-202863900D02*
X191889650Y-201951400D01*
G75*
G02*
X192133400Y-201707650I243750J0D01*
G01*
X192620900Y-201707650D01*
G75*
G02*
X192864650Y-201951400I0J-243750D01*
G01*
X192864650Y-202863900D01*
G75*
G02*
X192620900Y-203107650I-243750J0D01*
G01*
X192133400Y-203107650D01*
G75*
G02*
X191889650Y-202863900I0J243750D01*
G01*
G37*
G36*
G01*
X190014650Y-202863900D02*
X190014650Y-201951400D01*
G75*
G02*
X190258400Y-201707650I243750J0D01*
G01*
X190745900Y-201707650D01*
G75*
G02*
X190989650Y-201951400I0J-243750D01*
G01*
X190989650Y-202863900D01*
G75*
G02*
X190745900Y-203107650I-243750J0D01*
G01*
X190258400Y-203107650D01*
G75*
G02*
X190014650Y-202863900I0J243750D01*
G01*
G37*
G36*
G01*
X183664650Y-207626400D02*
X183664650Y-206713900D01*
G75*
G02*
X183908400Y-206470150I243750J0D01*
G01*
X184395900Y-206470150D01*
G75*
G02*
X184639650Y-206713900I0J-243750D01*
G01*
X184639650Y-207626400D01*
G75*
G02*
X184395900Y-207870150I-243750J0D01*
G01*
X183908400Y-207870150D01*
G75*
G02*
X183664650Y-207626400I0J243750D01*
G01*
G37*
G36*
G01*
X181789650Y-207626400D02*
X181789650Y-206713900D01*
G75*
G02*
X182033400Y-206470150I243750J0D01*
G01*
X182520900Y-206470150D01*
G75*
G02*
X182764650Y-206713900I0J-243750D01*
G01*
X182764650Y-207626400D01*
G75*
G02*
X182520900Y-207870150I-243750J0D01*
G01*
X182033400Y-207870150D01*
G75*
G02*
X181789650Y-207626400I0J243750D01*
G01*
G37*
M02*
