G04 #@! TF.GenerationSoftware,KiCad,Pcbnew,(5.1.4)-1*
G04 #@! TF.CreationDate,2021-10-31T22:39:57+11:00*
G04 #@! TF.ProjectId,x60,7836302e-6b69-4636-9164-5f7063625858,rev?*
G04 #@! TF.SameCoordinates,Original*
G04 #@! TF.FileFunction,Legend,Bot*
G04 #@! TF.FilePolarity,Positive*
%FSLAX46Y46*%
G04 Gerber Fmt 4.6, Leading zero omitted, Abs format (unit mm)*
G04 Created by KiCad (PCBNEW (5.1.4)-1) date 2021-10-31 22:39:57*
%MOMM*%
%LPD*%
G04 APERTURE LIST*
%ADD10C,0.120000*%
%ADD11C,0.150000*%
G04 APERTURE END LIST*
D10*
X89495000Y-125551078D02*
X89495000Y-125033922D01*
X90915000Y-125551078D02*
X90915000Y-125033922D01*
X86135000Y-125561078D02*
X86135000Y-125043922D01*
X87555000Y-125561078D02*
X87555000Y-125043922D01*
X91535000Y-130207064D02*
X91535000Y-129002936D01*
X93355000Y-130207064D02*
X93355000Y-129002936D01*
X178428750Y-183070172D02*
X178428750Y-183587328D01*
X177008750Y-183070172D02*
X177008750Y-183587328D01*
X184668750Y-185016250D02*
X180668750Y-185016250D01*
X184668750Y-181716250D02*
X184668750Y-185016250D01*
X185433750Y-183674828D02*
X185433750Y-183157672D01*
X186853750Y-183674828D02*
X186853750Y-183157672D01*
X353647500Y-196365000D02*
X353647500Y-192465000D01*
X351647500Y-196365000D02*
X351647500Y-192465000D01*
X353647500Y-196365000D02*
X351647500Y-196365000D01*
D11*
X176493750Y-197391250D02*
X175218750Y-197391250D01*
X186843750Y-197966250D02*
X186168750Y-197966250D01*
X186843750Y-187616250D02*
X186168750Y-187616250D01*
X176493750Y-187616250D02*
X177168750Y-187616250D01*
X176493750Y-197966250D02*
X177168750Y-197966250D01*
X176493750Y-187616250D02*
X176493750Y-188291250D01*
X186843750Y-187616250D02*
X186843750Y-188291250D01*
X186843750Y-197966250D02*
X186843750Y-197291250D01*
X176493750Y-197966250D02*
X176493750Y-197391250D01*
X162118750Y-189847500D02*
X162118750Y-195047500D01*
X162118750Y-195047500D02*
X167318750Y-195047500D01*
X167318750Y-195047500D02*
X167318750Y-189847500D01*
X167318750Y-189847500D02*
X162118750Y-189847500D01*
X165718750Y-192447500D02*
G75*
G03X165718750Y-192447500I-1000000J0D01*
G01*
D10*
X190927500Y-199822328D02*
X190927500Y-199305172D01*
X192347500Y-199822328D02*
X192347500Y-199305172D01*
X170985000Y-183313922D02*
X170985000Y-183831078D01*
X169565000Y-183313922D02*
X169565000Y-183831078D01*
X145783578Y-192055000D02*
X145266422Y-192055000D01*
X145783578Y-190635000D02*
X145266422Y-190635000D01*
X145776078Y-194605000D02*
X145258922Y-194605000D01*
X145776078Y-193185000D02*
X145258922Y-193185000D01*
X354441250Y-178108750D02*
X354441250Y-174208750D01*
X352441250Y-178108750D02*
X352441250Y-174208750D01*
X354441250Y-178108750D02*
X352441250Y-178108750D01*
X354441250Y-120958750D02*
X354441250Y-117058750D01*
X352441250Y-120958750D02*
X352441250Y-117058750D01*
X354441250Y-120958750D02*
X352441250Y-120958750D01*
X352060000Y-140802500D02*
X352060000Y-136902500D01*
X350060000Y-140802500D02*
X350060000Y-136902500D01*
X352060000Y-140802500D02*
X350060000Y-140802500D01*
X320310000Y-120958750D02*
X320310000Y-117058750D01*
X318310000Y-120958750D02*
X318310000Y-117058750D01*
X320310000Y-120958750D02*
X318310000Y-120958750D01*
X329041250Y-196365000D02*
X329041250Y-192465000D01*
X327041250Y-196365000D02*
X327041250Y-192465000D01*
X329041250Y-196365000D02*
X327041250Y-196365000D01*
X348091250Y-159058750D02*
X348091250Y-155158750D01*
X346091250Y-159058750D02*
X346091250Y-155158750D01*
X348091250Y-159058750D02*
X346091250Y-159058750D01*
X325866250Y-140802500D02*
X325866250Y-136902500D01*
X323866250Y-140802500D02*
X323866250Y-136902500D01*
X325866250Y-140802500D02*
X323866250Y-140802500D01*
X316341250Y-120958750D02*
X316341250Y-117058750D01*
X314341250Y-120958750D02*
X314341250Y-117058750D01*
X316341250Y-120958750D02*
X314341250Y-120958750D01*
X306816250Y-196427500D02*
X306816250Y-192527500D01*
X304816250Y-196427500D02*
X304816250Y-192527500D01*
X306816250Y-196427500D02*
X304816250Y-196427500D01*
X309197500Y-178108750D02*
X309197500Y-174208750D01*
X307197500Y-178108750D02*
X307197500Y-174208750D01*
X309197500Y-178108750D02*
X307197500Y-178108750D01*
X311578750Y-159058750D02*
X311578750Y-155158750D01*
X309578750Y-159058750D02*
X309578750Y-155158750D01*
X311578750Y-159058750D02*
X309578750Y-159058750D01*
X306816250Y-140802500D02*
X306816250Y-136902500D01*
X304816250Y-140802500D02*
X304816250Y-136902500D01*
X306816250Y-140802500D02*
X304816250Y-140802500D01*
X297291250Y-120958750D02*
X297291250Y-117058750D01*
X295291250Y-120958750D02*
X295291250Y-117058750D01*
X297291250Y-120958750D02*
X295291250Y-120958750D01*
X281416250Y-196427500D02*
X281416250Y-192527500D01*
X279416250Y-196427500D02*
X279416250Y-192527500D01*
X281416250Y-196427500D02*
X279416250Y-196427500D01*
X303641250Y-178108750D02*
X303641250Y-174208750D01*
X301641250Y-178108750D02*
X301641250Y-174208750D01*
X303641250Y-178108750D02*
X301641250Y-178108750D01*
X292528750Y-159058750D02*
X292528750Y-155158750D01*
X290528750Y-159058750D02*
X290528750Y-155158750D01*
X292528750Y-159058750D02*
X290528750Y-159058750D01*
X287766250Y-140865000D02*
X287766250Y-136965000D01*
X285766250Y-140865000D02*
X285766250Y-136965000D01*
X287766250Y-140865000D02*
X285766250Y-140865000D01*
X278241250Y-120958750D02*
X278241250Y-117058750D01*
X276241250Y-120958750D02*
X276241250Y-117058750D01*
X278241250Y-120958750D02*
X276241250Y-120958750D01*
X282210000Y-178108750D02*
X282210000Y-174208750D01*
X280210000Y-178108750D02*
X280210000Y-174208750D01*
X282210000Y-178108750D02*
X280210000Y-178108750D01*
X273478750Y-159058750D02*
X273478750Y-155158750D01*
X271478750Y-159058750D02*
X271478750Y-155158750D01*
X273478750Y-159058750D02*
X271478750Y-159058750D01*
X268716250Y-140802500D02*
X268716250Y-136902500D01*
X266716250Y-140802500D02*
X266716250Y-136902500D01*
X268716250Y-140802500D02*
X266716250Y-140802500D01*
X259191250Y-121021250D02*
X259191250Y-117121250D01*
X257191250Y-121021250D02*
X257191250Y-117121250D01*
X259191250Y-121021250D02*
X257191250Y-121021250D01*
X263953750Y-178902500D02*
X263953750Y-175002500D01*
X261953750Y-178902500D02*
X261953750Y-175002500D01*
X263953750Y-178902500D02*
X261953750Y-178902500D01*
X254428750Y-159058750D02*
X254428750Y-155158750D01*
X252428750Y-159058750D02*
X252428750Y-155158750D01*
X254428750Y-159058750D02*
X252428750Y-159058750D01*
X249666250Y-140802500D02*
X249666250Y-136902500D01*
X247666250Y-140802500D02*
X247666250Y-136902500D01*
X249666250Y-140802500D02*
X247666250Y-140802500D01*
X240141250Y-120958750D02*
X240141250Y-117058750D01*
X238141250Y-120958750D02*
X238141250Y-117058750D01*
X240141250Y-120958750D02*
X238141250Y-120958750D01*
X222678750Y-196427500D02*
X222678750Y-192527500D01*
X220678750Y-196427500D02*
X220678750Y-192527500D01*
X222678750Y-196427500D02*
X220678750Y-196427500D01*
X244903750Y-178902500D02*
X244903750Y-175002500D01*
X242903750Y-178902500D02*
X242903750Y-175002500D01*
X244903750Y-178902500D02*
X242903750Y-178902500D01*
X235378750Y-159058750D02*
X235378750Y-155158750D01*
X233378750Y-159058750D02*
X233378750Y-155158750D01*
X235378750Y-159058750D02*
X233378750Y-159058750D01*
X230616250Y-140802500D02*
X230616250Y-136902500D01*
X228616250Y-140802500D02*
X228616250Y-136902500D01*
X230616250Y-140802500D02*
X228616250Y-140802500D01*
X221091250Y-120958750D02*
X221091250Y-117058750D01*
X219091250Y-120958750D02*
X219091250Y-117058750D01*
X221091250Y-120958750D02*
X219091250Y-120958750D01*
X226647500Y-178902500D02*
X226647500Y-175002500D01*
X224647500Y-178902500D02*
X224647500Y-175002500D01*
X226647500Y-178902500D02*
X224647500Y-178902500D01*
X216328750Y-159058750D02*
X216328750Y-155158750D01*
X214328750Y-159058750D02*
X214328750Y-155158750D01*
X216328750Y-159058750D02*
X214328750Y-159058750D01*
X211566250Y-140802500D02*
X211566250Y-136902500D01*
X209566250Y-140802500D02*
X209566250Y-136902500D01*
X211566250Y-140802500D02*
X209566250Y-140802500D01*
X202041250Y-120958750D02*
X202041250Y-117058750D01*
X200041250Y-120958750D02*
X200041250Y-117058750D01*
X202041250Y-120958750D02*
X200041250Y-120958750D01*
X206803750Y-178902500D02*
X206803750Y-175002500D01*
X204803750Y-178902500D02*
X204803750Y-175002500D01*
X206803750Y-178902500D02*
X204803750Y-178902500D01*
X197278750Y-159058750D02*
X197278750Y-155158750D01*
X195278750Y-159058750D02*
X195278750Y-155158750D01*
X197278750Y-159058750D02*
X195278750Y-159058750D01*
X192516250Y-140802500D02*
X192516250Y-136902500D01*
X190516250Y-140802500D02*
X190516250Y-136902500D01*
X192516250Y-140802500D02*
X190516250Y-140802500D01*
X182991250Y-120958750D02*
X182991250Y-117058750D01*
X180991250Y-120958750D02*
X180991250Y-117058750D01*
X182991250Y-120958750D02*
X180991250Y-120958750D01*
X140128750Y-196427500D02*
X140128750Y-192527500D01*
X138128750Y-196427500D02*
X138128750Y-192527500D01*
X140128750Y-196427500D02*
X138128750Y-196427500D01*
X187753750Y-178902500D02*
X187753750Y-175002500D01*
X185753750Y-178902500D02*
X185753750Y-175002500D01*
X187753750Y-178902500D02*
X185753750Y-178902500D01*
X178228750Y-159058750D02*
X178228750Y-155158750D01*
X176228750Y-159058750D02*
X176228750Y-155158750D01*
X178228750Y-159058750D02*
X176228750Y-159058750D01*
X173466250Y-140802500D02*
X173466250Y-136902500D01*
X171466250Y-140802500D02*
X171466250Y-136902500D01*
X173466250Y-140802500D02*
X171466250Y-140802500D01*
X163941250Y-120958750D02*
X163941250Y-117058750D01*
X161941250Y-120958750D02*
X161941250Y-117058750D01*
X163941250Y-120958750D02*
X161941250Y-120958750D01*
X168703750Y-178902500D02*
X168703750Y-175002500D01*
X166703750Y-178902500D02*
X166703750Y-175002500D01*
X168703750Y-178902500D02*
X166703750Y-178902500D01*
X159178750Y-159058750D02*
X159178750Y-155158750D01*
X157178750Y-159058750D02*
X157178750Y-155158750D01*
X159178750Y-159058750D02*
X157178750Y-159058750D01*
X154416250Y-140802500D02*
X154416250Y-136902500D01*
X152416250Y-140802500D02*
X152416250Y-136902500D01*
X154416250Y-140802500D02*
X152416250Y-140802500D01*
X144891250Y-120958750D02*
X144891250Y-117058750D01*
X142891250Y-120958750D02*
X142891250Y-117058750D01*
X144891250Y-120958750D02*
X142891250Y-120958750D01*
X116316250Y-196365000D02*
X116316250Y-192465000D01*
X114316250Y-196365000D02*
X114316250Y-192465000D01*
X116316250Y-196365000D02*
X114316250Y-196365000D01*
X149653750Y-178902500D02*
X149653750Y-175002500D01*
X147653750Y-178902500D02*
X147653750Y-175002500D01*
X149653750Y-178902500D02*
X147653750Y-178902500D01*
X140128750Y-159058750D02*
X140128750Y-155158750D01*
X138128750Y-159058750D02*
X138128750Y-155158750D01*
X140128750Y-159058750D02*
X138128750Y-159058750D01*
X135366250Y-140802500D02*
X135366250Y-136902500D01*
X133366250Y-140802500D02*
X133366250Y-136902500D01*
X135366250Y-140802500D02*
X133366250Y-140802500D01*
X125841250Y-120958750D02*
X125841250Y-117058750D01*
X123841250Y-120958750D02*
X123841250Y-117058750D01*
X125841250Y-120958750D02*
X123841250Y-120958750D01*
X130603750Y-178902500D02*
X130603750Y-175002500D01*
X128603750Y-178902500D02*
X128603750Y-175002500D01*
X130603750Y-178902500D02*
X128603750Y-178902500D01*
X121078750Y-159058750D02*
X121078750Y-155158750D01*
X119078750Y-159058750D02*
X119078750Y-155158750D01*
X121078750Y-159058750D02*
X119078750Y-159058750D01*
X116316250Y-140802500D02*
X116316250Y-136902500D01*
X114316250Y-140802500D02*
X114316250Y-136902500D01*
X116316250Y-140802500D02*
X114316250Y-140802500D01*
X106791250Y-121021250D02*
X106791250Y-117121250D01*
X104791250Y-121021250D02*
X104791250Y-117121250D01*
X106791250Y-121021250D02*
X104791250Y-121021250D01*
X94091250Y-196365000D02*
X94091250Y-192465000D01*
X92091250Y-196365000D02*
X92091250Y-192465000D01*
X94091250Y-196365000D02*
X92091250Y-196365000D01*
X109966250Y-178902500D02*
X109966250Y-175002500D01*
X107966250Y-178902500D02*
X107966250Y-175002500D01*
X109966250Y-178902500D02*
X107966250Y-178902500D01*
X99647500Y-159058750D02*
X99647500Y-155158750D01*
X97647500Y-159058750D02*
X97647500Y-155158750D01*
X99647500Y-159058750D02*
X97647500Y-159058750D01*
X96472500Y-140802500D02*
X96472500Y-136902500D01*
X94472500Y-140802500D02*
X94472500Y-136902500D01*
X96472500Y-140802500D02*
X94472500Y-140802500D01*
X72415000Y-120305000D02*
X72415000Y-116405000D01*
X70415000Y-120305000D02*
X70415000Y-116405000D01*
X72415000Y-120305000D02*
X70415000Y-120305000D01*
X174160000Y-200126422D02*
X174160000Y-200643578D01*
X172740000Y-200126422D02*
X172740000Y-200643578D01*
X190996250Y-189387328D02*
X190996250Y-188870172D01*
X192416250Y-189387328D02*
X192416250Y-188870172D01*
X172103750Y-189695172D02*
X172103750Y-190212328D01*
X170683750Y-189695172D02*
X170683750Y-190212328D01*
X190035000Y-200920172D02*
X190035000Y-201437328D01*
X188615000Y-200920172D02*
X188615000Y-201437328D01*
X171946250Y-184118578D02*
X171946250Y-183601422D01*
X173366250Y-184118578D02*
X173366250Y-183601422D01*
D11*
X90038095Y-116182380D02*
X90038095Y-116991904D01*
X89990476Y-117087142D01*
X89942857Y-117134761D01*
X89847619Y-117182380D01*
X89657142Y-117182380D01*
X89561904Y-117134761D01*
X89514285Y-117087142D01*
X89466666Y-116991904D01*
X89466666Y-116182380D01*
X89038095Y-117134761D02*
X88895238Y-117182380D01*
X88657142Y-117182380D01*
X88561904Y-117134761D01*
X88514285Y-117087142D01*
X88466666Y-116991904D01*
X88466666Y-116896666D01*
X88514285Y-116801428D01*
X88561904Y-116753809D01*
X88657142Y-116706190D01*
X88847619Y-116658571D01*
X88942857Y-116610952D01*
X88990476Y-116563333D01*
X89038095Y-116468095D01*
X89038095Y-116372857D01*
X88990476Y-116277619D01*
X88942857Y-116230000D01*
X88847619Y-116182380D01*
X88609523Y-116182380D01*
X88466666Y-116230000D01*
X87704761Y-116658571D02*
X87561904Y-116706190D01*
X87514285Y-116753809D01*
X87466666Y-116849047D01*
X87466666Y-116991904D01*
X87514285Y-117087142D01*
X87561904Y-117134761D01*
X87657142Y-117182380D01*
X88038095Y-117182380D01*
X88038095Y-116182380D01*
X87704761Y-116182380D01*
X87609523Y-116230000D01*
X87561904Y-116277619D01*
X87514285Y-116372857D01*
X87514285Y-116468095D01*
X87561904Y-116563333D01*
X87609523Y-116610952D01*
X87704761Y-116658571D01*
X88038095Y-116658571D01*
X86514285Y-117182380D02*
X87085714Y-117182380D01*
X86800000Y-117182380D02*
X86800000Y-116182380D01*
X86895238Y-116325238D01*
X86990476Y-116420476D01*
X87085714Y-116468095D01*
X92307380Y-125125833D02*
X91831190Y-124792500D01*
X92307380Y-124554404D02*
X91307380Y-124554404D01*
X91307380Y-124935357D01*
X91355000Y-125030595D01*
X91402619Y-125078214D01*
X91497857Y-125125833D01*
X91640714Y-125125833D01*
X91735952Y-125078214D01*
X91783571Y-125030595D01*
X91831190Y-124935357D01*
X91831190Y-124554404D01*
X91307380Y-125982976D02*
X91307380Y-125792500D01*
X91355000Y-125697261D01*
X91402619Y-125649642D01*
X91545476Y-125554404D01*
X91735952Y-125506785D01*
X92116904Y-125506785D01*
X92212142Y-125554404D01*
X92259761Y-125602023D01*
X92307380Y-125697261D01*
X92307380Y-125887738D01*
X92259761Y-125982976D01*
X92212142Y-126030595D01*
X92116904Y-126078214D01*
X91878809Y-126078214D01*
X91783571Y-126030595D01*
X91735952Y-125982976D01*
X91688333Y-125887738D01*
X91688333Y-125697261D01*
X91735952Y-125602023D01*
X91783571Y-125554404D01*
X91878809Y-125506785D01*
X88947380Y-125135833D02*
X88471190Y-124802500D01*
X88947380Y-124564404D02*
X87947380Y-124564404D01*
X87947380Y-124945357D01*
X87995000Y-125040595D01*
X88042619Y-125088214D01*
X88137857Y-125135833D01*
X88280714Y-125135833D01*
X88375952Y-125088214D01*
X88423571Y-125040595D01*
X88471190Y-124945357D01*
X88471190Y-124564404D01*
X87947380Y-126040595D02*
X87947380Y-125564404D01*
X88423571Y-125516785D01*
X88375952Y-125564404D01*
X88328333Y-125659642D01*
X88328333Y-125897738D01*
X88375952Y-125992976D01*
X88423571Y-126040595D01*
X88518809Y-126088214D01*
X88756904Y-126088214D01*
X88852142Y-126040595D01*
X88899761Y-125992976D01*
X88947380Y-125897738D01*
X88947380Y-125659642D01*
X88899761Y-125564404D01*
X88852142Y-125516785D01*
X94193571Y-129271666D02*
X94193571Y-128938333D01*
X94717380Y-128938333D02*
X93717380Y-128938333D01*
X93717380Y-129414523D01*
X94717380Y-130319285D02*
X94717380Y-129747857D01*
X94717380Y-130033571D02*
X93717380Y-130033571D01*
X93860238Y-129938333D01*
X93955476Y-129843095D01*
X94003095Y-129747857D01*
X176425892Y-183162083D02*
X176473511Y-183114464D01*
X176521130Y-182971607D01*
X176521130Y-182876369D01*
X176473511Y-182733511D01*
X176378273Y-182638273D01*
X176283035Y-182590654D01*
X176092559Y-182543035D01*
X175949702Y-182543035D01*
X175759226Y-182590654D01*
X175663988Y-182638273D01*
X175568750Y-182733511D01*
X175521130Y-182876369D01*
X175521130Y-182971607D01*
X175568750Y-183114464D01*
X175616369Y-183162083D01*
X175521130Y-183495416D02*
X175521130Y-184114464D01*
X175902083Y-183781130D01*
X175902083Y-183923988D01*
X175949702Y-184019226D01*
X175997321Y-184066845D01*
X176092559Y-184114464D01*
X176330654Y-184114464D01*
X176425892Y-184066845D01*
X176473511Y-184019226D01*
X176521130Y-183923988D01*
X176521130Y-183638273D01*
X176473511Y-183543035D01*
X176425892Y-183495416D01*
X183144940Y-180892440D02*
X183144940Y-181368630D01*
X183478273Y-180368630D02*
X183144940Y-180892440D01*
X182811607Y-180368630D01*
X181954464Y-181368630D02*
X182525892Y-181368630D01*
X182240178Y-181368630D02*
X182240178Y-180368630D01*
X182335416Y-180511488D01*
X182430654Y-180606726D01*
X182525892Y-180654345D01*
X188150892Y-183249583D02*
X188198511Y-183201964D01*
X188246130Y-183059107D01*
X188246130Y-182963869D01*
X188198511Y-182821011D01*
X188103273Y-182725773D01*
X188008035Y-182678154D01*
X187817559Y-182630535D01*
X187674702Y-182630535D01*
X187484226Y-182678154D01*
X187388988Y-182725773D01*
X187293750Y-182821011D01*
X187246130Y-182963869D01*
X187246130Y-183059107D01*
X187293750Y-183201964D01*
X187341369Y-183249583D01*
X187341369Y-183630535D02*
X187293750Y-183678154D01*
X187246130Y-183773392D01*
X187246130Y-184011488D01*
X187293750Y-184106726D01*
X187341369Y-184154345D01*
X187436607Y-184201964D01*
X187531845Y-184201964D01*
X187674702Y-184154345D01*
X188246130Y-183582916D01*
X188246130Y-184201964D01*
X355099880Y-192900714D02*
X354099880Y-192900714D01*
X354099880Y-193138809D01*
X354147500Y-193281666D01*
X354242738Y-193376904D01*
X354337976Y-193424523D01*
X354528452Y-193472142D01*
X354671309Y-193472142D01*
X354861785Y-193424523D01*
X354957023Y-193376904D01*
X355052261Y-193281666D01*
X355099880Y-193138809D01*
X355099880Y-192900714D01*
X354099880Y-194329285D02*
X354099880Y-194138809D01*
X354147500Y-194043571D01*
X354195119Y-193995952D01*
X354337976Y-193900714D01*
X354528452Y-193853095D01*
X354909404Y-193853095D01*
X355004642Y-193900714D01*
X355052261Y-193948333D01*
X355099880Y-194043571D01*
X355099880Y-194234047D01*
X355052261Y-194329285D01*
X355004642Y-194376904D01*
X354909404Y-194424523D01*
X354671309Y-194424523D01*
X354576071Y-194376904D01*
X354528452Y-194329285D01*
X354480833Y-194234047D01*
X354480833Y-194043571D01*
X354528452Y-193948333D01*
X354576071Y-193900714D01*
X354671309Y-193853095D01*
X354099880Y-194757857D02*
X354099880Y-195376904D01*
X354480833Y-195043571D01*
X354480833Y-195186428D01*
X354528452Y-195281666D01*
X354576071Y-195329285D01*
X354671309Y-195376904D01*
X354909404Y-195376904D01*
X355004642Y-195329285D01*
X355052261Y-195281666D01*
X355099880Y-195186428D01*
X355099880Y-194900714D01*
X355052261Y-194805476D01*
X355004642Y-194757857D01*
X182430654Y-199693630D02*
X182430654Y-200503154D01*
X182383035Y-200598392D01*
X182335416Y-200646011D01*
X182240178Y-200693630D01*
X182049702Y-200693630D01*
X181954464Y-200646011D01*
X181906845Y-200598392D01*
X181859226Y-200503154D01*
X181859226Y-199693630D01*
X180859226Y-200693630D02*
X181430654Y-200693630D01*
X181144940Y-200693630D02*
X181144940Y-199693630D01*
X181240178Y-199836488D01*
X181335416Y-199931726D01*
X181430654Y-199979345D01*
X169187511Y-191114166D02*
X169235130Y-191257023D01*
X169235130Y-191495119D01*
X169187511Y-191590357D01*
X169139892Y-191637976D01*
X169044654Y-191685595D01*
X168949416Y-191685595D01*
X168854178Y-191637976D01*
X168806559Y-191590357D01*
X168758940Y-191495119D01*
X168711321Y-191304642D01*
X168663702Y-191209404D01*
X168616083Y-191161785D01*
X168520845Y-191114166D01*
X168425607Y-191114166D01*
X168330369Y-191161785D01*
X168282750Y-191209404D01*
X168235130Y-191304642D01*
X168235130Y-191542738D01*
X168282750Y-191685595D01*
X168235130Y-192018928D02*
X169235130Y-192257023D01*
X168520845Y-192447500D01*
X169235130Y-192637976D01*
X168235130Y-192876071D01*
X169235130Y-193780833D02*
X169235130Y-193209404D01*
X169235130Y-193495119D02*
X168235130Y-193495119D01*
X168377988Y-193399880D01*
X168473226Y-193304642D01*
X168520845Y-193209404D01*
X193739880Y-199397083D02*
X193263690Y-199063750D01*
X193739880Y-198825654D02*
X192739880Y-198825654D01*
X192739880Y-199206607D01*
X192787500Y-199301845D01*
X192835119Y-199349464D01*
X192930357Y-199397083D01*
X193073214Y-199397083D01*
X193168452Y-199349464D01*
X193216071Y-199301845D01*
X193263690Y-199206607D01*
X193263690Y-198825654D01*
X193073214Y-200254226D02*
X193739880Y-200254226D01*
X192692261Y-200016130D02*
X193406547Y-199778035D01*
X193406547Y-200397083D01*
X169077380Y-183405833D02*
X168601190Y-183072500D01*
X169077380Y-182834404D02*
X168077380Y-182834404D01*
X168077380Y-183215357D01*
X168125000Y-183310595D01*
X168172619Y-183358214D01*
X168267857Y-183405833D01*
X168410714Y-183405833D01*
X168505952Y-183358214D01*
X168553571Y-183310595D01*
X168601190Y-183215357D01*
X168601190Y-182834404D01*
X168077380Y-183739166D02*
X168077380Y-184358214D01*
X168458333Y-184024880D01*
X168458333Y-184167738D01*
X168505952Y-184262976D01*
X168553571Y-184310595D01*
X168648809Y-184358214D01*
X168886904Y-184358214D01*
X168982142Y-184310595D01*
X169029761Y-184262976D01*
X169077380Y-184167738D01*
X169077380Y-183882023D01*
X169029761Y-183786785D01*
X168982142Y-183739166D01*
X145691666Y-190147380D02*
X146025000Y-189671190D01*
X146263095Y-190147380D02*
X146263095Y-189147380D01*
X145882142Y-189147380D01*
X145786904Y-189195000D01*
X145739285Y-189242619D01*
X145691666Y-189337857D01*
X145691666Y-189480714D01*
X145739285Y-189575952D01*
X145786904Y-189623571D01*
X145882142Y-189671190D01*
X146263095Y-189671190D01*
X145310714Y-189242619D02*
X145263095Y-189195000D01*
X145167857Y-189147380D01*
X144929761Y-189147380D01*
X144834523Y-189195000D01*
X144786904Y-189242619D01*
X144739285Y-189337857D01*
X144739285Y-189433095D01*
X144786904Y-189575952D01*
X145358333Y-190147380D01*
X144739285Y-190147380D01*
X145684166Y-192697380D02*
X146017500Y-192221190D01*
X146255595Y-192697380D02*
X146255595Y-191697380D01*
X145874642Y-191697380D01*
X145779404Y-191745000D01*
X145731785Y-191792619D01*
X145684166Y-191887857D01*
X145684166Y-192030714D01*
X145731785Y-192125952D01*
X145779404Y-192173571D01*
X145874642Y-192221190D01*
X146255595Y-192221190D01*
X144731785Y-192697380D02*
X145303214Y-192697380D01*
X145017500Y-192697380D02*
X145017500Y-191697380D01*
X145112738Y-191840238D01*
X145207976Y-191935476D01*
X145303214Y-191983095D01*
X355893630Y-174644464D02*
X354893630Y-174644464D01*
X354893630Y-174882559D01*
X354941250Y-175025416D01*
X355036488Y-175120654D01*
X355131726Y-175168273D01*
X355322202Y-175215892D01*
X355465059Y-175215892D01*
X355655535Y-175168273D01*
X355750773Y-175120654D01*
X355846011Y-175025416D01*
X355893630Y-174882559D01*
X355893630Y-174644464D01*
X354893630Y-176073035D02*
X354893630Y-175882559D01*
X354941250Y-175787321D01*
X354988869Y-175739702D01*
X355131726Y-175644464D01*
X355322202Y-175596845D01*
X355703154Y-175596845D01*
X355798392Y-175644464D01*
X355846011Y-175692083D01*
X355893630Y-175787321D01*
X355893630Y-175977797D01*
X355846011Y-176073035D01*
X355798392Y-176120654D01*
X355703154Y-176168273D01*
X355465059Y-176168273D01*
X355369821Y-176120654D01*
X355322202Y-176073035D01*
X355274583Y-175977797D01*
X355274583Y-175787321D01*
X355322202Y-175692083D01*
X355369821Y-175644464D01*
X355465059Y-175596845D01*
X354988869Y-176549226D02*
X354941250Y-176596845D01*
X354893630Y-176692083D01*
X354893630Y-176930178D01*
X354941250Y-177025416D01*
X354988869Y-177073035D01*
X355084107Y-177120654D01*
X355179345Y-177120654D01*
X355322202Y-177073035D01*
X355893630Y-176501607D01*
X355893630Y-177120654D01*
X355893630Y-117494464D02*
X354893630Y-117494464D01*
X354893630Y-117732559D01*
X354941250Y-117875416D01*
X355036488Y-117970654D01*
X355131726Y-118018273D01*
X355322202Y-118065892D01*
X355465059Y-118065892D01*
X355655535Y-118018273D01*
X355750773Y-117970654D01*
X355846011Y-117875416D01*
X355893630Y-117732559D01*
X355893630Y-117494464D01*
X354893630Y-118923035D02*
X354893630Y-118732559D01*
X354941250Y-118637321D01*
X354988869Y-118589702D01*
X355131726Y-118494464D01*
X355322202Y-118446845D01*
X355703154Y-118446845D01*
X355798392Y-118494464D01*
X355846011Y-118542083D01*
X355893630Y-118637321D01*
X355893630Y-118827797D01*
X355846011Y-118923035D01*
X355798392Y-118970654D01*
X355703154Y-119018273D01*
X355465059Y-119018273D01*
X355369821Y-118970654D01*
X355322202Y-118923035D01*
X355274583Y-118827797D01*
X355274583Y-118637321D01*
X355322202Y-118542083D01*
X355369821Y-118494464D01*
X355465059Y-118446845D01*
X355893630Y-119970654D02*
X355893630Y-119399226D01*
X355893630Y-119684940D02*
X354893630Y-119684940D01*
X355036488Y-119589702D01*
X355131726Y-119494464D01*
X355179345Y-119399226D01*
X353512380Y-137338214D02*
X352512380Y-137338214D01*
X352512380Y-137576309D01*
X352560000Y-137719166D01*
X352655238Y-137814404D01*
X352750476Y-137862023D01*
X352940952Y-137909642D01*
X353083809Y-137909642D01*
X353274285Y-137862023D01*
X353369523Y-137814404D01*
X353464761Y-137719166D01*
X353512380Y-137576309D01*
X353512380Y-137338214D01*
X352512380Y-138766785D02*
X352512380Y-138576309D01*
X352560000Y-138481071D01*
X352607619Y-138433452D01*
X352750476Y-138338214D01*
X352940952Y-138290595D01*
X353321904Y-138290595D01*
X353417142Y-138338214D01*
X353464761Y-138385833D01*
X353512380Y-138481071D01*
X353512380Y-138671547D01*
X353464761Y-138766785D01*
X353417142Y-138814404D01*
X353321904Y-138862023D01*
X353083809Y-138862023D01*
X352988571Y-138814404D01*
X352940952Y-138766785D01*
X352893333Y-138671547D01*
X352893333Y-138481071D01*
X352940952Y-138385833D01*
X352988571Y-138338214D01*
X353083809Y-138290595D01*
X352512380Y-139481071D02*
X352512380Y-139576309D01*
X352560000Y-139671547D01*
X352607619Y-139719166D01*
X352702857Y-139766785D01*
X352893333Y-139814404D01*
X353131428Y-139814404D01*
X353321904Y-139766785D01*
X353417142Y-139719166D01*
X353464761Y-139671547D01*
X353512380Y-139576309D01*
X353512380Y-139481071D01*
X353464761Y-139385833D01*
X353417142Y-139338214D01*
X353321904Y-139290595D01*
X353131428Y-139242976D01*
X352893333Y-139242976D01*
X352702857Y-139290595D01*
X352607619Y-139338214D01*
X352560000Y-139385833D01*
X352512380Y-139481071D01*
X321762380Y-117494464D02*
X320762380Y-117494464D01*
X320762380Y-117732559D01*
X320810000Y-117875416D01*
X320905238Y-117970654D01*
X321000476Y-118018273D01*
X321190952Y-118065892D01*
X321333809Y-118065892D01*
X321524285Y-118018273D01*
X321619523Y-117970654D01*
X321714761Y-117875416D01*
X321762380Y-117732559D01*
X321762380Y-117494464D01*
X320762380Y-118970654D02*
X320762380Y-118494464D01*
X321238571Y-118446845D01*
X321190952Y-118494464D01*
X321143333Y-118589702D01*
X321143333Y-118827797D01*
X321190952Y-118923035D01*
X321238571Y-118970654D01*
X321333809Y-119018273D01*
X321571904Y-119018273D01*
X321667142Y-118970654D01*
X321714761Y-118923035D01*
X321762380Y-118827797D01*
X321762380Y-118589702D01*
X321714761Y-118494464D01*
X321667142Y-118446845D01*
X321762380Y-119494464D02*
X321762380Y-119684940D01*
X321714761Y-119780178D01*
X321667142Y-119827797D01*
X321524285Y-119923035D01*
X321333809Y-119970654D01*
X320952857Y-119970654D01*
X320857619Y-119923035D01*
X320810000Y-119875416D01*
X320762380Y-119780178D01*
X320762380Y-119589702D01*
X320810000Y-119494464D01*
X320857619Y-119446845D01*
X320952857Y-119399226D01*
X321190952Y-119399226D01*
X321286190Y-119446845D01*
X321333809Y-119494464D01*
X321381428Y-119589702D01*
X321381428Y-119780178D01*
X321333809Y-119875416D01*
X321286190Y-119923035D01*
X321190952Y-119970654D01*
X330493630Y-192900714D02*
X329493630Y-192900714D01*
X329493630Y-193138809D01*
X329541250Y-193281666D01*
X329636488Y-193376904D01*
X329731726Y-193424523D01*
X329922202Y-193472142D01*
X330065059Y-193472142D01*
X330255535Y-193424523D01*
X330350773Y-193376904D01*
X330446011Y-193281666D01*
X330493630Y-193138809D01*
X330493630Y-192900714D01*
X329493630Y-194376904D02*
X329493630Y-193900714D01*
X329969821Y-193853095D01*
X329922202Y-193900714D01*
X329874583Y-193995952D01*
X329874583Y-194234047D01*
X329922202Y-194329285D01*
X329969821Y-194376904D01*
X330065059Y-194424523D01*
X330303154Y-194424523D01*
X330398392Y-194376904D01*
X330446011Y-194329285D01*
X330493630Y-194234047D01*
X330493630Y-193995952D01*
X330446011Y-193900714D01*
X330398392Y-193853095D01*
X329922202Y-194995952D02*
X329874583Y-194900714D01*
X329826964Y-194853095D01*
X329731726Y-194805476D01*
X329684107Y-194805476D01*
X329588869Y-194853095D01*
X329541250Y-194900714D01*
X329493630Y-194995952D01*
X329493630Y-195186428D01*
X329541250Y-195281666D01*
X329588869Y-195329285D01*
X329684107Y-195376904D01*
X329731726Y-195376904D01*
X329826964Y-195329285D01*
X329874583Y-195281666D01*
X329922202Y-195186428D01*
X329922202Y-194995952D01*
X329969821Y-194900714D01*
X330017440Y-194853095D01*
X330112678Y-194805476D01*
X330303154Y-194805476D01*
X330398392Y-194853095D01*
X330446011Y-194900714D01*
X330493630Y-194995952D01*
X330493630Y-195186428D01*
X330446011Y-195281666D01*
X330398392Y-195329285D01*
X330303154Y-195376904D01*
X330112678Y-195376904D01*
X330017440Y-195329285D01*
X329969821Y-195281666D01*
X329922202Y-195186428D01*
X349543630Y-155594464D02*
X348543630Y-155594464D01*
X348543630Y-155832559D01*
X348591250Y-155975416D01*
X348686488Y-156070654D01*
X348781726Y-156118273D01*
X348972202Y-156165892D01*
X349115059Y-156165892D01*
X349305535Y-156118273D01*
X349400773Y-156070654D01*
X349496011Y-155975416D01*
X349543630Y-155832559D01*
X349543630Y-155594464D01*
X348543630Y-157070654D02*
X348543630Y-156594464D01*
X349019821Y-156546845D01*
X348972202Y-156594464D01*
X348924583Y-156689702D01*
X348924583Y-156927797D01*
X348972202Y-157023035D01*
X349019821Y-157070654D01*
X349115059Y-157118273D01*
X349353154Y-157118273D01*
X349448392Y-157070654D01*
X349496011Y-157023035D01*
X349543630Y-156927797D01*
X349543630Y-156689702D01*
X349496011Y-156594464D01*
X349448392Y-156546845D01*
X348543630Y-157451607D02*
X348543630Y-158118273D01*
X349543630Y-157689702D01*
X327318630Y-137338214D02*
X326318630Y-137338214D01*
X326318630Y-137576309D01*
X326366250Y-137719166D01*
X326461488Y-137814404D01*
X326556726Y-137862023D01*
X326747202Y-137909642D01*
X326890059Y-137909642D01*
X327080535Y-137862023D01*
X327175773Y-137814404D01*
X327271011Y-137719166D01*
X327318630Y-137576309D01*
X327318630Y-137338214D01*
X326318630Y-138814404D02*
X326318630Y-138338214D01*
X326794821Y-138290595D01*
X326747202Y-138338214D01*
X326699583Y-138433452D01*
X326699583Y-138671547D01*
X326747202Y-138766785D01*
X326794821Y-138814404D01*
X326890059Y-138862023D01*
X327128154Y-138862023D01*
X327223392Y-138814404D01*
X327271011Y-138766785D01*
X327318630Y-138671547D01*
X327318630Y-138433452D01*
X327271011Y-138338214D01*
X327223392Y-138290595D01*
X326318630Y-139719166D02*
X326318630Y-139528690D01*
X326366250Y-139433452D01*
X326413869Y-139385833D01*
X326556726Y-139290595D01*
X326747202Y-139242976D01*
X327128154Y-139242976D01*
X327223392Y-139290595D01*
X327271011Y-139338214D01*
X327318630Y-139433452D01*
X327318630Y-139623928D01*
X327271011Y-139719166D01*
X327223392Y-139766785D01*
X327128154Y-139814404D01*
X326890059Y-139814404D01*
X326794821Y-139766785D01*
X326747202Y-139719166D01*
X326699583Y-139623928D01*
X326699583Y-139433452D01*
X326747202Y-139338214D01*
X326794821Y-139290595D01*
X326890059Y-139242976D01*
X317793630Y-117494464D02*
X316793630Y-117494464D01*
X316793630Y-117732559D01*
X316841250Y-117875416D01*
X316936488Y-117970654D01*
X317031726Y-118018273D01*
X317222202Y-118065892D01*
X317365059Y-118065892D01*
X317555535Y-118018273D01*
X317650773Y-117970654D01*
X317746011Y-117875416D01*
X317793630Y-117732559D01*
X317793630Y-117494464D01*
X316793630Y-118970654D02*
X316793630Y-118494464D01*
X317269821Y-118446845D01*
X317222202Y-118494464D01*
X317174583Y-118589702D01*
X317174583Y-118827797D01*
X317222202Y-118923035D01*
X317269821Y-118970654D01*
X317365059Y-119018273D01*
X317603154Y-119018273D01*
X317698392Y-118970654D01*
X317746011Y-118923035D01*
X317793630Y-118827797D01*
X317793630Y-118589702D01*
X317746011Y-118494464D01*
X317698392Y-118446845D01*
X316793630Y-119923035D02*
X316793630Y-119446845D01*
X317269821Y-119399226D01*
X317222202Y-119446845D01*
X317174583Y-119542083D01*
X317174583Y-119780178D01*
X317222202Y-119875416D01*
X317269821Y-119923035D01*
X317365059Y-119970654D01*
X317603154Y-119970654D01*
X317698392Y-119923035D01*
X317746011Y-119875416D01*
X317793630Y-119780178D01*
X317793630Y-119542083D01*
X317746011Y-119446845D01*
X317698392Y-119399226D01*
X308268630Y-192963214D02*
X307268630Y-192963214D01*
X307268630Y-193201309D01*
X307316250Y-193344166D01*
X307411488Y-193439404D01*
X307506726Y-193487023D01*
X307697202Y-193534642D01*
X307840059Y-193534642D01*
X308030535Y-193487023D01*
X308125773Y-193439404D01*
X308221011Y-193344166D01*
X308268630Y-193201309D01*
X308268630Y-192963214D01*
X307268630Y-194439404D02*
X307268630Y-193963214D01*
X307744821Y-193915595D01*
X307697202Y-193963214D01*
X307649583Y-194058452D01*
X307649583Y-194296547D01*
X307697202Y-194391785D01*
X307744821Y-194439404D01*
X307840059Y-194487023D01*
X308078154Y-194487023D01*
X308173392Y-194439404D01*
X308221011Y-194391785D01*
X308268630Y-194296547D01*
X308268630Y-194058452D01*
X308221011Y-193963214D01*
X308173392Y-193915595D01*
X307601964Y-195344166D02*
X308268630Y-195344166D01*
X307221011Y-195106071D02*
X307935297Y-194867976D01*
X307935297Y-195487023D01*
X310649880Y-174644464D02*
X309649880Y-174644464D01*
X309649880Y-174882559D01*
X309697500Y-175025416D01*
X309792738Y-175120654D01*
X309887976Y-175168273D01*
X310078452Y-175215892D01*
X310221309Y-175215892D01*
X310411785Y-175168273D01*
X310507023Y-175120654D01*
X310602261Y-175025416D01*
X310649880Y-174882559D01*
X310649880Y-174644464D01*
X309649880Y-176120654D02*
X309649880Y-175644464D01*
X310126071Y-175596845D01*
X310078452Y-175644464D01*
X310030833Y-175739702D01*
X310030833Y-175977797D01*
X310078452Y-176073035D01*
X310126071Y-176120654D01*
X310221309Y-176168273D01*
X310459404Y-176168273D01*
X310554642Y-176120654D01*
X310602261Y-176073035D01*
X310649880Y-175977797D01*
X310649880Y-175739702D01*
X310602261Y-175644464D01*
X310554642Y-175596845D01*
X309649880Y-176501607D02*
X309649880Y-177120654D01*
X310030833Y-176787321D01*
X310030833Y-176930178D01*
X310078452Y-177025416D01*
X310126071Y-177073035D01*
X310221309Y-177120654D01*
X310459404Y-177120654D01*
X310554642Y-177073035D01*
X310602261Y-177025416D01*
X310649880Y-176930178D01*
X310649880Y-176644464D01*
X310602261Y-176549226D01*
X310554642Y-176501607D01*
X313031130Y-155594464D02*
X312031130Y-155594464D01*
X312031130Y-155832559D01*
X312078750Y-155975416D01*
X312173988Y-156070654D01*
X312269226Y-156118273D01*
X312459702Y-156165892D01*
X312602559Y-156165892D01*
X312793035Y-156118273D01*
X312888273Y-156070654D01*
X312983511Y-155975416D01*
X313031130Y-155832559D01*
X313031130Y-155594464D01*
X312031130Y-157070654D02*
X312031130Y-156594464D01*
X312507321Y-156546845D01*
X312459702Y-156594464D01*
X312412083Y-156689702D01*
X312412083Y-156927797D01*
X312459702Y-157023035D01*
X312507321Y-157070654D01*
X312602559Y-157118273D01*
X312840654Y-157118273D01*
X312935892Y-157070654D01*
X312983511Y-157023035D01*
X313031130Y-156927797D01*
X313031130Y-156689702D01*
X312983511Y-156594464D01*
X312935892Y-156546845D01*
X312126369Y-157499226D02*
X312078750Y-157546845D01*
X312031130Y-157642083D01*
X312031130Y-157880178D01*
X312078750Y-157975416D01*
X312126369Y-158023035D01*
X312221607Y-158070654D01*
X312316845Y-158070654D01*
X312459702Y-158023035D01*
X313031130Y-157451607D01*
X313031130Y-158070654D01*
X308268630Y-137338214D02*
X307268630Y-137338214D01*
X307268630Y-137576309D01*
X307316250Y-137719166D01*
X307411488Y-137814404D01*
X307506726Y-137862023D01*
X307697202Y-137909642D01*
X307840059Y-137909642D01*
X308030535Y-137862023D01*
X308125773Y-137814404D01*
X308221011Y-137719166D01*
X308268630Y-137576309D01*
X308268630Y-137338214D01*
X307268630Y-138814404D02*
X307268630Y-138338214D01*
X307744821Y-138290595D01*
X307697202Y-138338214D01*
X307649583Y-138433452D01*
X307649583Y-138671547D01*
X307697202Y-138766785D01*
X307744821Y-138814404D01*
X307840059Y-138862023D01*
X308078154Y-138862023D01*
X308173392Y-138814404D01*
X308221011Y-138766785D01*
X308268630Y-138671547D01*
X308268630Y-138433452D01*
X308221011Y-138338214D01*
X308173392Y-138290595D01*
X308268630Y-139814404D02*
X308268630Y-139242976D01*
X308268630Y-139528690D02*
X307268630Y-139528690D01*
X307411488Y-139433452D01*
X307506726Y-139338214D01*
X307554345Y-139242976D01*
X298743630Y-117494464D02*
X297743630Y-117494464D01*
X297743630Y-117732559D01*
X297791250Y-117875416D01*
X297886488Y-117970654D01*
X297981726Y-118018273D01*
X298172202Y-118065892D01*
X298315059Y-118065892D01*
X298505535Y-118018273D01*
X298600773Y-117970654D01*
X298696011Y-117875416D01*
X298743630Y-117732559D01*
X298743630Y-117494464D01*
X297743630Y-118970654D02*
X297743630Y-118494464D01*
X298219821Y-118446845D01*
X298172202Y-118494464D01*
X298124583Y-118589702D01*
X298124583Y-118827797D01*
X298172202Y-118923035D01*
X298219821Y-118970654D01*
X298315059Y-119018273D01*
X298553154Y-119018273D01*
X298648392Y-118970654D01*
X298696011Y-118923035D01*
X298743630Y-118827797D01*
X298743630Y-118589702D01*
X298696011Y-118494464D01*
X298648392Y-118446845D01*
X297743630Y-119637321D02*
X297743630Y-119732559D01*
X297791250Y-119827797D01*
X297838869Y-119875416D01*
X297934107Y-119923035D01*
X298124583Y-119970654D01*
X298362678Y-119970654D01*
X298553154Y-119923035D01*
X298648392Y-119875416D01*
X298696011Y-119827797D01*
X298743630Y-119732559D01*
X298743630Y-119637321D01*
X298696011Y-119542083D01*
X298648392Y-119494464D01*
X298553154Y-119446845D01*
X298362678Y-119399226D01*
X298124583Y-119399226D01*
X297934107Y-119446845D01*
X297838869Y-119494464D01*
X297791250Y-119542083D01*
X297743630Y-119637321D01*
X282868630Y-192963214D02*
X281868630Y-192963214D01*
X281868630Y-193201309D01*
X281916250Y-193344166D01*
X282011488Y-193439404D01*
X282106726Y-193487023D01*
X282297202Y-193534642D01*
X282440059Y-193534642D01*
X282630535Y-193487023D01*
X282725773Y-193439404D01*
X282821011Y-193344166D01*
X282868630Y-193201309D01*
X282868630Y-192963214D01*
X282201964Y-194391785D02*
X282868630Y-194391785D01*
X281821011Y-194153690D02*
X282535297Y-193915595D01*
X282535297Y-194534642D01*
X282868630Y-194963214D02*
X282868630Y-195153690D01*
X282821011Y-195248928D01*
X282773392Y-195296547D01*
X282630535Y-195391785D01*
X282440059Y-195439404D01*
X282059107Y-195439404D01*
X281963869Y-195391785D01*
X281916250Y-195344166D01*
X281868630Y-195248928D01*
X281868630Y-195058452D01*
X281916250Y-194963214D01*
X281963869Y-194915595D01*
X282059107Y-194867976D01*
X282297202Y-194867976D01*
X282392440Y-194915595D01*
X282440059Y-194963214D01*
X282487678Y-195058452D01*
X282487678Y-195248928D01*
X282440059Y-195344166D01*
X282392440Y-195391785D01*
X282297202Y-195439404D01*
X305093630Y-174644464D02*
X304093630Y-174644464D01*
X304093630Y-174882559D01*
X304141250Y-175025416D01*
X304236488Y-175120654D01*
X304331726Y-175168273D01*
X304522202Y-175215892D01*
X304665059Y-175215892D01*
X304855535Y-175168273D01*
X304950773Y-175120654D01*
X305046011Y-175025416D01*
X305093630Y-174882559D01*
X305093630Y-174644464D01*
X304426964Y-176073035D02*
X305093630Y-176073035D01*
X304046011Y-175834940D02*
X304760297Y-175596845D01*
X304760297Y-176215892D01*
X304522202Y-176739702D02*
X304474583Y-176644464D01*
X304426964Y-176596845D01*
X304331726Y-176549226D01*
X304284107Y-176549226D01*
X304188869Y-176596845D01*
X304141250Y-176644464D01*
X304093630Y-176739702D01*
X304093630Y-176930178D01*
X304141250Y-177025416D01*
X304188869Y-177073035D01*
X304284107Y-177120654D01*
X304331726Y-177120654D01*
X304426964Y-177073035D01*
X304474583Y-177025416D01*
X304522202Y-176930178D01*
X304522202Y-176739702D01*
X304569821Y-176644464D01*
X304617440Y-176596845D01*
X304712678Y-176549226D01*
X304903154Y-176549226D01*
X304998392Y-176596845D01*
X305046011Y-176644464D01*
X305093630Y-176739702D01*
X305093630Y-176930178D01*
X305046011Y-177025416D01*
X304998392Y-177073035D01*
X304903154Y-177120654D01*
X304712678Y-177120654D01*
X304617440Y-177073035D01*
X304569821Y-177025416D01*
X304522202Y-176930178D01*
X293981130Y-155594464D02*
X292981130Y-155594464D01*
X292981130Y-155832559D01*
X293028750Y-155975416D01*
X293123988Y-156070654D01*
X293219226Y-156118273D01*
X293409702Y-156165892D01*
X293552559Y-156165892D01*
X293743035Y-156118273D01*
X293838273Y-156070654D01*
X293933511Y-155975416D01*
X293981130Y-155832559D01*
X293981130Y-155594464D01*
X293314464Y-157023035D02*
X293981130Y-157023035D01*
X292933511Y-156784940D02*
X293647797Y-156546845D01*
X293647797Y-157165892D01*
X292981130Y-157451607D02*
X292981130Y-158118273D01*
X293981130Y-157689702D01*
X289218630Y-137400714D02*
X288218630Y-137400714D01*
X288218630Y-137638809D01*
X288266250Y-137781666D01*
X288361488Y-137876904D01*
X288456726Y-137924523D01*
X288647202Y-137972142D01*
X288790059Y-137972142D01*
X288980535Y-137924523D01*
X289075773Y-137876904D01*
X289171011Y-137781666D01*
X289218630Y-137638809D01*
X289218630Y-137400714D01*
X288551964Y-138829285D02*
X289218630Y-138829285D01*
X288171011Y-138591190D02*
X288885297Y-138353095D01*
X288885297Y-138972142D01*
X288218630Y-139781666D02*
X288218630Y-139591190D01*
X288266250Y-139495952D01*
X288313869Y-139448333D01*
X288456726Y-139353095D01*
X288647202Y-139305476D01*
X289028154Y-139305476D01*
X289123392Y-139353095D01*
X289171011Y-139400714D01*
X289218630Y-139495952D01*
X289218630Y-139686428D01*
X289171011Y-139781666D01*
X289123392Y-139829285D01*
X289028154Y-139876904D01*
X288790059Y-139876904D01*
X288694821Y-139829285D01*
X288647202Y-139781666D01*
X288599583Y-139686428D01*
X288599583Y-139495952D01*
X288647202Y-139400714D01*
X288694821Y-139353095D01*
X288790059Y-139305476D01*
X279693630Y-117494464D02*
X278693630Y-117494464D01*
X278693630Y-117732559D01*
X278741250Y-117875416D01*
X278836488Y-117970654D01*
X278931726Y-118018273D01*
X279122202Y-118065892D01*
X279265059Y-118065892D01*
X279455535Y-118018273D01*
X279550773Y-117970654D01*
X279646011Y-117875416D01*
X279693630Y-117732559D01*
X279693630Y-117494464D01*
X279026964Y-118923035D02*
X279693630Y-118923035D01*
X278646011Y-118684940D02*
X279360297Y-118446845D01*
X279360297Y-119065892D01*
X278693630Y-119923035D02*
X278693630Y-119446845D01*
X279169821Y-119399226D01*
X279122202Y-119446845D01*
X279074583Y-119542083D01*
X279074583Y-119780178D01*
X279122202Y-119875416D01*
X279169821Y-119923035D01*
X279265059Y-119970654D01*
X279503154Y-119970654D01*
X279598392Y-119923035D01*
X279646011Y-119875416D01*
X279693630Y-119780178D01*
X279693630Y-119542083D01*
X279646011Y-119446845D01*
X279598392Y-119399226D01*
X283662380Y-174644464D02*
X282662380Y-174644464D01*
X282662380Y-174882559D01*
X282710000Y-175025416D01*
X282805238Y-175120654D01*
X282900476Y-175168273D01*
X283090952Y-175215892D01*
X283233809Y-175215892D01*
X283424285Y-175168273D01*
X283519523Y-175120654D01*
X283614761Y-175025416D01*
X283662380Y-174882559D01*
X283662380Y-174644464D01*
X282995714Y-176073035D02*
X283662380Y-176073035D01*
X282614761Y-175834940D02*
X283329047Y-175596845D01*
X283329047Y-176215892D01*
X282995714Y-177025416D02*
X283662380Y-177025416D01*
X282614761Y-176787321D02*
X283329047Y-176549226D01*
X283329047Y-177168273D01*
X274931130Y-155594464D02*
X273931130Y-155594464D01*
X273931130Y-155832559D01*
X273978750Y-155975416D01*
X274073988Y-156070654D01*
X274169226Y-156118273D01*
X274359702Y-156165892D01*
X274502559Y-156165892D01*
X274693035Y-156118273D01*
X274788273Y-156070654D01*
X274883511Y-155975416D01*
X274931130Y-155832559D01*
X274931130Y-155594464D01*
X274264464Y-157023035D02*
X274931130Y-157023035D01*
X273883511Y-156784940D02*
X274597797Y-156546845D01*
X274597797Y-157165892D01*
X273931130Y-157451607D02*
X273931130Y-158070654D01*
X274312083Y-157737321D01*
X274312083Y-157880178D01*
X274359702Y-157975416D01*
X274407321Y-158023035D01*
X274502559Y-158070654D01*
X274740654Y-158070654D01*
X274835892Y-158023035D01*
X274883511Y-157975416D01*
X274931130Y-157880178D01*
X274931130Y-157594464D01*
X274883511Y-157499226D01*
X274835892Y-157451607D01*
X270168630Y-137338214D02*
X269168630Y-137338214D01*
X269168630Y-137576309D01*
X269216250Y-137719166D01*
X269311488Y-137814404D01*
X269406726Y-137862023D01*
X269597202Y-137909642D01*
X269740059Y-137909642D01*
X269930535Y-137862023D01*
X270025773Y-137814404D01*
X270121011Y-137719166D01*
X270168630Y-137576309D01*
X270168630Y-137338214D01*
X269501964Y-138766785D02*
X270168630Y-138766785D01*
X269121011Y-138528690D02*
X269835297Y-138290595D01*
X269835297Y-138909642D01*
X269263869Y-139242976D02*
X269216250Y-139290595D01*
X269168630Y-139385833D01*
X269168630Y-139623928D01*
X269216250Y-139719166D01*
X269263869Y-139766785D01*
X269359107Y-139814404D01*
X269454345Y-139814404D01*
X269597202Y-139766785D01*
X270168630Y-139195357D01*
X270168630Y-139814404D01*
X260643630Y-117556964D02*
X259643630Y-117556964D01*
X259643630Y-117795059D01*
X259691250Y-117937916D01*
X259786488Y-118033154D01*
X259881726Y-118080773D01*
X260072202Y-118128392D01*
X260215059Y-118128392D01*
X260405535Y-118080773D01*
X260500773Y-118033154D01*
X260596011Y-117937916D01*
X260643630Y-117795059D01*
X260643630Y-117556964D01*
X259976964Y-118985535D02*
X260643630Y-118985535D01*
X259596011Y-118747440D02*
X260310297Y-118509345D01*
X260310297Y-119128392D01*
X260643630Y-120033154D02*
X260643630Y-119461726D01*
X260643630Y-119747440D02*
X259643630Y-119747440D01*
X259786488Y-119652202D01*
X259881726Y-119556964D01*
X259929345Y-119461726D01*
X265406130Y-175438214D02*
X264406130Y-175438214D01*
X264406130Y-175676309D01*
X264453750Y-175819166D01*
X264548988Y-175914404D01*
X264644226Y-175962023D01*
X264834702Y-176009642D01*
X264977559Y-176009642D01*
X265168035Y-175962023D01*
X265263273Y-175914404D01*
X265358511Y-175819166D01*
X265406130Y-175676309D01*
X265406130Y-175438214D01*
X264739464Y-176866785D02*
X265406130Y-176866785D01*
X264358511Y-176628690D02*
X265072797Y-176390595D01*
X265072797Y-177009642D01*
X264406130Y-177581071D02*
X264406130Y-177676309D01*
X264453750Y-177771547D01*
X264501369Y-177819166D01*
X264596607Y-177866785D01*
X264787083Y-177914404D01*
X265025178Y-177914404D01*
X265215654Y-177866785D01*
X265310892Y-177819166D01*
X265358511Y-177771547D01*
X265406130Y-177676309D01*
X265406130Y-177581071D01*
X265358511Y-177485833D01*
X265310892Y-177438214D01*
X265215654Y-177390595D01*
X265025178Y-177342976D01*
X264787083Y-177342976D01*
X264596607Y-177390595D01*
X264501369Y-177438214D01*
X264453750Y-177485833D01*
X264406130Y-177581071D01*
X255881130Y-155594464D02*
X254881130Y-155594464D01*
X254881130Y-155832559D01*
X254928750Y-155975416D01*
X255023988Y-156070654D01*
X255119226Y-156118273D01*
X255309702Y-156165892D01*
X255452559Y-156165892D01*
X255643035Y-156118273D01*
X255738273Y-156070654D01*
X255833511Y-155975416D01*
X255881130Y-155832559D01*
X255881130Y-155594464D01*
X254881130Y-156499226D02*
X254881130Y-157118273D01*
X255262083Y-156784940D01*
X255262083Y-156927797D01*
X255309702Y-157023035D01*
X255357321Y-157070654D01*
X255452559Y-157118273D01*
X255690654Y-157118273D01*
X255785892Y-157070654D01*
X255833511Y-157023035D01*
X255881130Y-156927797D01*
X255881130Y-156642083D01*
X255833511Y-156546845D01*
X255785892Y-156499226D01*
X255881130Y-157594464D02*
X255881130Y-157784940D01*
X255833511Y-157880178D01*
X255785892Y-157927797D01*
X255643035Y-158023035D01*
X255452559Y-158070654D01*
X255071607Y-158070654D01*
X254976369Y-158023035D01*
X254928750Y-157975416D01*
X254881130Y-157880178D01*
X254881130Y-157689702D01*
X254928750Y-157594464D01*
X254976369Y-157546845D01*
X255071607Y-157499226D01*
X255309702Y-157499226D01*
X255404940Y-157546845D01*
X255452559Y-157594464D01*
X255500178Y-157689702D01*
X255500178Y-157880178D01*
X255452559Y-157975416D01*
X255404940Y-158023035D01*
X255309702Y-158070654D01*
X251118630Y-137338214D02*
X250118630Y-137338214D01*
X250118630Y-137576309D01*
X250166250Y-137719166D01*
X250261488Y-137814404D01*
X250356726Y-137862023D01*
X250547202Y-137909642D01*
X250690059Y-137909642D01*
X250880535Y-137862023D01*
X250975773Y-137814404D01*
X251071011Y-137719166D01*
X251118630Y-137576309D01*
X251118630Y-137338214D01*
X250118630Y-138242976D02*
X250118630Y-138862023D01*
X250499583Y-138528690D01*
X250499583Y-138671547D01*
X250547202Y-138766785D01*
X250594821Y-138814404D01*
X250690059Y-138862023D01*
X250928154Y-138862023D01*
X251023392Y-138814404D01*
X251071011Y-138766785D01*
X251118630Y-138671547D01*
X251118630Y-138385833D01*
X251071011Y-138290595D01*
X251023392Y-138242976D01*
X250547202Y-139433452D02*
X250499583Y-139338214D01*
X250451964Y-139290595D01*
X250356726Y-139242976D01*
X250309107Y-139242976D01*
X250213869Y-139290595D01*
X250166250Y-139338214D01*
X250118630Y-139433452D01*
X250118630Y-139623928D01*
X250166250Y-139719166D01*
X250213869Y-139766785D01*
X250309107Y-139814404D01*
X250356726Y-139814404D01*
X250451964Y-139766785D01*
X250499583Y-139719166D01*
X250547202Y-139623928D01*
X250547202Y-139433452D01*
X250594821Y-139338214D01*
X250642440Y-139290595D01*
X250737678Y-139242976D01*
X250928154Y-139242976D01*
X251023392Y-139290595D01*
X251071011Y-139338214D01*
X251118630Y-139433452D01*
X251118630Y-139623928D01*
X251071011Y-139719166D01*
X251023392Y-139766785D01*
X250928154Y-139814404D01*
X250737678Y-139814404D01*
X250642440Y-139766785D01*
X250594821Y-139719166D01*
X250547202Y-139623928D01*
X241593630Y-117494464D02*
X240593630Y-117494464D01*
X240593630Y-117732559D01*
X240641250Y-117875416D01*
X240736488Y-117970654D01*
X240831726Y-118018273D01*
X241022202Y-118065892D01*
X241165059Y-118065892D01*
X241355535Y-118018273D01*
X241450773Y-117970654D01*
X241546011Y-117875416D01*
X241593630Y-117732559D01*
X241593630Y-117494464D01*
X240593630Y-118399226D02*
X240593630Y-119018273D01*
X240974583Y-118684940D01*
X240974583Y-118827797D01*
X241022202Y-118923035D01*
X241069821Y-118970654D01*
X241165059Y-119018273D01*
X241403154Y-119018273D01*
X241498392Y-118970654D01*
X241546011Y-118923035D01*
X241593630Y-118827797D01*
X241593630Y-118542083D01*
X241546011Y-118446845D01*
X241498392Y-118399226D01*
X240593630Y-119351607D02*
X240593630Y-120018273D01*
X241593630Y-119589702D01*
X224131130Y-192963214D02*
X223131130Y-192963214D01*
X223131130Y-193201309D01*
X223178750Y-193344166D01*
X223273988Y-193439404D01*
X223369226Y-193487023D01*
X223559702Y-193534642D01*
X223702559Y-193534642D01*
X223893035Y-193487023D01*
X223988273Y-193439404D01*
X224083511Y-193344166D01*
X224131130Y-193201309D01*
X224131130Y-192963214D01*
X223131130Y-193867976D02*
X223131130Y-194487023D01*
X223512083Y-194153690D01*
X223512083Y-194296547D01*
X223559702Y-194391785D01*
X223607321Y-194439404D01*
X223702559Y-194487023D01*
X223940654Y-194487023D01*
X224035892Y-194439404D01*
X224083511Y-194391785D01*
X224131130Y-194296547D01*
X224131130Y-194010833D01*
X224083511Y-193915595D01*
X224035892Y-193867976D01*
X223131130Y-195344166D02*
X223131130Y-195153690D01*
X223178750Y-195058452D01*
X223226369Y-195010833D01*
X223369226Y-194915595D01*
X223559702Y-194867976D01*
X223940654Y-194867976D01*
X224035892Y-194915595D01*
X224083511Y-194963214D01*
X224131130Y-195058452D01*
X224131130Y-195248928D01*
X224083511Y-195344166D01*
X224035892Y-195391785D01*
X223940654Y-195439404D01*
X223702559Y-195439404D01*
X223607321Y-195391785D01*
X223559702Y-195344166D01*
X223512083Y-195248928D01*
X223512083Y-195058452D01*
X223559702Y-194963214D01*
X223607321Y-194915595D01*
X223702559Y-194867976D01*
X246356130Y-175438214D02*
X245356130Y-175438214D01*
X245356130Y-175676309D01*
X245403750Y-175819166D01*
X245498988Y-175914404D01*
X245594226Y-175962023D01*
X245784702Y-176009642D01*
X245927559Y-176009642D01*
X246118035Y-175962023D01*
X246213273Y-175914404D01*
X246308511Y-175819166D01*
X246356130Y-175676309D01*
X246356130Y-175438214D01*
X245356130Y-176342976D02*
X245356130Y-176962023D01*
X245737083Y-176628690D01*
X245737083Y-176771547D01*
X245784702Y-176866785D01*
X245832321Y-176914404D01*
X245927559Y-176962023D01*
X246165654Y-176962023D01*
X246260892Y-176914404D01*
X246308511Y-176866785D01*
X246356130Y-176771547D01*
X246356130Y-176485833D01*
X246308511Y-176390595D01*
X246260892Y-176342976D01*
X245356130Y-177866785D02*
X245356130Y-177390595D01*
X245832321Y-177342976D01*
X245784702Y-177390595D01*
X245737083Y-177485833D01*
X245737083Y-177723928D01*
X245784702Y-177819166D01*
X245832321Y-177866785D01*
X245927559Y-177914404D01*
X246165654Y-177914404D01*
X246260892Y-177866785D01*
X246308511Y-177819166D01*
X246356130Y-177723928D01*
X246356130Y-177485833D01*
X246308511Y-177390595D01*
X246260892Y-177342976D01*
X236831130Y-155594464D02*
X235831130Y-155594464D01*
X235831130Y-155832559D01*
X235878750Y-155975416D01*
X235973988Y-156070654D01*
X236069226Y-156118273D01*
X236259702Y-156165892D01*
X236402559Y-156165892D01*
X236593035Y-156118273D01*
X236688273Y-156070654D01*
X236783511Y-155975416D01*
X236831130Y-155832559D01*
X236831130Y-155594464D01*
X235831130Y-156499226D02*
X235831130Y-157118273D01*
X236212083Y-156784940D01*
X236212083Y-156927797D01*
X236259702Y-157023035D01*
X236307321Y-157070654D01*
X236402559Y-157118273D01*
X236640654Y-157118273D01*
X236735892Y-157070654D01*
X236783511Y-157023035D01*
X236831130Y-156927797D01*
X236831130Y-156642083D01*
X236783511Y-156546845D01*
X236735892Y-156499226D01*
X236164464Y-157975416D02*
X236831130Y-157975416D01*
X235783511Y-157737321D02*
X236497797Y-157499226D01*
X236497797Y-158118273D01*
X232068630Y-137338214D02*
X231068630Y-137338214D01*
X231068630Y-137576309D01*
X231116250Y-137719166D01*
X231211488Y-137814404D01*
X231306726Y-137862023D01*
X231497202Y-137909642D01*
X231640059Y-137909642D01*
X231830535Y-137862023D01*
X231925773Y-137814404D01*
X232021011Y-137719166D01*
X232068630Y-137576309D01*
X232068630Y-137338214D01*
X231068630Y-138242976D02*
X231068630Y-138862023D01*
X231449583Y-138528690D01*
X231449583Y-138671547D01*
X231497202Y-138766785D01*
X231544821Y-138814404D01*
X231640059Y-138862023D01*
X231878154Y-138862023D01*
X231973392Y-138814404D01*
X232021011Y-138766785D01*
X232068630Y-138671547D01*
X232068630Y-138385833D01*
X232021011Y-138290595D01*
X231973392Y-138242976D01*
X231068630Y-139195357D02*
X231068630Y-139814404D01*
X231449583Y-139481071D01*
X231449583Y-139623928D01*
X231497202Y-139719166D01*
X231544821Y-139766785D01*
X231640059Y-139814404D01*
X231878154Y-139814404D01*
X231973392Y-139766785D01*
X232021011Y-139719166D01*
X232068630Y-139623928D01*
X232068630Y-139338214D01*
X232021011Y-139242976D01*
X231973392Y-139195357D01*
X222543630Y-117494464D02*
X221543630Y-117494464D01*
X221543630Y-117732559D01*
X221591250Y-117875416D01*
X221686488Y-117970654D01*
X221781726Y-118018273D01*
X221972202Y-118065892D01*
X222115059Y-118065892D01*
X222305535Y-118018273D01*
X222400773Y-117970654D01*
X222496011Y-117875416D01*
X222543630Y-117732559D01*
X222543630Y-117494464D01*
X221543630Y-118399226D02*
X221543630Y-119018273D01*
X221924583Y-118684940D01*
X221924583Y-118827797D01*
X221972202Y-118923035D01*
X222019821Y-118970654D01*
X222115059Y-119018273D01*
X222353154Y-119018273D01*
X222448392Y-118970654D01*
X222496011Y-118923035D01*
X222543630Y-118827797D01*
X222543630Y-118542083D01*
X222496011Y-118446845D01*
X222448392Y-118399226D01*
X221638869Y-119399226D02*
X221591250Y-119446845D01*
X221543630Y-119542083D01*
X221543630Y-119780178D01*
X221591250Y-119875416D01*
X221638869Y-119923035D01*
X221734107Y-119970654D01*
X221829345Y-119970654D01*
X221972202Y-119923035D01*
X222543630Y-119351607D01*
X222543630Y-119970654D01*
X228099880Y-175438214D02*
X227099880Y-175438214D01*
X227099880Y-175676309D01*
X227147500Y-175819166D01*
X227242738Y-175914404D01*
X227337976Y-175962023D01*
X227528452Y-176009642D01*
X227671309Y-176009642D01*
X227861785Y-175962023D01*
X227957023Y-175914404D01*
X228052261Y-175819166D01*
X228099880Y-175676309D01*
X228099880Y-175438214D01*
X227099880Y-176342976D02*
X227099880Y-176962023D01*
X227480833Y-176628690D01*
X227480833Y-176771547D01*
X227528452Y-176866785D01*
X227576071Y-176914404D01*
X227671309Y-176962023D01*
X227909404Y-176962023D01*
X228004642Y-176914404D01*
X228052261Y-176866785D01*
X228099880Y-176771547D01*
X228099880Y-176485833D01*
X228052261Y-176390595D01*
X228004642Y-176342976D01*
X228099880Y-177914404D02*
X228099880Y-177342976D01*
X228099880Y-177628690D02*
X227099880Y-177628690D01*
X227242738Y-177533452D01*
X227337976Y-177438214D01*
X227385595Y-177342976D01*
X217781130Y-155594464D02*
X216781130Y-155594464D01*
X216781130Y-155832559D01*
X216828750Y-155975416D01*
X216923988Y-156070654D01*
X217019226Y-156118273D01*
X217209702Y-156165892D01*
X217352559Y-156165892D01*
X217543035Y-156118273D01*
X217638273Y-156070654D01*
X217733511Y-155975416D01*
X217781130Y-155832559D01*
X217781130Y-155594464D01*
X216781130Y-156499226D02*
X216781130Y-157118273D01*
X217162083Y-156784940D01*
X217162083Y-156927797D01*
X217209702Y-157023035D01*
X217257321Y-157070654D01*
X217352559Y-157118273D01*
X217590654Y-157118273D01*
X217685892Y-157070654D01*
X217733511Y-157023035D01*
X217781130Y-156927797D01*
X217781130Y-156642083D01*
X217733511Y-156546845D01*
X217685892Y-156499226D01*
X216781130Y-157737321D02*
X216781130Y-157832559D01*
X216828750Y-157927797D01*
X216876369Y-157975416D01*
X216971607Y-158023035D01*
X217162083Y-158070654D01*
X217400178Y-158070654D01*
X217590654Y-158023035D01*
X217685892Y-157975416D01*
X217733511Y-157927797D01*
X217781130Y-157832559D01*
X217781130Y-157737321D01*
X217733511Y-157642083D01*
X217685892Y-157594464D01*
X217590654Y-157546845D01*
X217400178Y-157499226D01*
X217162083Y-157499226D01*
X216971607Y-157546845D01*
X216876369Y-157594464D01*
X216828750Y-157642083D01*
X216781130Y-157737321D01*
X213018630Y-137338214D02*
X212018630Y-137338214D01*
X212018630Y-137576309D01*
X212066250Y-137719166D01*
X212161488Y-137814404D01*
X212256726Y-137862023D01*
X212447202Y-137909642D01*
X212590059Y-137909642D01*
X212780535Y-137862023D01*
X212875773Y-137814404D01*
X212971011Y-137719166D01*
X213018630Y-137576309D01*
X213018630Y-137338214D01*
X212113869Y-138290595D02*
X212066250Y-138338214D01*
X212018630Y-138433452D01*
X212018630Y-138671547D01*
X212066250Y-138766785D01*
X212113869Y-138814404D01*
X212209107Y-138862023D01*
X212304345Y-138862023D01*
X212447202Y-138814404D01*
X213018630Y-138242976D01*
X213018630Y-138862023D01*
X213018630Y-139338214D02*
X213018630Y-139528690D01*
X212971011Y-139623928D01*
X212923392Y-139671547D01*
X212780535Y-139766785D01*
X212590059Y-139814404D01*
X212209107Y-139814404D01*
X212113869Y-139766785D01*
X212066250Y-139719166D01*
X212018630Y-139623928D01*
X212018630Y-139433452D01*
X212066250Y-139338214D01*
X212113869Y-139290595D01*
X212209107Y-139242976D01*
X212447202Y-139242976D01*
X212542440Y-139290595D01*
X212590059Y-139338214D01*
X212637678Y-139433452D01*
X212637678Y-139623928D01*
X212590059Y-139719166D01*
X212542440Y-139766785D01*
X212447202Y-139814404D01*
X203493630Y-117494464D02*
X202493630Y-117494464D01*
X202493630Y-117732559D01*
X202541250Y-117875416D01*
X202636488Y-117970654D01*
X202731726Y-118018273D01*
X202922202Y-118065892D01*
X203065059Y-118065892D01*
X203255535Y-118018273D01*
X203350773Y-117970654D01*
X203446011Y-117875416D01*
X203493630Y-117732559D01*
X203493630Y-117494464D01*
X202588869Y-118446845D02*
X202541250Y-118494464D01*
X202493630Y-118589702D01*
X202493630Y-118827797D01*
X202541250Y-118923035D01*
X202588869Y-118970654D01*
X202684107Y-119018273D01*
X202779345Y-119018273D01*
X202922202Y-118970654D01*
X203493630Y-118399226D01*
X203493630Y-119018273D01*
X202922202Y-119589702D02*
X202874583Y-119494464D01*
X202826964Y-119446845D01*
X202731726Y-119399226D01*
X202684107Y-119399226D01*
X202588869Y-119446845D01*
X202541250Y-119494464D01*
X202493630Y-119589702D01*
X202493630Y-119780178D01*
X202541250Y-119875416D01*
X202588869Y-119923035D01*
X202684107Y-119970654D01*
X202731726Y-119970654D01*
X202826964Y-119923035D01*
X202874583Y-119875416D01*
X202922202Y-119780178D01*
X202922202Y-119589702D01*
X202969821Y-119494464D01*
X203017440Y-119446845D01*
X203112678Y-119399226D01*
X203303154Y-119399226D01*
X203398392Y-119446845D01*
X203446011Y-119494464D01*
X203493630Y-119589702D01*
X203493630Y-119780178D01*
X203446011Y-119875416D01*
X203398392Y-119923035D01*
X203303154Y-119970654D01*
X203112678Y-119970654D01*
X203017440Y-119923035D01*
X202969821Y-119875416D01*
X202922202Y-119780178D01*
X208256130Y-175438214D02*
X207256130Y-175438214D01*
X207256130Y-175676309D01*
X207303750Y-175819166D01*
X207398988Y-175914404D01*
X207494226Y-175962023D01*
X207684702Y-176009642D01*
X207827559Y-176009642D01*
X208018035Y-175962023D01*
X208113273Y-175914404D01*
X208208511Y-175819166D01*
X208256130Y-175676309D01*
X208256130Y-175438214D01*
X207351369Y-176390595D02*
X207303750Y-176438214D01*
X207256130Y-176533452D01*
X207256130Y-176771547D01*
X207303750Y-176866785D01*
X207351369Y-176914404D01*
X207446607Y-176962023D01*
X207541845Y-176962023D01*
X207684702Y-176914404D01*
X208256130Y-176342976D01*
X208256130Y-176962023D01*
X207256130Y-177295357D02*
X207256130Y-177962023D01*
X208256130Y-177533452D01*
X198731130Y-155594464D02*
X197731130Y-155594464D01*
X197731130Y-155832559D01*
X197778750Y-155975416D01*
X197873988Y-156070654D01*
X197969226Y-156118273D01*
X198159702Y-156165892D01*
X198302559Y-156165892D01*
X198493035Y-156118273D01*
X198588273Y-156070654D01*
X198683511Y-155975416D01*
X198731130Y-155832559D01*
X198731130Y-155594464D01*
X197826369Y-156546845D02*
X197778750Y-156594464D01*
X197731130Y-156689702D01*
X197731130Y-156927797D01*
X197778750Y-157023035D01*
X197826369Y-157070654D01*
X197921607Y-157118273D01*
X198016845Y-157118273D01*
X198159702Y-157070654D01*
X198731130Y-156499226D01*
X198731130Y-157118273D01*
X197731130Y-157975416D02*
X197731130Y-157784940D01*
X197778750Y-157689702D01*
X197826369Y-157642083D01*
X197969226Y-157546845D01*
X198159702Y-157499226D01*
X198540654Y-157499226D01*
X198635892Y-157546845D01*
X198683511Y-157594464D01*
X198731130Y-157689702D01*
X198731130Y-157880178D01*
X198683511Y-157975416D01*
X198635892Y-158023035D01*
X198540654Y-158070654D01*
X198302559Y-158070654D01*
X198207321Y-158023035D01*
X198159702Y-157975416D01*
X198112083Y-157880178D01*
X198112083Y-157689702D01*
X198159702Y-157594464D01*
X198207321Y-157546845D01*
X198302559Y-157499226D01*
X193968630Y-137338214D02*
X192968630Y-137338214D01*
X192968630Y-137576309D01*
X193016250Y-137719166D01*
X193111488Y-137814404D01*
X193206726Y-137862023D01*
X193397202Y-137909642D01*
X193540059Y-137909642D01*
X193730535Y-137862023D01*
X193825773Y-137814404D01*
X193921011Y-137719166D01*
X193968630Y-137576309D01*
X193968630Y-137338214D01*
X193063869Y-138290595D02*
X193016250Y-138338214D01*
X192968630Y-138433452D01*
X192968630Y-138671547D01*
X193016250Y-138766785D01*
X193063869Y-138814404D01*
X193159107Y-138862023D01*
X193254345Y-138862023D01*
X193397202Y-138814404D01*
X193968630Y-138242976D01*
X193968630Y-138862023D01*
X192968630Y-139766785D02*
X192968630Y-139290595D01*
X193444821Y-139242976D01*
X193397202Y-139290595D01*
X193349583Y-139385833D01*
X193349583Y-139623928D01*
X193397202Y-139719166D01*
X193444821Y-139766785D01*
X193540059Y-139814404D01*
X193778154Y-139814404D01*
X193873392Y-139766785D01*
X193921011Y-139719166D01*
X193968630Y-139623928D01*
X193968630Y-139385833D01*
X193921011Y-139290595D01*
X193873392Y-139242976D01*
X184443630Y-117494464D02*
X183443630Y-117494464D01*
X183443630Y-117732559D01*
X183491250Y-117875416D01*
X183586488Y-117970654D01*
X183681726Y-118018273D01*
X183872202Y-118065892D01*
X184015059Y-118065892D01*
X184205535Y-118018273D01*
X184300773Y-117970654D01*
X184396011Y-117875416D01*
X184443630Y-117732559D01*
X184443630Y-117494464D01*
X183538869Y-118446845D02*
X183491250Y-118494464D01*
X183443630Y-118589702D01*
X183443630Y-118827797D01*
X183491250Y-118923035D01*
X183538869Y-118970654D01*
X183634107Y-119018273D01*
X183729345Y-119018273D01*
X183872202Y-118970654D01*
X184443630Y-118399226D01*
X184443630Y-119018273D01*
X183776964Y-119875416D02*
X184443630Y-119875416D01*
X183396011Y-119637321D02*
X184110297Y-119399226D01*
X184110297Y-120018273D01*
X141581130Y-192963214D02*
X140581130Y-192963214D01*
X140581130Y-193201309D01*
X140628750Y-193344166D01*
X140723988Y-193439404D01*
X140819226Y-193487023D01*
X141009702Y-193534642D01*
X141152559Y-193534642D01*
X141343035Y-193487023D01*
X141438273Y-193439404D01*
X141533511Y-193344166D01*
X141581130Y-193201309D01*
X141581130Y-192963214D01*
X140676369Y-193915595D02*
X140628750Y-193963214D01*
X140581130Y-194058452D01*
X140581130Y-194296547D01*
X140628750Y-194391785D01*
X140676369Y-194439404D01*
X140771607Y-194487023D01*
X140866845Y-194487023D01*
X141009702Y-194439404D01*
X141581130Y-193867976D01*
X141581130Y-194487023D01*
X140581130Y-194820357D02*
X140581130Y-195439404D01*
X140962083Y-195106071D01*
X140962083Y-195248928D01*
X141009702Y-195344166D01*
X141057321Y-195391785D01*
X141152559Y-195439404D01*
X141390654Y-195439404D01*
X141485892Y-195391785D01*
X141533511Y-195344166D01*
X141581130Y-195248928D01*
X141581130Y-194963214D01*
X141533511Y-194867976D01*
X141485892Y-194820357D01*
X189206130Y-175438214D02*
X188206130Y-175438214D01*
X188206130Y-175676309D01*
X188253750Y-175819166D01*
X188348988Y-175914404D01*
X188444226Y-175962023D01*
X188634702Y-176009642D01*
X188777559Y-176009642D01*
X188968035Y-175962023D01*
X189063273Y-175914404D01*
X189158511Y-175819166D01*
X189206130Y-175676309D01*
X189206130Y-175438214D01*
X188301369Y-176390595D02*
X188253750Y-176438214D01*
X188206130Y-176533452D01*
X188206130Y-176771547D01*
X188253750Y-176866785D01*
X188301369Y-176914404D01*
X188396607Y-176962023D01*
X188491845Y-176962023D01*
X188634702Y-176914404D01*
X189206130Y-176342976D01*
X189206130Y-176962023D01*
X188301369Y-177342976D02*
X188253750Y-177390595D01*
X188206130Y-177485833D01*
X188206130Y-177723928D01*
X188253750Y-177819166D01*
X188301369Y-177866785D01*
X188396607Y-177914404D01*
X188491845Y-177914404D01*
X188634702Y-177866785D01*
X189206130Y-177295357D01*
X189206130Y-177914404D01*
X179681130Y-155594464D02*
X178681130Y-155594464D01*
X178681130Y-155832559D01*
X178728750Y-155975416D01*
X178823988Y-156070654D01*
X178919226Y-156118273D01*
X179109702Y-156165892D01*
X179252559Y-156165892D01*
X179443035Y-156118273D01*
X179538273Y-156070654D01*
X179633511Y-155975416D01*
X179681130Y-155832559D01*
X179681130Y-155594464D01*
X178776369Y-156546845D02*
X178728750Y-156594464D01*
X178681130Y-156689702D01*
X178681130Y-156927797D01*
X178728750Y-157023035D01*
X178776369Y-157070654D01*
X178871607Y-157118273D01*
X178966845Y-157118273D01*
X179109702Y-157070654D01*
X179681130Y-156499226D01*
X179681130Y-157118273D01*
X179681130Y-158070654D02*
X179681130Y-157499226D01*
X179681130Y-157784940D02*
X178681130Y-157784940D01*
X178823988Y-157689702D01*
X178919226Y-157594464D01*
X178966845Y-157499226D01*
X174918630Y-137338214D02*
X173918630Y-137338214D01*
X173918630Y-137576309D01*
X173966250Y-137719166D01*
X174061488Y-137814404D01*
X174156726Y-137862023D01*
X174347202Y-137909642D01*
X174490059Y-137909642D01*
X174680535Y-137862023D01*
X174775773Y-137814404D01*
X174871011Y-137719166D01*
X174918630Y-137576309D01*
X174918630Y-137338214D01*
X174013869Y-138290595D02*
X173966250Y-138338214D01*
X173918630Y-138433452D01*
X173918630Y-138671547D01*
X173966250Y-138766785D01*
X174013869Y-138814404D01*
X174109107Y-138862023D01*
X174204345Y-138862023D01*
X174347202Y-138814404D01*
X174918630Y-138242976D01*
X174918630Y-138862023D01*
X173918630Y-139481071D02*
X173918630Y-139576309D01*
X173966250Y-139671547D01*
X174013869Y-139719166D01*
X174109107Y-139766785D01*
X174299583Y-139814404D01*
X174537678Y-139814404D01*
X174728154Y-139766785D01*
X174823392Y-139719166D01*
X174871011Y-139671547D01*
X174918630Y-139576309D01*
X174918630Y-139481071D01*
X174871011Y-139385833D01*
X174823392Y-139338214D01*
X174728154Y-139290595D01*
X174537678Y-139242976D01*
X174299583Y-139242976D01*
X174109107Y-139290595D01*
X174013869Y-139338214D01*
X173966250Y-139385833D01*
X173918630Y-139481071D01*
X165393630Y-117494464D02*
X164393630Y-117494464D01*
X164393630Y-117732559D01*
X164441250Y-117875416D01*
X164536488Y-117970654D01*
X164631726Y-118018273D01*
X164822202Y-118065892D01*
X164965059Y-118065892D01*
X165155535Y-118018273D01*
X165250773Y-117970654D01*
X165346011Y-117875416D01*
X165393630Y-117732559D01*
X165393630Y-117494464D01*
X165393630Y-119018273D02*
X165393630Y-118446845D01*
X165393630Y-118732559D02*
X164393630Y-118732559D01*
X164536488Y-118637321D01*
X164631726Y-118542083D01*
X164679345Y-118446845D01*
X165393630Y-119494464D02*
X165393630Y-119684940D01*
X165346011Y-119780178D01*
X165298392Y-119827797D01*
X165155535Y-119923035D01*
X164965059Y-119970654D01*
X164584107Y-119970654D01*
X164488869Y-119923035D01*
X164441250Y-119875416D01*
X164393630Y-119780178D01*
X164393630Y-119589702D01*
X164441250Y-119494464D01*
X164488869Y-119446845D01*
X164584107Y-119399226D01*
X164822202Y-119399226D01*
X164917440Y-119446845D01*
X164965059Y-119494464D01*
X165012678Y-119589702D01*
X165012678Y-119780178D01*
X164965059Y-119875416D01*
X164917440Y-119923035D01*
X164822202Y-119970654D01*
X170156130Y-175438214D02*
X169156130Y-175438214D01*
X169156130Y-175676309D01*
X169203750Y-175819166D01*
X169298988Y-175914404D01*
X169394226Y-175962023D01*
X169584702Y-176009642D01*
X169727559Y-176009642D01*
X169918035Y-175962023D01*
X170013273Y-175914404D01*
X170108511Y-175819166D01*
X170156130Y-175676309D01*
X170156130Y-175438214D01*
X170156130Y-176962023D02*
X170156130Y-176390595D01*
X170156130Y-176676309D02*
X169156130Y-176676309D01*
X169298988Y-176581071D01*
X169394226Y-176485833D01*
X169441845Y-176390595D01*
X169584702Y-177533452D02*
X169537083Y-177438214D01*
X169489464Y-177390595D01*
X169394226Y-177342976D01*
X169346607Y-177342976D01*
X169251369Y-177390595D01*
X169203750Y-177438214D01*
X169156130Y-177533452D01*
X169156130Y-177723928D01*
X169203750Y-177819166D01*
X169251369Y-177866785D01*
X169346607Y-177914404D01*
X169394226Y-177914404D01*
X169489464Y-177866785D01*
X169537083Y-177819166D01*
X169584702Y-177723928D01*
X169584702Y-177533452D01*
X169632321Y-177438214D01*
X169679940Y-177390595D01*
X169775178Y-177342976D01*
X169965654Y-177342976D01*
X170060892Y-177390595D01*
X170108511Y-177438214D01*
X170156130Y-177533452D01*
X170156130Y-177723928D01*
X170108511Y-177819166D01*
X170060892Y-177866785D01*
X169965654Y-177914404D01*
X169775178Y-177914404D01*
X169679940Y-177866785D01*
X169632321Y-177819166D01*
X169584702Y-177723928D01*
X160631130Y-155594464D02*
X159631130Y-155594464D01*
X159631130Y-155832559D01*
X159678750Y-155975416D01*
X159773988Y-156070654D01*
X159869226Y-156118273D01*
X160059702Y-156165892D01*
X160202559Y-156165892D01*
X160393035Y-156118273D01*
X160488273Y-156070654D01*
X160583511Y-155975416D01*
X160631130Y-155832559D01*
X160631130Y-155594464D01*
X160631130Y-157118273D02*
X160631130Y-156546845D01*
X160631130Y-156832559D02*
X159631130Y-156832559D01*
X159773988Y-156737321D01*
X159869226Y-156642083D01*
X159916845Y-156546845D01*
X159631130Y-157451607D02*
X159631130Y-158118273D01*
X160631130Y-157689702D01*
X155868630Y-137338214D02*
X154868630Y-137338214D01*
X154868630Y-137576309D01*
X154916250Y-137719166D01*
X155011488Y-137814404D01*
X155106726Y-137862023D01*
X155297202Y-137909642D01*
X155440059Y-137909642D01*
X155630535Y-137862023D01*
X155725773Y-137814404D01*
X155821011Y-137719166D01*
X155868630Y-137576309D01*
X155868630Y-137338214D01*
X155868630Y-138862023D02*
X155868630Y-138290595D01*
X155868630Y-138576309D02*
X154868630Y-138576309D01*
X155011488Y-138481071D01*
X155106726Y-138385833D01*
X155154345Y-138290595D01*
X154868630Y-139719166D02*
X154868630Y-139528690D01*
X154916250Y-139433452D01*
X154963869Y-139385833D01*
X155106726Y-139290595D01*
X155297202Y-139242976D01*
X155678154Y-139242976D01*
X155773392Y-139290595D01*
X155821011Y-139338214D01*
X155868630Y-139433452D01*
X155868630Y-139623928D01*
X155821011Y-139719166D01*
X155773392Y-139766785D01*
X155678154Y-139814404D01*
X155440059Y-139814404D01*
X155344821Y-139766785D01*
X155297202Y-139719166D01*
X155249583Y-139623928D01*
X155249583Y-139433452D01*
X155297202Y-139338214D01*
X155344821Y-139290595D01*
X155440059Y-139242976D01*
X146343630Y-117494464D02*
X145343630Y-117494464D01*
X145343630Y-117732559D01*
X145391250Y-117875416D01*
X145486488Y-117970654D01*
X145581726Y-118018273D01*
X145772202Y-118065892D01*
X145915059Y-118065892D01*
X146105535Y-118018273D01*
X146200773Y-117970654D01*
X146296011Y-117875416D01*
X146343630Y-117732559D01*
X146343630Y-117494464D01*
X146343630Y-119018273D02*
X146343630Y-118446845D01*
X146343630Y-118732559D02*
X145343630Y-118732559D01*
X145486488Y-118637321D01*
X145581726Y-118542083D01*
X145629345Y-118446845D01*
X145343630Y-119923035D02*
X145343630Y-119446845D01*
X145819821Y-119399226D01*
X145772202Y-119446845D01*
X145724583Y-119542083D01*
X145724583Y-119780178D01*
X145772202Y-119875416D01*
X145819821Y-119923035D01*
X145915059Y-119970654D01*
X146153154Y-119970654D01*
X146248392Y-119923035D01*
X146296011Y-119875416D01*
X146343630Y-119780178D01*
X146343630Y-119542083D01*
X146296011Y-119446845D01*
X146248392Y-119399226D01*
X117768630Y-192900714D02*
X116768630Y-192900714D01*
X116768630Y-193138809D01*
X116816250Y-193281666D01*
X116911488Y-193376904D01*
X117006726Y-193424523D01*
X117197202Y-193472142D01*
X117340059Y-193472142D01*
X117530535Y-193424523D01*
X117625773Y-193376904D01*
X117721011Y-193281666D01*
X117768630Y-193138809D01*
X117768630Y-192900714D01*
X117768630Y-194424523D02*
X117768630Y-193853095D01*
X117768630Y-194138809D02*
X116768630Y-194138809D01*
X116911488Y-194043571D01*
X117006726Y-193948333D01*
X117054345Y-193853095D01*
X117101964Y-195281666D02*
X117768630Y-195281666D01*
X116721011Y-195043571D02*
X117435297Y-194805476D01*
X117435297Y-195424523D01*
X151106130Y-175438214D02*
X150106130Y-175438214D01*
X150106130Y-175676309D01*
X150153750Y-175819166D01*
X150248988Y-175914404D01*
X150344226Y-175962023D01*
X150534702Y-176009642D01*
X150677559Y-176009642D01*
X150868035Y-175962023D01*
X150963273Y-175914404D01*
X151058511Y-175819166D01*
X151106130Y-175676309D01*
X151106130Y-175438214D01*
X151106130Y-176962023D02*
X151106130Y-176390595D01*
X151106130Y-176676309D02*
X150106130Y-176676309D01*
X150248988Y-176581071D01*
X150344226Y-176485833D01*
X150391845Y-176390595D01*
X150106130Y-177295357D02*
X150106130Y-177914404D01*
X150487083Y-177581071D01*
X150487083Y-177723928D01*
X150534702Y-177819166D01*
X150582321Y-177866785D01*
X150677559Y-177914404D01*
X150915654Y-177914404D01*
X151010892Y-177866785D01*
X151058511Y-177819166D01*
X151106130Y-177723928D01*
X151106130Y-177438214D01*
X151058511Y-177342976D01*
X151010892Y-177295357D01*
X141581130Y-155594464D02*
X140581130Y-155594464D01*
X140581130Y-155832559D01*
X140628750Y-155975416D01*
X140723988Y-156070654D01*
X140819226Y-156118273D01*
X141009702Y-156165892D01*
X141152559Y-156165892D01*
X141343035Y-156118273D01*
X141438273Y-156070654D01*
X141533511Y-155975416D01*
X141581130Y-155832559D01*
X141581130Y-155594464D01*
X141581130Y-157118273D02*
X141581130Y-156546845D01*
X141581130Y-156832559D02*
X140581130Y-156832559D01*
X140723988Y-156737321D01*
X140819226Y-156642083D01*
X140866845Y-156546845D01*
X140676369Y-157499226D02*
X140628750Y-157546845D01*
X140581130Y-157642083D01*
X140581130Y-157880178D01*
X140628750Y-157975416D01*
X140676369Y-158023035D01*
X140771607Y-158070654D01*
X140866845Y-158070654D01*
X141009702Y-158023035D01*
X141581130Y-157451607D01*
X141581130Y-158070654D01*
X136818630Y-137338214D02*
X135818630Y-137338214D01*
X135818630Y-137576309D01*
X135866250Y-137719166D01*
X135961488Y-137814404D01*
X136056726Y-137862023D01*
X136247202Y-137909642D01*
X136390059Y-137909642D01*
X136580535Y-137862023D01*
X136675773Y-137814404D01*
X136771011Y-137719166D01*
X136818630Y-137576309D01*
X136818630Y-137338214D01*
X136818630Y-138862023D02*
X136818630Y-138290595D01*
X136818630Y-138576309D02*
X135818630Y-138576309D01*
X135961488Y-138481071D01*
X136056726Y-138385833D01*
X136104345Y-138290595D01*
X136818630Y-139814404D02*
X136818630Y-139242976D01*
X136818630Y-139528690D02*
X135818630Y-139528690D01*
X135961488Y-139433452D01*
X136056726Y-139338214D01*
X136104345Y-139242976D01*
X127293630Y-117494464D02*
X126293630Y-117494464D01*
X126293630Y-117732559D01*
X126341250Y-117875416D01*
X126436488Y-117970654D01*
X126531726Y-118018273D01*
X126722202Y-118065892D01*
X126865059Y-118065892D01*
X127055535Y-118018273D01*
X127150773Y-117970654D01*
X127246011Y-117875416D01*
X127293630Y-117732559D01*
X127293630Y-117494464D01*
X127293630Y-119018273D02*
X127293630Y-118446845D01*
X127293630Y-118732559D02*
X126293630Y-118732559D01*
X126436488Y-118637321D01*
X126531726Y-118542083D01*
X126579345Y-118446845D01*
X126293630Y-119637321D02*
X126293630Y-119732559D01*
X126341250Y-119827797D01*
X126388869Y-119875416D01*
X126484107Y-119923035D01*
X126674583Y-119970654D01*
X126912678Y-119970654D01*
X127103154Y-119923035D01*
X127198392Y-119875416D01*
X127246011Y-119827797D01*
X127293630Y-119732559D01*
X127293630Y-119637321D01*
X127246011Y-119542083D01*
X127198392Y-119494464D01*
X127103154Y-119446845D01*
X126912678Y-119399226D01*
X126674583Y-119399226D01*
X126484107Y-119446845D01*
X126388869Y-119494464D01*
X126341250Y-119542083D01*
X126293630Y-119637321D01*
X132056130Y-175914404D02*
X131056130Y-175914404D01*
X131056130Y-176152500D01*
X131103750Y-176295357D01*
X131198988Y-176390595D01*
X131294226Y-176438214D01*
X131484702Y-176485833D01*
X131627559Y-176485833D01*
X131818035Y-176438214D01*
X131913273Y-176390595D01*
X132008511Y-176295357D01*
X132056130Y-176152500D01*
X132056130Y-175914404D01*
X132056130Y-176962023D02*
X132056130Y-177152500D01*
X132008511Y-177247738D01*
X131960892Y-177295357D01*
X131818035Y-177390595D01*
X131627559Y-177438214D01*
X131246607Y-177438214D01*
X131151369Y-177390595D01*
X131103750Y-177342976D01*
X131056130Y-177247738D01*
X131056130Y-177057261D01*
X131103750Y-176962023D01*
X131151369Y-176914404D01*
X131246607Y-176866785D01*
X131484702Y-176866785D01*
X131579940Y-176914404D01*
X131627559Y-176962023D01*
X131675178Y-177057261D01*
X131675178Y-177247738D01*
X131627559Y-177342976D01*
X131579940Y-177390595D01*
X131484702Y-177438214D01*
X122531130Y-156070654D02*
X121531130Y-156070654D01*
X121531130Y-156308750D01*
X121578750Y-156451607D01*
X121673988Y-156546845D01*
X121769226Y-156594464D01*
X121959702Y-156642083D01*
X122102559Y-156642083D01*
X122293035Y-156594464D01*
X122388273Y-156546845D01*
X122483511Y-156451607D01*
X122531130Y-156308750D01*
X122531130Y-156070654D01*
X121959702Y-157213511D02*
X121912083Y-157118273D01*
X121864464Y-157070654D01*
X121769226Y-157023035D01*
X121721607Y-157023035D01*
X121626369Y-157070654D01*
X121578750Y-157118273D01*
X121531130Y-157213511D01*
X121531130Y-157403988D01*
X121578750Y-157499226D01*
X121626369Y-157546845D01*
X121721607Y-157594464D01*
X121769226Y-157594464D01*
X121864464Y-157546845D01*
X121912083Y-157499226D01*
X121959702Y-157403988D01*
X121959702Y-157213511D01*
X122007321Y-157118273D01*
X122054940Y-157070654D01*
X122150178Y-157023035D01*
X122340654Y-157023035D01*
X122435892Y-157070654D01*
X122483511Y-157118273D01*
X122531130Y-157213511D01*
X122531130Y-157403988D01*
X122483511Y-157499226D01*
X122435892Y-157546845D01*
X122340654Y-157594464D01*
X122150178Y-157594464D01*
X122054940Y-157546845D01*
X122007321Y-157499226D01*
X121959702Y-157403988D01*
X117768630Y-137814404D02*
X116768630Y-137814404D01*
X116768630Y-138052500D01*
X116816250Y-138195357D01*
X116911488Y-138290595D01*
X117006726Y-138338214D01*
X117197202Y-138385833D01*
X117340059Y-138385833D01*
X117530535Y-138338214D01*
X117625773Y-138290595D01*
X117721011Y-138195357D01*
X117768630Y-138052500D01*
X117768630Y-137814404D01*
X116768630Y-138719166D02*
X116768630Y-139385833D01*
X117768630Y-138957261D01*
X108243630Y-118033154D02*
X107243630Y-118033154D01*
X107243630Y-118271250D01*
X107291250Y-118414107D01*
X107386488Y-118509345D01*
X107481726Y-118556964D01*
X107672202Y-118604583D01*
X107815059Y-118604583D01*
X108005535Y-118556964D01*
X108100773Y-118509345D01*
X108196011Y-118414107D01*
X108243630Y-118271250D01*
X108243630Y-118033154D01*
X107243630Y-119461726D02*
X107243630Y-119271250D01*
X107291250Y-119176011D01*
X107338869Y-119128392D01*
X107481726Y-119033154D01*
X107672202Y-118985535D01*
X108053154Y-118985535D01*
X108148392Y-119033154D01*
X108196011Y-119080773D01*
X108243630Y-119176011D01*
X108243630Y-119366488D01*
X108196011Y-119461726D01*
X108148392Y-119509345D01*
X108053154Y-119556964D01*
X107815059Y-119556964D01*
X107719821Y-119509345D01*
X107672202Y-119461726D01*
X107624583Y-119366488D01*
X107624583Y-119176011D01*
X107672202Y-119080773D01*
X107719821Y-119033154D01*
X107815059Y-118985535D01*
X95543630Y-193376904D02*
X94543630Y-193376904D01*
X94543630Y-193615000D01*
X94591250Y-193757857D01*
X94686488Y-193853095D01*
X94781726Y-193900714D01*
X94972202Y-193948333D01*
X95115059Y-193948333D01*
X95305535Y-193900714D01*
X95400773Y-193853095D01*
X95496011Y-193757857D01*
X95543630Y-193615000D01*
X95543630Y-193376904D01*
X94543630Y-194853095D02*
X94543630Y-194376904D01*
X95019821Y-194329285D01*
X94972202Y-194376904D01*
X94924583Y-194472142D01*
X94924583Y-194710238D01*
X94972202Y-194805476D01*
X95019821Y-194853095D01*
X95115059Y-194900714D01*
X95353154Y-194900714D01*
X95448392Y-194853095D01*
X95496011Y-194805476D01*
X95543630Y-194710238D01*
X95543630Y-194472142D01*
X95496011Y-194376904D01*
X95448392Y-194329285D01*
X111418630Y-175914404D02*
X110418630Y-175914404D01*
X110418630Y-176152500D01*
X110466250Y-176295357D01*
X110561488Y-176390595D01*
X110656726Y-176438214D01*
X110847202Y-176485833D01*
X110990059Y-176485833D01*
X111180535Y-176438214D01*
X111275773Y-176390595D01*
X111371011Y-176295357D01*
X111418630Y-176152500D01*
X111418630Y-175914404D01*
X110751964Y-177342976D02*
X111418630Y-177342976D01*
X110371011Y-177104880D02*
X111085297Y-176866785D01*
X111085297Y-177485833D01*
X101099880Y-156070654D02*
X100099880Y-156070654D01*
X100099880Y-156308750D01*
X100147500Y-156451607D01*
X100242738Y-156546845D01*
X100337976Y-156594464D01*
X100528452Y-156642083D01*
X100671309Y-156642083D01*
X100861785Y-156594464D01*
X100957023Y-156546845D01*
X101052261Y-156451607D01*
X101099880Y-156308750D01*
X101099880Y-156070654D01*
X100099880Y-156975416D02*
X100099880Y-157594464D01*
X100480833Y-157261130D01*
X100480833Y-157403988D01*
X100528452Y-157499226D01*
X100576071Y-157546845D01*
X100671309Y-157594464D01*
X100909404Y-157594464D01*
X101004642Y-157546845D01*
X101052261Y-157499226D01*
X101099880Y-157403988D01*
X101099880Y-157118273D01*
X101052261Y-157023035D01*
X101004642Y-156975416D01*
X97924880Y-137814404D02*
X96924880Y-137814404D01*
X96924880Y-138052500D01*
X96972500Y-138195357D01*
X97067738Y-138290595D01*
X97162976Y-138338214D01*
X97353452Y-138385833D01*
X97496309Y-138385833D01*
X97686785Y-138338214D01*
X97782023Y-138290595D01*
X97877261Y-138195357D01*
X97924880Y-138052500D01*
X97924880Y-137814404D01*
X97020119Y-138766785D02*
X96972500Y-138814404D01*
X96924880Y-138909642D01*
X96924880Y-139147738D01*
X96972500Y-139242976D01*
X97020119Y-139290595D01*
X97115357Y-139338214D01*
X97210595Y-139338214D01*
X97353452Y-139290595D01*
X97924880Y-138719166D01*
X97924880Y-139338214D01*
X73867380Y-117316904D02*
X72867380Y-117316904D01*
X72867380Y-117555000D01*
X72915000Y-117697857D01*
X73010238Y-117793095D01*
X73105476Y-117840714D01*
X73295952Y-117888333D01*
X73438809Y-117888333D01*
X73629285Y-117840714D01*
X73724523Y-117793095D01*
X73819761Y-117697857D01*
X73867380Y-117555000D01*
X73867380Y-117316904D01*
X73867380Y-118840714D02*
X73867380Y-118269285D01*
X73867380Y-118555000D02*
X72867380Y-118555000D01*
X73010238Y-118459761D01*
X73105476Y-118364523D01*
X73153095Y-118269285D01*
X172157142Y-200218333D02*
X172204761Y-200170714D01*
X172252380Y-200027857D01*
X172252380Y-199932619D01*
X172204761Y-199789761D01*
X172109523Y-199694523D01*
X172014285Y-199646904D01*
X171823809Y-199599285D01*
X171680952Y-199599285D01*
X171490476Y-199646904D01*
X171395238Y-199694523D01*
X171300000Y-199789761D01*
X171252380Y-199932619D01*
X171252380Y-200027857D01*
X171300000Y-200170714D01*
X171347619Y-200218333D01*
X171252380Y-200551666D02*
X171252380Y-201218333D01*
X172252380Y-200789761D01*
X193713392Y-188962083D02*
X193761011Y-188914464D01*
X193808630Y-188771607D01*
X193808630Y-188676369D01*
X193761011Y-188533511D01*
X193665773Y-188438273D01*
X193570535Y-188390654D01*
X193380059Y-188343035D01*
X193237202Y-188343035D01*
X193046726Y-188390654D01*
X192951488Y-188438273D01*
X192856250Y-188533511D01*
X192808630Y-188676369D01*
X192808630Y-188771607D01*
X192856250Y-188914464D01*
X192903869Y-188962083D01*
X192808630Y-189819226D02*
X192808630Y-189628750D01*
X192856250Y-189533511D01*
X192903869Y-189485892D01*
X193046726Y-189390654D01*
X193237202Y-189343035D01*
X193618154Y-189343035D01*
X193713392Y-189390654D01*
X193761011Y-189438273D01*
X193808630Y-189533511D01*
X193808630Y-189723988D01*
X193761011Y-189819226D01*
X193713392Y-189866845D01*
X193618154Y-189914464D01*
X193380059Y-189914464D01*
X193284821Y-189866845D01*
X193237202Y-189819226D01*
X193189583Y-189723988D01*
X193189583Y-189533511D01*
X193237202Y-189438273D01*
X193284821Y-189390654D01*
X193380059Y-189343035D01*
X170100892Y-189787083D02*
X170148511Y-189739464D01*
X170196130Y-189596607D01*
X170196130Y-189501369D01*
X170148511Y-189358511D01*
X170053273Y-189263273D01*
X169958035Y-189215654D01*
X169767559Y-189168035D01*
X169624702Y-189168035D01*
X169434226Y-189215654D01*
X169338988Y-189263273D01*
X169243750Y-189358511D01*
X169196130Y-189501369D01*
X169196130Y-189596607D01*
X169243750Y-189739464D01*
X169291369Y-189787083D01*
X169196130Y-190691845D02*
X169196130Y-190215654D01*
X169672321Y-190168035D01*
X169624702Y-190215654D01*
X169577083Y-190310892D01*
X169577083Y-190548988D01*
X169624702Y-190644226D01*
X169672321Y-190691845D01*
X169767559Y-190739464D01*
X170005654Y-190739464D01*
X170100892Y-190691845D01*
X170148511Y-190644226D01*
X170196130Y-190548988D01*
X170196130Y-190310892D01*
X170148511Y-190215654D01*
X170100892Y-190168035D01*
X188032142Y-201012083D02*
X188079761Y-200964464D01*
X188127380Y-200821607D01*
X188127380Y-200726369D01*
X188079761Y-200583511D01*
X187984523Y-200488273D01*
X187889285Y-200440654D01*
X187698809Y-200393035D01*
X187555952Y-200393035D01*
X187365476Y-200440654D01*
X187270238Y-200488273D01*
X187175000Y-200583511D01*
X187127380Y-200726369D01*
X187127380Y-200821607D01*
X187175000Y-200964464D01*
X187222619Y-201012083D01*
X187460714Y-201869226D02*
X188127380Y-201869226D01*
X187079761Y-201631130D02*
X187794047Y-201393035D01*
X187794047Y-202012083D01*
X174663392Y-183693333D02*
X174711011Y-183645714D01*
X174758630Y-183502857D01*
X174758630Y-183407619D01*
X174711011Y-183264761D01*
X174615773Y-183169523D01*
X174520535Y-183121904D01*
X174330059Y-183074285D01*
X174187202Y-183074285D01*
X173996726Y-183121904D01*
X173901488Y-183169523D01*
X173806250Y-183264761D01*
X173758630Y-183407619D01*
X173758630Y-183502857D01*
X173806250Y-183645714D01*
X173853869Y-183693333D01*
X174758630Y-184645714D02*
X174758630Y-184074285D01*
X174758630Y-184360000D02*
X173758630Y-184360000D01*
X173901488Y-184264761D01*
X173996726Y-184169523D01*
X174044345Y-184074285D01*
M02*
